<svg width="400" height="400" viewBox="0 0 400 400" fill="none" xmlns="http://www.w3.org/2000/svg">
  <g opacity="0.08">
    <path fill-rule="evenodd" clip-rule="evenodd" d="M179.962 24.571C178.669 24.2371 177.369 23.9015 176.023 24.0269C169.734 25.7075 163.612 27.7531 157.457 29.8094C156.435 30.1509 155.412 30.4927 154.388 30.8331C153.463 31.1404 152.502 31.4277 151.529 31.7185C148.72 32.5579 145.814 33.4265 143.405 34.8883C141.133 36.2678 139.325 38.2893 138.004 40.5792C134.592 46.4938 132.055 56.8271 131.471 63.6862C129.227 63.049 126.972 62.4459 124.718 61.8427C121.592 61.0061 118.465 60.1695 115.366 59.242L101.249 54.9486C100.461 54.7069 99.6344 54.425 98.7866 54.1359C96.227 53.2631 93.4737 52.3241 90.9963 52.2256C90.0589 52.1882 88.9458 52.5117 88.0022 52.7859C87.8823 52.8207 87.7652 52.8547 87.6516 52.8871C79.6053 55.1779 71.6166 57.7936 63.642 60.4048C60.3023 61.4984 56.9644 62.5913 53.6264 63.659C52.2794 64.09 50.7209 64.5236 49.0928 64.9766C45.2843 66.0362 41.0945 67.2018 38.34 68.6876C38.1796 68.7739 38.0238 68.8692 37.8713 68.9692C36.9605 71.2741 36.6317 73.7965 36.3093 76.2701C36.2381 76.8166 36.1671 77.3608 36.0903 77.8997C34.1597 91.4414 34.0821 105.051 36.5424 118.532C36.9255 120.542 37.3966 122.532 37.9556 124.501C38.1333 125.113 38.338 125.734 38.5448 126.36C39.1332 128.143 39.7382 129.977 39.7847 131.805C39.8465 134.238 39.5821 136.735 39.3192 139.218C39.1651 140.673 39.0115 142.124 38.9244 143.554C38.4269 151.884 38.0702 160.221 37.8543 168.563C37.4568 182.316 37.4014 196.071 37.6882 209.828C37.975 223.584 38.6036 237.325 39.574 251.05L40.3944 263.026C40.4424 263.746 40.4769 264.491 40.5119 265.249C40.6378 267.972 40.7713 270.859 41.5678 273.326C44.7814 275.384 49.7155 277.276 54.1541 278.978C55.9737 279.676 57.7101 280.342 59.2105 280.975L98.5357 297.642C142.978 316.551 187.272 335.798 231.419 355.382L261.838 368.424C265.663 370.088 269.506 371.708 273.368 373.284C273.82 373.469 274.276 373.662 274.737 373.856C276.59 374.639 278.507 375.449 280.43 375.877C281.956 376.216 283.515 375.806 284.933 375.23C289.89 373.214 294.609 370.646 299.313 368.085L299.314 368.084L299.326 368.078C300.64 367.362 301.954 366.647 303.271 365.945C310.418 362.13 317.604 358.391 324.83 354.727L348.082 342.833C349.408 342.165 350.753 341.512 352.102 340.857L352.105 340.855C355.496 339.209 358.91 337.552 362.099 335.622C363.239 334.933 364.366 333.925 364.853 332.657C365.329 331.418 365.348 330.011 365.329 328.7C365.206 320.737 364.828 312.78 364.45 304.823C364.179 299.123 363.908 293.422 363.732 287.719L359.46 154.993C359.397 152.837 359.362 150.686 359.327 148.537L359.326 148.531C359.258 144.366 359.189 140.206 358.92 136.033C358.779 133.842 358.33 131.697 357.372 129.71C355.579 125.989 352.452 123.963 348.654 122.667C346.045 121.776 343.36 121.049 340.685 120.325C339.628 120.039 338.573 119.753 337.524 119.458L318.999 114.153L286.702 104.797C284.465 104.138 282.237 103.45 280.008 102.763C276.758 101.759 273.507 100.756 270.231 99.8445C270 97.5683 269.791 95.0055 269.569 92.2805C268.683 81.4067 267.587 67.9486 264.059 59.7999C263.841 59.2881 263.608 58.7831 263.361 58.285C263.113 57.787 262.851 57.2968 262.574 56.8144C262.297 56.332 262.006 55.8584 261.7 55.3934C261.395 54.9284 261.076 54.4729 260.744 54.0268C260.412 53.5807 260.066 53.145 259.708 52.7196C259.349 52.2941 258.979 51.8796 258.595 51.4763C258.212 51.0729 257.818 50.6813 257.411 50.3014C257.005 49.9217 256.587 49.5543 256.159 49.1994C253.522 47.0493 250.503 45.512 247.322 44.3355C244.254 43.2008 241.075 42.3427 237.91 41.4884C237.1 41.2698 236.291 41.0515 235.486 40.8288C230.734 39.5138 225.996 38.1526 221.27 36.7454L192.976 28.3298C191.754 27.9715 190.531 27.6046 189.308 27.2373C186.259 26.3223 183.203 25.4053 180.13 24.6144L179.962 24.571ZM46.3137 169.105C46.5939 158.93 46.88 148.538 48.2018 138.489C48.9365 139.178 49.9369 141.314 50.7647 143.08C51.1485 143.9 51.4952 144.64 51.7611 145.119C53.1502 147.627 54.6329 150.118 56.1628 152.543C59.4774 157.797 63.3985 163.017 67.4451 167.731C68.5748 169.046 69.7491 170.322 70.9235 171.598C71.961 172.725 72.9984 173.851 74.0052 175.006C73.3349 180.519 72.8079 186.29 72.6686 191.838L72.7666 191.931C75.2612 194.326 91.0794 201.351 94.4358 201.932C94.7723 201.99 95.3443 202.068 95.6156 201.823C96.8445 200.716 97.0792 197.223 97.2316 194.955C97.2625 194.495 97.29 194.085 97.3217 193.756C102.845 197.66 109.014 200.809 115.096 203.913L115.099 203.915L115.104 203.917C116.67 204.717 118.23 205.513 119.772 206.319C119.727 207.055 119.664 207.967 119.593 208.996L119.593 209C119.216 214.461 118.611 223.223 119.288 226.647C120.093 227.189 120.826 227.572 121.743 227.896C121.75 228.726 121.673 230.05 121.585 231.552C121.379 235.054 121.117 239.522 121.741 240.932C122.157 241.874 123.486 242.507 124.416 242.95L124.517 242.998C127.008 244.189 129.592 245.224 132.174 246.258C133.972 246.979 135.769 247.699 137.534 248.471L148.361 253.176C148.914 253.416 149.469 253.666 150.026 253.916C151.511 254.585 153.011 255.26 154.531 255.775C155.3 256.036 156.352 256.377 157.146 256.098C158.353 254.749 158.202 250.961 158.066 247.536C157.986 245.54 157.912 243.667 158.114 242.471L159.539 241.772C160.201 239.066 160.348 235.306 160.487 231.744C160.565 229.761 160.64 227.84 160.801 226.196C162.6 226.492 164.404 226.748 166.215 226.964C168.025 227.18 169.84 227.355 171.658 227.491C173.476 227.626 175.296 227.721 177.119 227.775C178.941 227.829 180.764 227.843 182.587 227.816C184.41 227.79 186.232 227.722 188.052 227.615C189.872 227.507 191.689 227.359 193.502 227.17C195.316 226.982 197.124 226.754 198.927 226.485C200.731 226.216 202.527 225.907 204.317 225.559C204.316 227.242 204.112 228.931 203.908 230.619C203.763 231.816 203.618 233.013 203.546 234.206C203.493 235.079 203.403 236.943 204.044 237.57C204.565 238.079 205.354 238.46 206.02 238.782L206.094 238.817C208.141 239.807 210.27 240.672 212.394 241.535L212.395 241.536C213.672 242.054 214.948 242.573 216.203 243.117C217.254 243.573 218.299 244.063 219.346 244.553C221.246 245.444 223.152 246.338 225.109 247.034C225.901 247.317 226.612 247.534 227.463 247.473C227.823 247.182 227.873 246.932 227.955 246.529C227.966 246.476 227.977 246.42 227.99 246.36C228.513 243.917 228.789 241.333 229.061 238.789L229.061 238.786C229.172 237.752 229.281 236.725 229.407 235.716L231.735 216.512C248.781 210.078 266.19 197.75 276.031 182.204C278.492 178.316 280.4 174.045 282.283 169.83L282.286 169.824C282.613 169.091 282.94 168.36 283.269 167.632C283.146 169.078 283.088 170.54 283.03 172L283.03 172.006C282.993 172.929 282.956 173.853 282.903 174.771L281.969 191.525C281.15 208.132 280.504 224.746 280.032 241.366C279.7 243.722 279.674 246.226 279.649 248.677V248.678C279.639 249.617 279.63 250.549 279.603 251.461L279.067 270.385L277.783 336.657L277.507 353.519C277.497 354.242 277.489 354.968 277.481 355.694L277.481 355.711C277.445 359.029 277.41 362.367 277.153 365.665C267.703 362.018 258.41 357.872 249.137 353.735L249.136 353.735C245.849 352.268 242.565 350.803 239.276 349.361L179.221 323.218L87.7713 283.857C82.991 281.801 78.1836 279.791 73.3749 277.782L73.3728 277.781C65.17 274.352 56.9634 270.922 48.8815 267.257C48.7543 264.567 48.5041 261.87 48.2543 259.175C48.101 257.522 47.9478 255.87 47.8231 254.221C47.2525 246.462 46.7909 238.697 46.4384 230.926C45.6098 211.183 45.5443 191.438 46.2419 171.69C46.2662 170.831 46.2899 169.97 46.3136 169.107L46.3137 169.105ZM57.8087 71.5172C65.8849 69.1161 73.9372 66.6374 81.9656 64.0813C82.2697 64.0458 83.0526 64.4526 83.7375 64.8084C84.1219 65.0081 84.4753 65.1917 84.696 65.2721C87.3249 66.2308 90.0492 67.011 92.7442 67.7829L93.4358 67.9811C103.87 70.9745 114.353 73.8232 124.835 76.6717C131.28 78.4234 137.726 80.175 144.159 81.96L216.77 102.387C240.949 108.927 265.203 115.179 289.531 121.143C294.029 122.267 298.501 123.473 302.972 124.679C309.674 126.487 316.375 128.295 323.158 129.825C321.418 130.663 319.519 131.295 317.655 131.916C317.102 132.099 316.553 132.282 316.012 132.469C313.467 133.347 310.87 134.161 308.267 134.978C303.298 136.537 298.304 138.103 293.591 140.136C286.277 143.291 284.453 150.428 282.661 157.439L282.66 157.444L282.659 157.448C282.503 158.058 282.348 158.666 282.189 159.271C281.473 162.02 280.591 164.715 279.542 167.355C272.229 185.691 258.212 199.436 240.844 208.456C238.253 209.802 235.581 210.947 232.9 212.096C232.645 212.205 232.39 212.315 232.134 212.424C232.49 209.712 232.771 206.979 233.052 204.248L233.052 204.246C233.222 202.589 233.392 200.933 233.579 199.283L237.435 165.307L239.455 149.233C239.59 148.188 239.767 147.091 239.949 145.967C240.516 142.452 241.126 138.674 240.615 135.418C240.025 135.033 239.411 134.788 238.745 134.569C236.152 133.719 233.458 133.03 230.777 132.345C229.351 131.981 227.929 131.617 226.528 131.231C225.548 130.961 224.547 130.655 223.535 130.346L223.534 130.346C220.996 129.57 218.388 128.773 215.859 128.462C215.447 128.412 215.146 128.424 214.768 128.616C213.103 131.236 211.468 153.946 211.133 158.6L211.124 158.715C210.932 161.305 210.64 163.888 210.348 166.47L210.347 166.471C210.193 167.836 210.039 169.2 209.899 170.565L207.55 193.775C207.199 197.2 206.897 200.64 206.594 204.082C206.08 209.933 205.565 215.79 204.811 221.591C202.112 222.341 199.209 222.718 196.422 223.08L196.019 223.132C194.565 223.328 193.108 223.496 191.647 223.637C190.186 223.777 188.723 223.889 187.258 223.973C185.793 224.057 184.327 224.113 182.86 224.141C181.392 224.168 179.925 224.168 178.458 224.139C176.991 224.11 175.525 224.053 174.06 223.968C172.595 223.883 171.132 223.769 169.671 223.628C168.21 223.486 166.753 223.317 165.299 223.12C163.845 222.922 162.395 222.696 160.95 222.443C160.988 222 161.04 221.439 161.1 220.797L161.1 220.792C161.441 217.136 162.026 210.861 161.599 208.763C160.7 208.084 159.768 207.619 158.737 207.184C154.814 205.531 150.779 204.075 146.751 202.622L146.749 202.621C144.57 201.835 142.393 201.049 140.237 200.234C139.48 199.947 138.323 199.488 136.948 198.941C132.016 196.981 124.273 193.903 122.026 193.679C121.694 193.646 121.355 193.637 121.099 193.874C119.902 194.982 119.924 198.647 119.938 200.972C119.941 201.463 119.944 201.895 119.934 202.23C117.981 201.117 115.98 200.07 113.979 199.023L113.977 199.021L113.976 199.021C112.432 198.213 110.889 197.405 109.367 196.567C106.316 194.887 103.322 193.089 100.333 191.293C99.4862 190.785 98.6396 190.276 97.7921 189.771C97.9079 187.552 98.206 185.295 98.5025 183.051L98.5026 183.05C98.667 181.806 98.8309 180.565 98.9629 179.337L107.956 99.7796C107.965 99.6939 107.98 99.577 107.997 99.439C108.093 98.6954 108.268 97.3398 108.012 96.9677C107.599 96.3679 106.628 95.9748 105.964 95.7057L105.931 95.6924C103.573 94.7386 101.058 94.0225 98.5716 93.3145C97.5874 93.0343 96.6073 92.7553 95.6435 92.4633C94.3658 92.0761 93.0932 91.6567 91.8203 91.2373C90.0628 90.6581 88.3047 90.0788 86.5319 89.5837C86.4461 89.5597 86.3577 89.5337 86.2675 89.5072C85.6021 89.3116 84.837 89.0866 84.2404 89.4205C83.0616 91.9098 82.4531 97.6583 81.9967 101.969C81.861 103.252 81.7387 104.407 81.6189 105.311C78.7978 126.767 76.4455 148.274 74.5619 169.832C69.4334 165.365 65.0956 159.201 61.3003 153.609C48.3998 134.601 42.3658 117.697 43.3211 94.6524C43.4278 91.425 43.6596 88.2067 44.0166 84.9974C44.3736 81.7881 44.8547 78.5974 45.4598 75.4253C47.8874 74.7287 50.2984 73.94 52.7084 73.1516C54.407 72.5959 56.1054 72.0403 57.8087 71.5172ZM346.576 277.417C346.118 267.313 345.76 259.392 345.716 257.892L344.687 227.345L342.112 146.703C338.069 148.097 333.985 149.322 329.898 150.547C327.84 151.164 325.782 151.782 323.727 152.421C313.971 155.512 304.195 158.537 294.398 161.494C294.062 165.313 293.923 169.148 293.784 172.983C293.707 175.128 293.629 177.273 293.517 179.414C292.736 194.717 292.061 210.024 291.491 225.337C290.919 240.081 290.455 254.829 290.099 269.58C289.938 274.882 289.815 280.185 289.732 285.489C289.715 286.199 289.617 289.799 289.475 295.044C289.435 296.494 289.392 298.07 289.347 299.745C289.165 304.909 289.04 310.074 288.928 315.239C288.529 330.132 288.097 346.516 287.936 353.939C287.924 354.415 287.914 354.89 287.907 355.366C287.88 356.685 287.868 357.552 287.872 357.864L287.901 357.851C287.901 357.856 287.901 357.862 287.901 357.867C289.847 357.144 291.751 356.233 293.645 355.326C294.594 354.872 295.541 354.419 296.49 353.991C302.727 351.211 308.943 348.383 315.136 345.507C318.977 343.754 322.848 342.06 326.72 340.365L326.724 340.363L326.725 340.362C329.84 338.999 332.957 337.634 336.058 336.239L342.275 333.577C343.162 333.147 343.978 332.842 344.761 332.549C346.147 332.031 347.426 331.553 348.803 330.495C348.841 327.598 347.632 300.762 346.715 280.494C346.677 279.467 346.632 278.441 346.576 277.417ZM216.018 145.148C216.408 140.913 216.822 136.423 217.618 132.559C221.239 133.924 225.202 134.889 229.147 135.851C231.879 136.516 234.603 137.18 237.198 137.972C236.769 142.171 236.228 146.368 235.687 150.565L235.687 150.566C235.295 153.602 234.904 156.637 234.555 159.673L225.278 240.999C225.155 241.554 225.129 242.139 225.104 242.715C225.097 242.876 225.089 243.038 225.08 243.197C219.232 240.388 213.317 237.726 207.336 235.212C207.441 230.158 208.02 224.794 208.581 219.589L208.582 219.586C208.752 218.003 208.922 216.434 209.076 214.893L215.61 149.377C215.753 148.021 215.884 146.599 216.018 145.148ZM85.255 105.356C85.7156 101.519 86.1801 97.6506 86.9784 93.9097C92.6538 95.786 98.573 97.577 104.367 99.0365C103.619 107.168 102.597 115.296 101.576 123.417L101.576 123.42C101.005 127.955 100.435 132.489 99.9128 137.021L93.376 197.073L93.286 197.473L93.0535 197.581C88.4326 195.782 83.9388 193.666 79.4511 191.553L79.4492 191.552C78.4915 191.101 77.5342 190.651 76.5759 190.203C76.6012 188.486 76.7461 186.755 76.8904 185.03C76.9475 184.348 77.0045 183.667 77.054 182.988C77.3453 178.698 77.683 174.412 78.067 170.129C79.0223 159.252 80.1115 148.389 81.3345 137.54C82.4032 128.099 83.5498 118.667 84.7743 109.245C84.9427 107.956 85.0986 106.658 85.255 105.356ZM165.024 36.1751C169.027 34.9217 173.032 33.6676 176.961 32.1896C177.124 32.2004 177.293 32.2252 177.455 32.2491L177.506 32.2566C179.81 32.5929 182.151 33.4068 184.427 34.1983C185.282 34.4955 186.128 34.7896 186.959 35.0541C191.094 36.3469 195.246 37.5849 199.414 38.768L231.589 48.2052C232.99 48.6146 234.504 49.0094 236.059 49.4149C240.154 50.4832 244.536 51.6261 247.901 53.3087C250.838 54.7772 252.984 57.3672 254.905 59.9471C253.33 60.4927 251.761 61.0451 250.193 61.5972C246.512 62.8928 242.836 64.1869 239.112 65.3874C238.649 65.5369 238.164 65.7074 237.668 65.882C236.109 66.431 234.431 67.0218 232.901 67.1354C232.422 67.1708 231.945 67.0206 231.493 66.8782L231.448 66.8639C218.849 62.3741 206.132 58.2121 193.415 54.0503C179.809 49.5976 166.203 45.1449 152.744 40.2914C156.778 38.7573 160.9 37.4666 165.024 36.1751ZM163.26 71.4476C163.901 65.3871 165.444 59.6814 167.758 54.0475C178.394 57.342 188.916 61.0139 199.436 64.6854C211.64 68.9444 223.843 73.2029 236.221 76.8713C238.487 81.7476 239.126 87.0469 239.084 92.3658L235.664 91.2649C230.797 90.006 225.946 88.6357 221.097 87.2662C218.268 86.4672 215.441 85.6685 212.611 84.8922L163.26 71.4476ZM123.404 204.533C123.464 202.41 123.526 200.169 124.05 198.293C134.693 201.812 145.212 205.952 155.657 210.063L155.659 210.064L158.067 211.012C157.971 213.606 157.763 216.207 157.556 218.804C157.471 219.876 157.385 220.947 157.307 222.017C156.968 227.175 156.557 232.326 156.074 237.472L155.916 237.839C152.819 237.208 147.879 235.04 143.876 233.284C142.625 232.735 141.466 232.226 140.483 231.817C138.032 230.797 135.562 229.809 133.091 228.822C129.558 227.41 126.025 225.998 122.546 224.488C122.509 223.394 122.574 222.276 122.638 221.166C122.671 220.6 122.703 220.036 122.722 219.478C122.84 215.25 123.038 211.026 123.317 206.805C123.361 206.08 123.382 205.314 123.404 204.533ZM235.879 70.0161C242.841 67.8745 249.758 65.5984 256.63 63.1878C259.934 67.0589 262.917 103.482 263.194 110.547C257.682 109.288 252.201 107.907 246.75 106.407C246.607 106.372 246.463 106.337 246.32 106.302C245.265 106.045 244.213 105.788 243.132 105.658C243.001 103.236 243.002 100.807 243.003 98.375C243.003 95.9482 243.004 93.5187 242.874 91.0945C242.483 83.8211 241.619 75.1763 235.879 70.0161ZM350.174 282.011L346.57 176.554C346.502 176.113 346.489 175.653 346.477 175.199V175.197C346.473 175.074 346.47 174.952 346.466 174.832C346.464 174.794 346.463 174.756 346.461 174.718C346.498 172.122 346.336 169.504 346.175 166.899L346.175 166.895C346.121 166.026 346.067 165.16 346.021 164.296L345.974 163.412C345.657 157.502 345.341 151.598 345.285 145.677C346.944 145.151 348.587 144.691 350.281 144.288C350.644 146.944 350.731 149.674 350.817 152.368C350.833 152.868 350.849 153.367 350.867 153.863C351.036 158.479 351.16 163.096 351.239 167.714C351.314 169.694 351.357 171.675 351.369 173.656L354.474 269.329L355.784 307.338C355.855 309.368 355.941 311.401 356.027 313.436C356.222 318.043 356.417 322.656 356.44 327.256C355.878 327.464 355.324 327.704 354.771 327.945C353.959 328.298 353.145 328.652 352.302 328.903C351.579 324.574 351.483 320.008 351.389 315.525C351.356 313.971 351.324 312.428 351.265 310.907L350.174 282.011ZM138.102 76.6531C137.965 66.4187 139.713 55.4152 144.294 46.1962C149.614 47.7493 154.843 49.5652 159.98 51.6441C157.822 57.7442 156.181 63.8682 155.341 70.2938C155.154 71.7205 155.033 73.1582 154.912 74.5959C154.746 76.5708 154.58 78.5462 154.243 80.493L154.184 80.8297C150.684 79.996 147.204 79.0671 143.725 78.1385C141.851 77.6383 139.978 77.1382 138.102 76.6531ZM283.924 364.63C282.952 365.382 281.926 365.799 280.781 366.206C280.561 363.789 280.672 361.289 280.78 358.838L280.78 358.831C280.803 358.307 280.826 357.786 280.846 357.269C280.95 354.219 281.025 351.168 281.07 348.117L281.656 312.006L282.702 264.518C282.759 262.694 282.801 260.857 282.843 259.012C282.97 253.438 283.099 247.803 283.647 242.318C283.785 245.783 284.904 272.376 286.125 274.176C286.447 275.678 286.245 278.686 286.075 281.232L286.075 281.234C285.999 282.367 285.929 283.411 285.915 284.188C285.67 296.509 285.36 308.83 284.983 321.148L284.392 348.414C284.367 349.814 284.358 351.23 284.348 352.652V352.655C284.321 356.658 284.293 360.714 283.924 364.63ZM125.187 237.264C125.127 234.679 125.065 232.04 125.293 229.496C127.391 230.385 129.49 231.285 131.592 232.188L131.596 232.189C138.999 235.367 146.44 238.561 153.986 241.276C154.39 244.514 154.308 247.93 154.228 251.203L154.219 251.585C153.055 250.986 151.828 250.453 150.605 249.921C149.861 249.598 149.119 249.275 148.394 248.939C140.747 245.395 133.018 242.205 125.225 239.008C125.214 238.431 125.201 237.849 125.187 237.264ZM350.158 132.453L349.871 132.233C342.165 134.564 334.583 137.314 327.007 140.061L327.004 140.062C324.104 141.114 321.204 142.165 318.299 143.193C313.814 144.775 309.341 146.394 304.881 148.049C304.291 148.266 303.7 148.478 303.109 148.69L303.107 148.691C300.472 149.636 297.85 150.577 295.391 151.955C295.356 152.092 295.317 152.239 295.277 152.393L295.275 152.398C294.911 153.782 294.391 155.756 294.902 156.966L295.347 157.086L331.109 146.111C333.017 145.518 334.919 144.89 336.824 144.262L336.825 144.261C341.321 142.778 345.825 141.292 350.433 140.255C350.439 139.683 350.464 139.077 350.49 138.454C350.573 136.437 350.663 134.238 350.158 132.453ZM283.649 242.318C283.881 226.732 284.714 211.121 285.545 195.531C285.847 189.865 286.15 184.202 286.423 178.543C286.67 173.485 286.868 168.425 287.014 163.364C287.038 162.51 287.046 161.637 287.054 160.756V160.755C287.079 158.027 287.104 155.217 287.597 152.615C288.044 150.252 289.542 147.456 291.28 145.785C292.434 144.676 294.062 143.94 295.538 143.362C297.918 142.429 300.365 141.67 302.809 140.912C303.795 140.607 304.781 140.301 305.761 139.984C309.879 138.644 313.984 137.264 318.076 135.846C321.138 134.817 324.17 133.69 327.2 132.563C330.35 131.391 333.499 130.221 336.68 129.161C337.341 128.941 338 128.792 338.701 128.836C340.131 128.927 341.648 129.488 343.029 129.998C343.191 130.058 343.352 130.117 343.51 130.175C332.786 133.789 322.116 137.558 311.502 141.484C309.954 142.049 308.38 142.587 306.801 143.127C303.546 144.241 300.273 145.361 297.169 146.728L296.975 146.813C295.52 147.451 292.702 148.687 291.985 149.964C291.335 151.121 291.11 152.826 290.979 154.13C290.718 156.744 290.641 159.37 290.564 161.996L290.564 161.997C290.535 162.987 290.505 163.977 290.467 164.966L289.709 181.361C288.527 205.481 287.568 229.609 286.833 253.747L286.378 267.529C286.358 268.185 286.357 268.865 286.355 269.554C286.352 271.113 286.349 272.715 286.127 274.177C284.906 272.376 283.786 245.783 283.649 242.318Z" fill="#FF4B0C" />
    <path d="M294.495 293.78C295.124 293.109 295.729 292.628 296.553 292.215C299.762 290.605 303.255 289.437 306.552 288.005C311.126 286.019 315.636 283.883 320.201 281.875C325.303 279.631 330.452 277.521 335.494 275.138C336.162 274.823 337.536 273.934 338.228 274.238C338.948 274.554 339.181 275.338 339.451 276.013C339.374 276.868 339.207 277.335 338.517 277.873C336.314 279.593 333.065 280.663 330.501 281.763L318.574 286.868C311.515 289.936 304.556 293.332 297.426 296.219C297.023 296.382 296.615 296.575 296.172 296.505C295.587 296.411 295.107 295.595 294.868 295.12C294.65 294.687 294.541 294.262 294.495 293.78Z" fill="#FF4B0C" />
    <path d="M334.617 158.295C334.9 158.287 335.287 158.273 335.561 158.365C335.989 158.509 336.3 158.807 336.494 159.212C336.759 159.766 336.822 160.552 336.575 161.126C336.233 161.92 335.076 162.45 334.34 162.802C331.144 164.329 327.527 165.317 324.213 166.598C316.067 169.745 307.96 172.942 299.714 175.826C299.129 175.617 298.641 175.336 298.219 174.873C297.801 174.416 297.678 174.04 297.716 173.414C298.058 172.582 298.757 172.272 299.529 171.882C303.233 170.011 307.382 168.772 311.273 167.326C319.06 164.433 326.991 161.582 334.617 158.295Z" fill="#FF4B0C" />
    <path d="M335.21 174.064C335.377 174.059 335.486 174.049 335.658 174.083C335.729 174.096 335.799 174.113 335.868 174.135C335.937 174.156 336.005 174.182 336.071 174.211C336.137 174.241 336.201 174.274 336.264 174.31C336.326 174.347 336.386 174.388 336.443 174.431C336.5 174.475 336.555 174.522 336.607 174.572C336.659 174.623 336.708 174.676 336.754 174.732C336.8 174.787 336.842 174.846 336.881 174.907C336.921 174.967 336.956 175.03 336.988 175.095C337.247 175.623 337.216 176.212 336.979 176.737C336.584 177.606 335.496 178.136 334.684 178.534C330.11 180.772 325.107 182.267 320.373 184.147C313.241 186.979 306.189 190.149 298.957 192.71C298.903 192.699 298.848 192.692 298.795 192.678C298.066 192.487 297.268 191.929 296.944 191.225C296.77 190.847 296.697 190.411 296.9 190.026C297.285 189.296 298.275 188.888 298.991 188.54C303.228 186.479 307.792 184.935 312.174 183.206L335.21 174.064Z" fill="#FF4B0C" />
    <path d="M335.359 190.75C335.797 190.722 336.279 190.684 336.7 190.836C337.095 190.978 337.515 191.394 337.658 191.795C337.832 192.284 337.794 192.745 337.563 193.206C337.168 193.993 336.293 194.457 335.541 194.84C333.781 195.735 331.863 196.406 330.038 197.161C326.174 198.767 322.297 200.34 318.406 201.88C311.689 204.569 305.057 207.527 298.265 210.017C297.401 209.869 296.682 209.478 296.169 208.746C295.908 208.373 295.759 207.896 295.91 207.449C296.137 206.774 296.699 206.488 297.287 206.19C300.904 204.359 305.405 202.917 309.228 201.365L335.359 190.75Z" fill="#FF4B0C" />
    <path d="M336.66 207.459C336.707 207.478 336.755 207.494 336.8 207.516C337.461 207.835 337.935 208.357 338.179 209.05C338.341 209.508 338.348 210.14 338.054 210.548C337.568 211.225 335.845 211.849 335.086 212.182C327.581 215.479 319.827 218.337 312.24 221.455L303.378 225.124C301.302 225.994 299.233 226.968 297.07 227.597C296.372 227.185 295.651 226.737 295.315 225.96C295.121 225.512 295.161 225.122 295.388 224.706C295.775 223.996 297.051 223.498 297.778 223.156C300.187 222.025 302.719 221.084 305.182 220.072L319.244 214.339C324.977 212.018 330.756 209.267 336.66 207.459Z" fill="#FF4B0C" />
    <path d="M337.151 223.924C337.249 223.938 337.348 223.948 337.445 223.964C338.144 224.085 338.76 224.46 339.146 225.061C339.402 225.461 339.497 225.944 339.342 226.403C339.098 227.123 338.472 227.531 337.841 227.883C334.653 229.661 330.949 230.734 327.579 232.145L309.389 239.824C305.459 241.465 301.447 242.965 297.6 244.791C297.473 244.773 297.348 244.739 297.223 244.704C296.577 244.519 295.984 243.996 295.676 243.403C295.455 242.977 295.379 242.502 295.549 242.043C295.829 241.286 296.814 240.843 297.49 240.492C301.862 238.228 306.676 236.571 311.228 234.683L337.151 223.924Z" fill="#FF4B0C" />
    <path d="M336.8 257.636C337.053 257.634 337.105 257.625 337.38 257.667C337.96 257.755 338.488 258.125 338.795 258.616C339.094 259.096 339.229 259.645 339.017 260.194C338.69 261.04 337.739 261.573 336.984 261.969C335.365 262.82 333.556 263.423 331.86 264.111C329.259 265.172 326.675 266.271 324.106 267.407C314.992 271.393 305.946 275.555 296.812 279.488C296.652 279.51 296.574 279.532 296.399 279.496C295.771 279.368 295.059 278.859 294.771 278.278C294.534 277.8 294.537 277.511 294.737 277.018C295.135 276.037 296.349 275.335 297.24 274.853C301.543 272.524 306.303 270.923 310.79 268.982L336.8 257.636Z" fill="#FF4B0C" />
    <path d="M337.94 240.382C338.155 240.404 338.384 240.416 338.59 240.489C339.065 240.655 339.489 241.173 339.718 241.609C339.949 242.049 339.95 242.477 339.764 242.934C339.374 243.89 338.184 244.598 337.311 245.053C334.261 246.642 330.846 247.5 327.706 248.893C317.383 253.471 307.077 258.192 296.571 262.339C296.327 262.329 296.092 262.299 295.857 262.227C295.324 262.062 294.776 261.478 294.578 260.964C294.427 260.574 294.433 260.225 294.603 259.841C294.993 258.959 295.935 258.381 296.748 257.944C300.851 255.737 305.542 254.243 309.842 252.407L337.94 240.382Z" fill="#FF4B0C" />
  </g>
</svg>