<svg width="805" height="59" viewBox="0 0 805 59" fill="none" xmlns="http://www.w3.org/2000/svg">
<path d="M11 2V0H9V2H11ZM794 2H796V0H794V2ZM783.333 48C783.333 53.891 788.109 58.6667 794 58.6667C799.891 58.6667 804.667 53.891 804.667 48C804.667 42.109 799.891 37.3333 794 37.3333C788.109 37.3333 783.333 42.109 783.333 48ZM0.333333 48C0.333333 53.891 5.10896 58.6667 11 58.6667C16.891 58.6667 21.6667 53.891 21.6667 48C21.6667 42.109 16.891 37.3333 11 37.3333C5.10896 37.3333 0.333333 42.109 0.333333 48ZM11 4H794V0H11V4ZM792 2V48H796V2H792ZM13 48V2H9V48H13Z" fill="white"/>
</svg>
