<svg width="400" height="400" viewBox="0 0 400 400" fill="none" xmlns="http://www.w3.org/2000/svg">
  <g opacity="0.15">
    <path d="M148.541 336.79C144.665 335.376 138.335 331.304 134.509 329.137L102.526 310.745L14.5323 260.616C12.9062 259.709 6.12074 256.197 5.59664 254.736C5.12573 253.424 5.52487 245.35 5.52474 243.285L5.56013 203.012L5.5148 144.318C5.48338 133.454 5.18315 122.533 5.42969 111.673C5.45785 110.432 5.54977 109.105 5.98027 107.932C6.34335 106.944 8.56389 105.789 9.46098 105.238C15.0244 101.824 20.9441 98.8684 26.6633 95.7152C31.0392 93.3024 35.3176 90.7087 39.6488 88.2163C43.0842 86.2394 46.5828 84.3748 50.0088 82.3814L116.565 44.303L142.308 29.4206C147.034 26.6904 151.728 23.5303 156.725 21.333C161.504 23.1399 167.161 27.0272 171.69 29.6666L197.923 44.7509L288.566 96.0443C292.532 98.2864 297.119 100.3 300.547 103.311C300.884 108.057 300.689 112.632 300.673 117.368C300.645 125.051 300.673 132.733 300.757 140.415C304.081 142.144 314.525 147.634 316.522 150.117C317.41 154.064 316.937 158.611 316.928 162.661C316.896 169.057 316.908 175.452 316.966 181.847C322.961 183.483 328.59 185.876 334.286 188.339C343.572 192.353 353.009 196.646 360.972 202.994C368.237 208.786 374.866 216.54 375.89 226.111C377.355 239.797 370.65 247.747 362.627 257.649C365.589 261.963 368.833 266.052 372.36 269.916C377.159 275.262 382.309 280.36 386.773 285.995C391.587 292.071 395.496 299.305 394.514 307.333C394.259 309.431 393.555 311.394 392.562 313.254C385.89 325.769 365.35 324.112 353.359 323.373C347.536 323.014 341.714 322.534 335.882 322.359C326.837 322.087 317.6 322.625 308.701 324.305C293.509 327.173 279.83 333.786 266.729 341.807C261.608 344.943 256.563 348.203 251.839 351.916C252.468 352.495 253.038 353.06 253.56 353.743C253.584 356.74 253.93 360.251 253.311 363.186C250.452 365.378 247.116 367.143 244.005 368.957C238.184 372.351 232.316 375.705 226.26 378.666C223.795 377.94 202.469 365.849 201.457 364.26C200.346 362.515 200.713 355.543 201.289 353.399C202.858 352.025 226.385 338.233 227.648 338.057C229.332 337.823 231.468 339.58 232.841 340.46C239.557 331.672 246.894 323.014 255.257 315.747C271.235 301.863 290.801 293.392 309.71 284.368C314.616 282.027 319.434 279.48 324.267 276.993C336.298 270.642 346.022 264.749 356.524 256.002C355.264 251.993 354.504 247.856 353.295 243.834C352.185 240.142 350.757 236.557 348.179 233.642C341.824 226.457 327.56 219.441 319.089 214.611C313.751 211.568 308.52 208.3 303.118 205.376L300.719 206.683C300.412 217.165 300.637 227.74 300.705 238.23C300.73 242.123 301.342 246.748 300.736 250.537C299.744 251.744 297.898 252.663 296.551 253.435L195.161 310.526L161.501 329.595C157.181 331.997 153.059 334.764 148.541 336.79ZM293.276 113.116C292.724 114.872 293.316 127.482 293.302 130.431L293.117 189.674C293.219 198.004 293.256 206.336 293.227 214.667C293.246 218.848 293.445 223.103 293.28 227.278C293.21 230.524 293.822 244.698 292.631 246.515C292.483 246.742 292.331 246.96 292.224 247.209C291.784 247.889 288.646 249.516 287.784 250.014L161.536 321.781C159.59 322.908 155.723 325.763 153.475 325.163C152.761 324.587 152.413 324.124 152.314 323.192C151.895 319.249 152.196 315.093 152.195 311.119L152.255 202.455C152.271 200.562 152.543 198.46 152.288 196.589C152.202 195.954 152.065 195.52 151.541 195.112C151.044 195.071 151.042 195.06 150.632 195.34C150.114 196.915 150.423 227.82 150.378 232.085C149.488 233.391 149.982 265.897 150.018 270.525L149.945 315.396C149.945 317.092 149.722 326.739 149.929 327.564C149.96 327.689 150.019 327.805 150.065 327.925L150.355 327.968C150.407 328.494 150.512 328.98 150.637 329.491C151.495 329.564 154.456 327.591 155.341 327.094L295.673 247.756C295.844 238.873 295.744 229.974 295.76 221.089C295.849 201.03 295.819 180.971 295.668 160.912L295.613 125.111C295.606 119.034 295.83 112.878 295.548 106.812C287.203 111.725 278.617 116.227 270.18 120.985L208.625 155.786L173.908 175.518C165.967 180.066 157.988 185.066 149.642 188.811C146.065 187.816 140.83 183.991 137.434 182.008L53.0031 133.449C48.2873 130.718 43.507 128.106 38.8145 125.331C32.24 121.435 25.6454 117.572 19.0307 113.745C17.2383 112.715 14.0829 110.538 12.2141 109.995C11.8067 109.876 11.7397 109.943 11.39 110.133L11.3106 110.501C11.8201 111.43 13.7747 112.365 14.7069 112.935C24.3134 118.803 34.1995 124.279 43.9284 129.946C62.6693 140.972 81.4887 151.863 100.386 162.618L129.651 179.276C136.294 183.102 142.874 187.139 149.659 190.703C156.546 188.046 162.935 183.854 169.328 180.173L262.83 127.306L279.36 117.833C282.746 115.875 286.208 113.594 289.839 112.132C290.68 111.793 291.654 111.495 292.505 111.989C292.974 112.261 293.123 112.626 293.276 113.116ZM156.548 27.4414L28.1711 100.839C24.7089 102.802 21.2966 104.878 17.8048 106.785C22.3264 109.778 27.0906 112.47 31.7413 115.259C43.1884 122.125 54.7498 128.712 66.3404 135.324L113.89 162.693C125.831 169.447 137.721 176.29 149.56 183.222C150.197 182.831 150.828 182.42 151.483 182.062C161.536 176.632 171.499 171.043 181.373 165.294L227.708 138.942C242.96 130.484 258.156 121.927 273.295 113.271C279.009 110.013 284.925 106.973 290.517 103.521C285.661 100.091 280.246 97.2846 275.074 94.3629L251.742 81.1849L175.72 38.1082C173.585 36.887 157.795 27.5831 156.548 27.4414ZM10.7676 116.52C10.4478 124.437 10.6498 132.426 10.6462 140.352L10.6132 228.175C10.6112 236.155 10.3886 244.201 10.6554 252.173C15.4716 254.694 20.1511 257.536 24.8567 260.259L109.595 308.638C121.37 315.431 133.002 323.109 145.184 329.118L145.44 329.042C146 326.786 145.672 320.946 145.682 318.266L145.671 290.38L145.473 194.329C139.637 190.759 133.614 187.527 127.675 184.136L89.554 162.447C63.1433 147.393 36.8812 132.084 10.7676 116.52ZM288.216 118.861L210.022 163.229C198.921 169.588 187.765 175.851 176.554 182.016C170.09 185.624 163.726 189.425 157.12 192.771C157.311 196.821 157.162 200.94 157.135 204.996L157.099 223.18L157.103 285.745L157.13 305.87C157.135 309.888 156.934 314.026 157.336 318.024C165.301 313.269 173.483 308.841 181.538 304.235L269.39 254.18C275.723 250.588 282.033 246.791 288.52 243.493L288.591 128.181C288.594 126.182 288.95 120.704 288.427 119.021L288.216 118.861ZM300.78 146.337C300.627 149.508 300.67 152.768 300.802 155.942C302.567 154.963 304.341 154 306.06 152.942L308.969 151.176C306.261 149.523 303.488 147.982 300.78 146.337ZM311.515 155.652C307.907 157.661 304.316 159.699 300.741 161.766C300.741 165.197 300.518 199.404 300.793 200.035C300.84 200.142 300.927 200.226 300.994 200.321L301.084 200.337C304.646 198.374 308.688 196.36 311.848 193.798C312.116 185.644 311.997 177.445 311.999 169.286C312 165.237 312.411 159.713 311.74 155.817L311.654 156.063L311.635 155.694L311.515 155.652ZM317.038 187.312C316.853 190.434 316.935 193.586 316.938 196.713C314.671 199.051 311.383 200.61 308.581 202.255C311.173 204.066 313.84 205.76 316.582 207.335C327.381 213.51 349.532 223.926 355.245 234.79C358.091 240.201 358.308 246.095 360.583 251.518L361.762 250.514C367.209 244.56 371.352 236.803 370.973 228.507C370.603 220.397 365.818 214.235 360.021 209.015C352.258 202.025 342.389 197.647 332.925 193.489C327.705 191.196 322.509 188.953 317.038 187.312ZM358.88 260.755C338.613 278.371 313.13 287.948 289.509 300.057C280.617 304.615 271.845 309.371 263.883 315.46C253.772 323.191 245 332.92 237.511 343.171C240.541 345.094 243.601 346.968 246.692 348.792C251.21 345.642 255.702 342.436 260.34 339.462C275.957 329.472 292.195 321.758 310.606 318.659C319.009 317.245 327.5 316.937 336.005 317.192C341.458 317.355 346.897 317.734 352.341 318.073C362.573 318.71 386.152 321.096 389.186 307.571C390.347 302.394 388.109 296.838 385.34 292.554C382.635 288.365 379.006 284.751 375.603 281.134C372.24 277.626 368.99 274.016 365.853 270.305C364.192 268.326 362.578 266.308 361.165 264.142C360.56 263.216 359.744 261.337 358.88 260.755ZM206.006 357.634C206.12 358.887 206.176 360.186 206.416 361.419C212.576 364.961 218.712 368.574 225.023 371.839C225.039 370.678 225.067 369.517 225.024 368.356C221.461 365.98 217.566 364.032 213.816 361.966C211.22 360.536 208.669 358.924 206.006 357.634Z" fill="white" />
    <path d="M85.5072 97.5304C85.5285 96.7259 85.5727 96.0494 86.1691 95.4502C87.934 93.6759 93.0317 91.2186 95.4136 89.8628C105.528 84.1045 115.803 78.6436 125.968 72.9766L143.121 63.3587C146.454 61.48 149.848 59.2752 153.377 57.8194C157.857 59.2802 165.54 64.2162 169.859 66.6857L196.35 81.6974L208.394 88.4908C210.964 89.9383 214.428 91.4719 216.545 93.522C217.234 95.5287 217.471 109.573 216.582 111.353C216.198 112.121 214.155 113.182 213.413 113.618C208.966 116.226 204.376 118.61 199.883 121.139L173.88 135.94L160.047 143.769C156.822 145.6 153.438 148.064 149.857 149.074C146.034 147.905 142.268 145.413 138.811 143.421L125.033 135.483C118.297 131.608 111.535 127.778 104.748 123.992C99.8265 121.271 94.7939 118.712 89.9608 115.836C88.6842 115.077 86.5646 114.128 85.8243 112.848C85.3584 112.042 85.4646 111.058 85.4992 110.167C86.0047 106.21 86.015 101.479 85.5072 97.5304ZM153.481 63.6913C148.694 66.7169 143.525 69.2958 138.55 71.9988C131.577 75.7874 124.73 79.7993 117.759 83.594C109.902 87.8706 101.769 91.9728 94.3235 96.9389L142.881 124.331C145.257 125.658 147.645 127.104 150.138 128.194C153.053 127.297 156.206 125.01 158.845 123.477C162.656 121.266 166.478 119.076 170.312 116.906C176.821 113.178 183.349 109.485 189.898 105.826C196.295 102.277 202.78 98.8164 208.966 94.9032C196.298 87.4679 183.525 80.218 170.646 73.1537L159.481 66.9245C157.544 65.8465 155.525 64.5293 153.481 63.6913ZM211.397 99.8041C197.546 107.285 183.809 114.972 170.188 122.865C164.204 126.296 158.092 129.58 152.213 133.184C152.158 135.921 151.868 139.06 152.373 141.748C152.474 141.827 152.564 141.93 152.685 141.974L189.156 121.42C194.123 118.644 199.055 115.809 203.953 112.915C206.591 111.367 209.304 109.874 211.858 108.191C211.884 106.239 212.305 101.652 211.707 99.9424L211.397 99.8041ZM90.7358 101.258C90.2691 104.075 90.4556 107.233 90.6178 110.084C98.167 114.129 105.565 118.427 113.024 122.633L147.168 142.037C147.127 138.977 147.072 135.908 147.114 132.849C136.923 126.614 126.35 121.023 115.926 115.193C107.537 110.501 99.3705 105.501 90.7358 101.258Z" fill="white" />
    <path d="M85.4992 110.167C85.1117 107.092 85.0455 100.607 85.5072 97.5304C86.015 101.479 86.0047 106.21 85.4992 110.167Z" fill="white" />
    <path d="M293.28 227.278C293.445 223.103 293.246 218.848 293.227 214.667C293.256 206.336 293.219 198.004 293.117 189.674L293.302 130.431C293.316 127.482 292.724 114.872 293.276 113.116C294.201 117.248 293.723 122.04 293.7 126.264L293.714 141.829L293.665 192.709C293.554 204.512 293.557 216.315 293.674 228.117L293.28 227.278Z" fill="white" />
    <path d="M26.638 180.405C27.0146 173.126 26.9358 165.751 26.8645 158.464C26.83 154.937 26.6455 151.38 26.8022 147.858C26.8501 146.781 26.8657 145.199 27.3657 144.239C28.2336 142.573 30.4149 141.866 32.1008 141.364C32.9034 141.378 33.5728 141.746 34.2667 142.114C37.3675 143.757 40.3684 145.657 43.4021 147.424L58.8789 156.372L100.939 180.456C107.051 183.907 113.144 187.389 119.22 190.903C122.142 192.579 125.817 194.221 128.347 196.429C128.99 196.991 129.081 197.535 129.188 198.35C129.694 202.201 129.329 206.414 129.327 210.321L129.416 223.474C129.407 228.595 129.295 233.749 129.571 238.865C132.56 240.506 136.874 242.327 139.142 244.87C139.919 245.739 139.999 247.07 140.112 248.188C140.548 252.502 140.145 256.846 140.126 261.171C140.1 266.874 140.298 272.548 140.159 278.257C138.441 280.43 136.169 281.415 133.652 282.373C132.204 281.855 130.851 281.176 129.479 280.49C129.182 282.805 129.303 285.224 129.304 287.555C129.297 291.241 129.314 294.926 129.357 298.611C129.39 300.781 129.591 303.058 129.308 305.208C129.169 306.272 128.616 306.7 127.789 307.304C127.062 307.775 126.23 308.107 125.445 308.471C122.898 307.513 120.507 305.897 118.138 304.564C113.472 301.964 108.834 299.316 104.224 296.62L68.0994 275.864C59.2228 270.757 50.3149 265.704 41.3755 260.707C37.9106 258.749 29.8949 254.753 27.3387 252.257C26.8502 251.78 26.8289 251.211 26.7588 250.552C26.3971 247.147 26.6191 243.557 26.6291 240.131C26.6765 233.643 26.6785 227.155 26.6353 220.667C24.225 219.567 20.8441 218.455 19.3076 216.166C17.7458 213.838 18.4169 188.97 19.0073 185.332C21.241 183.273 24.0176 181.902 26.638 180.405ZM31.7873 146.754C31.5109 150.116 31.6088 153.526 31.6026 156.898L31.576 172.757C31.5686 176.712 31.0929 185.023 31.7462 188.514L32.3167 188.664L32.0379 189.086C33.2936 187.674 32.803 166.729 32.7349 163.318C32.6687 160.004 32.1007 155.945 32.8701 152.712C33.1234 151.648 33.5583 150.719 34.6613 150.365C36.5122 150.448 53.4703 160.788 56.425 162.491L74.3001 172.805C79.0471 175.601 83.7158 178.519 88.5067 181.242C93.5382 184.12 98.5875 186.967 103.655 189.782C107.433 191.825 111.193 193.901 114.935 196.009C117.718 197.573 121.124 199.119 123.369 201.418C122.985 209.48 123.248 217.657 123.255 225.731L123.395 287.33C123.404 290.04 123.58 292.871 123.346 295.563C123.25 296.661 123.046 297.756 122.178 298.519C121.868 298.79 121.59 298.932 121.19 299.014C117.119 297.239 113.38 294.813 109.603 292.495C106.569 290.632 103.504 288.823 100.407 287.068L54.0363 260.389C47.6868 256.709 41.0109 253.59 34.6931 249.881C33.879 249.403 32.4914 248.194 31.6264 248.025L31.3999 248.217C31.4286 248.775 31.6887 249.065 32.1052 249.419C34.1368 251.146 37.0255 252.369 39.3561 253.687L100.913 288.754C105.914 291.58 111.005 294.238 116.02 297.038C118.819 298.6 121.754 300.101 124.305 302.051C124.618 284.496 124.703 266.941 124.561 249.384C124.549 232.816 124.678 216.232 124.454 199.666C121.098 198.066 117.893 196.121 114.67 194.274L100.057 185.896C84.7849 177.27 69.5758 168.534 54.4302 159.687C48.8876 156.467 43.3198 153.291 37.7268 150.158C35.7997 149.078 33.7987 147.621 31.7873 146.754ZM37.7655 157.818C37.4272 162.544 37.6266 167.346 37.6613 172.082C37.703 177.762 37.6366 183.438 37.766 189.117C40.561 187.905 43.1788 186.45 45.8046 184.914C48.0487 183.601 50.6331 181.578 53.154 180.923C54.3191 180.621 55.5062 180.714 56.6176 181.175C58.606 181.998 60.0976 183.863 60.8619 185.834C61.7293 188.073 61.8466 190.899 60.8596 193.12C59.2953 196.64 49.0345 200.478 45.4145 202.986C44.1306 203.876 43.747 205.524 42.1786 206.118C40.7778 206.649 39.0841 206.595 37.6066 206.655C37.5057 210.266 37.0296 232.021 37.9878 233.502C40.4754 233.475 50.2377 226.996 53.5704 225.731C55.9892 226.142 57.941 226.836 59.4144 228.936C60.7793 230.881 61.7179 233.485 61.2619 235.866C60.911 237.698 59.6805 239.007 58.1569 239.992C54.541 242.33 50.4805 244.068 46.7957 246.343L43.7245 248.309C48.5759 251.338 53.5555 254.117 58.4983 256.989C64.5547 260.563 70.643 264.083 76.7631 267.548L76.8997 228.213C76.8944 224.942 75.8956 222.626 76.7117 219.288C77.4352 216.328 77.007 209.869 77.0017 206.6L76.9564 180.33L37.7655 157.818ZM81.9821 183.418C81.3141 187.915 81.7823 194.726 81.8177 199.513C81.8569 204.818 81.576 210.274 81.96 215.558C84.8383 214.248 87.6654 212.836 90.4414 211.322C93.2119 209.818 96.2413 207.754 99.247 206.854C100.528 206.47 101.845 206.414 103.111 206.888C105.076 207.624 106.635 209.341 107.437 211.248C108.379 213.488 108.862 216.129 107.929 218.447C106.124 222.928 97.9042 225.766 93.9594 228.212C92.1211 229.352 90.4307 231.079 88.4302 231.9C87.079 232.453 85.6098 232.323 84.305 231.705C83.4254 231.289 82.5485 230.617 81.8131 229.984C81.5832 234.565 81.7027 239.187 81.7043 243.774C81.7062 248.986 81.6205 254.219 81.756 259.428C85.3517 257.82 88.9048 255.883 92.3357 253.946C94.8216 252.543 97.4524 250.674 100.178 249.825C101.266 249.486 102.396 249.494 103.46 249.92C105.453 250.717 106.913 252.688 107.663 254.639C108.523 256.878 108.683 259.628 107.665 261.839C106.555 264.248 103.848 265.479 101.643 266.703C97.3576 269.241 93.1286 271.804 89.0053 274.603C98.9737 279.762 108.31 286.136 118.237 291.414C118.584 279.766 118.29 268.04 118.287 256.384L118.25 204.075C112.252 200.401 106.019 197.195 99.9504 193.657C94.0538 190.219 88.1908 186.267 81.9821 183.418ZM23.7029 190.062C23.2905 193.284 23.4734 196.653 23.4785 199.901C23.4856 204.437 23.4495 208.98 23.5274 213.516C24.5855 214.01 25.6465 214.497 26.7104 214.978C26.9797 207.16 26.8813 199.344 26.9499 191.525C25.8851 191.06 24.7072 190.64 23.7029 190.062ZM35.4171 193.747C34.6823 194.099 34.1406 194.376 33.8556 195.195C33.5139 196.178 33.8234 197.204 34.3023 198.082C35.0596 199.472 36.6068 201.141 38.2023 201.523C38.5588 201.608 38.9327 201.627 39.2976 201.644C40.104 201.041 40.5962 200.554 40.745 199.522C40.9166 198.332 40.3987 197.129 39.687 196.2C38.7097 194.923 37.3977 193.965 35.7757 193.782C35.6564 193.768 35.5366 193.759 35.4171 193.747ZM31.6874 202.837C31.3475 208.322 31.5984 213.911 31.5719 219.411C31.551 223.765 31.2044 228.332 31.5848 232.666C31.6491 233.399 31.6655 233.632 32.1226 234.205C32.556 233.857 32.6609 233.853 32.7303 233.282C33.077 230.43 32.783 227.192 32.7856 224.303L32.782 204.425C32.4434 203.86 32.1187 203.336 31.6874 202.837ZM83.688 219.324C82.8438 219.818 82.177 220.371 81.9178 221.359C81.6243 222.476 82.0057 223.65 82.6033 224.598C83.3405 225.768 84.6175 226.919 86.0174 227.177C86.2995 227.229 86.5869 227.233 86.8723 227.243C88.1112 226.513 88.3811 225.974 88.8873 224.633C88.3583 222.745 87.6671 220.972 85.8603 219.958C85.1763 219.574 84.4664 219.384 83.688 219.324ZM34.9992 238.313C34.2232 238.864 33.7139 239.346 33.5273 240.315C33.3029 241.48 33.8012 242.714 34.4827 243.639C35.3029 244.753 36.7281 245.896 38.1408 246.076C38.4053 246.109 38.6552 246.08 38.9164 246.041C39.6441 245.641 40.2135 245.286 40.4675 244.452C40.8073 243.337 40.3625 242.083 39.7705 241.137C38.9843 239.881 37.5839 238.547 36.0662 238.293C35.7102 238.233 35.3549 238.278 34.9992 238.313ZM129.52 244.77C128.965 249.85 129.302 255.236 129.302 260.349C129.301 265.016 129.016 269.879 129.37 274.526C130.507 275.299 132.264 276.778 133.74 276.564C134.116 276.51 134.506 276.302 134.846 276.142C135.779 273.97 135.103 252.068 134.988 247.896C133.174 246.838 131.351 245.796 129.52 244.77ZM83.3778 263.242C82.5584 263.989 81.8455 264.665 81.8063 265.84C81.7663 267.043 82.3197 268.107 83.1662 268.933C84.2552 269.997 85.4374 270.518 86.9366 270.561C87.6651 269.993 88.2262 269.49 88.38 268.537C88.5703 267.355 88.0956 266.133 87.3823 265.208C86.6908 264.311 85.5603 263.386 84.3983 263.253C84.0531 263.213 83.7234 263.218 83.3778 263.242Z" fill="white" />
    <path d="M293.28 227.278L293.674 228.117C293.759 234.077 293.773 240.036 293.713 245.997C293.236 246.447 292.797 246.882 292.224 247.209C292.331 246.96 292.483 246.742 292.631 246.515C293.822 244.698 293.21 230.524 293.28 227.278Z" fill="white" />
    <path d="M150.355 327.968L150.065 327.925C150.019 327.805 149.96 327.689 149.929 327.564C149.722 326.739 149.945 317.092 149.945 315.396L150.018 270.525C149.982 265.897 149.488 233.391 150.378 232.085C150.511 239.728 150.396 247.386 150.408 255.03L150.428 299.475L150.401 318.583C150.407 321.59 150.746 325.013 150.355 327.968Z" fill="white" />
    <path fill-rule="evenodd" clip-rule="evenodd" d="M297.978 111.477L150.662 195.271L8.68203 114.139L12.6511 107.193L150.671 186.062L294.022 104.523L297.978 111.477ZM297.998 248.798L149.998 334.132L146.002 327.201L294.002 241.868L297.998 248.798Z" fill="white" />
  </g>
</svg>