<svg width="400" height="400" viewBox="0 0 400 400" fill="none" xmlns="http://www.w3.org/2000/svg">
  <g opacity="0.08">
    <mask id="path-2-outside-1_113_444" maskUnits="userSpaceOnUse" x="7.33325" y="7.33301" width="386" height="387" fill="black">
      <rect fill="white" x="7.33325" y="7.33301" width="386" height="387" />
      <path fill-rule="evenodd" clip-rule="evenodd" d="M195.353 18.5167L191.141 23.6998L195.078 28.8065C200.265 35.5334 199.897 35.1922 200.762 34.0743C201.173 33.5422 203.174 30.9814 205.207 28.383L208.905 23.6592L204.7 18.4964C202.387 15.6564 200.286 13.333 200.03 13.333C199.774 13.333 197.67 15.6654 195.353 18.5167ZM181.603 38.4306C169.662 40.7767 169.104 52.0162 180.075 69.1546L182.195 72.4646L181.264 75.1936C178.551 83.1481 172.508 88.7482 164.006 91.1861C159.675 92.4275 159.72 92.4925 161.895 88.1075C165.779 80.2771 163.623 73.6869 156.814 72.5827C154.818 72.2594 154.366 72.5153 150.017 76.4332L145.358 80.6297L140.727 76.5089C135.881 72.1968 134.972 71.8627 131.746 73.2102C125.57 75.7884 125.246 83.209 130.926 91.986L133.379 95.7769L148.938 95.4864C161.071 95.2591 165.287 94.9728 168.08 94.1842C177.597 91.4981 185.259 84.4652 188.451 75.4859L189.552 72.3876H210.634L211.041 74.009C212.601 80.2193 218.621 87.7609 224.72 91.1456C231.178 94.73 233.812 95.1631 251.115 95.4864L266.692 95.7775L269.188 91.8292C274.729 83.0622 274.377 75.7514 268.29 73.2102C264.981 71.8287 264.01 72.1848 259.25 76.5245L254.713 80.6613L250.036 76.4487C245.67 72.5153 245.218 72.2588 243.221 72.5827C236.413 73.6869 234.256 80.2771 238.14 88.1075C240.316 92.4925 240.36 92.4275 236.029 91.1861C227.539 88.7518 221.484 83.1469 218.781 75.2199L217.859 72.5171L220.037 69.1146C231.363 51.4227 230.139 39.9804 216.722 38.1306L214.025 37.7584L207.173 45.8274C203.404 50.2648 200.178 53.8958 200.004 53.8958C199.83 53.8958 196.632 50.272 192.898 45.8429C189.069 41.3016 185.692 37.8186 185.153 37.8556C184.628 37.8914 183.03 38.1503 181.603 38.4306ZM142.217 53.2874C138.743 57.4415 138.647 56.4125 143.007 61.8163C145.295 64.6533 145.45 64.6205 148.784 60.6012C151.92 56.8205 151.941 57.0209 147.896 52.488L145.309 49.589L142.217 53.2874ZM251.468 53.3941L248.457 57.0686L251.549 60.8529L254.641 64.6372L256.014 62.9944C257.068 61.7273 258.115 60.4535 259.153 59.1731L260.918 56.9935L257.877 53.3571C256.204 51.3564 254.756 49.7202 254.658 49.7202C254.559 49.7202 253.124 51.3737 251.468 53.3941ZM105.724 56.6254C104.59 57.1175 100.671 60.4401 97.0151 64.0096C89.8365 71.0187 89.5839 71.1535 81.2204 72.427C69.9507 74.1426 68.198 77.6608 74.9719 84.9699C79.5912 89.9543 80.9732 94.9722 79.251 100.511L78.3895 103.283L82.0436 101.555C88.4318 98.5357 91.3689 99.5564 91.3689 104.796C91.3689 107.706 91.6548 108.024 93.1873 106.817C98.0269 103.006 97.1733 98.0442 90.4 90.6236C84.604 84.2731 83.3259 79.8852 85.9974 75.5068C88.4133 71.5466 97.2198 68.0325 102.064 69.0961L103.653 69.4445L103.629 75.2408C103.588 85.7537 109.355 92.4233 120.535 94.7908C125.559 95.855 125.396 95.8652 125.396 94.4854C125.396 93.6038 124.851 93.2268 123.158 92.9375C109.639 90.6314 104.75 77.4073 113.388 66.509L115.136 64.3037L113.629 61.1362C112.715 59.2143 111.387 57.5202 110.253 56.8294C108.049 55.4867 108.323 55.4992 105.724 56.6254ZM290.905 56.1381C289.397 56.3928 287.062 59.1725 285.763 62.2595C284.941 64.2137 284.976 64.4016 286.554 66.4082C295.281 77.5105 290.502 90.6141 276.878 92.9375C275.185 93.2268 274.639 93.6038 274.639 94.4854C274.639 95.8652 274.476 95.855 279.501 94.7908C290.669 92.4257 296.439 85.7596 296.416 75.2515C296.401 68.6225 296.634 68.3684 302.013 69.1647C310.423 70.409 315.233 74.4009 315.233 80.1363C315.233 83.3933 313.718 86.0871 308.764 91.6365C302.949 98.1504 302.117 102.138 305.803 105.822C308.218 108.235 308.667 108.051 308.667 104.642C308.667 99.4764 311.728 98.4463 317.876 101.545L321.284 103.262L320.796 100.799C319.404 93.7738 320.463 90.0432 325.396 84.6C331.99 77.3256 329.999 74.2279 317.379 72.1234C309.928 70.8809 310.183 71.0282 302.696 63.6857C296.496 57.6049 293.516 55.6979 290.905 56.1381ZM36.201 76.4141C28.0183 85.0772 26.7515 100.687 33.1642 113.826C38.7894 125.351 50.5677 135.731 74.2072 149.996L82.7128 155.129L82.5027 158.049C82.3875 159.656 82.2311 161.036 82.1552 161.118C81.9009 161.393 69.617 157.776 65.4323 156.195C50.3128 150.482 33.8596 139.879 21.6277 127.966L16.0615 122.544L14.7625 125.353C12.7304 129.748 12.8952 141.038 15.0658 146.159C20.2242 158.331 28.8021 164.239 48.723 169.341C56.803 171.41 71.1405 174.023 78.4092 174.751C82.7486 175.186 83.3169 175.628 83.6966 178.865C83.9617 181.122 82.246 181.421 68.5652 181.497C52.626 181.586 36.5687 178.596 22.8879 172.992L16.449 170.355L16.0985 171.969C14.3566 179.988 20.454 191.115 29.1191 195.73C38.6706 200.817 59.4458 200.518 83.496 194.949C88.3822 193.817 88.2055 193.79 89.264 195.836C90.6692 198.551 90.5051 198.771 85.2469 201.233C74.2203 206.396 61.2338 208.98 44.0589 209.43C30.6067 209.781 31.3798 209.36 33.1612 215.355C38.2336 232.422 66.9068 231.564 93.7138 213.544L98.7451 210.162L100.43 211.775C102.796 214.04 102.701 214.278 97.1004 220.143C88.8962 228.734 75.8011 235.745 63.4623 238.152C57.9427 239.229 57.6889 239.599 60.3777 242.659C66.6417 249.788 79.3913 250.584 90.2323 244.524C97.501 240.461 106.89 230.605 112.583 221.06C112.679 220.899 117.173 222.681 117.542 223.025C117.964 223.421 115.679 230.228 114.053 233.415C109.833 241.689 99.8202 252.265 91.7116 257.014C88.3554 258.979 88.4276 259.365 92.5951 261.727C95.5644 263.41 96.313 263.57 101.231 263.57C115.357 263.57 124.36 252.203 128.989 228.525L129.66 225.095H132.241C140.514 225.095 150.326 230.652 154.241 237.554L156.14 240.902L156.299 223.065C156.386 213.256 156.373 205.145 156.271 205.043C156.168 204.941 154.62 205.265 152.829 205.763C148.256 207.036 137.819 207.513 133.623 206.64C115.149 202.796 107.593 182.895 119.483 169.398C120.765 167.943 121.814 166.506 121.814 166.206C121.814 165.906 119.196 163.877 115.994 161.697C93.4028 146.318 66.0436 115.487 41.8996 78.2036C38.8497 73.4942 38.9339 73.5204 36.201 76.4141ZM353.311 85.3618C329.115 121.413 303.542 149.113 280.758 163.95C277.653 165.972 277.649 166.102 280.581 169.431C292.456 182.911 284.884 202.796 266.412 206.64C262.216 207.513 251.779 207.036 247.207 205.763C245.416 205.265 243.867 204.941 243.764 205.043C243.662 205.145 243.65 213.256 243.737 223.065L243.895 240.902L245.794 237.554C249.729 230.617 259.469 225.126 267.881 225.102L270.376 225.095L271.053 228.525C274.544 246.219 280.728 257.327 289.488 261.636C296.413 265.042 306.08 264.2 310.02 259.847C311.045 258.714 310.979 258.622 307.632 256.536C295.833 249.181 284.923 235.253 282.732 224.747C282.374 223.03 282.508 222.847 284.766 221.961L287.183 221.012L289.073 223.799C303.081 244.453 320.445 253.219 334.136 246.548C337.683 244.819 341.502 241.339 341.498 239.837C341.497 239.406 339.508 238.725 336.573 238.152C322.304 235.368 304.745 224.849 299 215.645L297.756 213.651L299.51 211.898L301.265 210.145L306.28 213.499C333.357 231.609 361.785 232.479 366.874 215.355C368.656 209.36 369.429 209.781 355.977 209.43C338.866 208.982 325.868 206.393 314.786 201.223C309.53 198.772 309.366 198.551 310.771 195.836C311.83 193.79 311.653 193.817 316.539 194.949C333.101 198.784 355.15 200.51 363.228 198.604C375.604 195.682 383.324 186.985 383.792 175.435C383.909 172.565 383.88 170.216 383.729 170.216C383.577 170.216 381.737 170.989 379.639 171.935C365.91 178.125 348.326 181.583 331.053 181.492C317.815 181.422 316.075 181.111 316.339 178.865C316.719 175.628 317.287 175.186 321.626 174.751C341.422 172.769 365.282 166.313 373.249 160.785C378.738 156.975 383.407 150.946 385.491 144.975C387.168 140.173 387.023 129.14 385.233 125.263L383.895 122.365L378.368 127.848C363.476 142.62 343.399 154.32 323.748 159.677C317.629 161.345 317.828 161.407 317.534 157.738L317.323 155.103L321.8 152.432C360.799 129.168 373.606 113.368 370.675 92.1316C369.719 85.2049 364.13 74.1772 361.576 74.1772C361.158 74.1772 357.439 79.2105 353.311 85.3618ZM183.601 102.964C177.776 104.425 165.848 105.184 148.607 105.19C125.485 105.199 117.333 107.318 113.702 114.263C112.07 117.384 113.038 126.097 115.321 128.847C115.842 129.473 116.242 129.239 117.277 127.705C119.687 124.128 123.057 122.82 129.874 122.814C160.619 122.788 184.098 167.111 164.455 188.095C162.546 190.134 161.961 191.095 162.625 191.098C163.162 191.101 180.124 191.103 200.316 191.103C220.509 191.103 237.478 191.101 238.025 191.098C238.73 191.095 238.362 190.443 236.758 188.857C216.054 168.384 238.961 123.116 270.162 122.845C277.176 122.784 280.854 124.145 283.27 127.697L284.693 129.791L286.024 127.187C289.094 121.179 287.962 113.773 283.45 110.35C278.161 106.338 274.356 105.773 248.671 105.185C232.397 104.813 224.552 104.398 220.912 103.718C218.121 103.197 214.966 102.61 213.903 102.414L211.968 102.059L212.786 104.777C214.151 109.309 218.718 114.936 223.897 118.469C225.374 119.477 226.695 120.393 226.831 120.503C226.967 120.613 225.337 122.515 223.208 124.731C212.438 135.936 204.931 152.597 201.505 172.9C200.228 180.462 200.185 180.581 199.766 177.672C196.564 155.432 188.705 136.825 177.424 124.774C175.404 122.617 173.751 120.73 173.751 120.58C173.751 120.431 175.076 119.452 176.695 118.403C182.088 114.911 188.413 106.411 187.968 103.254L187.78 101.915L183.601 102.964ZM135.317 129.323C133.473 131.166 130.831 136.475 131.451 137.094C131.592 137.236 133.174 136.625 134.965 135.739C137.791 134.34 138.949 134.127 143.705 134.127C150.064 134.127 150.106 133.601 144.001 130.35C137.804 127.05 137.615 127.027 135.317 129.323ZM257.327 129.647C255.521 130.598 253.282 132 252.351 132.765L250.659 134.155L255.196 133.926C260.118 133.677 264.586 134.755 267.639 136.927L269.319 138.123L268.911 136.423C267.838 131.959 264.574 127.847 262.14 127.892C261.299 127.908 259.133 128.698 257.327 129.647ZM181.81 195.351C181.622 195.841 182.553 199.267 183.878 202.963C186.831 211.201 186.875 210.487 183.339 211.661C179.154 213.05 175.343 216.559 175.343 219.022C175.343 222.638 180.98 226.56 187.32 227.357C190.349 227.737 190.723 227.944 191.128 229.454C191.427 230.572 191.341 231.185 190.872 231.297C190.485 231.388 188.854 231.889 187.248 232.411C184.491 233.306 184.21 233.295 182.183 232.209C176.03 228.913 170.593 232.505 173.538 237.92C176.222 242.856 176.259 242.979 175.625 244.797C175.125 246.231 175.172 246.569 175.871 246.569C177.311 246.569 179.023 244.394 179.719 241.679C180.081 240.267 180.496 238.76 180.641 238.329C180.958 237.392 182.195 238.004 182.014 239.008C181.945 239.394 182.101 241.147 182.362 242.903C182.797 245.846 182.66 246.471 180.613 250.829C179.147 253.951 178.063 257.487 177.426 261.228C176.56 266.317 176.338 266.88 175.255 266.725C174.34 266.594 174.041 266.089 174.014 264.628C173.963 261.849 173.454 261.733 172.269 264.228C169.571 269.91 174.565 276.368 180.506 274.878C181.51 274.626 182.799 275.07 184.856 276.376C191.03 280.295 202.567 281.479 210.267 278.983L213.651 277.886L205.032 254.324C182.037 191.456 182.68 193.088 181.81 195.351ZM198.8 204.366C197.859 205.365 197.615 206.203 197.844 207.647L198.152 209.585H195.204C193.584 209.585 192.257 209.827 192.257 210.123C192.257 211.576 216.062 275.798 216.601 275.798C217.493 275.798 222.889 271.865 224.479 270.057C231.305 262.288 227.671 255.335 219.556 260.64C216.895 262.38 217.276 263.145 215.305 252.081C213.384 241.3 213.521 240.962 219.774 241.03C224.09 241.077 226.881 243.495 226.881 247.186C226.881 249.845 228.377 247.896 228.536 245.031C228.83 239.709 225.413 236.428 219.575 236.428H217.006L215.66 231.209C214.076 225.066 214.002 223.136 215.304 221.836C216.962 220.179 218.123 221.792 217.679 225.137C217.117 229.375 218.563 230.277 221.24 227.358C225.788 222.399 225.111 215.1 219.92 213.128C216.578 211.858 210.087 213.207 207.249 215.76C206.307 216.606 205.738 216.802 205.57 216.335C205.431 215.946 204.515 214.523 203.536 213.172L201.756 210.715L203.275 208.912C206.786 204.742 202.524 200.412 198.8 204.366ZM46.4868 243.671C46.7506 247.315 46.7411 247.342 45.331 246.896C37.3012 244.354 34.136 244.341 31.2312 246.838C29.1089 248.662 28.9973 253.657 30.9792 258.128C32.7349 262.088 32.7403 262.078 28.6869 262.078C24.6788 262.078 24.7427 262.016 26.0686 264.643C29.0636 270.577 35.8565 273.824 41.8829 272.202C43.7777 271.692 44.5275 271.685 44.6905 272.174C45.3878 274.264 49.8471 275.115 52.6123 273.686L54.3907 272.767L70.0439 287.491C78.6534 295.589 87.0074 303.488 88.6085 305.045L91.5187 307.876L90.4698 310.62C86.7441 320.369 96.2611 329.516 107.261 326.76L111.067 325.806L116.272 330.628C122.219 336.136 124.263 336.779 126.557 333.864C128.347 331.592 127.766 330.473 121.891 324.872L116.74 319.963L118.078 318.816C122.023 315.435 136.125 311.305 146.577 310.471C155.445 309.763 155.553 309.677 153.77 304.729C150.608 295.959 156.887 287.586 165.971 288.458C173.162 289.148 180.436 295.484 185.544 305.503C187.266 308.882 188.671 311.969 188.666 312.363C188.661 312.757 185.101 314.226 180.756 315.626C159.262 322.553 140.931 335.598 137.318 346.537C135.578 351.806 141.612 359.594 148.762 361.308C150.193 361.651 150.374 361.494 150.731 359.594C153.408 345.334 170.579 327.058 187.159 320.822C190.934 319.402 191.048 319.394 191.645 320.508C192.564 322.223 192.412 322.661 190.615 323.478C173.976 331.045 157.922 355.319 162.991 365.247C164.411 368.028 168.332 371.355 172.207 373.068C175.654 374.592 175.304 374.968 176.128 368.853C178.095 354.257 184.345 339.224 192.089 330.465C193.147 329.269 194.154 328.291 194.328 328.291C195.278 328.291 194.382 334.348 192.545 340.347C187.427 357.066 185.462 373.274 188.047 377.453C189.51 379.818 192.95 382.771 196.986 385.126L199.624 386.666L202.657 385.146C206.648 383.145 210.354 380.095 211.972 377.479C214.755 372.981 212.334 354.445 206.866 338.381C205.441 334.194 204.916 329.249 205.838 328.684C206.629 328.199 212.493 336.181 215.235 341.475C219.918 350.52 222.985 360.577 224.182 370.818C224.627 374.625 224.791 374.685 228.971 372.567C237.069 368.463 239.7 362.656 237.029 354.78C232.984 342.854 223.615 331.698 212.108 325.103C204.229 320.588 208.12 318.209 216.529 322.401C232.681 330.452 246.856 346.553 249.313 359.638C249.775 362.099 250.215 362.148 254.176 360.176C258.1 358.222 261.833 354.174 262.709 350.923C265.529 340.458 243.883 323.187 217.778 315.074C214.248 313.977 211.36 312.804 211.36 312.467C211.36 311.314 215.483 303.254 217.871 299.741C222.259 293.284 228.406 289.001 234.064 288.458C243.148 287.586 249.428 295.959 246.266 304.729C244.578 309.41 245.56 310.396 251.915 310.396C265.061 310.396 280.472 316.168 288.096 323.948C294.027 330 297.435 331.496 305.383 331.54C310.886 331.57 311.666 331.424 315.353 329.679C328.698 323.362 332.065 307.515 322.217 297.376C318.071 293.106 318.315 293.089 311.96 298.144C308.85 300.618 306.014 302.641 305.656 302.641C305.298 302.641 302.354 300.601 299.114 298.108L293.222 293.574L291.135 295.165C288.491 297.181 286.235 300.129 284.722 303.546L283.538 306.22H279.453C272.283 306.22 260.342 303.343 258.548 301.182C258.02 300.547 258.362 299.595 260.08 296.91C269.856 281.639 270.801 267.508 262.608 259.073C259.094 255.454 253.301 252.913 247.925 252.631L243.597 252.404L243.593 262.759C243.587 282.176 241.747 284.17 223.3 284.747C210.524 285.146 208.302 285.871 202.92 291.392L200.044 294.342L196.87 291.185C191.329 285.672 189.59 285.117 176.736 284.751C158.383 284.229 156.448 282.131 156.442 262.745L156.439 252.377L152.044 252.659C131.139 254 125.51 276.004 140.494 297.817L142.302 300.448L140.958 301.536C138.949 303.161 132.156 304.987 124.313 306.011C116.242 307.064 114.511 306.899 111.393 304.785C108.091 302.546 104.808 301.8 101.148 302.457L98.0932 303.006L83.2393 289.037C75.0698 281.355 66.4597 273.329 64.1064 271.201L59.8273 267.334L60.1586 264.127C60.4673 261.138 60.3682 260.807 58.708 259.257C57.3558 257.995 57.0382 257.307 57.3905 256.406C59.2411 251.669 55.7351 243.994 50.6453 241.642C46.1847 239.581 46.1901 239.579 46.4868 243.671ZM187.089 252.087C182.126 257.474 178.366 264.744 181.081 263.703C183.142 262.912 186.701 262.148 188.974 262.008C192.265 261.805 192.387 261.671 191.258 259.509C190.639 258.321 190.246 256.089 190.216 253.58C190.159 248.833 190.109 248.809 187.089 252.087ZM301.782 279.753C299.822 281.944 298.143 283.926 298.049 284.157C297.857 284.628 304.92 291.322 305.566 291.281C305.794 291.267 307.726 289.664 309.861 287.719L313.741 284.183L309.542 279.976L305.344 275.769L301.782 279.753Z" />
    </mask>
    <path fill-rule="evenodd" clip-rule="evenodd" d="M195.353 18.5167L191.141 23.6998L195.078 28.8065C200.265 35.5334 199.897 35.1922 200.762 34.0743C201.173 33.5422 203.174 30.9814 205.207 28.383L208.905 23.6592L204.7 18.4964C202.387 15.6564 200.286 13.333 200.03 13.333C199.774 13.333 197.67 15.6654 195.353 18.5167ZM181.603 38.4306C169.662 40.7767 169.104 52.0162 180.075 69.1546L182.195 72.4646L181.264 75.1936C178.551 83.1481 172.508 88.7482 164.006 91.1861C159.675 92.4275 159.72 92.4925 161.895 88.1075C165.779 80.2771 163.623 73.6869 156.814 72.5827C154.818 72.2594 154.366 72.5153 150.017 76.4332L145.358 80.6297L140.727 76.5089C135.881 72.1968 134.972 71.8627 131.746 73.2102C125.57 75.7884 125.246 83.209 130.926 91.986L133.379 95.7769L148.938 95.4864C161.071 95.2591 165.287 94.9728 168.08 94.1842C177.597 91.4981 185.259 84.4652 188.451 75.4859L189.552 72.3876H210.634L211.041 74.009C212.601 80.2193 218.621 87.7609 224.72 91.1456C231.178 94.73 233.812 95.1631 251.115 95.4864L266.692 95.7775L269.188 91.8292C274.729 83.0622 274.377 75.7514 268.29 73.2102C264.981 71.8287 264.01 72.1848 259.25 76.5245L254.713 80.6613L250.036 76.4487C245.67 72.5153 245.218 72.2588 243.221 72.5827C236.413 73.6869 234.256 80.2771 238.14 88.1075C240.316 92.4925 240.36 92.4275 236.029 91.1861C227.539 88.7518 221.484 83.1469 218.781 75.2199L217.859 72.5171L220.037 69.1146C231.363 51.4227 230.139 39.9804 216.722 38.1306L214.025 37.7584L207.173 45.8274C203.404 50.2648 200.178 53.8958 200.004 53.8958C199.83 53.8958 196.632 50.272 192.898 45.8429C189.069 41.3016 185.692 37.8186 185.153 37.8556C184.628 37.8914 183.03 38.1503 181.603 38.4306ZM142.217 53.2874C138.743 57.4415 138.647 56.4125 143.007 61.8163C145.295 64.6533 145.45 64.6205 148.784 60.6012C151.92 56.8205 151.941 57.0209 147.896 52.488L145.309 49.589L142.217 53.2874ZM251.468 53.3941L248.457 57.0686L251.549 60.8529L254.641 64.6372L256.014 62.9944C257.068 61.7273 258.115 60.4535 259.153 59.1731L260.918 56.9935L257.877 53.3571C256.204 51.3564 254.756 49.7202 254.658 49.7202C254.559 49.7202 253.124 51.3737 251.468 53.3941ZM105.724 56.6254C104.59 57.1175 100.671 60.4401 97.0151 64.0096C89.8365 71.0187 89.5839 71.1535 81.2204 72.427C69.9507 74.1426 68.198 77.6608 74.9719 84.9699C79.5912 89.9543 80.9732 94.9722 79.251 100.511L78.3895 103.283L82.0436 101.555C88.4318 98.5357 91.3689 99.5564 91.3689 104.796C91.3689 107.706 91.6548 108.024 93.1873 106.817C98.0269 103.006 97.1733 98.0442 90.4 90.6236C84.604 84.2731 83.3259 79.8852 85.9974 75.5068C88.4133 71.5466 97.2198 68.0325 102.064 69.0961L103.653 69.4445L103.629 75.2408C103.588 85.7537 109.355 92.4233 120.535 94.7908C125.559 95.855 125.396 95.8652 125.396 94.4854C125.396 93.6038 124.851 93.2268 123.158 92.9375C109.639 90.6314 104.75 77.4073 113.388 66.509L115.136 64.3037L113.629 61.1362C112.715 59.2143 111.387 57.5202 110.253 56.8294C108.049 55.4867 108.323 55.4992 105.724 56.6254ZM290.905 56.1381C289.397 56.3928 287.062 59.1725 285.763 62.2595C284.941 64.2137 284.976 64.4016 286.554 66.4082C295.281 77.5105 290.502 90.6141 276.878 92.9375C275.185 93.2268 274.639 93.6038 274.639 94.4854C274.639 95.8652 274.476 95.855 279.501 94.7908C290.669 92.4257 296.439 85.7596 296.416 75.2515C296.401 68.6225 296.634 68.3684 302.013 69.1647C310.423 70.409 315.233 74.4009 315.233 80.1363C315.233 83.3933 313.718 86.0871 308.764 91.6365C302.949 98.1504 302.117 102.138 305.803 105.822C308.218 108.235 308.667 108.051 308.667 104.642C308.667 99.4764 311.728 98.4463 317.876 101.545L321.284 103.262L320.796 100.799C319.404 93.7738 320.463 90.0432 325.396 84.6C331.99 77.3256 329.999 74.2279 317.379 72.1234C309.928 70.8809 310.183 71.0282 302.696 63.6857C296.496 57.6049 293.516 55.6979 290.905 56.1381ZM36.201 76.4141C28.0183 85.0772 26.7515 100.687 33.1642 113.826C38.7894 125.351 50.5677 135.731 74.2072 149.996L82.7128 155.129L82.5027 158.049C82.3875 159.656 82.2311 161.036 82.1552 161.118C81.9009 161.393 69.617 157.776 65.4323 156.195C50.3128 150.482 33.8596 139.879 21.6277 127.966L16.0615 122.544L14.7625 125.353C12.7304 129.748 12.8952 141.038 15.0658 146.159C20.2242 158.331 28.8021 164.239 48.723 169.341C56.803 171.41 71.1405 174.023 78.4092 174.751C82.7486 175.186 83.3169 175.628 83.6966 178.865C83.9617 181.122 82.246 181.421 68.5652 181.497C52.626 181.586 36.5687 178.596 22.8879 172.992L16.449 170.355L16.0985 171.969C14.3566 179.988 20.454 191.115 29.1191 195.73C38.6706 200.817 59.4458 200.518 83.496 194.949C88.3822 193.817 88.2055 193.79 89.264 195.836C90.6692 198.551 90.5051 198.771 85.2469 201.233C74.2203 206.396 61.2338 208.98 44.0589 209.43C30.6067 209.781 31.3798 209.36 33.1612 215.355C38.2336 232.422 66.9068 231.564 93.7138 213.544L98.7451 210.162L100.43 211.775C102.796 214.04 102.701 214.278 97.1004 220.143C88.8962 228.734 75.8011 235.745 63.4623 238.152C57.9427 239.229 57.6889 239.599 60.3777 242.659C66.6417 249.788 79.3913 250.584 90.2323 244.524C97.501 240.461 106.89 230.605 112.583 221.06C112.679 220.899 117.173 222.681 117.542 223.025C117.964 223.421 115.679 230.228 114.053 233.415C109.833 241.689 99.8202 252.265 91.7116 257.014C88.3554 258.979 88.4276 259.365 92.5951 261.727C95.5644 263.41 96.313 263.57 101.231 263.57C115.357 263.57 124.36 252.203 128.989 228.525L129.66 225.095H132.241C140.514 225.095 150.326 230.652 154.241 237.554L156.14 240.902L156.299 223.065C156.386 213.256 156.373 205.145 156.271 205.043C156.168 204.941 154.62 205.265 152.829 205.763C148.256 207.036 137.819 207.513 133.623 206.64C115.149 202.796 107.593 182.895 119.483 169.398C120.765 167.943 121.814 166.506 121.814 166.206C121.814 165.906 119.196 163.877 115.994 161.697C93.4028 146.318 66.0436 115.487 41.8996 78.2036C38.8497 73.4942 38.9339 73.5204 36.201 76.4141ZM353.311 85.3618C329.115 121.413 303.542 149.113 280.758 163.95C277.653 165.972 277.649 166.102 280.581 169.431C292.456 182.911 284.884 202.796 266.412 206.64C262.216 207.513 251.779 207.036 247.207 205.763C245.416 205.265 243.867 204.941 243.764 205.043C243.662 205.145 243.65 213.256 243.737 223.065L243.895 240.902L245.794 237.554C249.729 230.617 259.469 225.126 267.881 225.102L270.376 225.095L271.053 228.525C274.544 246.219 280.728 257.327 289.488 261.636C296.413 265.042 306.08 264.2 310.02 259.847C311.045 258.714 310.979 258.622 307.632 256.536C295.833 249.181 284.923 235.253 282.732 224.747C282.374 223.03 282.508 222.847 284.766 221.961L287.183 221.012L289.073 223.799C303.081 244.453 320.445 253.219 334.136 246.548C337.683 244.819 341.502 241.339 341.498 239.837C341.497 239.406 339.508 238.725 336.573 238.152C322.304 235.368 304.745 224.849 299 215.645L297.756 213.651L299.51 211.898L301.265 210.145L306.28 213.499C333.357 231.609 361.785 232.479 366.874 215.355C368.656 209.36 369.429 209.781 355.977 209.43C338.866 208.982 325.868 206.393 314.786 201.223C309.53 198.772 309.366 198.551 310.771 195.836C311.83 193.79 311.653 193.817 316.539 194.949C333.101 198.784 355.15 200.51 363.228 198.604C375.604 195.682 383.324 186.985 383.792 175.435C383.909 172.565 383.88 170.216 383.729 170.216C383.577 170.216 381.737 170.989 379.639 171.935C365.91 178.125 348.326 181.583 331.053 181.492C317.815 181.422 316.075 181.111 316.339 178.865C316.719 175.628 317.287 175.186 321.626 174.751C341.422 172.769 365.282 166.313 373.249 160.785C378.738 156.975 383.407 150.946 385.491 144.975C387.168 140.173 387.023 129.14 385.233 125.263L383.895 122.365L378.368 127.848C363.476 142.62 343.399 154.32 323.748 159.677C317.629 161.345 317.828 161.407 317.534 157.738L317.323 155.103L321.8 152.432C360.799 129.168 373.606 113.368 370.675 92.1316C369.719 85.2049 364.13 74.1772 361.576 74.1772C361.158 74.1772 357.439 79.2105 353.311 85.3618ZM183.601 102.964C177.776 104.425 165.848 105.184 148.607 105.19C125.485 105.199 117.333 107.318 113.702 114.263C112.07 117.384 113.038 126.097 115.321 128.847C115.842 129.473 116.242 129.239 117.277 127.705C119.687 124.128 123.057 122.82 129.874 122.814C160.619 122.788 184.098 167.111 164.455 188.095C162.546 190.134 161.961 191.095 162.625 191.098C163.162 191.101 180.124 191.103 200.316 191.103C220.509 191.103 237.478 191.101 238.025 191.098C238.73 191.095 238.362 190.443 236.758 188.857C216.054 168.384 238.961 123.116 270.162 122.845C277.176 122.784 280.854 124.145 283.27 127.697L284.693 129.791L286.024 127.187C289.094 121.179 287.962 113.773 283.45 110.35C278.161 106.338 274.356 105.773 248.671 105.185C232.397 104.813 224.552 104.398 220.912 103.718C218.121 103.197 214.966 102.61 213.903 102.414L211.968 102.059L212.786 104.777C214.151 109.309 218.718 114.936 223.897 118.469C225.374 119.477 226.695 120.393 226.831 120.503C226.967 120.613 225.337 122.515 223.208 124.731C212.438 135.936 204.931 152.597 201.505 172.9C200.228 180.462 200.185 180.581 199.766 177.672C196.564 155.432 188.705 136.825 177.424 124.774C175.404 122.617 173.751 120.73 173.751 120.58C173.751 120.431 175.076 119.452 176.695 118.403C182.088 114.911 188.413 106.411 187.968 103.254L187.78 101.915L183.601 102.964ZM135.317 129.323C133.473 131.166 130.831 136.475 131.451 137.094C131.592 137.236 133.174 136.625 134.965 135.739C137.791 134.34 138.949 134.127 143.705 134.127C150.064 134.127 150.106 133.601 144.001 130.35C137.804 127.05 137.615 127.027 135.317 129.323ZM257.327 129.647C255.521 130.598 253.282 132 252.351 132.765L250.659 134.155L255.196 133.926C260.118 133.677 264.586 134.755 267.639 136.927L269.319 138.123L268.911 136.423C267.838 131.959 264.574 127.847 262.14 127.892C261.299 127.908 259.133 128.698 257.327 129.647ZM181.81 195.351C181.622 195.841 182.553 199.267 183.878 202.963C186.831 211.201 186.875 210.487 183.339 211.661C179.154 213.05 175.343 216.559 175.343 219.022C175.343 222.638 180.98 226.56 187.32 227.357C190.349 227.737 190.723 227.944 191.128 229.454C191.427 230.572 191.341 231.185 190.872 231.297C190.485 231.388 188.854 231.889 187.248 232.411C184.491 233.306 184.21 233.295 182.183 232.209C176.03 228.913 170.593 232.505 173.538 237.92C176.222 242.856 176.259 242.979 175.625 244.797C175.125 246.231 175.172 246.569 175.871 246.569C177.311 246.569 179.023 244.394 179.719 241.679C180.081 240.267 180.496 238.76 180.641 238.329C180.958 237.392 182.195 238.004 182.014 239.008C181.945 239.394 182.101 241.147 182.362 242.903C182.797 245.846 182.66 246.471 180.613 250.829C179.147 253.951 178.063 257.487 177.426 261.228C176.56 266.317 176.338 266.88 175.255 266.725C174.34 266.594 174.041 266.089 174.014 264.628C173.963 261.849 173.454 261.733 172.269 264.228C169.571 269.91 174.565 276.368 180.506 274.878C181.51 274.626 182.799 275.07 184.856 276.376C191.03 280.295 202.567 281.479 210.267 278.983L213.651 277.886L205.032 254.324C182.037 191.456 182.68 193.088 181.81 195.351ZM198.8 204.366C197.859 205.365 197.615 206.203 197.844 207.647L198.152 209.585H195.204C193.584 209.585 192.257 209.827 192.257 210.123C192.257 211.576 216.062 275.798 216.601 275.798C217.493 275.798 222.889 271.865 224.479 270.057C231.305 262.288 227.671 255.335 219.556 260.64C216.895 262.38 217.276 263.145 215.305 252.081C213.384 241.3 213.521 240.962 219.774 241.03C224.09 241.077 226.881 243.495 226.881 247.186C226.881 249.845 228.377 247.896 228.536 245.031C228.83 239.709 225.413 236.428 219.575 236.428H217.006L215.66 231.209C214.076 225.066 214.002 223.136 215.304 221.836C216.962 220.179 218.123 221.792 217.679 225.137C217.117 229.375 218.563 230.277 221.24 227.358C225.788 222.399 225.111 215.1 219.92 213.128C216.578 211.858 210.087 213.207 207.249 215.76C206.307 216.606 205.738 216.802 205.57 216.335C205.431 215.946 204.515 214.523 203.536 213.172L201.756 210.715L203.275 208.912C206.786 204.742 202.524 200.412 198.8 204.366ZM46.4868 243.671C46.7506 247.315 46.7411 247.342 45.331 246.896C37.3012 244.354 34.136 244.341 31.2312 246.838C29.1089 248.662 28.9973 253.657 30.9792 258.128C32.7349 262.088 32.7403 262.078 28.6869 262.078C24.6788 262.078 24.7427 262.016 26.0686 264.643C29.0636 270.577 35.8565 273.824 41.8829 272.202C43.7777 271.692 44.5275 271.685 44.6905 272.174C45.3878 274.264 49.8471 275.115 52.6123 273.686L54.3907 272.767L70.0439 287.491C78.6534 295.589 87.0074 303.488 88.6085 305.045L91.5187 307.876L90.4698 310.62C86.7441 320.369 96.2611 329.516 107.261 326.76L111.067 325.806L116.272 330.628C122.219 336.136 124.263 336.779 126.557 333.864C128.347 331.592 127.766 330.473 121.891 324.872L116.74 319.963L118.078 318.816C122.023 315.435 136.125 311.305 146.577 310.471C155.445 309.763 155.553 309.677 153.77 304.729C150.608 295.959 156.887 287.586 165.971 288.458C173.162 289.148 180.436 295.484 185.544 305.503C187.266 308.882 188.671 311.969 188.666 312.363C188.661 312.757 185.101 314.226 180.756 315.626C159.262 322.553 140.931 335.598 137.318 346.537C135.578 351.806 141.612 359.594 148.762 361.308C150.193 361.651 150.374 361.494 150.731 359.594C153.408 345.334 170.579 327.058 187.159 320.822C190.934 319.402 191.048 319.394 191.645 320.508C192.564 322.223 192.412 322.661 190.615 323.478C173.976 331.045 157.922 355.319 162.991 365.247C164.411 368.028 168.332 371.355 172.207 373.068C175.654 374.592 175.304 374.968 176.128 368.853C178.095 354.257 184.345 339.224 192.089 330.465C193.147 329.269 194.154 328.291 194.328 328.291C195.278 328.291 194.382 334.348 192.545 340.347C187.427 357.066 185.462 373.274 188.047 377.453C189.51 379.818 192.95 382.771 196.986 385.126L199.624 386.666L202.657 385.146C206.648 383.145 210.354 380.095 211.972 377.479C214.755 372.981 212.334 354.445 206.866 338.381C205.441 334.194 204.916 329.249 205.838 328.684C206.629 328.199 212.493 336.181 215.235 341.475C219.918 350.52 222.985 360.577 224.182 370.818C224.627 374.625 224.791 374.685 228.971 372.567C237.069 368.463 239.7 362.656 237.029 354.78C232.984 342.854 223.615 331.698 212.108 325.103C204.229 320.588 208.12 318.209 216.529 322.401C232.681 330.452 246.856 346.553 249.313 359.638C249.775 362.099 250.215 362.148 254.176 360.176C258.1 358.222 261.833 354.174 262.709 350.923C265.529 340.458 243.883 323.187 217.778 315.074C214.248 313.977 211.36 312.804 211.36 312.467C211.36 311.314 215.483 303.254 217.871 299.741C222.259 293.284 228.406 289.001 234.064 288.458C243.148 287.586 249.428 295.959 246.266 304.729C244.578 309.41 245.56 310.396 251.915 310.396C265.061 310.396 280.472 316.168 288.096 323.948C294.027 330 297.435 331.496 305.383 331.54C310.886 331.57 311.666 331.424 315.353 329.679C328.698 323.362 332.065 307.515 322.217 297.376C318.071 293.106 318.315 293.089 311.96 298.144C308.85 300.618 306.014 302.641 305.656 302.641C305.298 302.641 302.354 300.601 299.114 298.108L293.222 293.574L291.135 295.165C288.491 297.181 286.235 300.129 284.722 303.546L283.538 306.22H279.453C272.283 306.22 260.342 303.343 258.548 301.182C258.02 300.547 258.362 299.595 260.08 296.91C269.856 281.639 270.801 267.508 262.608 259.073C259.094 255.454 253.301 252.913 247.925 252.631L243.597 252.404L243.593 262.759C243.587 282.176 241.747 284.17 223.3 284.747C210.524 285.146 208.302 285.871 202.92 291.392L200.044 294.342L196.87 291.185C191.329 285.672 189.59 285.117 176.736 284.751C158.383 284.229 156.448 282.131 156.442 262.745L156.439 252.377L152.044 252.659C131.139 254 125.51 276.004 140.494 297.817L142.302 300.448L140.958 301.536C138.949 303.161 132.156 304.987 124.313 306.011C116.242 307.064 114.511 306.899 111.393 304.785C108.091 302.546 104.808 301.8 101.148 302.457L98.0932 303.006L83.2393 289.037C75.0698 281.355 66.4597 273.329 64.1064 271.201L59.8273 267.334L60.1586 264.127C60.4673 261.138 60.3682 260.807 58.708 259.257C57.3558 257.995 57.0382 257.307 57.3905 256.406C59.2411 251.669 55.7351 243.994 50.6453 241.642C46.1847 239.581 46.1901 239.579 46.4868 243.671ZM187.089 252.087C182.126 257.474 178.366 264.744 181.081 263.703C183.142 262.912 186.701 262.148 188.974 262.008C192.265 261.805 192.387 261.671 191.258 259.509C190.639 258.321 190.246 256.089 190.216 253.58C190.159 248.833 190.109 248.809 187.089 252.087ZM301.782 279.753C299.822 281.944 298.143 283.926 298.049 284.157C297.857 284.628 304.92 291.322 305.566 291.281C305.794 291.267 307.726 289.664 309.861 287.719L313.741 284.183L309.542 279.976L305.344 275.769L301.782 279.753Z" stroke="#FF4B0C" stroke-width="12" mask="url(#path-2-outside-1_113_444)" />
  </g>
</svg>