<svg width="150" height="150" viewBox="0 0 150 150" fill="none" xmlns="http://www.w3.org/2000/svg">
  <path fill-rule="evenodd" clip-rule="evenodd" d="M76.1477 113.542L89.5236 120.851V136.691L76.1477 144L62.7718 136.691V120.851L76.1477 113.542ZM64.2644 122.554L75.4014 128.64V141.889L64.2644 135.803V122.554ZM76.894 141.889L88.031 135.803V122.554L76.894 128.64V141.889ZM76.1477 127.344L87.2188 121.295L76.1477 115.245L65.0766 121.295L76.1477 127.344Z" fill="#FF4B0C" />
  <path fill-rule="evenodd" clip-rule="evenodd" d="M72.7052 6L101.073 21.393L89.4637 102.218L76.1486 109.494L62.8014 102.201L57.0019 14.4708L72.7052 6ZM58.6123 16.2039L84.5339 30.2699L75.5356 107.456L64.2366 101.282L58.6123 16.2039ZM77.0572 107.294L88.0928 101.264L99.3102 23.1636L86.03 30.3273L77.0572 107.294ZM85.3349 29.004L98.6892 21.8003L72.7031 7.69938L59.3488 14.903L85.3349 29.004Z" fill="#FF4B0C" />
  <path fill-rule="evenodd" clip-rule="evenodd" d="M61.4137 12.8219L89.2104 27.9053L79.4174 106.967L78.6198 106.868L88.3453 28.3515L61.0309 13.5298L61.4137 12.8219ZM60.7771 21.094L82.3176 33.0824L74.4702 104.625L65.484 99.2669L60.7771 21.094ZM61.6676 22.5107L66.2606 98.7931L73.8078 103.293L81.4604 33.5263L61.6676 22.5107ZM67.1624 119.22L79.4205 126.237V140.848L78.6168 141V126.704L66.7637 119.919L67.1624 119.22ZM65.4705 124.632L74.2538 129.576V139.799L65.4705 135.03V124.632ZM66.2742 126.008V134.551L73.4501 138.447V130.047L66.2742 126.008Z" fill="#FF4B0C" />
  <path fill-rule="evenodd" clip-rule="evenodd" d="M97.2866 23.5743L70 8.5L72.111 6.99351L99.7868 22.3309L88.1915 102.481L85.5 103L97.2866 23.5743ZM85.9071 123.112L74.2538 116L75.5693 114.545L88.2033 121.777V136.822L85.9071 137.5V123.112Z" fill="#FF4B0C" />
  <path d="M13 98.2032L50.7149 123.294L18.124 95.6805L13 98.2032Z" fill="#FF4B0C" />
  <path d="M35.9124 79.7456L50.7149 96.9782L39.1322 78.1621L35.9124 79.7456Z" fill="#FF4B0C" />
  <path d="M121.116 85.0633L104.561 105.599L125.348 86.5424L121.116 85.0633Z" fill="#FF4B0C" />
  <path d="M131.364 105.599L104.561 126.47L137 108.784L131.364 105.599Z" fill="#FF4B0C" />
  <path fill-rule="evenodd" clip-rule="evenodd" d="M56.9571 14.1602C57.2627 13.9627 57.6515 13.9467 57.9722 14.1185L85.9722 29.1185C86.3336 29.3121 86.5402 29.7066 86.4935 30.1139L77.4935 108.614C77.4563 108.938 77.2633 109.224 76.9763 109.379C76.6894 109.535 76.3447 109.54 76.0528 109.394L63.0528 102.894C62.7361 102.736 62.5267 102.422 62.5024 102.069L56.5024 15.0688C56.4773 14.7058 56.6515 14.3578 56.9571 14.1602ZM58.6221 16.7356L64.4583 101.361L75.6693 106.967L84.4292 30.5608L58.6221 16.7356ZM62.9872 120.641C63.2894 120.461 63.6642 120.453 63.9741 120.62L76.9741 127.62C77.298 127.794 77.5 128.132 77.5 128.5V143C77.5 143.352 77.315 143.678 77.0128 143.859C76.7106 144.039 76.3358 144.047 76.0259 143.88L63.0259 136.88C62.702 136.706 62.5 136.368 62.5 136V121.5C62.5 121.148 62.685 120.822 62.9872 120.641ZM64.5 123.174V135.403L75.5 141.326V129.097L64.5 123.174Z" fill="#FF4B0C" />
</svg>