<svg width="160" height="30" viewBox="0 0 160 30" fill="none" xmlns="http://www.w3.org/2000/svg">
  <path d="M20.6222 2.59569C20.081 2.26773 19.1387 1.74199 18.7405 1.50002C18.7405 1.50002 18.7555 1.47811 27.0276 1.47811C26.9053 1.5521 26.4408 1.83006 25.9949 2.10003C25.5491 2.36999 24.7797 2.83592 24.2841 3.13588C23.7885 3.43584 24.0568 3.28013 23.7084 3.49011C23.6923 3.49981 23.2745 3.81474 22.9722 3.90005C22.8872 3.92405 22.8457 3.92605 22.7441 3.90605C22.4799 3.85406 22.1117 3.57609 22.1117 3.57609C21.8317 3.40812 21.1634 2.92364 20.6222 2.59569Z" fill="#2F2F2F" />
  <path d="M9.06118 22.3972L9.05911 19.9376C9.05815 18.9032 9.05193 18.5007 9.04852 18.3685C9.04504 18.3184 9.04605 18.2732 9.04852 18.3685C9.0507 18.4001 9.05466 18.4336 9.06115 18.4353C9.07982 18.4413 10.5729 18.9332 12.3812 19.5291C14.1895 20.127 15.0884 20.627 15.1216 20.6429C15.1527 20.6589 15.2128 20.7049 15.2564 20.7449C15.2999 20.7869 15.3704 20.8929 15.414 20.9809C15.4596 21.0689 15.5716 21.3029 15.6649 21.5008C15.7603 21.6988 15.9158 22.0288 16.0153 22.2347C16.1128 22.4427 16.2725 22.7747 16.3679 22.9746C16.4633 23.1766 16.6229 23.5106 16.7225 23.7205C16.822 23.9285 16.8377 23.889 16.9269 24.075C17.0161 24.261 17.2292 24.6003 17.2292 24.6003C17.2292 24.6003 16.0538 24.367 14.9195 24.075C13.7851 23.7831 12.0639 23.3411 11.0934 23.0932C10.096 22.8372 9.29551 22.6212 9.25196 22.5972C9.20842 22.5732 9.14828 22.5172 9.06118 22.3972Z" fill="#2F2F2F" />
  <path d="M30.6352 20.571C30.6871 20.553 31.5839 20.0551 33.3694 19.4652C35.1549 18.8752 36.6314 18.3913 36.6521 18.3893C36.6564 18.389 36.6596 18.3755 36.6619 18.3572C36.6668 18.1693 36.67 18.2928 36.6619 18.3572C36.6576 18.5241 36.6521 18.9364 36.6521 19.8536C36.6521 21.3374 36.6438 22.2593 36.6314 22.3173C36.621 22.3713 36.5857 22.4492 36.5526 22.4932C36.5215 22.5372 36.4613 22.5892 36.4219 22.6072C36.3846 22.6252 35.8807 22.7612 35.3042 22.9112C34.7277 23.0592 33.077 23.4831 31.6337 23.8531C30.1904 24.223 28.8817 24.7803 28.413 24.9003C28.413 24.9003 28.5366 24.5905 28.5615 24.5365C28.5864 24.4805 28.6673 24.3145 28.7378 24.1665C28.8083 24.0185 28.8891 23.8506 28.914 23.7966C28.9389 23.7406 29.0198 23.5746 29.0903 23.4266C29.1608 23.2786 29.2417 23.1107 29.2666 23.0567C29.2915 23.0007 29.3723 22.8347 29.4428 22.6867C29.5133 22.5387 29.5942 22.3708 29.6191 22.3168C29.644 22.2608 29.7269 22.0908 29.7995 21.9368C29.8742 21.7828 29.9467 21.6309 29.9613 21.5969C29.9779 21.5629 30.0712 21.3709 30.1686 21.1669C30.3117 20.869 30.3656 20.779 30.4444 20.701C30.4984 20.649 30.5834 20.591 30.6352 20.571Z" fill="#2F2F2F" />
  <path d="M7.01822 2.76467C7.08824 2.704 7.84401 2.4613 11.4249 1.34542C13.8033 0.606779 15.7543 3.67253e-05 15.7663 3.67253e-05C15.776 -0.00260128 15.9861 0.137213 16.2372 0.311322C16.4859 0.482792 16.906 0.770335 17.1716 0.952358C17.4373 1.13174 18.1109 1.59339 18.6687 1.9759C19.2265 2.35842 20.1513 2.99154 20.7211 3.38196C21.291 3.77503 21.8343 4.13907 21.9284 4.19447C22.0226 4.24987 22.194 4.32373 22.3148 4.3633C22.4355 4.40023 22.6287 4.4398 22.7494 4.44772C22.8701 4.45563 23.0512 4.45036 23.1599 4.43189C23.2661 4.41606 23.4279 4.37385 23.5221 4.33956C23.6162 4.30527 23.7515 4.24459 23.8239 4.20502C23.8963 4.16545 24.104 4.03091 24.2827 3.90693C24.4614 3.78294 25.0602 3.37405 25.6107 2.99681L25.6446 2.97361C26.1942 2.59697 26.9864 2.05416 27.4217 1.75695C27.866 1.45094 28.6169 0.939168 29.0877 0.617331C29.5586 0.295494 29.9594 0.0237788 29.9763 0.0158648C29.9908 0.00531274 31.9539 0.604141 34.3323 1.34542C36.7131 2.0867 38.6882 2.71455 38.722 2.73829C38.7558 2.76467 38.8114 2.82007 38.8452 2.86228C38.879 2.90448 38.92 3.00209 38.9345 3.07595C38.9563 3.18147 38.9635 4.10214 38.9635 10.1933L38.9514 13.4512C38.9514 13.4512 38.9538 14.2215 38.9563 15.1659C38.9635 16.7751 38.9611 16.8833 38.9225 16.9044C38.8983 16.9176 37.0487 17.614 34.8104 18.4476C32.572 19.2839 30.6717 20.0041 30.5848 20.0489C30.4979 20.0937 30.3675 20.1729 30.2951 20.2256C30.2226 20.281 30.0946 20.3945 30.0077 20.4815C29.9232 20.5686 29.7976 20.7348 29.7252 20.8509C29.6552 20.9669 29.5031 21.2861 29.3872 21.5631C29.2737 21.8401 29.1216 22.2015 29.0515 22.3677C28.9815 22.5339 28.8825 22.766 28.8342 22.8821C28.7859 22.9982 28.7231 23.1459 28.6966 23.2119C28.67 23.2778 28.5783 23.4915 28.4962 23.6867C28.4141 23.8819 28.3199 24.1009 28.2909 24.1747C28.262 24.246 28.1678 24.4676 28.0857 24.6628C28.0036 24.858 27.9094 25.0769 27.8804 25.1508C27.8515 25.222 27.7573 25.4436 27.6752 25.6388C27.5931 25.834 27.4989 26.053 27.47 26.1269C27.441 26.1981 27.3468 26.4197 27.2647 26.6149C27.1826 26.8101 27.0885 27.0291 27.0595 27.1029C27.0305 27.1742 26.9363 27.3958 26.8542 27.591C26.7721 27.7862 26.678 28.0051 26.649 28.079C26.62 28.1502 26.5283 28.3639 26.451 28.5538C26.3713 28.7438 26.2989 28.9047 26.2892 28.9152C26.282 28.9258 25.6059 29.1289 24.7897 29.369C23.9736 29.6064 23.2259 29.931 23.1535 29.9495C23.0714 29.9706 22.9313 29.9759 22.7913 29.968C22.5933 29.9574 22.38 29.7805 21.0833 29.4033C20.2599 29.1632 19.5621 28.9548 19.5307 28.9443C19.4897 28.9284 19.4438 28.8467 19.3545 28.633C19.2868 28.4747 19.1468 28.1397 19.043 27.8943C18.9391 27.649 18.7629 27.2269 18.6494 26.9578C18.5359 26.6888 18.35 26.2456 18.2341 25.9686C18.1182 25.6916 17.9298 25.2484 17.8188 24.9793C17.7053 24.7103 17.5218 24.2776 17.4131 24.0165C17.3045 23.7553 17.1789 23.4572 17.1354 23.357C17.0944 23.2567 17.0002 23.0351 16.9302 22.8689C16.8602 22.7027 16.7684 22.4811 16.7249 22.3809C16.6857 22.2904 16.6051 22.0966 16.5365 21.9317L16.5149 21.8797C16.4424 21.7056 16.3241 21.4312 16.2565 21.2729C16.1865 21.1147 16.0947 20.9221 16.0489 20.8509C16.003 20.777 15.9016 20.6425 15.8219 20.5501C15.7398 20.4578 15.6094 20.3338 15.5297 20.2705C15.45 20.2098 15.3148 20.1201 15.2279 20.0726C15.141 20.0252 13.3107 19.3287 11.1593 18.5241C9.00785 17.7222 7.15102 17.0257 6.82263 16.8938L6.82505 13.4512L6.81048 10.2C6.81048 10.2 6.82505 9.44411 6.82505 3.07068L6.87817 2.95461C6.90956 2.88866 6.97234 2.80424 7.01822 2.76467Z" fill="#2F2F2F" />
  <path d="M0.00634818 11.0804C0.0148124 11.0728 5.099 10.0752 11.3061 8.8675C19.096 7.34635 22.6708 6.66604 22.8457 6.66222C23.0404 6.65839 25.6981 7.16672 34.3994 8.85985C40.615 10.0676 45.7189 11.0651 45.7415 11.0766C45.764 11.0842 45.7781 11.0957 45.7697 11.1072C45.7612 11.1186 40.6545 12.3149 34.4191 13.7634C27.1314 15.4604 23.0178 16.4044 22.8965 16.4044C22.7695 16.4044 18.8139 15.4986 11.3625 13.7673C5.12439 12.3149 0.0148124 11.1186 0.00634818 11.111C-0.00211606 11.0995 -0.00211606 11.0881 0.00634818 11.0804Z" fill="#DD2A12" />
  <path d="M149.232 30V19.7276L151.903 18.5564V19.873C152.262 19.5311 152.718 19.2581 153.271 19.054C153.831 18.8498 154.479 18.7478 155.215 18.7478C156.134 18.7478 156.952 18.9187 157.669 19.2606C158.392 19.6025 158.962 20.0848 159.377 20.7073C159.792 21.3299 160 22.0546 160 22.8812C160 23.463 159.88 24.0065 159.641 24.5117C159.409 25.0118 159.075 25.4506 158.641 25.8283C158.207 26.2008 157.694 26.4917 157.103 26.7009C156.518 26.9101 155.87 27.0147 155.159 27.0147C154.592 27.0147 154.07 26.9407 153.592 26.7927C153.12 26.6447 152.696 26.4355 152.318 26.1651V30H149.232ZM154.64 24.8561C155.086 24.8561 155.486 24.777 155.838 24.6188C156.19 24.4555 156.467 24.2259 156.669 23.9299C156.87 23.6339 156.971 23.2844 156.971 22.8812C156.971 22.473 156.867 22.1234 156.659 21.8326C156.458 21.5366 156.181 21.3095 155.829 21.1513C155.483 20.988 155.086 20.9064 154.64 20.9064C154.199 20.9064 153.803 20.988 153.451 21.1513C153.098 21.3095 152.821 21.5366 152.62 21.8326C152.419 22.1234 152.318 22.473 152.318 22.8812C152.318 23.2844 152.419 23.6339 152.62 23.9299C152.821 24.2259 153.095 24.4555 153.441 24.6188C153.793 24.777 154.193 24.8561 154.64 24.8561Z" fill="#2F2F2F" />
  <path d="M143.014 27.0144C141.964 27.0144 141.036 26.8281 140.23 26.4556C139.425 26.078 138.793 25.5753 138.334 24.9476C137.881 24.32 137.654 23.6311 137.654 22.8809C137.654 22.3349 137.783 21.8144 138.041 21.3194C138.305 20.8193 138.676 20.3779 139.155 19.9951C139.633 19.6073 140.199 19.3037 140.853 19.0842C141.507 18.8597 142.228 18.7474 143.014 18.7474C144.065 18.7474 144.993 18.9362 145.798 19.3139C146.603 19.6864 147.233 20.1865 147.686 20.8142C148.139 21.4418 148.365 22.1308 148.365 22.8809C148.365 23.4269 148.236 23.95 147.978 24.4501C147.72 24.9451 147.352 25.3839 146.874 25.7667C146.396 26.1494 145.83 26.453 145.175 26.6776C144.521 26.9021 143.801 27.0144 143.014 27.0144ZM143.014 24.8558C143.455 24.8558 143.851 24.7767 144.203 24.6185C144.556 24.4552 144.832 24.2256 145.034 23.9296C145.235 23.6336 145.336 23.284 145.336 22.8809C145.336 22.4727 145.235 22.1231 145.034 21.8322C144.839 21.5363 144.565 21.3092 144.213 21.151C143.86 20.9877 143.461 20.906 143.014 20.906C142.568 20.906 142.168 20.9877 141.816 21.151C141.463 21.3092 141.187 21.5363 140.985 21.8322C140.784 22.1231 140.683 22.4727 140.683 22.8809C140.683 23.284 140.784 23.6336 140.985 23.9296C141.193 24.2256 141.473 24.4552 141.825 24.6185C142.178 24.7767 142.574 24.8558 143.014 24.8558Z" fill="#2F2F2F" />
  <path d="M132.715 26.9916C132.306 26.9916 131.901 26.9712 131.498 26.9304C131.095 26.8946 130.708 26.8359 130.337 26.7543C129.966 26.6727 129.614 26.5655 129.28 26.4328V24.4043C129.689 24.6697 130.183 24.8662 130.762 24.9938C131.347 25.1162 131.954 25.1775 132.583 25.1775C133.206 25.1775 133.687 25.1111 134.027 24.9784C134.367 24.8458 134.537 24.6289 134.537 24.3278C134.537 24.0675 134.37 23.8889 134.037 23.792C133.703 23.695 133.203 23.6465 132.536 23.6465H130.545L130.998 21.909H132.442C133.058 21.909 133.505 21.8579 133.782 21.7559C134.065 21.6487 134.206 21.4778 134.206 21.243C134.206 21.095 134.137 20.9725 133.999 20.8756C133.86 20.7786 133.659 20.7072 133.395 20.6613C133.131 20.6102 132.819 20.5847 132.461 20.5847C131.876 20.5847 131.309 20.6485 130.762 20.7761C130.221 20.8986 129.758 21.0925 129.375 21.3578V19.3676C129.884 19.1431 130.428 18.9773 131.007 18.8701C131.592 18.7629 132.171 18.7093 132.744 18.7093C133.631 18.7093 134.389 18.7961 135.018 18.9696C135.647 19.138 136.125 19.383 136.452 19.7044C136.786 20.0259 136.953 20.4138 136.953 20.8679C136.953 21.2252 136.814 21.5543 136.537 21.8554C136.267 22.1514 135.867 22.358 135.339 22.4754C136.006 22.6234 136.509 22.8556 136.849 23.172C137.189 23.4832 137.358 23.8864 137.358 24.3814C137.358 24.9019 137.173 25.3586 136.802 25.7516C136.43 26.1445 135.896 26.4507 135.197 26.6701C134.505 26.8844 133.678 26.9916 132.715 26.9916Z" fill="#2F2F2F" />
  <path d="M118.186 26.7851V19.8347L121.14 18.5564V23.264L125.292 18.9774H128.067V26.7851H125.113V22.4373L120.951 26.7851H118.186Z" fill="#2F2F2F" />
  <path d="M108.018 26.7848V18.9771H112.963C114.095 18.9771 115.004 19.143 115.69 19.4747C116.382 19.8064 116.728 20.309 116.728 20.9826C116.728 21.35 116.615 21.6613 116.388 21.9165C116.162 22.1665 115.857 22.3681 115.473 22.5212C115.089 22.6692 114.661 22.7712 114.19 22.8274L114.086 22.2686C115.023 22.3349 115.766 22.5544 116.313 22.9269C116.867 23.2943 117.143 23.7816 117.143 24.3889C117.143 24.8686 116.973 25.2896 116.634 25.6519C116.3 26.0091 115.822 26.2872 115.199 26.4863C114.583 26.6853 113.85 26.7848 113 26.7848H108.018ZM110.972 25.0549H112.774C113.214 25.0549 113.548 24.9962 113.774 24.8788C114.007 24.7563 114.123 24.5828 114.123 24.3583C114.123 24.1338 114.01 23.9603 113.784 23.8378C113.564 23.7102 113.227 23.6464 112.774 23.6464H110.688V22.0466H112.595C112.991 22.0466 113.296 21.993 113.51 21.8859C113.73 21.7736 113.84 21.6001 113.84 21.3654C113.84 21.1459 113.73 20.9801 113.51 20.8678C113.29 20.7555 112.985 20.6994 112.595 20.6994H110.972V25.0549Z" fill="#2F2F2F" />
  <path d="M101.795 27.0144C100.744 27.0144 99.8164 26.8281 99.0111 26.4556C98.2058 26.078 97.5735 25.5753 97.1143 24.9476C96.6613 24.32 96.4348 23.6311 96.4348 22.8809C96.4348 22.3349 96.5638 21.8144 96.8217 21.3194C97.0859 20.8193 97.4571 20.3779 97.9353 19.9951C98.4134 19.6073 98.9796 19.3037 99.6339 19.0842C100.288 18.8597 101.009 18.7474 101.795 18.7474C102.846 18.7474 103.774 18.9362 104.579 19.3139C105.384 19.6864 106.013 20.1865 106.466 20.8142C106.919 21.4418 107.146 22.1308 107.146 22.8809C107.146 23.4269 107.017 23.95 106.759 24.4501C106.501 24.9451 106.133 25.3839 105.655 25.7667C105.177 26.1494 104.61 26.453 103.956 26.6776C103.302 26.9021 102.581 27.0144 101.795 27.0144ZM101.795 24.8558C102.235 24.8558 102.632 24.7767 102.984 24.6185C103.336 24.4552 103.613 24.2256 103.815 23.9296C104.016 23.6336 104.117 23.284 104.117 22.8809C104.117 22.4727 104.016 22.1231 103.815 21.8322C103.619 21.5363 103.346 21.3092 102.993 21.151C102.641 20.9877 102.242 20.906 101.795 20.906C101.348 20.906 100.949 20.9877 100.597 21.151C100.244 21.3092 99.9674 21.5363 99.7661 21.8322C99.5647 22.1231 99.4641 22.4727 99.4641 22.8809C99.4641 23.284 99.5647 23.6336 99.7661 23.9296C99.9737 24.2256 100.254 24.4552 100.606 24.6185C100.958 24.7767 101.355 24.8558 101.795 24.8558Z" fill="#2F2F2F" />
  <path d="M83.9332 26.7848V18.9771H86.6228L90.5297 23.7995L89.2085 23.8148L92.87 18.9771H95.5596V26.7848H92.8512L92.8889 21.7251L93.4929 21.9165L90.6618 25.4605H88.8405L85.8301 21.9088L86.4246 21.7175L86.4812 26.7848H83.9332Z" fill="#2F2F2F" />
  <path d="M72.3078 30V19.7276L74.9784 18.5564V19.873C75.337 19.5311 75.7932 19.2581 76.3468 19.054C76.9067 18.8498 77.5547 18.7478 78.2908 18.7478C79.2093 18.7478 80.0272 18.9187 80.7444 19.2606C81.4679 19.6025 82.0373 20.0848 82.4525 20.7073C82.8677 21.3299 83.0754 22.0546 83.0754 22.8812C83.0754 23.463 82.9558 24.0065 82.7168 24.5117C82.484 25.0118 82.1505 25.4506 81.7164 25.8283C81.2823 26.2008 80.7696 26.4917 80.1782 26.7009C79.5931 26.9101 78.9451 27.0147 78.2342 27.0147C77.668 27.0147 77.1458 26.9407 76.6677 26.7927C76.1958 26.6447 75.7711 26.4355 75.3937 26.1651V30H72.3078ZM77.7152 24.8561C78.1618 24.8561 78.5613 24.777 78.9136 24.6188C79.266 24.4555 79.5428 24.2259 79.7441 23.9299C79.9454 23.6339 80.0461 23.2844 80.0461 22.8812C80.0461 22.473 79.9423 22.1234 79.7347 21.8326C79.5333 21.5366 79.2565 21.3095 78.9042 21.1513C78.5582 20.988 78.1618 20.9064 77.7152 20.9064C77.2748 20.9064 76.8784 20.988 76.5261 21.1513C76.1738 21.3095 75.897 21.5366 75.6956 21.8326C75.4943 22.1234 75.3937 22.473 75.3937 22.8812C75.3937 23.2844 75.4943 23.6339 75.6956 23.9299C75.897 24.2259 76.1706 24.4555 76.5167 24.6188C76.869 24.777 77.2685 24.8561 77.7152 24.8561Z" fill="#2F2F2F" />
  <path d="M66.9349 27.0144C65.8087 27.0144 64.821 26.8434 63.9717 26.5015C63.1223 26.1545 62.4617 25.6723 61.9899 25.0548C61.518 24.4322 61.2821 23.705 61.2821 22.8732C61.2821 22.2711 61.4111 21.7174 61.669 21.2122C61.9333 20.707 62.2982 20.2707 62.7637 19.9033C63.2356 19.5359 63.7892 19.2526 64.4246 19.0536C65.0663 18.8495 65.771 18.7474 66.5385 18.7474C67.3815 18.7474 68.1334 18.8699 68.7939 19.1149C69.4545 19.3547 69.9987 19.6915 70.4265 20.1253C70.8607 20.5539 71.1595 21.0617 71.3231 21.6485C71.4866 22.2303 71.4929 22.863 71.3419 23.5468H64.1132C64.1258 23.853 64.2548 24.1209 64.5001 24.3506C64.7518 24.5802 65.0915 24.7614 65.5193 24.8941C65.9534 25.0216 66.4567 25.0854 67.0292 25.0854C67.6647 25.0854 68.2686 25.0267 68.8411 24.9094C69.4136 24.7869 69.961 24.6006 70.4832 24.3506V26.3561C70.156 26.4888 69.7911 26.6061 69.3885 26.7082C68.9858 26.8051 68.5738 26.8791 68.1522 26.9302C67.7307 26.9863 67.3249 27.0144 66.9349 27.0144ZM64.3019 21.8552H68.3976C68.385 21.4623 68.2057 21.1484 67.8597 20.9137C67.5137 20.6789 67.045 20.5616 66.4536 20.5616C65.8559 20.5616 65.362 20.6789 64.972 20.9137C64.5819 21.1484 64.3586 21.4623 64.3019 21.8552Z" fill="#2F2F2F" />
  <path d="M55.6488 26.7849V18.3878H51.8174L52.4402 16.0685H62.3207V18.3878H58.8008V26.7849H55.6488Z" fill="#2F2F2F" />
  <path d="M86.3272 10.7164L81.0142 5.17449L85.8176 0H89.7245L84.8362 5.16683L90.3568 10.7164H86.3272ZM78.202 10.7164V0H81.335V3.97272H83.8264V6.29206H81.335V10.7164H78.202Z" fill="#2F2F2F" />
  <path d="M63.9813 10.7164L68.9168 0H72.55L77.5328 10.7164H74.0033L73.0691 8.5425H68.3317L67.4163 10.7164H63.9813ZM69.0395 6.42218H72.3424L70.6815 2.71737L69.0395 6.42218Z" fill="#2F2F2F" />
  <path d="M51.8174 10.7164V0H63.2928V10.7164H60.1597V2.31934H54.9505V10.7164H51.8174Z" fill="#2F2F2F" />
</svg>