<svg width="62" height="62" viewBox="0 0 62 62" fill="none" xmlns="http://www.w3.org/2000/svg">
  <g clip-path="url(#clip0_785_483)">
    <path d="M30.1178 0.0157801C17.7998 0.447991 7.56655 10.0583 6.38432 22.3255C6.14279 24.7789 6.28263 27.1561 6.71484 29.4316C6.71484 29.4316 6.75297 29.6985 6.8801 30.207C7.26146 31.9104 7.8335 33.563 8.54538 35.1139C11.0242 40.9869 16.7574 50.8133 29.622 61.5042C30.4102 62.1652 31.567 62.1652 32.3679 61.5042C45.2325 50.826 50.9657 40.9996 53.4572 35.1012C54.1818 33.5503 54.7412 31.9104 55.1225 30.1943C55.2369 29.6985 55.2878 29.4189 55.2878 29.4189C55.5802 27.8934 55.7327 26.3298 55.7327 24.7281C55.7327 10.7702 44.1774 -0.479992 30.1178 0.0157801ZM30.995 37.0334C24.3592 37.0334 18.982 31.6562 18.982 25.0205C18.982 18.3848 24.3592 13.0075 30.995 13.0075C37.6307 13.0075 43.0079 18.3848 43.0079 25.0205C43.0079 31.6562 37.6307 37.0334 30.995 37.0334Z" fill="#AF1A4C" />
    <path d="M30.1178 0.0157801C17.7998 0.447991 7.56655 10.0583 6.38432 22.3255C6.14279 24.7789 6.28263 27.1561 6.71484 29.4316C6.71484 29.4316 6.75297 29.6985 6.8801 30.207C7.26146 31.9104 7.8335 33.563 8.54538 35.1139C11.0242 40.9869 16.7574 50.8133 29.622 61.5042C30.4102 62.1652 31.567 62.1652 32.3679 61.5042C45.2325 50.826 50.9657 40.9996 53.4572 35.1012C54.1818 33.5503 54.7412 31.9104 55.1225 30.1943C55.2369 29.6985 55.2878 29.4189 55.2878 29.4189C55.5802 27.8934 55.7327 26.3298 55.7327 24.7281C55.7327 10.7702 44.1774 -0.479992 30.1178 0.0157801ZM30.995 37.0334C24.3592 37.0334 18.982 31.6562 18.982 25.0205C18.982 18.3848 24.3592 13.0075 30.995 13.0075C37.6307 13.0075 43.0079 18.3848 43.0079 25.0205C43.0079 31.6562 37.6307 37.0334 30.995 37.0334Z" fill="url(#paint0_linear_785_483)" fill-opacity="0.2" />
    <ellipse cx="30.9996" cy="25.0953" rx="13.2857" ry="13.2857" fill="white" />
  </g>
  <defs>
    <linearGradient id="paint0_linear_785_483" x1="30.9996" y1="0" x2="30.9996" y2="62" gradientUnits="userSpaceOnUse">
      <stop stop-color="white" />
      <stop offset="1" stop-color="white" stop-opacity="0" />
    </linearGradient>
    <clipPath id="clip0_785_483">
      <rect width="62" height="62" fill="white" />
    </clipPath>
  </defs>
</svg>