<svg width="400" height="400" viewBox="0 0 400 400" fill="none" xmlns="http://www.w3.org/2000/svg">
  <g opacity="0.15">
    <path d="M204.634 13.3937C205.157 13.3128 205.72 13.3128 206.242 13.3937C208.212 13.7579 210.424 18.7757 211.348 20.4753C212.595 22.8223 213.881 25.1289 215.168 27.4355C216.454 29.7421 217.781 32.0082 219.148 34.2743C220.515 36.5404 221.882 38.8065 223.289 41.0321C224.696 43.2578 226.143 45.4834 227.591 47.6686C229.038 49.8538 230.526 52.0389 232.053 54.2241C233.581 56.3688 235.109 58.554 236.677 60.6582C238.245 62.8029 239.813 64.9072 241.421 66.971C243.029 69.0752 244.677 71.139 246.326 73.1623C247.974 75.2261 249.663 77.2494 251.391 79.2322C253.12 81.2555 254.849 83.2384 256.578 85.1808C258.347 87.1636 260.116 89.106 261.925 91.0079C263.734 92.9503 265.543 94.8522 267.393 96.7136C269.242 98.6155 271.091 100.437 273.021 102.298C274.911 104.119 276.84 105.94 278.77 107.761C280.7 109.541 282.67 111.322 284.64 113.062C286.61 114.802 288.62 116.542 290.63 118.242C294.852 121.803 299.194 125.202 303.656 128.439C307.436 131.15 317.567 137.18 319.899 140.377C322.667 145.333 322.606 148.478 322.606 155.196L322.646 190.684V219.941C322.646 226.133 322.726 232.365 322.405 238.515C321.118 262.391 315.61 286.346 304.916 307.753C301.659 314.309 297.237 322.645 292.774 328.431C291.407 330.212 290.53 332.032 288.488 333.853C284.538 337.375 285.333 337.333 282.562 339.155L250.278 355.341L204.526 378.448C198.335 381.564 192.264 385.003 186.032 387.998C184.666 388.645 183.5 389.131 182.012 389.333C180.967 388.969 180.122 388.402 179.439 387.512C178.112 385.812 177.027 383.87 175.861 382.049L169.83 372.823L148.281 339.519L126.048 305.042C116.399 290.191 106.791 275.582 98.6694 259.76C97.0211 256.482 95.4129 253.164 93.8852 249.806C92.3574 246.447 90.9101 243.088 89.5029 239.689C88.0958 236.29 86.8093 232.85 85.5228 229.411C84.2764 225.971 83.0703 222.491 81.9848 218.97C80.8591 215.45 79.8138 211.929 78.8489 208.409C77.884 204.848 76.9593 201.287 76.1553 197.726C75.311 194.124 74.5873 190.563 73.9038 186.921C73.2204 183.32 72.6173 179.678 72.0545 176.036C71.1298 169.763 70.2453 163.41 69.8835 157.057C69.3608 148.316 69.5618 139.535 69.5618 130.794L69.6422 89.0737C69.602 83.2466 68.7577 55.244 70.0443 51.7639C70.8081 49.7406 74.6666 49.333 77.3333 49.333C81.3333 49.333 82.4094 48.6011 86.6666 47.9997C92.0131 47.2443 93.0314 46.2637 97.3333 45.333C101.112 44.5237 107.222 45.333 113.143 45.333C124.556 45.333 149.125 38.0054 159.297 35.3346C164.724 33.9183 169.951 30.4382 174.976 27.9293C181.449 24.692 187.962 21.6166 194.395 18.3388C201.39 14.9801 197.558 16.631 204.634 13.3937ZM187.078 29.9526C183.459 31.4498 180.002 33.3922 176.544 35.1727C171.318 37.8435 166.011 40.3929 160.704 42.9018C159.337 43.5492 157.97 44.1562 156.603 44.7632C155.236 45.3702 153.829 45.9367 152.422 46.5033C151.015 47.0698 149.608 47.5959 148.201 48.1219C146.793 48.648 145.346 49.1336 143.939 49.6192C142.492 50.1048 141.085 50.5499 139.637 50.9546C138.19 51.3997 136.743 51.8043 135.295 52.1685C133.848 52.5732 132.4 52.9374 130.913 53.2611C129.466 53.5849 127.978 53.9086 126.491 54.2323C125.003 54.5156 123.556 54.7988 122.068 55.0821C120.581 55.3249 119.093 55.5677 117.605 55.77C116.118 55.9724 114.63 56.1747 113.143 56.3366C111.655 56.4984 110.168 56.6603 108.64 56.7817C107.152 56.9031 105.625 57.0245 104.137 57.065C102.65 57.1459 101.122 57.1864 99.6343 57.2268C98.1468 57.2673 96.619 57.2673 95.1315 57.2673C93.6439 57.2673 92.1162 57.2268 90.6287 57.1459C85.8042 56.984 81.0601 56.3366 76.2357 55.9724C75.914 58.6836 76.0346 61.5162 76.0748 64.2275L76.1553 76.6101V116.591C76.0748 131.482 75.5924 146.455 76.8789 161.306C77.0799 163.572 77.3212 165.838 77.6026 168.145C77.884 170.411 78.1654 172.677 78.4871 174.943C78.8087 177.209 79.1705 179.475 79.5726 181.701C79.9746 183.967 80.3767 186.193 80.8189 188.459C81.2611 190.684 81.7436 192.95 82.226 195.176C82.7085 197.402 83.2713 199.627 83.8342 201.853C84.3971 204.079 84.9599 206.264 85.6032 208.49C86.2062 210.675 86.8495 212.9 87.533 215.085C88.2164 217.271 88.8999 219.456 89.6236 221.601C90.3472 223.786 91.1111 225.93 91.875 228.075C92.6388 230.22 93.4831 232.365 94.2872 234.469C95.1315 236.614 95.9758 238.718 96.8603 240.822C97.7447 242.926 98.6694 245.031 99.5941 247.094C100.519 249.158 101.524 251.262 102.489 253.286C103.494 255.349 104.499 257.373 105.544 259.396C106.59 261.419 107.675 263.443 108.761 265.425C113.625 274.449 119.415 282.947 124.882 291.607L155.759 339.56L173.167 366.186C176.544 371.366 180.163 376.465 183.218 381.847L185.791 380.592L243.484 351.335C249.394 348.341 264.631 341.785 268.571 337.9C270.621 335.877 272.109 333.085 273.637 330.657C280.552 319.65 286.502 307.915 290.563 295.492C291.527 292.497 292.452 289.503 293.256 286.468C294.101 283.433 294.824 280.398 295.508 277.323C296.191 274.247 296.754 271.172 297.277 268.056C297.799 264.94 298.242 261.824 298.563 258.708C299.649 248.43 299.608 238.151 299.649 227.832V167.538C299.649 161.953 299.809 156.288 299.528 150.704C289.276 143.42 279.185 136.095 269.536 128.002C264.872 124.037 260.329 119.99 255.907 115.781C251.484 111.573 247.142 107.284 242.921 102.873C238.7 98.4619 234.599 93.9297 230.619 89.3165C226.638 84.7034 222.779 79.9688 219.04 75.1129C211.321 65.1987 203.803 54.7179 197.651 43.7516C196.043 40.838 191.822 31.9354 189.45 30.2763C188.766 29.8312 187.962 29.8717 187.078 29.9526Z" fill="white" />
    <path d="M187.843 52.1679C188.647 52.1679 189.21 52.2893 189.893 52.8154C192.225 54.6364 195.16 61.9203 196.768 64.8339C200.708 72.0773 205.291 79.078 209.995 85.8358C211.724 88.3852 213.533 90.8941 215.342 93.403C217.152 95.8714 219.041 98.3399 220.931 100.768C222.82 103.196 224.79 105.583 226.76 107.971C228.73 110.318 230.741 112.665 232.791 114.972C234.841 117.278 236.932 119.544 239.063 121.77C241.194 123.995 243.365 126.181 245.536 128.366C247.747 130.511 249.958 132.655 252.209 134.719C254.461 136.823 256.752 138.847 259.084 140.87C264.11 145.078 269.256 149.125 274.563 153.01C277.779 155.357 281.196 157.461 284.171 160.091C284.372 174.214 284.171 188.377 284.171 202.5C284.212 232.85 285.217 260.69 275.005 289.907C273.558 293.994 271.909 298 270.1 301.966C268.291 305.891 266.321 309.776 264.19 313.539C263.064 315.603 261.899 317.99 260.29 319.69C259.486 320.58 258.401 321.228 257.396 321.794C249.596 326.165 241.234 329.807 233.273 333.853C217.875 341.866 202.357 349.716 186.798 357.364C186.677 357.405 186.597 357.445 186.476 357.526C185.592 357.931 184.466 358.214 183.541 357.809C182.255 357.243 181.089 355.341 180.325 354.208C176.706 348.826 173.45 343.16 169.992 337.657L151.177 307.833L137.347 286.103C131.678 277.281 125.929 268.541 120.743 259.395C118.371 255.227 116.159 250.978 114.109 246.649C112.059 242.319 110.129 237.948 108.36 233.457C107.114 230.422 105.948 227.346 104.862 224.23C103.777 221.114 102.731 217.998 101.766 214.842C100.802 211.686 99.8769 208.529 99.0728 205.333C98.2285 202.136 97.4646 198.939 96.7812 195.742C96.0977 192.505 95.4544 189.308 94.8916 186.03C94.3287 182.793 93.8463 179.515 93.404 176.278C93.002 173 92.6402 169.722 92.3587 166.445C92.0773 163.167 91.8763 159.889 91.7155 156.571C91.3536 149.368 91.3938 142.205 91.3938 135.002L91.434 102.427C91.434 97.8543 90.5898 79.4422 92.0371 76.4881C92.1979 76.1644 92.4793 75.9621 92.801 75.8002C94.6906 74.9504 100.802 75.6383 103.093 75.6788C106.953 75.7597 110.853 75.7193 114.712 75.5169C118.572 75.3146 122.431 74.9504 126.291 74.4648C141.85 72.5224 156.966 67.3023 171.038 60.4635C176.465 57.7927 182.214 54.0294 187.843 52.1679ZM186.677 60.0588C165.771 70.9038 143.78 80.0896 120.059 81.8701C112.662 82.4367 105.345 81.9915 97.9471 82.1939C97.7059 87.1712 97.8667 92.189 97.9069 97.1664C97.9873 103.803 97.9873 110.439 97.9471 117.076C97.8667 131.118 97.3842 145.281 98.2285 159.282C98.3491 161.386 98.5099 163.45 98.7109 165.554C98.912 167.659 99.113 169.722 99.3542 171.786C99.5954 173.85 99.8769 175.954 100.158 178.018C100.44 180.082 100.802 182.145 101.123 184.209C101.485 186.273 101.847 188.337 102.289 190.401C102.691 192.464 103.133 194.488 103.616 196.551C104.098 198.575 104.581 200.638 105.103 202.662C105.626 204.685 106.189 206.708 106.752 208.732C107.315 210.755 107.958 212.738 108.561 214.721C109.204 216.704 109.847 218.686 110.531 220.669C111.214 222.652 111.938 224.594 112.662 226.577C113.385 228.52 114.189 230.462 114.953 232.404C115.757 234.347 116.561 236.249 117.406 238.191C118.25 240.093 119.135 241.995 120.019 243.897C120.903 245.799 121.828 247.66 122.793 249.522C123.758 251.383 124.723 253.245 125.728 255.066C132.362 267.003 140.201 278.293 147.518 289.786L178.676 338.992C181.129 342.837 183.34 346.843 185.833 350.687L187.642 349.716C210.357 338.305 232.992 326.731 255.546 315.036C269.497 292.74 276.171 268.096 277.498 241.874C278.06 230.583 277.699 219.132 277.699 207.801V178.463C277.699 173.486 277.819 168.468 277.699 163.49C272.07 159.08 266.12 155.033 260.491 150.582C257.355 148.073 254.3 145.523 251.325 142.893C248.31 140.263 245.375 137.552 242.52 134.8C239.626 132.048 236.811 129.175 234.077 126.302C231.344 123.388 228.65 120.434 226.037 117.399C221.212 111.775 216.589 105.988 212.166 100.039C207.744 94.0909 203.522 88.021 199.502 81.7892C196.889 77.7831 194.396 73.696 192.024 69.5279C190.537 66.8976 189.21 64.1864 187.682 61.5966C187.481 61.03 187.2 60.423 186.677 60.0588Z" fill="white" />
    <path d="M269.54 181.134C269.54 176.845 269.822 172.555 269.661 168.266C266.806 164.988 261.741 162.034 258.243 159.363C254.263 156.288 250.443 153.01 246.785 149.611C225.919 130.349 206.782 106.231 192.188 81.8704C190.7 79.3615 187.886 72.3609 184.71 72.2395C184.348 72.2395 183.986 72.2799 183.665 72.3204C179.403 74.5865 175.262 77.0954 170.88 79.1997C158.216 85.2696 144.104 88.9925 130.193 90.6516C126.615 91.0967 122.997 91.4205 119.379 91.5014C116.002 91.5823 111.418 90.7325 108.202 91.6633C107.157 91.9465 106.594 92.4726 106.272 93.5247C104.865 98.3806 105.83 116.59 105.83 122.701C105.83 135.326 105.508 147.871 106.272 160.496C106.393 162.56 106.554 164.624 106.714 166.728C106.875 168.792 107.116 170.856 107.358 172.919C107.599 174.983 107.88 177.047 108.162 179.111C108.443 181.175 108.805 183.198 109.167 185.262C109.529 187.325 109.931 189.349 110.333 191.372C110.735 193.395 111.177 195.419 111.66 197.442C112.142 199.465 112.624 201.489 113.187 203.471C113.71 205.495 114.273 207.478 114.876 209.46C115.479 211.443 116.082 213.426 116.725 215.409C117.368 217.392 118.052 219.334 118.776 221.277C119.499 223.219 120.223 225.161 120.987 227.104C121.751 229.046 122.555 230.948 123.359 232.85C124.163 234.752 125.007 236.654 125.892 238.515C126.776 240.377 127.661 242.278 128.585 244.099C129.51 245.961 130.475 247.782 131.44 249.603C132.405 251.424 133.41 253.245 134.455 255.025C137.35 260.084 140.566 264.94 143.662 269.876L174.739 319.731C177.634 324.425 180.288 329.321 183.383 333.894C184.107 334.946 185.072 336.686 186.358 337.01C187.725 337.374 188.972 336.443 190.097 335.796C198.822 330.9 207.908 326.529 216.833 321.997C224.271 318.234 231.588 314.227 238.985 310.343C242.764 308.36 246.865 306.66 250.564 304.556C262.384 284.161 268.374 262.107 269.46 238.556C269.942 227.832 269.661 217.068 269.621 206.345L269.54 181.134ZM253.057 284.647C251.046 289.624 248.875 294.601 246.262 299.295C243.729 300.55 241.237 301.926 238.744 303.221C235.648 304.92 232.472 306.417 229.336 308.036C216.632 314.632 203.686 320.945 191.223 327.945C191.223 327.905 191.223 327.865 191.223 327.824C190.982 327.945 190.66 327.986 190.338 327.986C189.655 328.472 188.811 328.674 187.846 328.269C186.037 327.541 185.112 324.951 184.268 323.373C183.745 322.321 183.222 321.269 182.78 320.176C179.242 314.956 175.986 309.533 172.649 304.151L156.688 278.617C153.472 273.68 150.416 268.582 147.32 263.564C142.737 256.199 138.154 248.874 134.254 241.145C133.49 239.648 132.767 238.11 132.043 236.613C131.319 235.076 130.636 233.538 129.952 232C129.269 230.462 128.626 228.925 127.982 227.346C127.339 225.809 126.736 224.231 126.133 222.652C125.53 221.074 124.967 219.496 124.404 217.918C123.841 216.34 123.278 214.721 122.756 213.143C122.233 211.524 121.71 209.946 121.228 208.327C120.746 206.709 120.263 205.09 119.821 203.471C119.379 201.853 118.936 200.234 118.534 198.575C118.132 196.956 117.73 195.297 117.368 193.638C117.007 191.979 116.645 190.36 116.323 188.701C116.002 187.042 115.68 185.383 115.398 183.724C115.117 182.065 114.836 180.406 114.594 178.747C114.353 177.087 114.112 175.428 113.911 173.729C113.71 172.07 113.509 170.37 113.348 168.711C113.187 167.052 113.026 165.352 112.906 163.693C112.142 153.253 112.303 142.853 112.303 132.413V111.006C112.303 106.757 112.182 102.468 112.383 98.2188C138.274 97.976 160.507 92.3916 183.423 80.1708L183.745 80.2923C183.785 80.4946 183.825 80.7374 183.866 80.9397C184.348 81.142 184.67 81.5062 184.911 81.9514C185.072 82.0728 185.192 82.2346 185.313 82.437C187.323 85.5528 188.248 89.2757 190.54 92.2298C190.58 92.2702 190.58 92.2702 190.58 92.3107C190.58 92.2702 190.58 92.2298 190.58 92.1893C191.746 92.7963 200.389 106.191 202.038 108.457C206.299 114.284 210.802 119.949 215.345 125.533C229.577 142.974 244.775 157.826 263.067 170.977V210.634C263.188 237.908 263.469 258.87 253.057 284.647Z" fill="white" />
    <path fill-rule="evenodd" clip-rule="evenodd" d="M234.443 186.588C237.069 189.405 236.928 193.831 234.129 196.474L184.06 243.742C182.494 245.221 180.338 245.887 178.218 245.549C176.097 245.21 174.252 243.905 173.217 242.012L151.401 202.087C149.552 198.703 150.778 194.45 154.141 192.588C157.504 190.727 161.729 191.961 163.578 195.346L181.081 227.376L224.621 186.271C227.42 183.629 231.818 183.77 234.443 186.588Z" fill="white" />
  </g>
</svg>