<svg width="150" height="150" viewBox="0 0 150 150" fill="none" xmlns="http://www.w3.org/2000/svg">
  <path fill-rule="evenodd" clip-rule="evenodd" d="M17.3626 54.8703C17.425 54.7922 17.5034 54.7283 17.5924 54.683L31.5927 47.5614C31.872 47.4194 32.2112 47.4807 32.4236 47.7116L64.2135 82.2817L111.755 29.5407C111.81 29.4795 111.875 29.4285 111.948 29.3902L129.589 20.0807C129.865 19.935 130.204 19.9903 130.42 20.2165L142.805 33.1895C143.057 33.4527 143.066 33.8651 142.826 34.1391L73.8993 113.005C73.8449 113.067 73.7799 113.119 73.7075 113.159L54.7316 123.519C54.4463 123.675 54.0917 123.613 53.8753 123.37L6.17814 69.8128C5.95014 69.5567 5.93987 69.1728 6.15385 68.9049L17.3626 54.8703ZM63.27 83.3277L31.7537 49.0551L19.0466 55.5188L53.8347 93.7789L63.27 83.3277ZM17.9433 56.3901L53.3195 95.297C53.4525 95.4432 53.6406 95.5264 53.8378 95.526C54.035 95.5257 54.2229 95.4418 54.3553 95.2952L112.266 31.0679L122.917 43.2305L54.3915 121.841L7.61701 69.3197L17.9433 56.3901ZM57.5025 120.406L72.929 111.984L139.337 36.0005L124.287 43.7927L57.5025 120.406ZM124.013 42.3534L141.146 33.4825L129.774 21.5709L113.387 30.2187L124.013 42.3534Z" fill="#FF4B0C" />
  <path fill-rule="evenodd" clip-rule="evenodd" d="M112.62 34.1777L120.099 43.417L53.9094 118.572L10.3347 69.3637L17.8104 60.1278L53.9052 99.0639L112.62 34.1777ZM112.588 35.3384L53.9119 100.182L17.8489 61.2802L11.3239 69.3416L53.9078 117.431L119.111 43.3964L112.588 35.3384Z" fill="#FF4B0C" />
  <path fill-rule="evenodd" clip-rule="evenodd" d="M129.52 21.0206L142.082 33.6308L72.4858 112.771L67.3706 115.299L70.871 111.34L139.128 33.7231L127.997 22.5495L129.52 21.0206ZM32.0834 48.6199L63.8544 83.2145L62.2707 84.68L30.4997 50.0854L29.6762 49.3527L32.0834 48.6199Z" fill="#FF4B0C" />
  <path fill-rule="evenodd" clip-rule="evenodd" d="M117.194 27.4811L129.26 41.2439L61.1919 119.332L60.6245 118.833L128.257 41.2453L116.628 27.981L117.194 27.4811ZM21.338 53.9622L55.8015 91.8001L55.2451 92.3107L20.7816 54.4729L21.338 53.9622Z" fill="#FF4B0C" />
  <path fill-rule="evenodd" clip-rule="evenodd" d="M92.367 114.969C88.0096 113.442 81.8148 112.253 74.5584 111.619L74.6985 110.003C82.0291 110.644 88.3689 111.851 92.8992 113.437C95.1598 114.229 97.0162 115.131 98.3234 116.138C99.6166 117.133 100.505 118.339 100.505 119.745C100.505 121.507 99.1179 122.959 97.1926 124.116C95.216 125.304 92.4098 126.346 89.0131 127.209C82.2075 128.939 72.8487 130 62.5416 130C52.2345 130 42.8758 128.939 36.0701 127.209C32.6735 126.346 29.8672 125.304 27.8907 124.116C25.9654 122.959 24.578 121.507 24.578 119.745C24.578 118.55 25.2236 117.497 26.201 116.605C27.1797 115.712 28.5682 114.905 30.2589 114.181C33.6462 112.732 38.4234 111.546 44.0723 110.728L44.3027 112.333C38.7223 113.141 34.0987 114.301 30.8923 115.673C29.2862 116.36 28.0798 117.082 27.2878 117.805C26.4944 118.529 26.1934 119.179 26.1934 119.745C26.1934 120.59 26.8855 120.541 28.7205 121.644C30.5044 122.716 33.1395 123.71 36.4667 124.556C43.1088 126.244 52.3281 127.297 62.5416 127.297C72.7552 127.297 81.9744 126.244 88.6165 124.556C91.9438 123.71 94.5789 122.716 96.3627 121.644C98.1978 120.541 98.8898 120.59 98.8898 119.745C98.8898 119.079 98.4683 118.293 97.3402 117.424C96.2262 116.567 94.5504 115.733 92.367 114.969Z" fill="#FF4B0C" />
  <path fill-rule="evenodd" clip-rule="evenodd" d="M112.514 29.0001C112.802 29.004 113.074 29.1321 113.261 29.3515L124.761 42.8515C125.084 43.23 125.079 43.7877 124.751 44.1608L54.7505 123.661C54.5612 123.876 54.2886 123.999 54.0021 124C53.7155 124.001 53.4425 123.878 53.2522 123.664L5.75221 70.1639C5.42562 69.7961 5.41505 69.2454 5.72727 68.8653L17.2273 54.8653C17.4115 54.641 17.6841 54.5078 17.9743 54.5003C18.2645 54.4929 18.5436 54.6119 18.7391 54.8264L53.9953 93.5103L111.757 29.331C111.95 29.1168 112.225 28.9962 112.514 29.0001ZM112.479 31.5178L54.7433 95.669C54.5544 95.8789 54.2855 95.9991 54.0031 96C53.7207 96.0009 53.4511 95.8823 53.2609 95.6736L18.0393 57.0276L7.81485 69.4748L53.9969 121.49L122.677 43.4892L112.479 31.5178Z" fill="#FF4B0C" />
</svg>