<svg width="150" height="150" viewBox="0 0 150 150" fill="none" xmlns="http://www.w3.org/2000/svg">
  <path d="M78.351 16.1732C79.4169 16.0218 80.5517 16.2533 81.4951 16.7598C82.9917 17.5634 84.2519 19.0753 84.7231 20.7085C85.1106 22.0516 84.9852 23.6107 84.3026 24.8382C83.2013 26.8185 81.4354 27.975 79.514 29.0494C78.8886 29.3992 78.2334 29.8059 77.5341 29.9874C76.5968 30.2307 75.6635 29.7681 74.8764 29.2986L71.1795 31.4953C71.1649 32.4234 71.0956 33.2571 70.8651 34.1599C70.1266 34.6685 69.3069 35.0487 68.5313 35.4968C67.7642 35.9399 66.9953 36.5333 66.1552 36.8178C65.2733 37.1164 63.9854 36.6479 63.1878 36.2544C61.3051 37.6178 59.132 38.6502 57.123 39.8213C53.5413 41.9093 49.9887 44.0629 46.4398 46.2062C46.3744 46.4987 46.3135 46.796 46.23 47.0839C45.8367 48.4371 44.1438 49.0632 42.9988 49.6793C42.9351 50.9655 42.9733 52.269 42.9719 53.5572C42.962 55.6662 42.9665 57.7751 42.9854 59.8839C43.6457 60.255 44.423 60.6481 44.8302 61.3124C45.203 61.9204 45.2013 62.6619 45.2036 63.351C45.2056 63.9299 45.2394 64.6752 44.9498 65.1965C44.3928 66.1992 41.091 68.0003 39.9398 68.6923C39.456 68.9831 38.7647 69.3142 38.4106 69.7606C38.3015 69.8982 38.2607 70.0952 38.216 70.2617L37.5366 70.4542C37.5378 71.0168 37.5338 71.5794 37.5247 72.142C36.8667 73.1785 35.6472 73.7401 34.5999 74.3119C34.5611 76.3407 34.5803 78.3803 34.6027 80.4094L35.1021 80.7495C38.1785 78.6545 41.4009 76.7191 44.5513 74.7313C44.6378 74.2693 44.8117 73.7998 44.996 73.3682C45.7368 71.634 47.0826 70.4137 48.8228 69.7058C48.826 67.28 48.8885 64.8547 48.8715 62.4269C48.8599 60.7407 48.7086 59.0443 48.8572 57.3611C49.6557 56.6328 51.5737 55.6883 52.5859 55.0742L58.0997 51.7018C59.6875 50.7425 61.2978 49.8119 62.8631 48.8167C62.8468 47.7123 62.8503 46.6079 62.8735 45.5035C64.2797 44.3802 65.9307 43.599 67.4926 42.7219C69.392 41.6555 71.2408 40.4608 73.1232 39.3583C74.6441 38.4675 76.3267 37.6449 77.7341 36.5905C77.3147 36.2776 76.8638 35.958 76.6423 35.4657C76.5054 35.1611 76.4808 34.7427 76.6235 34.4351C77.07 33.473 80.9361 31.2973 82.0216 30.8456C83.0813 31.2512 84.0578 31.9475 85.0209 32.5432C86.1382 33.2432 87.2679 33.9226 88.4101 34.5814C88.5125 32.1128 88.2605 29.6184 88.4215 27.1523C89.2215 26.3522 90.465 25.7402 91.4363 25.1498L95.9887 22.3845L99.5408 20.2065C100.429 19.659 101.313 19.0412 102.288 18.6575C103.83 19.3916 105.214 20.4812 106.644 21.4045C109.037 22.9484 111.462 24.458 113.877 25.9671L121.524 30.6686C122.475 31.2415 125.242 32.7508 125.897 33.4049C126.065 33.5722 126.072 33.6831 126.093 33.9123C126.152 34.5574 126.109 35.2291 126.109 35.8773L126.125 51.4651C127.281 52.21 128.449 52.9358 129.63 53.6426C130.721 54.2964 131.886 54.9159 132.869 55.7232L132.919 71.6033C132.919 72.6253 132.926 73.6473 132.939 74.6692C132.956 75.6927 133.083 76.8334 132.867 77.8389C132.838 77.9785 132.816 78.0873 132.71 78.1898C132.251 78.6346 131.545 78.9772 130.998 79.3148C129.502 80.2372 127.976 81.1035 126.503 82.0626L126.483 83.5585C127.454 84.316 129.307 85.2432 130.427 85.8883C131.163 86.3238 132.16 86.7724 132.739 87.3917C132.933 87.5995 132.971 87.8415 133.006 88.1154C133.153 89.2778 133.046 90.5326 133.042 91.7055C133.036 93.6913 133.08 95.6693 132.985 97.6545C132.179 98.3409 131.142 98.8425 130.236 99.398C128.328 100.582 126.409 101.749 124.479 102.898L107.794 112.987C99.6804 117.957 91.536 122.877 83.3604 127.745L77.5104 131.239C76.0195 132.144 74.5429 133.114 72.9704 133.873C71.1038 133.283 69.4063 131.954 67.7391 130.956C63.5303 128.436 59.4035 125.793 55.1742 123.305C53.7943 124.101 52.5535 125.082 51.1259 125.81C50.0167 125.344 47.346 123.89 46.5417 123.088C46.4165 122.963 46.2902 122.818 46.244 122.644C46.0454 121.894 46.1849 118.757 46.1886 117.806C45.5668 117.475 44.9648 117.068 44.3624 116.7L26.6186 105.943L19.8588 101.86C18.8068 101.237 17.2217 100.509 16.3408 99.7318C16.0263 98.6771 16.0097 92.2686 16.2373 91.1063C16.2922 90.826 16.4181 90.7256 16.6343 90.5561C17.5829 89.8122 18.7517 89.2314 19.7903 88.6142C22.0537 87.2697 24.3734 85.9468 26.5665 84.4939C26.331 84.0976 26.1984 83.7287 26.0885 83.2855C26.1476 83.0577 26.2006 82.8168 26.3394 82.6219C26.8344 81.9276 28.6118 81.0625 29.4287 80.4584C29.3566 77.8707 29.4314 75.2658 29.4172 72.6755C29.1973 72.4368 29.0091 72.209 28.8341 71.9341C28.806 71.2649 28.8581 70.5862 28.8927 69.9174C27.3063 68.9699 25.7446 67.987 24.1721 67.0172L23.5073 67.1155C22.6209 66.6507 21.6504 66.1816 21.1523 65.2648C20.5602 64.1749 20.5737 62.3601 20.9145 61.1932C21.4064 59.5092 23.2071 58.4886 24.6489 57.7056C24.6468 56.3652 24.7086 55.0241 24.6988 53.6847C24.6862 51.9618 24.5154 50.0907 24.7959 48.3914C25.6573 47.3588 28.5263 45.6435 29.8025 45.0127C29.7648 44.5127 29.743 44.0176 29.7947 43.5175C29.8964 42.537 30.2926 41.6632 31.0789 41.0351C32.3747 40.0002 33.9802 40.1015 35.5316 40.2628C36.6511 39.6233 38.8115 38.0337 39.931 37.8052C41.3401 37.5177 42.8618 38.5056 43.9689 39.2617C45.8053 38.5913 47.4289 37.3786 49.0985 36.3818C52.3896 34.4188 55.6704 32.4389 58.9409 30.442C59.1921 29.8435 59.4521 29.3236 59.9423 28.8774C59.8242 28.224 59.8176 27.6016 60.0221 26.9664C60.9842 26.0322 64.3532 24.0182 65.6184 23.6837C66.4037 24.0104 66.9379 24.5554 67.5736 25.0946C68.8607 24.3908 70.0682 23.5404 71.3777 22.8755C71.3913 21.9764 71.487 20.9421 72.0008 20.1731C72.7629 19.033 74.4998 18.489 75.6024 17.7068C76.1111 17.346 76.499 16.8379 77.0586 16.5427C77.4474 16.3376 77.9218 16.2516 78.351 16.1732ZM121.94 84.7619L121.567 85.353C121.718 86.0458 121.74 86.7141 121.726 87.4211C121.927 87.6065 122.194 87.8189 122.179 88.123C122.162 88.4749 121.752 88.8095 121.493 89.0028C120.337 89.8644 117.525 91.5856 116.16 92.1059C115.159 91.7713 110.837 89.3109 110.46 88.5164C110.203 87.974 110.282 87.1547 110.285 86.5679C106.603 88.7497 103.034 91.1576 99.3038 93.2561C100.009 93.6453 100.836 94.0244 101.095 94.8529C101.341 95.6427 101.12 96.6033 101.079 97.4163L100.6 97.8199C100.557 98.1558 100.407 98.795 100.529 99.1018C100.634 99.367 100.762 99.5593 100.807 99.8501C100.931 100.664 100.907 101.596 100.843 102.417C100.075 103.103 95.5872 105.995 94.7233 105.926C93.8882 105.859 89.6437 103.306 88.9564 102.639C88.9415 101.594 88.9871 100.545 88.9568 99.5017L81.5652 104.013C80.0913 104.905 78.5289 105.73 77.1234 106.724C77.6928 107.158 79.7108 108.545 79.8224 109.19C79.8486 109.343 79.7777 109.51 79.6775 109.623C79.5722 109.742 79.4424 109.847 79.3185 109.947C79.3036 111.13 79.3016 112.313 79.3125 113.496C79.3143 114.176 79.3538 114.893 79.2631 115.568C78.5275 116.126 77.655 116.555 76.8526 117.012C75.7007 117.668 74.5483 118.369 73.3443 118.926C71.6118 118.179 69.2239 116.61 67.674 115.495C67.5326 114.351 67.5604 113.132 67.6546 111.983L67.1108 111.392C67.0347 110.475 66.8665 109.373 67.5297 108.62C68.0782 107.998 69.0006 107.565 69.712 107.136L57.5083 99.6343C57.4587 100.711 57.5833 101.739 57.3865 102.811C56.3424 103.74 52.983 105.715 51.6396 106.368C50.308 105.704 46.9674 103.803 46.0102 102.799C45.9797 101.617 45.9716 100.436 45.9859 99.2546C45.7609 98.9986 45.5376 98.7663 45.5579 98.4038C45.5698 98.1904 45.6605 97.9461 45.828 97.8047C45.9524 97.6995 46.0933 97.6758 46.2506 97.6994C47.0563 97.82 49.8477 99.9651 50.8967 100.484C50.9064 100.255 50.9709 99.9368 50.8099 99.7545C49.8227 98.6383 45.3379 97.2682 45.4005 95.4547C45.4195 94.9069 45.7594 94.4273 46.1632 94.0797C46.4113 93.8664 46.6981 93.6836 46.9692 93.5007C44.4391 91.8289 41.8167 90.3003 39.2282 88.7221C38.7422 88.4226 38.2536 88.1277 37.7874 87.7981C37.7925 88.6329 37.9348 90.0086 37.6769 90.7643C37.665 90.7991 37.6539 90.8343 37.6419 90.8692C37.6338 90.8927 37.6249 90.9158 37.6164 90.9391C36.1903 92.0776 33.9788 93.3169 32.3361 94.203C31.4016 93.7796 27.3577 91.6349 26.9718 90.8819C26.617 90.1896 26.9308 88.4656 27.0238 87.6867C26.7563 87.3052 26.4809 86.9295 26.1976 86.5596C24.2007 87.6415 22.3626 88.9667 20.406 90.1054C23.6842 92.218 27.0411 94.1691 30.3648 96.2044C36.8029 100.212 43.2785 104.158 49.7918 108.043L64.5548 117.071C67.3308 118.802 70.1292 120.496 72.9502 122.153L121.714 92.3067L125.873 89.7744C126.604 89.3318 127.378 88.9163 128.081 88.4327C126.056 87.185 124.078 85.8126 121.94 84.7619ZM131.496 91.065C129.579 92.1441 127.712 93.3302 125.833 94.4748L90.1878 116.241L79.6888 122.73C77.8812 123.85 75.591 125.414 73.732 126.3C73.7186 128.065 73.6117 129.906 73.7502 131.664L73.8721 131.674C75.4046 130.819 76.8808 129.857 78.3914 128.962L117.93 105.144C120.637 103.522 123.327 101.874 126.002 100.2C127.849 99.0447 129.706 97.7829 131.629 96.7636C131.633 95.8862 131.772 91.4995 131.496 91.065ZM17.677 98.7379C21.5351 101.311 25.616 103.557 29.5848 105.955L52.2834 119.757L65.5879 127.953C67.0959 128.888 68.6192 129.797 70.1578 130.681C70.8027 131.05 71.4718 131.497 72.1628 131.766C72.2311 131.668 72.2154 131.712 72.2334 131.644C72.1562 130.892 72.0697 126.992 72.2686 126.428C68.5485 124.025 64.6908 121.831 60.9047 119.534L23.7358 96.9912C21.8685 95.8636 19.6672 94.2721 17.7204 93.3897C17.6076 94.1141 17.651 94.8805 17.6549 95.6124L17.677 98.7379ZM102.229 20.399C98.4803 22.6914 94.599 24.8414 90.948 27.2823C94.1427 29.3484 97.4678 31.5672 100.837 33.32L100.848 31.8158C100.044 31.5854 99.2437 31.2651 98.8169 30.4937C98.3572 29.6633 98.4131 26.7435 98.7047 25.7837C98.9569 24.9543 99.59 24.4322 100.332 24.0442C101.278 23.5497 102.383 23.4922 103.393 23.8152C104.17 24.0637 104.985 24.531 105.372 25.2745C105.873 26.2376 105.93 29.1629 105.589 30.2021C105.392 30.8043 104.901 31.1843 104.346 31.4516C103.662 31.7806 102.873 31.9397 102.122 32.0226L102.125 33.9441C103.856 35.1701 105.734 36.2542 107.566 37.3233C109.034 38.1802 112.701 40.0846 113.653 41.1732C114.045 41.6218 114.129 42.2761 114.225 42.8424L114.289 43.2276C115.674 42.3714 117.115 41.5964 118.521 40.7755C119.44 40.2391 120.344 39.6073 121.304 39.1511C121.522 39.047 121.759 38.923 122.008 38.9682C122.164 38.9964 122.273 39.0545 122.353 39.1925C122.778 39.9302 122.447 44.0628 122.508 45.2495C122.529 46.5736 122.572 47.9079 122.522 49.2312C123.227 49.6756 123.935 50.1139 124.646 50.5463C124.734 49.6945 124.708 48.826 124.707 47.9704C124.707 46.5715 124.692 45.1728 124.662 43.7742C124.634 40.8739 124.629 37.9736 124.648 35.0733C123.695 35.5878 122.753 36.1088 121.836 36.6866C120.301 37.6544 117.594 39.6651 115.96 40.09C115.056 40.3251 114.048 40.2113 113.164 39.9462C112.466 39.7371 111.694 39.3886 111.324 38.7284C111.196 38.5008 111.132 38.2392 111.104 37.9816C111.052 37.5023 111.117 37.0023 111.118 36.5198C111.119 35.5191 110.894 34.3992 111.21 33.4286C111.475 32.6157 112.119 32.0035 112.877 31.6357C112.937 31.6069 112.998 31.5796 113.059 31.5538C113.12 31.5281 113.182 31.5038 113.245 31.481C113.308 31.4582 113.371 31.437 113.435 31.4174C113.498 31.3977 113.562 31.3796 113.627 31.3631C113.691 31.3465 113.756 31.3315 113.822 31.318C113.887 31.3047 113.953 31.2929 114.018 31.2828C114.084 31.2726 114.151 31.2641 114.217 31.2571C114.283 31.2501 114.35 31.2448 114.416 31.2411C114.483 31.2374 114.549 31.2353 114.616 31.2349C114.683 31.2344 114.749 31.2356 114.816 31.2384C114.882 31.2412 114.949 31.2456 115.015 31.2516C115.082 31.2577 115.148 31.2653 115.214 31.2746C115.28 31.2839 115.346 31.2948 115.411 31.3073C115.477 31.3198 115.542 31.3339 115.607 31.3496C115.671 31.3653 115.736 31.3825 115.8 31.4013C115.864 31.4201 115.927 31.4404 115.99 31.4624C116.838 31.7669 117.701 32.276 118.1 33.1172C118.688 34.356 118.212 35.7868 118.281 37.0849C120.048 35.9802 121.841 34.8608 123.663 33.8479L108.409 24.3508C106.951 23.4418 105.51 22.4986 104.062 21.5719C103.457 21.1846 102.87 20.7235 102.229 20.399ZM56.2535 81.4065C55.6132 81.7755 54.9587 82.1378 54.3682 82.5839C54.354 84.7082 54.3511 86.8326 54.3595 88.9569C54.3607 90.2011 54.3082 91.4675 54.3823 92.7077C55.2076 93.2345 57.4635 94.2842 57.6561 95.2408C57.9944 96.9205 57.0054 97.355 58.8536 98.6406C60.0126 99.4468 61.2614 100.138 62.4713 100.865C64.1655 101.894 65.854 102.933 67.5369 103.981C68.5454 104.607 69.5909 105.213 70.569 105.884L71.1347 106.216C71.0703 104.605 71.1465 102.96 71.1471 101.346C71.1478 99.0846 71.0945 96.813 71.1321 94.5524C71.141 94.0266 71.2493 93.5034 71.2486 92.9783C71.248 92.4821 71.0302 91.9926 71.0059 91.4904C70.7472 91.3397 70.4799 91.1962 70.2289 91.0334C69.8064 91.2702 69.3825 91.5333 68.9374 91.7242C67.6814 91.2653 65.9192 90.2752 64.8534 89.4635C64.5268 89.2146 64.3713 88.8179 64.0274 88.5914C63.1608 88.0206 62.1864 87.615 61.4724 86.8423C61.4164 86.0361 61.411 85.2302 61.4021 84.4224C59.6632 83.4692 58.0341 82.2722 56.2535 81.4065ZM65.5279 48.9354C61.5604 51.3798 57.531 53.7199 53.5724 56.1806C52.4769 56.8615 51.3584 57.5099 50.2848 58.2245L50.2845 66.7552C50.2798 67.881 50.2167 69.0109 50.2265 70.1353C51.012 70.6168 51.8451 71.0062 52.6821 71.3893L52.6812 64.3006C52.6757 62.8901 52.6397 61.4871 52.6835 60.0763C53.2286 59.6187 53.8778 59.273 54.4857 58.9051L57.226 57.2455C58.7193 56.3372 60.1972 55.4073 61.6989 54.512C62.5445 54.008 63.3934 53.439 64.317 53.0888C64.7701 53.2518 65.1583 53.5154 65.5967 53.7029C66.0724 53.4947 66.9196 52.8704 67.419 53.0455C67.8665 53.2025 68.082 53.6921 68.4566 53.9509C69.2272 54.4834 70.0897 54.9364 70.8886 55.4296C72.305 56.3041 73.7061 57.2114 75.1396 58.0571L84.3019 63.5765C85.9798 64.5778 87.7416 65.5202 89.36 66.6098C89.5719 66.7524 89.9489 66.9983 90.0278 67.2499C90.2233 67.8726 90.0981 69.4337 90.0887 70.1291C90.0664 71.7657 89.9846 73.5115 90.1882 75.1343C90.8054 74.6871 91.4282 74.2148 92.1076 73.8652C92.1224 71.879 92.1241 69.8928 92.1127 67.9065C92.1105 66.9375 92.0593 65.9421 92.112 64.9756C89.8859 63.7552 87.7545 62.3705 85.5866 61.0519L73.2439 53.5897L67.8666 50.2947C67.1984 49.8878 66.5441 49.4441 65.8644 49.059C65.7493 48.9938 65.6611 48.9274 65.5279 48.9354ZM41.2656 50.1557C40.0853 50.8815 38.9104 51.6159 37.7408 52.3589C36.7433 53.0005 35.7385 53.8302 34.6094 54.2232C34.0304 54.4248 33.4411 54.4639 32.8432 54.3272C31.2737 53.9682 29.4047 52.3667 28.0379 51.4585C27.4212 51.0488 26.7709 50.6922 26.1523 50.2874C26.0673 51.9217 26.0966 53.5876 26.1306 55.2241C26.8154 54.898 27.4352 54.6879 28.1903 54.9557C29.1047 55.2802 29.7772 56.0904 30.1601 56.9537C30.535 57.7989 30.7153 58.8736 30.353 59.7512C30.1569 60.2262 29.7885 60.6396 29.296 60.8159C28.8691 60.9688 28.4795 60.9313 28.0497 60.8212C27.7544 60.6854 27.4561 60.5546 27.1698 60.4004C26.9209 61.2759 26.5179 61.7084 25.7856 62.2177C25.8014 62.2242 25.8175 62.2306 25.8333 62.2374C26.6686 62.5956 27.4746 63.2035 28.2389 63.6975C29.2292 64.3376 30.2312 64.9569 31.2158 65.6063C31.8519 66.0258 32.6185 66.6753 33.3633 66.8522C33.6514 66.9205 34.0137 66.8088 34.2817 66.7088C35.3291 66.3185 36.3806 65.4649 37.3175 64.8572C38.69 63.9671 40.084 63.1029 41.438 62.1852C41.4489 59.3744 41.4423 56.5637 41.418 53.753C41.4116 52.8798 41.525 50.9613 41.3026 50.1909L41.2656 50.1557ZM65.6936 67.9992C65.4494 69.8039 65.7374 72.0164 65.682 73.8761C66.1464 73.2984 66.6497 72.805 67.4311 72.7297C68.1645 72.659 68.8666 73.0191 69.4063 73.4869C70.2962 74.2584 70.959 75.5154 71.0374 76.6937C71.0902 77.4873 70.8845 78.2662 70.3445 78.8682C69.868 79.3997 69.1526 79.7408 68.4367 79.7683C67.4615 79.8058 66.6533 79.3194 65.9763 78.6686C65.8857 78.5811 65.7965 78.4921 65.7089 78.4018C65.6495 79.0897 65.666 79.7688 65.6821 80.4581C66.6331 81.1461 73.9974 85.789 74.6174 85.9514C74.8287 85.8456 74.9446 85.7489 75.0206 85.5142C75.1547 85.1002 75.0847 84.6208 75.2024 84.1858C75.9435 83.4688 76.7966 82.8486 77.7472 82.4359C78.2334 82.2247 78.7506 82.0959 79.2424 81.9C79.7712 81.6892 80.2516 81.3623 80.7194 81.0439L80.738 72.8833C80.7436 71.4872 80.842 70.0218 80.7344 68.6333L76.8218 71.0583C75.8758 71.6554 74.953 72.2978 73.9687 72.8304C72.9133 72.3475 71.9325 71.7005 70.9431 71.0975C69.2083 70.0399 67.4877 68.9552 65.6936 67.9992ZM88.3955 42.8503C88.2984 45.1622 88.3328 47.4816 88.3283 49.7951C88.3247 51.753 88.2709 53.6933 88.3526 55.6497C89.1735 56.5057 90.4354 57.1257 91.4574 57.7225C92.9706 58.6061 94.469 59.5181 96.0331 60.3111C97.3145 60.9609 98.6493 61.5212 99.967 62.0942C99.9259 61.4658 99.9635 60.8211 99.9705 60.1912C99.9859 59.0214 99.9945 57.8515 99.9961 56.6815C99.9991 54.3504 99.89 52.0007 99.9377 49.6733C97.7596 48.2607 95.4802 46.9936 93.247 45.6702C91.6559 44.7273 90.0599 43.651 88.3955 42.8503ZM108.766 73.9403C107.217 74.8428 105.683 75.77 104.164 76.7219C102.794 77.5907 101.465 78.4958 100.01 79.2214C100.044 80.448 100.123 81.9133 99.1938 82.8623C98.7334 83.3327 98.1003 83.6513 97.5366 83.9804L97.5307 89.445C97.5318 90.4286 97.4347 91.5447 97.6057 92.51C98.3975 92.0846 99.1576 91.607 99.9221 91.1355C102.08 89.8493 104.222 88.5364 106.347 87.1968C107.561 86.4423 108.834 85.7613 109.945 84.855C109.894 83.8481 109.558 81.9571 110.282 81.1406C110.879 80.4675 111.839 80.1094 112.532 79.5289C111.334 78.7701 109.89 78.1795 108.908 77.1374C108.886 76.633 108.995 74.2404 108.8 73.9623L108.766 73.9403ZM125.417 84.9464C126.489 85.763 129.308 87.0494 129.927 87.9664C129.938 88.5109 129.952 88.8456 129.559 89.271C128.989 89.8862 127.968 90.3163 127.247 90.7617L122.962 93.4195L96.1553 109.785L90.1486 113.406C88.3761 114.496 73.7703 123.732 73.0667 123.74C72.643 123.745 72.2124 123.57 71.8525 123.357C70.8397 122.759 69.8524 122.1 68.8531 121.478L62.2007 117.354L39.9964 103.835C35.6262 101.218 31.2711 98.5764 26.9312 95.91C26.0773 95.3834 25.219 94.864 24.3562 94.3518C22.9488 93.5284 21.2671 92.7283 20.1221 91.5611C19.8574 91.2913 19.6247 90.9824 19.4033 90.6767C18.8605 90.9757 18.3351 91.2785 17.8228 91.6287L19.0307 92.371L68.8091 122.515C70.2047 123.355 71.5348 124.347 73.0116 125.043C76.528 122.95 80.018 120.814 83.4816 118.635L91.9095 113.471C104.571 105.904 117.14 98.1875 129.617 90.3218C129.978 90.0894 131.395 89.3379 131.563 89.087C131.578 88.8676 131.584 88.5586 131.456 88.3663C131.231 88.0279 125.977 85.0162 125.484 84.9488C125.462 84.9457 125.439 84.9472 125.417 84.9464ZM91.7346 86.4149C89.7818 87.5327 87.8729 88.7207 86.008 89.9789C85.9751 91.2597 85.7594 92.5838 84.7733 93.5029C84.7361 93.5376 84.698 93.5713 84.659 93.604C84.6201 93.6367 84.5803 93.6684 84.5398 93.6991C84.4992 93.7298 84.4579 93.7595 84.4157 93.788C84.3737 93.8166 84.3309 93.8441 84.2874 93.8706C84.2439 93.8969 84.1997 93.9221 84.1549 93.9463C84.1101 93.9705 84.0648 93.9935 84.0188 94.0152C83.9727 94.0371 83.9262 94.0578 83.8792 94.0772C83.8321 94.0966 83.7846 94.1149 83.7367 94.1319C83.6887 94.149 83.6403 94.1648 83.5916 94.1794C83.5427 94.1939 83.4936 94.2072 83.4441 94.2192C83.3946 94.2313 83.3448 94.2421 83.2949 94.2515C83.2448 94.2611 83.1945 94.2693 83.1441 94.2762C83.0936 94.2832 83.043 94.2889 82.9923 94.2932C82.9416 94.2976 82.8908 94.3007 82.8399 94.3024C82.7889 94.3042 82.738 94.3047 82.6871 94.3039C82.6362 94.3031 82.5853 94.3009 82.5345 94.2975C82.4247 94.2905 82.3152 94.2792 82.2063 94.2636C81.3737 94.7593 79.215 96.3485 78.3079 96.0973C77.8848 95.9801 77.4754 95.6175 77.1299 95.3537L76.3809 95.8398C76.4298 96.519 76.3498 97.2266 76.3489 97.9099C76.3589 99.5403 76.3602 101.171 76.353 102.801C76.3501 103.457 76.2173 104.49 76.4278 105.105L76.5144 105.17L76.5769 105.16C79.0114 103.735 81.4278 102.281 83.826 100.796C85.5814 99.7019 87.3222 98.501 89.1519 97.5383C89.1937 97.3209 89.2311 97.1015 89.281 96.8857C88.9303 96.6305 88.5626 96.3908 88.2838 96.055C88.2325 95.613 88.221 95.258 88.3577 94.8254C89.3361 93.8416 90.679 93.156 91.8933 92.4965C91.894 91.6138 92.0136 86.8331 91.823 86.4406L91.7346 86.4149ZM44.4751 76.581C41.8904 78.2752 39.1934 79.8073 36.6527 81.5628C37.2661 81.8636 37.79 82.1405 38.0099 82.8379C38.3303 83.8547 38.1299 85.195 38.135 86.2535C40.0428 87.4142 41.9016 88.7145 43.8685 89.7703C45.4603 90.7529 47.1071 91.814 48.7988 92.6111C48.9108 91.0265 48.8901 89.4519 48.8898 87.8647L48.8944 81.2688C47.9215 80.705 46.1108 79.8401 45.3997 78.9816C44.8854 78.361 44.9799 77.0653 44.4751 76.581ZM113.93 53.3526C113.706 55.2551 113.952 57.7402 113.99 59.7017C114.861 58.8117 115.84 57.8577 117.18 57.8658C118.54 57.874 119.729 58.844 120.62 59.7753C122.02 61.2393 123.108 63.2573 123.042 65.3309C123.01 66.3164 122.69 67.2077 121.951 67.891C121.057 68.716 119.865 69.2859 118.819 69.9015C118.778 71.3529 118.803 72.8061 118.806 74.258C118.808 75.1645 118.767 76.0917 118.817 76.9961C119.655 77.4019 120.457 77.8778 121.258 78.353C122.51 79.0729 123.809 79.7558 125.03 80.5251C125.105 79.5266 125.072 78.5137 125.068 77.5125L125.031 72.539L125.003 60.0335C122.457 58.6337 119.955 57.1259 117.487 55.5946C116.308 54.8627 115.157 53.9966 113.93 53.3526ZM77.702 61.3909C77.8749 62.0742 77.7958 62.9244 77.7312 63.6206L79.872 64.914C80.6072 65.3523 81.4268 65.7571 82.0467 66.354C82.196 67.7425 82.1226 69.1267 82.124 70.5196L82.1376 77.299C82.76 77.6801 84.5968 78.6095 84.7203 79.3529C84.7582 79.5812 84.6514 79.7845 84.5036 79.9498C83.9372 80.5824 82.7029 81.1845 81.9588 81.6374C81.9532 82.0906 81.9733 82.5634 81.8827 83.0086C82.2388 83.2855 82.5978 83.5445 82.976 83.7906C83.5598 83.4238 84.1426 83.0179 84.7458 82.6865C85.8766 81.9938 87.0123 81.3127 88.0924 80.5424C88.0272 79.5331 87.9586 78.4896 88.2866 77.5145C88.4321 77.0816 88.7118 76.6813 88.74 76.2207C88.8006 75.2311 88.7128 74.2243 88.6997 73.2327C88.6884 71.4695 88.6868 69.7065 88.6951 67.9435C86.4622 66.6247 84.2435 65.2825 82.0391 63.9171C80.6091 63.0427 79.2046 62.1385 77.702 61.3909ZM126.5 60.3939L126.478 74.1666L126.482 77.9036C126.483 78.6339 126.423 79.439 126.551 80.1577C128.191 79.2371 129.788 78.2288 131.397 77.2561C131.426 76.1878 131.417 75.1122 131.467 74.0456C131.391 73.0602 131.46 72.0168 131.461 71.0259L131.454 60.292C131.455 59.4776 131.381 58.5918 131.506 57.7894L131.43 57.5814C131.125 57.5917 127.113 60.0396 126.5 60.3939ZM66.8593 44.8295C65.986 45.3018 65.1264 45.7793 64.2806 46.2991C64.2741 46.8587 64.2697 47.4163 64.2898 47.9758C64.7727 47.6963 65.3302 47.2859 65.9204 47.4525C66.6983 47.6719 67.8099 48.5566 68.542 49.0036L74.9585 52.9099L88.2005 60.8518C89.723 61.7439 91.2388 62.6474 92.7478 63.5622C93.0997 63.614 95.1998 62.2657 95.6557 61.9938L74.9257 49.6595C72.9382 48.4402 70.9429 47.2336 68.9398 46.0397C68.4169 45.725 67.3957 44.9611 66.8593 44.8295ZM109.421 58.6175C107.822 59.6965 106.089 60.637 104.438 61.6411C103.285 62.3424 101.956 63.39 100.703 63.8398C99.8821 64.1344 98.4217 63.0168 97.6706 62.6436L97.6493 63.9373C97.7293 66.777 97.6547 69.6335 97.6653 72.4753C97.7107 72.6079 97.6728 72.5522 97.7781 72.643C98.1832 72.4679 98.5791 72.1783 98.9551 71.9441C99.921 71.3428 100.867 70.7093 101.832 70.1074L106.652 67.1533C107.627 66.5491 108.618 65.9601 109.537 65.2725C109.468 64.6481 109.457 63.9643 109.615 63.3518C109.976 61.9525 111.225 61.3542 112.356 60.6583C111.398 60.0123 110.212 59.4594 109.421 58.6175ZM89.8765 28.4237C89.8452 31.9897 89.8827 35.555 89.9889 39.1194C90.4335 38.8808 90.8827 38.6502 91.2981 38.363C90.7965 37.6066 90.3968 36.8625 90.5938 35.9203C90.7734 35.0624 91.4015 34.4128 92.1236 33.9614C92.1967 33.9162 92.2709 33.8727 92.3461 33.8311C92.4214 33.7895 92.4976 33.7497 92.5747 33.7118C92.6519 33.674 92.73 33.638 92.8089 33.604C92.8879 33.57 92.9677 33.5379 93.0482 33.5077C93.1288 33.4776 93.21 33.4495 93.292 33.4233C93.3739 33.3972 93.4565 33.3731 93.5396 33.351C93.6227 33.3289 93.7063 33.3089 93.7905 33.2909C93.8746 33.2729 93.9591 33.257 94.044 33.2432C94.1289 33.2294 94.2141 33.2177 94.2997 33.2081C94.3852 33.1984 94.4708 33.1908 94.5566 33.1854C94.6425 33.18 94.7285 33.1766 94.8146 33.1754C94.9006 33.1742 94.9866 33.1751 95.0726 33.1781C95.1586 33.1811 95.2444 33.1863 95.3301 33.1935C95.4159 33.2008 95.5013 33.2101 95.5866 33.2215C95.6719 33.2329 95.7568 33.2465 95.8414 33.2621C95.926 33.2777 96.0102 33.2954 96.0939 33.3151C97.0291 33.5309 98.0082 34.0603 98.5091 34.9034C98.935 35.6202 98.9656 36.4765 98.7443 37.2637C98.6999 37.4201 98.6536 37.5761 98.6054 37.7315C99.8319 37.1409 101.182 36.8717 102.501 37.3317C103.455 37.6644 104.348 38.3609 104.783 39.2841C104.926 39.5885 105.029 39.922 105.109 40.2479C105.984 40.7959 109.729 42.9664 110.229 43.5539C110.379 43.7304 110.446 44.0054 110.492 44.2263C110.721 45.3094 110.593 46.5995 110.59 47.7121L110.582 53.5063C110.589 54.917 110.55 56.3487 110.62 57.7566C111.211 58.1516 111.799 58.5557 112.437 58.8741C112.446 56.7956 112.381 54.6945 112.463 52.6189C112.488 51.9781 112.695 51.3658 112.746 50.7277C112.874 49.1363 112.799 47.5098 112.802 45.9142C112.803 44.8946 112.937 43.7722 112.733 42.7712C112.672 42.4701 112.57 42.2514 112.352 42.0304C111.59 41.2582 109.395 40.1965 108.351 39.5827C105.305 37.7666 102.249 35.9673 99.1831 34.1848C96.0408 32.3242 93.0035 30.3026 89.8765 28.4237ZM119.519 49.184C117.9 50.1499 116.288 51.1475 114.617 52.0239C118.38 54.4096 122.186 56.7243 126.035 58.968C127.598 57.9805 129.163 56.8776 130.826 56.0643C128.731 54.7492 126.578 53.5253 124.477 52.2185C123.509 51.6165 120.394 49.455 119.519 49.184ZM86.6987 43.2452C84.9577 44.1927 83.2611 45.2293 81.5534 46.235C79.9754 47.1643 78.3683 48.0632 76.8429 49.0769C78.0039 49.7665 79.1814 50.4393 80.3268 51.1536C82.0116 52.1819 83.728 53.1755 85.3926 54.2341C85.8576 53.8562 86.3287 53.5681 86.8668 53.3056C86.8536 51.0685 86.9099 48.8319 86.9028 46.5948C86.8994 45.5192 86.9698 44.3256 86.7761 43.269L86.6987 43.2452ZM54.3575 75.4618C53.8454 75.8364 53.5188 76.1745 53.1784 76.7098C53.1659 77.0625 53.1033 77.4548 53.3537 77.7436C53.9343 78.4129 56.1066 79.4623 56.9766 79.9904L66.3449 85.6486C67.5614 86.3825 68.7729 87.1246 69.9793 87.8751C70.6993 88.3208 71.4416 88.7468 72.1309 89.2382C72.4953 89.018 72.8763 88.8076 73.212 88.5454L73.1929 86.9795C69.0388 84.3017 64.7799 81.7939 60.5544 79.2304L56.5672 76.7826C55.8446 76.3378 55.1192 75.8347 54.3575 75.4618ZM108.918 45.1401C106.369 46.6042 103.766 48.0681 101.322 49.6999L101.346 50.9536C101.869 50.4399 102.363 50.0192 103.141 50.008C103.812 49.9984 104.44 50.2793 104.999 50.6247C105.243 50.0905 105.565 49.4121 106.145 49.1753C106.33 49.0996 106.502 49.1052 106.683 49.1892C106.898 49.2899 107.042 49.5521 107.104 49.7697C107.328 50.5497 106.947 51.6537 106.563 52.3386C107.072 53.3865 107.316 54.4502 106.932 55.5868C106.708 56.2516 106.246 56.8271 105.603 57.1266C105.066 57.3761 104.522 57.4027 103.942 57.3634C102.822 57.0599 102.218 56.4783 101.469 55.6296C101.441 57.6657 101.368 59.7299 101.466 61.7634C103.279 60.6924 105.059 59.5472 106.85 58.4381C107.586 57.9825 108.306 57.4638 109.075 57.0714C109.088 55.5337 109.222 45.7891 108.984 45.1699L108.901 45.1951L108.97 45.1463L108.918 45.1401ZM58.0412 62.9026C57.9849 64.9045 57.9831 66.9402 58.0414 68.9423C58.7334 68.3851 59.4183 67.8838 60.3629 67.9973C61.2926 68.1089 62.0359 68.7051 62.5809 69.4288C63.2679 70.3409 63.7562 71.5641 63.595 72.7206C63.5049 73.3665 63.1675 73.9562 62.6243 74.3274C61.9825 74.7661 61.1028 74.8672 60.3552 74.7059C59.2783 74.4734 58.525 73.6791 57.7384 72.9713C57.396 73.1806 57.0563 73.4005 56.7062 73.5963C56.8206 74.1362 56.9273 74.6777 57.0261 75.2207L58.4519 76.123C59.7003 76.9124 60.9583 77.6862 62.2261 78.4444C62.8895 78.8455 63.6602 79.231 64.2621 79.7142C64.2755 78.0458 64.2749 76.3774 64.2605 74.709C64.2397 73.1443 64.0253 67.7927 64.3862 66.6229C63.1415 65.9287 61.9143 65.205 60.7046 64.4519C59.8348 63.9199 58.9651 63.3352 58.0412 62.9026ZM88.3654 37.2487C85.7028 38.6839 83.1474 40.3405 80.5451 41.8824L76.0575 44.552C74.9671 45.2077 73.8532 45.8591 72.8279 46.6136C73.1899 46.834 73.5493 47.0625 73.9168 47.2734L75.3652 48.2239C77.8806 46.6873 80.4064 45.1681 82.9427 43.6664C84.303 42.8578 85.6846 42.076 87.0281 41.2404C87.5526 40.9141 87.9221 40.4327 88.4452 40.1037C88.4818 39.1806 88.5555 38.2406 88.4342 37.3216L88.3654 37.2487ZM112.913 64.8572C109.365 67.1512 105.794 69.4094 102.2 71.6317C100.683 72.5841 99.1392 73.4871 97.6556 74.4921C97.9261 74.7589 98.1906 75.0313 98.4494 75.3095C99.883 74.6051 101.196 73.7081 102.545 72.8583C105.245 71.157 107.919 69.3744 110.684 67.7799C111.367 67.3856 111.983 66.814 112.703 66.4927C112.941 66.3863 113.183 66.3396 113.436 66.428C113.584 66.48 113.754 66.5672 113.83 66.7117C113.902 66.848 113.881 67.0036 113.825 67.1408C113.622 67.6365 113.224 67.9228 112.777 68.1833C108.279 70.986 103.812 73.848 99.2842 76.6041C99.4569 76.9839 99.6332 77.3621 99.7902 77.7485C101.538 76.5984 103.338 75.5553 105.12 74.4629C107.135 73.2276 109.124 71.9454 111.125 70.6871C112.322 69.9352 113.644 69.2615 114.78 68.4303C114.574 66.9249 114.107 65.8414 112.913 64.8572ZM61.9673 56.1981C59.3506 57.7346 56.6563 59.2213 54.0969 60.8482C54.0601 63.7186 54.019 66.5791 54.0641 69.4502C54.0776 70.3139 54.0464 71.1876 54.0888 72.0497L54.6073 72.3164C54.7756 72.4105 54.9557 72.4995 55.1164 72.6049C55.6103 72.3539 56.1006 72.0961 56.5873 71.8315C56.6083 69.6495 56.6124 67.4675 56.5996 65.2854C56.5969 64.2622 56.4882 63.1617 56.6355 62.1486C56.6795 61.8472 56.7149 61.6769 56.9462 61.4647C57.6238 60.843 58.5668 60.3818 59.3525 59.898C60.321 59.3014 61.2778 58.6642 62.2742 58.1169C62.2285 57.8987 62.0717 56.2888 62.0442 56.2522C62.0253 56.2272 61.9929 56.2161 61.9673 56.1981ZM43.5937 62.1859C43.574 62.1979 43.5541 62.2097 43.5346 62.222C42.9429 62.5963 42.5859 63.2537 42.0409 63.6918C41.2976 64.2894 40.3586 64.7511 39.5493 65.2663C38.0481 66.2222 36.5313 67.4417 34.8843 68.1308C34.3556 68.3522 33.7888 68.5104 33.2145 68.3984C31.7622 68.1152 29.4714 66.3182 28.1696 65.4803L24.7311 63.304C24.6476 63.9279 24.5042 65.0399 24.7467 65.6182L29.0778 68.2901C30.2189 69.005 31.3876 69.8765 32.6424 70.3677C33.1038 70.5483 33.4408 70.6372 33.9334 70.519C34.3216 70.4258 34.69 70.2592 35.0379 70.0665C36.2516 69.3939 37.392 68.5378 38.5731 67.8032C40.3056 66.7257 42.1585 65.7373 43.7906 64.5159C43.7997 64.0399 43.9544 62.5587 43.6359 62.2196C43.6235 62.2065 43.6078 62.1972 43.5937 62.1859ZM78.0048 85.4571C76.8396 85.9942 75.683 86.6957 74.7036 87.5304C74.6925 87.8046 74.6748 88.0786 74.6921 88.3528C75.8876 88.6005 77.038 89.4846 77.697 90.4953C78.408 91.5856 78.5436 92.8265 78.2645 94.0799C78.2472 94.1572 78.2295 94.2343 78.2112 94.3113C78.348 94.3908 78.6286 94.592 78.7906 94.5546C78.8313 94.545 78.8694 94.5262 78.9086 94.512C79.9789 93.8925 82.1869 92.8842 82.5032 91.6109C82.7728 90.5261 82.2611 89.2424 81.6787 88.3392C80.8232 87.013 79.582 85.8149 78.0048 85.4571ZM79.1899 37.4313C76.9925 38.7914 74.7574 40.0879 72.5507 41.4323C71.1754 42.27 69.8009 43.2553 68.3515 43.9508C69.3796 44.5137 70.3637 45.1754 71.354 45.8024C74.849 43.4248 78.5857 41.4423 82.1278 39.1465C81.2913 38.6888 80.0301 37.6993 79.1899 37.4313ZM76.8428 18.7869C75.8468 19.3423 73.905 20.2298 73.2281 21.0805C73.1107 21.228 73.0507 21.4101 72.9821 21.5832C72.972 21.6087 72.9612 21.6341 72.9508 21.6595C73.2689 21.4815 73.5824 21.3025 73.8884 21.104C75.2342 21.4616 76.2851 22.1522 76.9987 23.3677C77.8208 24.7682 78.1209 26.4185 77.7322 27.9975L77.702 28.204L77.7887 28.2705C78.5815 27.84 79.3416 27.3498 80.1166 26.8883C80.6338 26.5805 81.1764 26.299 81.6784 25.968C81.8674 24.0278 81.6183 22.2565 80.3371 20.6968C79.4532 19.6207 78.3552 18.9295 76.9596 18.7921C76.8893 18.7852 76.9142 18.787 76.8428 18.7869ZM54.2655 80.2404C53.0024 80.9597 51.8525 81.3856 50.4183 81.6113C50.3028 82.7778 50.2691 94.315 50.4303 94.5049C50.5957 94.6998 50.9308 94.7616 51.167 94.826C51.6562 94.893 52.268 94.9845 52.6924 94.6676C52.9134 94.5027 52.9302 94.2937 52.9562 94.038C53.0516 93.0979 52.9947 92.107 52.9946 91.162L52.9373 84.7034C52.9363 83.7786 52.8694 82.7771 53.0015 81.8639C53.5618 81.2948 54.268 80.9361 54.9676 80.5636C54.7499 80.4316 54.5259 80.2536 54.2655 80.2404ZM91.2727 76.7039C90.6376 76.8872 90.1727 77.1449 89.8283 77.7382C89.485 78.3294 89.4055 78.9863 89.4664 79.6549C89.8864 79.434 90.2527 79.2583 90.7251 79.1728C91.5881 79.4541 92.0644 79.9882 92.478 80.7768C92.6737 81.15 92.9549 81.863 92.8531 82.2733C92.6678 83.0194 86.373 86.4774 85.3161 87.1432C85.4738 87.4851 85.6255 87.8296 85.7711 88.1766C86.3091 88.2328 91.1445 85.109 91.7638 84.6112C92.1237 84.3221 92.4662 84.0101 92.8632 83.7711C93.4942 83.8462 94.0744 83.8323 94.5979 83.414C95.0732 83.0342 95.2782 82.458 95.3211 81.8673C95.4209 80.4881 94.7877 78.9563 93.8649 77.9452C93.2863 77.3113 92.4569 76.7646 91.5823 76.6994C91.4794 76.6917 91.3756 76.6967 91.2727 76.7039ZM115.239 60.7833C114.187 61.5244 113.035 62.1062 111.879 62.6672C113.489 63.3281 114.88 64.4903 115.551 66.1255C115.848 66.8494 116.069 67.7578 115.923 68.5391C115.871 68.8178 115.524 69.8461 115.759 69.9802C116.79 69.4035 119.065 68.4131 119.365 67.2739C119.689 66.046 119.052 64.5213 118.417 63.4925C117.576 62.1299 116.696 61.4096 115.239 60.7833ZM65.297 25.4543C64.0154 26.1372 62.0611 26.9689 61.1875 28.1243C61.5359 28.0169 61.9075 27.8208 62.2546 27.7454C62.8567 27.6149 63.6874 27.8472 64.2243 28.1325C65.5065 28.8137 66.432 30.4514 66.8236 31.7984C67.0482 32.5715 67.0196 33.4671 66.7697 34.2318C66.6612 34.5647 66.4988 34.8443 66.3134 35.1392C67.4491 34.4846 69.0964 33.7573 69.7871 32.5971C69.881 31.9445 69.7577 30.1535 69.5454 29.5242C69.4562 29.2596 69.2939 29.0296 69.1263 28.8088C68.2134 27.6064 67.4042 26.4457 66.0203 25.751C65.8478 25.6642 65.5901 25.4975 65.4044 25.4643C65.3691 25.4579 65.3328 25.4576 65.297 25.4543ZM72.6516 94.9966C72.5711 96.527 72.3455 107.295 72.6603 108.087C72.8391 108.22 72.9897 108.219 73.2041 108.192C73.6174 108.141 74.0573 107.987 74.4429 107.832C74.6414 107.728 74.7755 107.69 74.8495 107.454C75.0812 106.716 74.9379 103.97 74.9375 103.049C74.9367 100.803 74.9867 98.5447 74.9254 96.3C74.0781 96.0616 73.3578 95.4994 72.6516 94.9966ZM48.7438 71.1909C47.3244 72.1955 46.3124 73.517 46.0122 75.2603C45.8462 76.224 46.0325 77.2396 46.4909 78.1007C47.7627 78.9108 49.0611 79.7667 50.4436 80.3806C50.4445 80.3586 50.4486 80.3365 50.4466 80.3145C50.4134 79.9395 49.8949 79.4117 49.7064 79.0772C48.9658 77.7624 49.8036 75.3771 50.5984 74.2527C50.6969 74.1106 50.8021 73.9736 50.9141 73.8417C51.026 73.7098 51.1441 73.5837 51.2685 73.4633C51.3928 73.343 51.5227 73.229 51.6583 73.1214C51.7938 73.0137 51.9343 72.9129 52.0797 72.8189C51.0377 72.1996 49.8869 71.5977 48.7438 71.1909ZM69.9438 56.5442C69.8185 57.1945 69.7153 57.8608 69.6871 58.5228C69.6405 59.6197 69.8948 60.9952 69.4699 62.0184C69.2852 62.4633 68.9317 62.7905 68.536 63.0544C67.4333 63.7899 66.0828 63.9282 64.804 63.6623C63.9603 63.487 63.0754 63.1209 62.5922 62.371C62.176 61.7252 62.204 60.7742 62.197 60.033C61.2063 60.6096 60.1991 61.1627 59.229 61.7732C60.4819 62.5451 61.7475 63.2957 63.0259 64.025L65.9026 65.8261C67.2923 64.9591 68.7 63.9894 70.1734 63.2786C70.1466 62.2804 70.2366 61.488 70.9759 60.7329C71.7173 59.9756 72.7358 59.6048 73.7876 59.6129C74.3699 59.6173 74.9257 59.7253 75.4921 59.8514C73.5769 58.8585 71.7275 57.7562 69.9438 56.5442ZM96.0534 84.703C95.1273 85.0673 94.3008 85.2855 93.3041 85.3241C93.2279 87.0114 93.2753 88.717 93.277 90.4063C93.2784 91.6903 93.211 93.0278 93.3198 94.3046L93.8959 94.6193C94.2134 94.7462 94.5304 94.8853 94.857 94.9874C95.3123 94.7658 95.7587 94.5446 96.1885 94.2756L96.182 88.2634C96.1856 87.2063 96.2651 86.0989 96.1731 85.0493C96.1592 84.8909 96.1772 84.8304 96.0651 84.7115C96.0618 84.708 96.0574 84.7058 96.0534 84.703ZM81.9197 32.5457C80.5899 33.292 79.2484 34.0765 77.9888 34.9351C78.9899 35.4293 83.2084 38.2988 83.6891 38.294C85.0217 37.5136 86.2872 36.6279 87.634 35.8674C86.9052 35.369 82.4243 32.5244 81.9197 32.5457ZM38.0244 46.614C38.0353 47.69 38.2023 48.701 37.3763 49.5396C36.5246 50.4042 35.201 50.8089 34.0091 50.8007C32.8178 50.7926 31.2825 50.4389 30.4378 49.545C29.705 48.7696 29.8018 47.772 29.8059 46.7865C28.7068 47.3796 27.6822 48.0415 26.6318 48.7123C27.2658 49.1864 27.9216 49.6284 28.599 50.0384C29.7452 50.7569 32.6292 53.1849 33.9121 52.8593C34.7935 52.6357 40.0582 49.1621 40.9695 48.4645C40.0376 47.7519 39.0861 47.1219 38.0244 46.614ZM91.1488 40.3192C90.4267 40.6687 89.7115 41.0451 89.0407 41.4859C90.9519 42.5272 92.8171 43.6292 94.6975 44.7235C96.6694 45.8709 98.6976 47.0217 100.536 48.3774C102.97 47.0551 105.296 45.5695 107.638 44.0944L107.897 43.9091C107.659 43.4923 105.355 42.249 104.776 41.8701C104.686 42.9648 104.788 44.044 104.633 45.1393C103.957 46.0717 102.768 46.6296 101.649 46.8017C100.371 46.9982 98.7959 46.7658 97.7278 46C97.2895 45.686 96.9721 45.2516 96.9077 44.7076C96.8547 44.26 96.9485 43.8709 97.176 43.4881L96.9888 42.5614C95.696 43.2012 94.3938 43.4529 92.9924 42.9805C92.4246 42.7892 91.8057 42.4325 91.5298 41.8768C91.3368 41.4879 91.3527 40.5666 91.1488 40.3192ZM96.0798 63.4086C95.2091 63.9006 94.3679 64.4387 93.5563 65.0227C93.5421 66.7043 93.5387 68.386 93.5459 70.0677C93.5482 71.059 93.5149 72.0729 93.5899 73.0607L94.1138 72.9615C94.8559 72.9737 95.5534 73.1071 96.2461 73.3781C96.2554 72.2702 96.3803 63.955 96.1696 63.4462L96.0798 63.4086ZM117.29 70.7779C116.497 71.2355 115.777 71.5467 114.847 71.5703L114.798 76.5607C114.789 77.6577 114.713 78.8743 114.887 79.9581C114.928 80.2117 114.977 80.4083 115.152 80.6022C115.712 80.8089 116.267 80.9298 116.833 80.6556C117.036 80.5574 117.187 80.4189 117.345 80.2614C117.412 79.2508 117.549 71.2234 117.29 70.7779ZM62.2446 33.7002L49.6825 41.0652C49.1109 41.4041 46.4779 42.8575 46.1848 43.1997C46.2179 43.6291 46.3426 44.0342 46.4574 44.4474C51.8616 41.4219 57.0489 38.007 62.4533 34.9869C62.4323 34.6929 62.4592 33.9117 62.2446 33.7002ZM60.1322 31.5718L44.8357 40.6956C45.0588 40.9839 45.2616 41.3314 45.5786 41.5185C45.7285 41.5262 45.7909 41.4897 45.9182 41.4142C47.6816 40.4052 49.4002 39.3272 51.1396 38.2785L56.0268 35.3867C57.7887 34.3375 59.5199 33.2121 61.3793 32.3383C61.0241 32.0832 60.5603 31.6895 60.1322 31.5718ZM30.9276 73.4417C30.8728 75.1914 30.9036 76.9495 30.9042 78.7002C30.9045 79.9674 30.8551 81.2614 30.9313 82.5254C31.3799 82.8011 31.844 83.11 32.3995 82.9906C32.586 82.9505 32.7705 82.8678 32.9469 82.7963C32.9916 82.7383 33.0461 82.6867 33.0812 82.6225C33.2445 82.3229 33.1116 75.1708 33.1031 74.2355C32.3447 74.081 31.5894 73.8545 30.9276 73.4417ZM38.1288 40.8479L37.2836 41.6643C37.9215 42.288 38.1391 42.9657 38.1462 43.8408C38.1478 44.1364 38.1458 44.4319 38.1402 44.7274C38.7139 45.1383 41.4873 47.1797 41.9825 47.143C42.3102 46.8788 42.625 46.6143 42.8724 46.2697C42.8756 44.7527 42.0824 43.2693 41.0231 42.2095C40.2576 41.4435 39.2407 40.8518 38.1288 40.8479ZM70.2955 64.8787C69.134 65.5305 67.9465 66.1968 66.8761 66.9911C68.6961 68.0144 70.4869 69.05 72.2643 70.1453C72.811 70.4823 73.4532 70.7836 73.9578 71.1756C75.5723 70.1127 77.2279 69.1224 78.857 68.0828L80.4488 67.0806C79.5407 66.3044 78.3864 65.694 77.2927 65.2116C77.6685 65.8902 77.9273 66.5931 77.7154 67.3753C77.5206 68.094 77.0056 68.6277 76.3608 68.9777C75.1439 69.6384 73.607 69.628 72.3059 69.2407C71.5601 69.0186 70.7899 68.6247 70.405 67.9175C70.3617 67.8374 70.324 67.7547 70.2919 67.6695C70.2597 67.5843 70.2335 67.4973 70.2132 67.4085C70.193 67.3198 70.1788 67.2301 70.1707 67.1393C70.1626 67.0487 70.1606 66.9579 70.1649 66.867C70.1782 66.5386 70.6103 64.9908 70.2955 64.8787ZM94.2646 74.3005C93.6738 74.5985 93.1056 74.9223 92.5791 75.3247C94.315 76.2221 95.7101 77.3741 96.3195 79.2915C96.4278 79.6325 96.5094 79.9822 96.5991 80.3284C96.802 81.1115 96.4023 82.1778 96.579 82.846C96.681 82.8504 96.6396 82.8625 96.7074 82.829C97.261 82.4721 97.8323 82.1272 98.3705 81.7484C98.7856 79.9223 98.477 78.1715 97.4726 76.5787C96.7965 75.5066 95.856 74.6352 94.5953 74.3349C94.4804 74.3075 94.3819 74.299 94.2646 74.3005ZM117.369 43.1966C116.302 43.8162 115.191 44.4054 114.157 45.0762C114.124 46.8009 113.976 48.7689 114.238 50.4641L114.318 50.4994C115.37 49.8552 116.423 49.2062 117.52 48.6411C117.511 47.823 117.592 43.4895 117.369 43.1966ZM112.624 71.4894C111.861 71.9739 111.053 72.3947 110.303 72.8962C110.375 74.0576 110.249 75.2234 110.361 76.3862C110.86 76.7714 111.401 77.0861 111.941 77.4097L113.405 78.2414C113.427 76.1823 113.434 74.1232 113.426 72.0641C113.16 71.8731 112.897 71.6699 112.624 71.4894ZM74.1516 89.7937C73.5135 90.0587 72.971 90.3494 72.7 91.0292C72.4562 91.6407 72.5649 92.2934 72.8381 92.8745C73.1949 93.6333 73.9681 94.5112 74.7834 94.7686C74.9912 94.8342 75.1601 94.8191 75.3694 94.7592C76.0438 94.4106 76.7407 93.974 76.9681 93.2007C77.1382 92.622 76.9644 92.0247 76.6791 91.5136C76.2823 90.8025 75.4876 90.005 74.6789 89.8191C74.5077 89.7798 74.3261 89.7851 74.1516 89.7937ZM97.6004 94.088C97.5974 94.4302 97.5902 94.7723 97.6133 95.114C97.012 95.7207 95.7879 96.5643 94.9056 96.5576C94.0836 96.5512 92.9576 95.9961 92.3924 95.4101C92.0611 95.0667 92 94.7852 91.9088 94.3349C91.2001 94.6666 90.5406 95.0495 89.8656 95.4432C90.4827 95.8236 91.1059 96.1959 91.698 96.6144C92.7515 97.257 93.776 97.9087 94.7689 98.6411C95.5377 98.1288 99.3353 96.0048 99.5717 95.3212C99.5149 95.0918 99.2823 94.96 99.0927 94.8443C98.6167 94.5541 98.0851 94.3607 97.6004 94.088ZM48.6659 94.2398C47.9794 94.5694 47.4395 94.9988 46.8501 95.4716C48.4415 96.4718 50.0417 97.5616 51.7131 98.4199C52.6586 97.9409 53.5868 97.431 54.4979 96.8899C54.8719 96.6692 55.7879 96.2407 55.9127 95.8195C55.9597 95.6612 55.9521 95.5404 55.8617 95.4014C55.6073 95.0106 54.8425 94.7665 54.421 94.5793C54.2924 95.1579 54.1264 95.5434 53.6068 95.8855C52.7772 96.4319 51.5353 96.456 50.5929 96.2349C50.0456 96.1064 49.485 95.848 49.172 95.3615C48.9609 95.0334 48.8416 94.6423 48.742 94.2682L48.6659 94.2398ZM118.842 80.5817C118.573 81.2598 118.227 81.6642 117.531 81.9583C116.654 82.3292 115.525 82.3799 114.644 81.9985C114.243 81.8249 113.857 81.5792 113.699 81.1559C113.648 81.0206 113.618 80.8792 113.583 80.7395C113.558 80.6404 113.576 80.6779 113.53 80.6095C112.926 80.9861 112.318 81.3927 111.661 81.6727C113.158 82.7021 114.715 83.6156 116.244 84.5928C117.054 84.0191 117.912 83.5146 118.729 82.9508C119.342 82.5488 119.928 82.1215 120.513 81.6808C120.008 81.2457 119.423 80.9066 118.842 80.5817ZM76.1201 107.773C76.0512 108.056 75.9766 108.337 75.8964 108.617C75.0154 109.273 73.9276 109.84 72.7898 109.685C72.2083 109.605 71.7045 109.332 71.3676 108.845C71.2058 108.611 71.1337 108.336 71.0591 108.066L69.2218 109.268C69.7973 109.564 70.3328 109.934 70.8739 110.287C71.678 110.837 72.5084 111.498 73.4081 111.876C74.9051 110.951 76.3892 109.957 77.9375 109.122C77.3089 108.73 76.7747 108.091 76.1201 107.773ZM94.3114 34.7714C93.6596 34.8687 92.8656 35.1122 92.4608 35.6635C92.263 35.9328 92.178 36.262 92.2354 36.5921C92.3089 37.0144 92.6084 37.349 92.9628 37.5721C93.618 37.9847 94.3995 38.0722 95.156 38.0246C95.8224 37.9526 96.6154 37.7455 97.0496 37.2004C97.2551 36.9423 97.3502 36.6243 97.3045 36.2968C97.2452 35.8732 96.9572 35.5193 96.617 35.2765C95.939 34.7931 95.1127 34.7411 94.3114 34.7714ZM120.994 41.1146C120.291 41.4848 119.592 41.8623 118.897 42.247C118.888 43.0707 118.733 46.6033 118.987 47.1532C119.179 47.3351 119.451 47.396 119.698 47.4802C120.175 47.7086 120.65 47.9349 121.091 48.2299C121.097 45.8701 121.141 43.5008 121.076 41.1423L120.994 41.1146ZM34.6005 82.1495C34.564 82.7621 34.5664 83.3139 34.0784 83.7579C33.4802 84.3021 32.5638 84.4091 31.784 84.3501C31.0383 84.2937 30.2977 83.9991 29.8096 83.4178C29.5567 83.117 29.4757 82.7899 29.3839 82.4172C28.8085 82.7271 28.2368 83.0367 27.6797 83.3789C28.2356 83.8171 28.8293 84.2012 29.4183 84.593C30.4196 85.2441 31.3307 85.8538 32.4872 86.1976C33.2529 85.8384 36.144 84.1849 36.4663 83.5354C36.4959 83.4758 36.4935 83.4439 36.4975 83.3841C36.1495 82.8535 35.1591 82.4382 34.6005 82.1495ZM31.2285 45.9506C31.2039 46.7688 31.072 47.753 31.6828 48.4048C32.2172 48.9752 33.171 49.1379 33.9256 49.1474C34.8147 49.1586 35.6713 48.9087 36.3537 48.3283C36.6163 47.6351 36.5449 46.9625 36.4811 46.2412C34.8189 46.8079 33.4792 47.047 31.8461 46.2511C31.64 46.1507 31.4373 46.0457 31.2285 45.9506ZM62.6149 29.2376C61.9346 29.542 61.2897 29.8963 60.6282 30.2365C61.8005 30.7154 63.0076 31.4125 63.5015 32.6474C63.7755 33.3326 63.777 34.0391 63.808 34.7636C64.0041 34.8429 64.187 34.7831 64.3733 34.7015C64.857 34.4895 65.2463 34.134 65.428 33.6318C65.7139 32.8413 65.353 31.9402 64.9905 31.2322C64.5809 30.4324 63.9895 29.5963 63.0921 29.3089C62.9384 29.2596 62.776 29.2399 62.6149 29.2376ZM114.12 32.8047C113.507 33.0213 112.815 33.3026 112.535 33.9391C112.403 34.2388 112.408 34.5561 112.545 34.8536C112.785 35.3772 113.332 35.7305 113.865 35.9021C114.343 36.0561 114.812 36.0518 115.307 36.0095C115.888 35.8127 116.579 35.5802 116.882 34.9994C117.02 34.7349 117.031 34.4389 116.94 34.1575C116.779 33.6622 116.307 33.3084 115.85 33.1017C115.299 32.8528 114.722 32.7723 114.12 32.8047ZM102.06 25.0468C101.415 25.1485 100.762 25.3378 100.347 25.8791C100.115 26.1811 100.007 26.5569 100.079 26.9336C100.161 27.3663 100.468 27.7091 100.836 27.9341C101.311 28.2253 101.884 28.3281 102.435 28.3309C103.086 28.1264 103.829 27.8906 104.177 27.2484C104.333 26.9599 104.359 26.6369 104.253 26.3259C104.088 25.8369 103.652 25.4839 103.191 25.2818C102.848 25.1314 102.437 25.0176 102.06 25.0468ZM64.5386 54.9199C64.0389 55.2195 63.6193 55.6622 63.4897 56.2458C63.478 56.2974 63.4688 56.3493 63.4622 56.4018C63.4557 56.4542 63.4518 56.5068 63.4506 56.5597C63.4494 56.6125 63.4509 56.6652 63.455 56.7179C63.4592 56.7706 63.466 56.8229 63.4754 56.8749C63.4848 56.927 63.4968 56.9784 63.5114 57.0292C63.5261 57.08 63.5432 57.1299 63.5629 57.179C63.5826 57.228 63.6047 57.2759 63.6292 57.3228C63.6538 57.3697 63.6806 57.4152 63.7097 57.4593C64.0987 58.0434 64.8246 58.3719 65.4997 58.4805C66.2978 58.6089 67.2713 58.4538 67.9188 57.9522C68.256 57.6909 68.4268 57.4046 68.5682 57.0098C68.5071 56.6312 68.4218 56.2895 68.2952 55.9274C68.0189 55.5139 67.7212 55.2303 67.2161 55.1352C66.7296 55.0437 66.1884 55.0806 65.7201 55.232C66.2893 55.3972 67.1652 55.1955 67.5074 55.79C67.5393 55.9779 67.5057 56.1392 67.396 56.2971C67.1614 56.635 66.6614 56.7754 66.276 56.8204C65.8307 56.8724 65.2286 56.8513 64.8658 56.5501C64.7178 56.4272 64.6199 56.2518 64.6103 56.0577C64.5935 55.7133 64.8027 55.4034 64.7615 55.0481C64.6759 54.9715 64.6536 54.9525 64.5386 54.9199ZM90.6217 80.7391C89.1205 81.5338 87.7153 82.464 86.2821 83.3721C85.5089 83.862 84.6763 84.301 83.9663 84.88C84.1727 85.1677 84.3665 85.4847 84.6385 85.7144L84.7365 85.7264C85.9477 85.0935 87.1185 84.38 88.2981 83.6908C89.3711 83.0641 90.497 82.4671 91.4749 81.6987C91.2526 81.3825 90.9873 80.8993 90.6217 80.7391ZM98.3576 42.5509C98.2705 43.2354 98.1289 44.1265 98.5767 44.7174C98.9453 45.2035 99.6297 45.3468 100.206 45.4037C101.165 45.4981 102.238 45.2993 102.995 44.6798C103.339 44.2438 103.375 43.8753 103.31 43.3374C103.288 43.146 103.26 42.9553 103.227 42.7654C101.824 43.2626 100.298 43.4946 98.9008 42.8322C98.7188 42.7459 98.5286 42.6572 98.3576 42.5509ZM33.8746 41.7417C33.6689 41.7667 33.5459 41.7562 33.3778 41.8811C33.3691 42.271 33.7667 42.6089 34.0093 42.8931C34.373 42.6599 34.9299 42.2098 35.3888 42.3182C35.5294 42.3515 35.5524 42.4163 35.6093 42.5314C35.5973 42.8467 35.4543 43.084 35.2221 43.296C34.7657 43.7127 34.1357 43.7649 33.5437 43.7256C33.2443 43.7058 33.0346 43.6182 32.8444 43.3806C32.5961 43.0703 32.38 42.635 31.9813 42.5004C31.7963 42.5279 31.7011 42.5745 31.5935 42.733C31.3919 43.0297 31.2836 43.3909 31.2616 43.7456C31.6132 44.4302 32.0929 44.8049 32.8342 45.0399C33.785 45.3413 34.9877 45.265 35.8686 44.7829C36.1887 44.6078 36.4591 44.3579 36.5435 43.9922C36.6389 43.5786 36.4581 43.1168 36.2308 42.776C35.8473 42.2015 35.1986 41.926 34.5374 41.81C34.3195 41.7718 34.0952 41.7579 33.8746 41.7417ZM47.6552 118.731C47.6525 119.829 47.5781 120.962 47.639 122.056C48.6431 122.683 49.7036 123.273 50.6679 123.956L50.6498 120.522C49.6809 119.883 48.7053 119.231 47.6552 118.731ZM63.6809 59.4906C63.6448 60.1994 63.5068 61.1329 64.0073 61.7117C64.3998 62.1656 65.0792 62.2785 65.6511 62.3047C65.755 62.3102 65.8591 62.3115 65.9632 62.3085C66.0673 62.3054 66.171 62.298 66.2745 62.2863C66.378 62.2746 66.4808 62.2586 66.583 62.2384C66.685 62.2182 66.7861 62.1938 66.8863 62.1651C66.9864 62.1364 67.0851 62.1037 67.1825 62.0668C67.2798 62.03 67.3755 61.9892 67.4695 61.9444C67.5634 61.8996 67.6553 61.851 67.7452 61.7986C67.8351 61.7462 67.9226 61.6901 68.0077 61.6305C68.3436 60.9958 68.2525 60.3139 68.1987 59.6258C66.541 60.1462 65.3097 60.0595 63.6809 59.4906ZM71.8031 65.3816C71.7596 66.052 71.5862 66.8716 72.0613 67.4253C72.4897 67.9244 73.3356 68.0817 73.9693 68.1076C74.7402 68.139 75.4699 67.9415 76.1654 67.6235C76.2066 66.8725 76.1711 66.0995 76.1862 65.3447C74.624 65.8426 73.3542 66.0062 71.8031 65.3816ZM73.5898 60.9946C72.9315 61.1259 72.21 61.2777 71.813 61.8778C71.591 62.2132 71.4931 62.6621 71.5947 63.0546C71.703 63.473 72.0324 63.7821 72.4024 63.9827C73.208 64.4194 74.3286 64.4574 75.1939 64.1661C75.6928 63.9981 76.1644 63.6864 76.3865 63.1932C76.4818 62.9813 76.4932 62.7511 76.51 62.5226C76.2455 61.9685 75.963 61.6932 75.4563 61.3427C75.5111 61.6857 75.5629 61.9746 75.3503 62.2746C75.1548 62.5504 74.8406 62.7049 74.5116 62.7557C74.0206 62.8314 73.39 62.7269 72.9884 62.4194C72.8256 62.2948 72.6899 62.1083 72.6819 61.898C72.677 61.7644 72.7024 61.6197 72.7929 61.5159C72.9465 61.3395 73.226 61.3262 73.4423 61.3358C73.9039 61.3565 74.3113 61.599 74.7111 61.2819L74.7527 61.1712C74.6009 61.0053 74.3657 60.99 74.146 60.9776C73.959 60.9671 73.776 60.9777 73.5898 60.9946ZM116.561 59.3393L116.406 59.4802C116.448 59.744 116.62 59.8525 116.83 60.0023C117.213 60.2752 117.621 60.4833 117.984 60.7879C119.191 61.8011 120.421 63.5361 120.666 65.121C120.743 65.6222 120.582 66.4882 120.881 66.8917C121.056 66.9033 121.089 66.833 121.222 66.7251C121.702 65.9551 121.756 65.2675 121.551 64.393C121.126 62.5724 119.974 60.7488 118.349 59.7665C117.779 59.4218 117.226 59.2651 116.561 59.3393ZM78.6915 83.6197C78.254 83.7269 77.8348 83.8686 77.4103 84.0175C79.4175 84.2273 80.8474 84.8968 82.1512 86.4874C82.2199 86.5714 82.2869 86.6567 82.3522 86.7433C82.4175 86.83 82.481 86.9179 82.5427 87.0071C82.6045 87.0962 82.6645 87.1865 82.7226 87.2781C82.7807 87.3697 82.8369 87.4624 82.8913 87.5562C82.9457 87.6501 82.9982 87.7449 83.0487 87.8408C83.0993 87.9367 83.1479 88.0336 83.1946 88.1315C83.2412 88.2294 83.2859 88.3281 83.3286 88.4277C83.3713 88.5274 83.412 88.6278 83.4507 88.7291C83.4893 88.8303 83.5259 88.9323 83.5605 89.0351C83.595 89.1378 83.6275 89.2412 83.6579 89.3452C83.6884 89.4493 83.7167 89.5539 83.7429 89.659C83.769 89.7641 83.7931 89.8698 83.815 89.9759C83.837 90.082 83.8568 90.1885 83.8745 90.2955C83.8921 90.4024 83.9076 90.5096 83.921 90.6171C83.9343 90.7247 83.9455 90.8324 83.9545 90.9404C83.9635 91.0483 83.9703 91.1564 83.975 91.2647L84.0048 91.5023L84.0946 91.56C84.3307 91.3912 84.4069 90.8307 84.4506 90.552C84.7178 88.8471 84.1338 87.4859 83.1242 86.1308C82.2246 84.9233 80.851 83.8231 79.314 83.62C79.1109 83.5931 78.8943 83.59 78.6915 83.6197ZM100.838 38.5523C100.015 38.702 98.9712 38.946 98.4722 39.6826C98.3597 39.8487 98.2913 40.0382 98.2245 40.2258C98.5167 40.8852 98.9796 41.2517 99.6506 41.5147C99.7054 41.5363 99.7607 41.5565 99.8164 41.5752C99.8721 41.5941 99.9284 41.6115 99.9851 41.6274C100.042 41.6435 100.099 41.6581 100.156 41.6712C100.214 41.6844 100.271 41.6961 100.329 41.7063C100.387 41.7166 100.445 41.7254 100.504 41.7327C100.562 41.7401 100.621 41.746 100.68 41.7505C100.738 41.7549 100.797 41.7578 100.856 41.7593C100.915 41.7608 100.974 41.7609 101.032 41.7594C101.091 41.7579 101.15 41.755 101.209 41.7506C101.268 41.7463 101.326 41.7404 101.385 41.7331C101.443 41.7258 101.501 41.717 101.559 41.7068C101.617 41.6965 101.675 41.6848 101.732 41.6717C101.79 41.6587 101.847 41.6442 101.903 41.6282C101.96 41.6122 102.016 41.5948 102.072 41.5761C102.128 41.5573 102.183 41.5371 102.238 41.5155C102.293 41.494 102.347 41.4711 102.401 41.4469C102.872 41.2363 103.213 40.9329 103.397 40.4427C103.464 40.262 103.446 40.1095 103.401 39.9242C103.219 39.5504 102.757 38.9331 102.334 38.7897C102.196 38.7429 102.166 38.7748 102.05 38.8432C102.063 38.9575 102.038 38.911 102.108 38.9792C102.272 39.1399 102.418 39.2916 102.428 39.5367C102.438 39.7756 102.298 39.982 102.125 40.134C101.701 40.5071 101.098 40.593 100.553 40.5422C100.307 40.5192 99.8281 40.2445 99.6832 40.0377C99.5906 39.9056 99.5615 39.7576 99.6 39.6009C99.6556 39.3747 99.8445 39.2265 100.048 39.1357C100.604 38.8882 101.23 39.0681 101.766 38.8593L101.782 38.7831C101.486 38.53 101.208 38.5647 100.838 38.5523ZM92.5898 39.1784C92.5736 39.7229 92.5634 40.2675 92.612 40.8106C93.0911 41.3707 93.6306 41.685 94.3809 41.7331C95.1177 41.7803 95.8336 41.5487 96.388 41.0617C96.6743 40.5634 96.6188 39.8417 96.6304 39.2793C95.4258 39.7848 94.0229 39.7489 92.8108 39.282C92.7337 39.2523 92.663 39.2164 92.5898 39.1784ZM74.0001 22.7596C73.3949 23.0866 72.8084 23.4336 72.2235 23.7949C73.3484 24.1429 74.3089 24.4657 74.8754 25.5945C75.051 25.9444 75.2996 26.6094 75.3016 26.9982L75.4742 27.5607C75.8085 27.3901 76.3157 27.2118 76.4441 26.829C76.6804 26.1251 76.1855 24.9695 75.8531 24.3433C75.5143 23.7052 74.9532 22.9685 74.2195 22.7836C74.1459 22.7651 74.0754 22.7625 74.0001 22.7596ZM103.108 51.5044C102.799 51.7111 102.533 51.9383 102.259 52.188C102.97 52.6255 103.864 53.1601 104.065 54.0349C104.147 54.3949 104.073 54.8186 103.861 55.1236C103.737 55.3035 103.583 55.4696 103.439 55.6346C103.724 55.7917 103.98 55.9199 104.298 56.0056C104.803 55.8495 105.205 55.6826 105.48 55.1961C105.743 54.7305 105.723 54.1859 105.574 53.6876C105.337 52.8933 104.775 52.0995 104.026 51.7199C103.738 51.5736 103.433 51.4903 103.108 51.5044ZM40.397 39.1653L39.901 39.5282C41.7956 40.4875 43.1953 41.8609 43.8665 43.9182C44.0776 44.5647 44.1703 45.2067 44.2173 45.8825C44.2384 46.1854 44.2308 46.5259 44.2924 46.8219C44.3205 46.9567 44.3732 47.0534 44.4932 47.1297C45.1064 45.7164 45.1511 44.6441 44.5691 43.2023C43.938 41.6386 42.6435 40.0434 41.0447 39.3908C40.8322 39.3059 40.6163 39.2308 40.397 39.1653ZM47.4269 100.198C47.4149 100.783 47.41 101.368 47.4124 101.954C48.5691 102.8 49.7767 103.537 51.0358 104.222C51.0467 103.61 51.0456 102.998 51.0325 102.386C49.8539 101.618 48.6521 100.889 47.4269 100.198ZM59.865 69.3605C59.4179 69.5996 59.0245 69.8683 58.624 70.1775C59.9821 71.0587 60.5504 71.8654 60.952 73.4231C61.3755 73.2739 61.7429 73.0474 61.9472 72.6315C62.1804 72.1566 62.1104 71.5741 61.9239 71.0962C61.6655 70.434 61.1016 69.8033 60.4428 69.5167C60.2554 69.4353 60.0662 69.3908 59.865 69.3605ZM53.7871 73.4067C52.5729 73.9678 51.6092 74.9084 51.1402 76.1741C50.8357 76.9963 50.7283 77.9585 51.0984 78.7765C51.24 79.0895 51.4382 79.3718 51.7755 79.4908C52.0482 79.5869 52.3462 79.61 52.6269 79.5447L52.6926 79.4518L52.6146 79.2915C52.0557 78.5894 51.727 77.905 51.8347 76.98C51.9467 76.0194 52.5313 75.1209 53.3012 74.5444C53.9337 74.0708 54.5302 73.9938 55.2971 74.0481C54.8488 73.7587 54.3321 73.4488 53.7871 73.4067ZM99.2106 100.232C97.9198 100.94 96.6918 101.783 95.4431 102.564C95.4407 102.967 95.3618 103.65 95.5536 104.011L95.6521 104.009C96.9398 103.344 98.2812 102.602 99.4054 101.684C99.4251 101.241 99.5126 100.684 99.3056 100.276L99.2106 100.232ZM77.6228 113.077C76.3746 113.797 75.1232 114.515 73.9173 115.304C73.9146 115.704 73.818 116.484 74.0183 116.816L74.1322 116.817C75.3412 116.067 76.5681 115.231 77.8439 114.605C77.8299 114.16 77.8684 113.501 77.6777 113.091L77.6228 113.077ZM120.24 86.3654C119.102 86.9901 117.987 87.6641 116.869 88.3229C116.82 88.7047 116.656 89.7734 116.862 90.0919C116.871 90.1057 116.884 90.1166 116.895 90.1289L116.982 90.0986C118.141 89.372 119.406 88.6696 120.462 87.8035C120.424 87.362 120.485 86.8343 120.349 86.4187C120.26 86.3629 120.3 86.3708 120.24 86.3654ZM67.3311 74.2565C66.8949 74.5064 66.6004 74.817 66.287 75.2011C67.2033 75.7348 68.1233 76.2468 68.4175 77.346C68.4823 77.5883 68.4741 77.9944 68.6617 78.1652C69.0659 77.9875 69.3882 77.837 69.5697 77.4035C69.7665 76.9334 69.6531 76.4126 69.4491 75.9651C69.1329 75.2713 68.5438 74.6009 67.8123 74.3424C67.7351 74.3147 67.6561 74.2936 67.5753 74.2792C67.4945 74.2648 67.4131 74.2572 67.3311 74.2565ZM111.836 86.2641C111.823 86.7976 111.787 87.3328 111.782 87.8658C112.986 88.6096 114.138 89.4292 115.348 90.165C115.331 89.5819 115.301 88.9881 115.377 88.4082C114.261 87.593 112.965 87.0473 111.836 86.2641ZM78.4355 17.5806C78.9299 17.8616 79.4475 18.0937 79.9261 18.4025C81.4421 19.3808 82.4557 20.8789 82.9281 22.5994C83.001 22.8649 83.0626 23.4049 83.2387 23.6018C83.2707 23.5827 83.3106 23.5708 83.3324 23.5405C83.642 22.1227 83.2959 20.8145 82.5139 19.6016C81.8857 18.6271 80.9869 17.8826 79.8317 17.6437C79.3658 17.5473 78.908 17.5514 78.4355 17.5806ZM55.9538 100.467C54.8344 101.167 53.7077 101.883 52.5054 102.437C52.4991 102.783 52.3934 103.832 52.5834 104.066L52.6539 104.051C53.8099 103.378 55.0129 102.73 56.1049 101.957C56.077 101.544 56.1719 100.834 56.018 100.484L55.9538 100.467ZM36.1943 88.4384C35.0996 89.0078 34.0456 89.6711 32.9997 90.325C32.9975 90.6969 32.8912 91.6699 33.101 91.9583C34.2082 91.4156 35.3367 90.7215 36.329 89.9917C36.3239 89.5142 36.3714 88.9667 36.2687 88.5017L36.1943 88.4384ZM90.5462 100.432C90.5374 100.932 90.5238 101.431 90.5412 101.931C91.6996 102.675 92.8367 103.436 94.0392 104.11L94.0338 102.513C92.9444 101.73 91.7504 101.024 90.5462 100.432ZM28.4771 88.5217C28.4511 89.06 28.4431 89.5987 28.4533 90.1376C28.9065 90.442 31.2324 92.0975 31.6045 92.1604L31.6113 92.085L31.6161 90.2949C30.5544 89.7297 29.5544 89.0589 28.4771 88.5217ZM69.0551 112.981C69.062 113.483 69.0587 113.988 69.0783 114.49C70.215 115.247 71.372 115.972 72.5493 116.665C72.52 116.131 72.5017 115.596 72.4943 115.06C71.3984 114.313 70.2258 113.606 69.0551 112.981ZM27.2695 56.2595C26.9371 56.5571 26.826 56.8252 26.6971 57.2456C26.9149 58.0297 27.2278 58.7449 27.9707 59.1709C28.2177 59.3126 28.4768 59.3765 28.753 59.4358C29.0795 59.0574 29.2428 58.7715 29.195 58.258C29.1387 57.6528 28.7621 57.097 28.2962 56.723C27.9891 56.4765 27.6519 56.3414 27.2695 56.2595ZM73.5373 26.423C72.4872 27.0131 71.4588 27.6001 70.4775 28.2997C70.7617 28.7049 70.9402 29.1012 71.0806 29.5737C72.0423 29.0171 73.0062 28.3591 74.0007 27.873C73.9402 27.5013 73.8967 26.7347 73.5992 26.4612C73.5814 26.4448 73.5579 26.4357 73.5373 26.423ZM25.606 58.9657C24.6235 59.4623 23.7079 60.0234 22.8003 60.6463C22.9851 60.7572 23.1686 60.8765 23.3599 60.9758L24.1811 61.3273C24.7649 61.0239 25.5403 60.673 25.7564 59.9897C25.8406 59.7229 25.7881 59.2745 25.6604 59.0329C25.6469 59.0075 25.6241 58.988 25.606 58.9657ZM27.8498 85.4506L27.5192 85.9882C28.796 86.8663 30.0778 87.7472 31.4375 88.4949L31.542 88.4637C31.5855 88.177 31.5856 87.8982 31.5848 87.6093C30.3126 86.9369 29.1253 86.113 27.8498 85.4506ZM56.1131 97.7206C54.9245 98.4209 53.7162 99.1056 52.5525 99.8455C52.5461 100.088 52.4974 100.405 52.6039 100.626L52.7125 100.598C53.9419 99.862 55.1964 99.1514 56.4054 98.3836C56.3519 98.1745 56.3175 97.9078 56.174 97.7419L56.1131 97.7206ZM99.0054 97.673C98.2837 98.0772 95.7045 99.4463 95.4931 100.169C95.4541 100.303 95.4646 100.446 95.5452 100.562C95.571 100.599 95.5765 100.602 95.6009 100.623C96.7565 99.8931 97.9074 99.129 99.1277 98.5104C99.1202 98.2899 99.1531 97.8464 99.0054 97.673ZM36.5465 85.5654C35.79 86.0047 33.4934 87.174 33.0811 87.7866C33.0758 87.9981 33.1107 88.1708 33.1613 88.3755C34.3345 87.7497 35.4892 87.1147 36.6012 86.3848C36.6131 86.1335 36.6585 85.84 36.582 85.5986L36.5465 85.5654ZM71.0012 24.9673C70.2329 25.2309 69.559 25.6889 68.8915 26.1423C69.0762 26.3881 69.2926 26.7808 69.6193 26.8327C69.7481 26.8531 69.9226 26.7479 70.0367 26.6886C70.8075 26.2408 71.5529 25.7796 72.257 25.2303C71.8459 25.0944 71.4375 24.9806 71.0012 24.9673ZM90.6908 97.8681L90.6556 98.6812C91.7774 99.3451 92.8732 100.079 94.0355 100.669L94.0477 99.834C92.9719 99.1844 91.8416 98.3637 90.6908 97.8681ZM118.818 78.7567C119.201 79.3083 124.322 82.4552 125.087 82.7422C125.063 82.5578 125.061 82.2644 124.91 82.1448C124.266 81.6364 119.472 78.9228 118.818 78.7567ZM120.52 83.6651C119.278 84.3782 118.061 85.1306 116.868 85.9224C116.906 86.1368 116.927 86.3772 117.009 86.5792C117.42 86.3204 120.572 84.3999 120.646 84.1365C120.684 84.0018 120.656 83.8294 120.572 83.7158C120.55 83.6858 120.542 83.6814 120.52 83.6651ZM111.375 83.4499C111.354 83.6535 111.337 83.7943 111.463 83.9717C112.006 84.7351 114.247 85.8333 115.137 86.3308C115.131 86.1163 115.135 85.8961 115.107 85.6833C113.955 84.8527 112.639 84.1 111.375 83.4499ZM65.6752 86.9825C65.679 87.4213 65.6974 87.8639 65.6371 88.2996C66.2462 88.6492 66.865 88.9814 67.4744 89.3303L67.4561 88.0546C66.8754 87.6721 66.2918 87.3061 65.6752 86.9825ZM116.823 37.4313C115.641 37.9345 114.667 38.0494 113.422 37.703C113.183 37.6366 112.88 37.4941 112.636 37.5242C112.616 37.6743 112.67 37.7861 112.775 37.9019C112.831 37.9637 112.863 37.9816 112.926 38.0261C113.755 38.448 114.791 38.7174 115.711 38.4085C116.177 38.2523 116.684 38.0301 116.967 37.6176L116.854 37.4521L116.907 37.4622L116.823 37.4313ZM30.3811 70.9915C30.8266 71.781 31.8362 72.3124 32.6883 72.5484C33.5143 72.7772 34.2557 72.6735 34.9976 72.2517C35.3358 72.0593 35.6443 71.8039 35.9324 71.5446L36.0284 71.4033C35.7062 71.3269 34.5238 72.4177 33.226 72.2045C32.1793 72.0327 31.3556 71.3358 30.3811 70.9915ZM68.4261 110.35C68.4501 110.624 68.4164 110.759 68.6428 110.949C69.6436 111.788 71.533 112.86 72.6954 113.605C72.6876 113.423 72.7233 113.162 72.588 113.026C72.3785 112.817 68.7104 110.467 68.4261 110.35ZM131.506 57.7894C131.381 58.5918 131.455 59.4776 131.454 60.292L131.461 71.0259C131.46 72.0168 131.391 73.0602 131.467 74.0456L131.542 73.9667C131.668 72.8775 131.605 71.7307 131.606 70.6341L131.603 65.0062C131.606 63.3621 131.599 61.718 131.582 60.0739C131.572 59.3392 131.633 58.5105 131.506 57.7894ZM22.2855 62.0598C22.1895 62.8829 22.0916 63.8158 22.6284 64.5231C22.7842 64.7283 22.9676 64.8982 23.1738 65.0516L23.2511 62.6411C22.9187 62.4615 22.6029 62.2643 22.2855 62.0598ZM99.9183 29.2734C100.26 29.8162 100.668 30.0574 101.295 30.1996C102.199 30.4047 103.315 30.2948 104.124 29.8348L104.206 29.5657L104.152 29.474C104.023 29.4842 103.916 29.5061 103.791 29.5392C102.364 29.9177 101.295 29.6357 99.9183 29.2734ZM77.8163 110.81C77.3199 111.146 74.1376 112.888 74.0498 113.336C74.0298 113.437 74.0363 113.402 74.0527 113.525C74.6298 113.295 77.5829 111.61 77.8377 111.16C77.8336 111.044 77.8364 110.925 77.8163 110.81ZM52.1804 121.366C52.131 122.063 52.1306 122.761 52.179 123.458L53.141 122.803C53.346 122.656 53.5562 122.514 53.7569 122.361C53.2345 122.026 52.7161 121.68 52.1804 121.366ZM97.5378 62.9389C97.4907 64.3016 97.2306 71.7129 97.6653 72.4753C97.6547 69.6335 97.7293 66.777 97.6493 63.9373C97.6239 63.6202 97.6343 63.2408 97.5378 62.9389ZM62.8684 85.3464C62.8409 85.6279 62.8084 85.9076 62.8102 86.1909C63.2926 86.4618 63.8168 86.7077 64.2786 87.0087L64.3375 86.1406C63.8517 85.8718 63.3692 85.5861 62.8684 85.3464ZM68.8268 88.7831C68.7977 89.2769 68.7736 89.7428 68.8387 90.2351L69.6762 89.8623L70.1523 89.6209C69.7188 89.3254 69.2786 89.0497 68.8268 88.7831ZM65.8788 76.6652C66.2365 77.2281 66.6398 78.0156 67.2138 78.3753C67.1691 77.8949 67.1574 77.3509 66.7568 77.0131C66.5104 76.8054 66.1846 76.7376 65.8788 76.6652ZM72.2686 126.428C72.0697 126.992 72.1562 130.892 72.2334 131.644C72.2426 131.608 72.2585 131.55 72.265 131.51C72.3373 131.065 72.407 126.637 72.2686 126.428ZM101.8 53.6888C101.829 53.9316 101.835 54.2405 102.061 54.3938C102.195 54.4846 102.384 54.4883 102.539 54.481C102.55 54.2893 102.572 54.1154 102.431 53.9609C102.284 53.8011 102.001 53.748 101.8 53.6888ZM82.147 79.0597C82.1203 79.2659 82.0668 79.4896 82.1393 79.689C82.264 79.759 82.2116 79.7622 82.3243 79.731C82.4182 79.7049 82.4874 79.6703 82.5714 79.6231L82.6556 79.4444C82.5566 79.231 82.3523 79.1609 82.147 79.0597Z" fill="white" />
  <path d="M72.2686 126.428C72.407 126.637 72.3373 131.065 72.265 131.51C72.2585 131.55 72.2426 131.608 72.2334 131.644C72.1562 130.892 72.0697 126.992 72.2686 126.428Z" fill="white" />
  <path d="M97.5366 62.9386C97.633 63.2404 97.6226 63.6198 97.648 63.9369C97.728 66.7766 97.6534 69.6332 97.6641 72.4749C97.2293 71.7125 97.4895 64.3013 97.5366 62.9386Z" fill="white" />
  <path d="M131.505 57.7891C131.632 58.5102 131.571 59.3389 131.581 60.0737C131.598 61.7177 131.605 63.3618 131.602 65.0059L131.605 70.6338C131.604 71.7305 131.667 72.8773 131.541 73.9665L131.466 74.0453C131.39 73.06 131.459 72.0165 131.46 71.0256L131.453 60.2917C131.454 59.4773 131.38 58.5915 131.505 57.7891Z" fill="white" />
  <path d="M93.8304 35.1675C94.3957 35.2063 95.4828 35.1417 95.947 35.4748C96.0964 35.582 96.1165 35.6646 96.1536 35.8375C96.0595 36.1861 95.8603 36.351 95.5897 36.5794C95.4402 36.6309 95.2892 36.6817 95.1316 36.7014C94.6563 36.7612 94.0184 36.6518 93.6498 36.3267C93.4988 36.1935 93.4247 36.0324 93.4294 35.8287C93.4358 35.555 93.6497 35.346 93.8304 35.1675Z" fill="white" />
  <path d="M73.8363 90.7018C74.1606 90.6976 74.4127 90.7219 74.7076 90.8705C75.4309 91.235 75.7428 91.9169 75.9807 92.643C75.8159 93.2349 75.6101 93.5301 75.1309 93.903C74.9828 93.9391 74.8486 93.9656 74.6954 93.9486C74.2408 93.8979 73.8305 93.5412 73.5764 93.1836C73.2494 92.7233 73.0297 92.1188 73.153 91.5528C73.2434 91.1382 73.4914 90.9216 73.8363 90.7018Z" fill="white" />
  <path fill-rule="evenodd" clip-rule="evenodd" d="M133.272 92.7863L73.2718 128.786C72.7956 129.072 72.2004 129.071 71.7249 128.784L16.2249 95.2843L17.7752 92.7159L72.5024 125.749L131.728 90.2139L133.272 92.7863Z" fill="white" />
</svg>