<svg width="150" height="150" viewBox="0 0 150 150" fill="none" xmlns="http://www.w3.org/2000/svg">
  <path d="M75.0235 14.7693C76.0273 15.0751 77.7581 16.2022 78.7603 16.7442L87.3109 21.335L108.931 32.9144C110.396 33.7114 111.865 34.5009 113.338 35.2828C114.321 35.797 115.462 36.2651 116.341 36.9358C116.663 37.6954 116.769 41.3705 116.493 42.1025C116.351 42.479 115.923 42.6397 115.588 42.8027C115.468 46.4224 115.536 50.0606 115.54 53.6829L115.575 69.5869C116.166 69.8487 117.057 70.1841 117.5 70.6501C117.708 70.869 117.722 71.2097 117.743 71.4968C117.867 73.2127 117.76 75.0066 117.759 76.7296C117.756 80.8501 117.685 84.9861 117.778 89.1048C119.16 89.9645 120.636 90.7017 122.08 91.4553L128.113 94.592C129.492 95.3064 130.978 95.9721 132.256 96.8559C132.58 97.0794 132.768 97.2528 132.95 97.6056C132.957 98.9346 133.153 102.079 132.719 103.237C132.531 103.74 132.265 103.987 131.819 104.267C130.718 104.958 129.526 105.553 128.387 106.184L121.622 109.926C113.289 114.536 104.922 119.083 96.52 123.567L82.7111 131.156C80.2061 132.539 77.7104 134.063 75.0996 135.231C74.093 134.843 73.1486 134.268 72.2082 133.745L25.1243 108.258C23.0316 107.139 20.8702 106.103 18.8147 104.922C18.4377 104.705 17.8166 104.358 17.5983 103.978C17.3784 103.596 17.2125 103.21 17.13 102.775C16.9809 101.991 16.926 98.9221 17.1515 98.2116C17.4327 97.3254 20.2547 96.0011 21.1315 95.5734C21.2204 90.3887 21.1317 85.1894 21.1184 80.0036C20.0894 79.5407 18.9432 78.9864 18.3617 77.9679C18.101 77.5112 17.995 76.9443 17.9381 76.4265C17.7974 75.1463 17.7773 68.5851 18.1153 67.538C18.4605 66.4687 20.0449 65.6648 20.9801 65.2038C20.9514 63.2626 20.8911 61.2203 21.4518 59.3411C22.4336 56.0509 23.5576 55.593 26.3686 54.0394C27.4736 53.4286 28.5507 52.7602 29.6616 52.164C29.6925 51.8954 29.71 51.6056 29.7792 51.3443C29.8551 51.0572 30.0639 50.8677 30.2922 50.6922C31.2789 49.934 32.5287 49.3679 33.615 48.7511C34.5482 48.2212 35.4542 47.6111 36.4048 47.1185C36.4382 45.9791 36.4184 44.832 36.3989 43.6922C35.7071 43.3804 35.0655 43.0706 34.5368 42.5171C34.2185 40.799 34.3238 38.5955 34.5061 36.856C35.5214 36.0702 37.7907 34.9759 39.0051 34.3117L47.721 29.5178C53.8514 26.1369 60.0055 22.7989 66.1834 19.5039C69.1215 17.923 72.037 16.2552 75.0235 14.7693ZM75.0298 17.4758L50.8573 30.5165L43.1293 34.6728C41.4154 35.5964 39.6713 36.4923 38.0191 37.5218C39.237 38.0609 40.4002 38.7479 41.5653 39.3899C43.4059 40.4154 45.254 41.4275 47.1096 42.4261L69.6953 54.7248C70.5958 55.213 75.0278 57.7781 75.6642 57.8613C79.5237 55.8932 83.2652 53.7081 87.0505 51.604L101.888 43.5375C105.501 41.5717 109.088 39.5133 112.759 37.6591C111.539 36.9679 110.266 36.3659 109.032 35.6979L96.5643 29.0177L76.2457 18.0372C75.9153 17.8615 75.387 17.5043 75.0298 17.4758ZM37.5708 88.195C35.2812 89.453 32.9983 90.7229 30.7222 92.0047C29.856 92.4874 28.9634 92.9308 28.1045 93.424C28.0886 94.5706 28.253 96.5968 27.9931 97.6316C27.9754 97.7025 27.9552 97.7727 27.9326 97.8422C27.9099 97.9117 27.8847 97.9803 27.8571 98.048C27.8295 98.1157 27.7996 98.1824 27.7673 98.2481C27.735 98.3136 27.7003 98.378 27.6634 98.4412C27.6265 98.5044 27.5875 98.5662 27.5462 98.6266C27.5049 98.6871 27.4615 98.746 27.416 98.8033C27.3706 98.8607 27.3231 98.9164 27.2736 98.9705C27.2242 99.0245 27.1729 99.0767 27.1197 99.1272C26.4263 99.7943 25.5633 100.086 24.6526 100.335C36.5318 106.644 48.3686 113.031 60.1629 119.496C65.1249 122.187 70.0467 125.014 75.095 127.54C77.596 126.321 80.0369 124.959 82.4758 123.621L114.891 105.791C118.695 103.701 122.479 101.564 126.307 99.5178C127.265 98.9977 128.316 98.5081 129.204 97.8769C125.425 95.8576 121.582 93.9332 117.836 91.857L117.823 91.942C117.63 93.3392 118.002 99.5787 117.692 100.2C117.656 100.273 117.57 100.329 117.507 100.378C116.791 100.927 115.938 101.355 115.148 101.787C113.674 102.58 112.195 103.365 110.712 104.142L96.6352 111.719L88.5324 116.101C87.5159 116.65 85.5667 117.838 84.5214 118.147C83.6405 117.831 78.2256 114.965 77.9347 114.269C77.6111 113.494 77.8601 109.378 77.8478 108.242C76.9753 108.659 76.1644 109.193 75.2857 109.595C73.651 108.954 72.1802 107.922 70.6605 107.056C68.4523 105.798 66.2041 104.61 63.9867 103.368C62.049 102.282 60.0629 101.053 58.0109 100.202C57.9532 101.22 57.9814 102.244 57.9825 103.264C58.5345 102.872 59.0744 102.472 59.7976 102.598C60.0018 102.633 60.1971 102.71 60.3092 102.893C60.3884 103.022 60.3673 103.159 60.3175 103.295C60.0385 104.061 57.6234 105.259 56.8078 105.564C56.7856 105.573 56.7632 105.58 56.7409 105.588C55.8452 105.157 53.3476 104.076 53.0508 103.164C52.7796 102.33 52.9887 100.621 52.9588 99.6817C51.7443 100.334 50.6167 101.161 49.3442 101.701C48.2753 101.331 46.4955 100.433 45.7178 99.6279C45.4436 98.0926 45.602 95.7449 45.6167 94.1326C44.6492 93.5852 43.6778 93.0445 42.7025 92.5106C41.7804 92.0089 40.1315 91.3165 39.4391 90.5641L39.4311 89.116C38.8928 88.8127 38.1743 88.3038 37.5708 88.195ZM38.7549 44.4861C38.5782 45.5867 38.7021 47.0537 38.7032 48.195L38.7327 78.0958C38.7339 80.7713 38.7833 83.4504 38.7603 86.1254C38.7579 86.3999 38.8687 86.6167 39.0527 86.8157L39.1668 86.8116C39.3088 86.6239 39.3296 86.3692 39.3514 86.1418C39.4994 84.6039 39.3776 82.9562 39.3443 81.4116C39.3186 79.5142 39.3076 77.6168 39.3114 75.7193C39.313 74.6918 39.265 73.6229 39.3995 72.6036C41.4957 71.0825 44.3961 69.7085 46.7206 68.4705C47.7024 67.9477 49.1182 67.0386 50.1467 66.7483C51.5474 67.2416 52.8868 68.1987 54.181 68.9243L60.8916 72.6034C61.8824 73.1525 62.8813 73.6867 63.8881 74.2061C64.6935 74.6247 65.6932 75.0442 66.39 75.6249C66.5736 77.8292 66.4109 80.0318 66.4316 82.2389C66.4651 85.8038 66.6466 89.4372 66.3963 92.9953C65.6289 94.0158 63.3221 94.9343 62.2061 95.6857C61.9664 96.0911 62.0782 99.8604 62.112 100.585C63.4512 101.256 64.7271 102.073 66.0382 102.799C68.922 104.365 71.7893 105.961 74.6399 107.586L74.6371 76.9187C74.634 72.5861 74.5363 68.2313 74.6202 63.9007C71.191 62.2665 67.8915 60.3156 64.556 58.499L49.9453 50.5875C46.2209 48.5462 42.5406 46.4144 38.7549 44.4861ZM113.148 43.9977C110.132 45.4581 107.197 47.1722 104.248 48.7655L85.6246 58.8227L79.3258 62.2612C78.2649 62.8443 77.2179 63.4791 76.1384 64.0242C76.0355 72.7823 76.1442 81.5394 76.1216 90.2981C76.069 94.5908 76.0576 98.8837 76.0872 103.177C76.104 104.558 76.0629 105.968 76.1384 107.346L77.2823 106.798C77.4632 106.699 77.648 106.603 77.8232 106.494C77.964 104.765 77.8065 103.01 77.8021 101.277L77.7984 91.1289C77.7991 89.1625 77.7347 87.1714 77.8454 85.209C79.199 84.0038 81.5545 82.9244 83.1675 81.9938C89.0772 78.6442 95.0201 75.3537 100.996 72.1222L107.556 68.4754C108.445 67.9898 109.349 67.3973 110.285 67.0176C111.291 67.434 112.297 67.9711 113.243 68.5111C113.304 62.3816 113.316 56.2522 113.277 50.1226C113.259 48.2974 113.36 46.4494 113.274 44.6291C113.265 44.4222 113.28 44.1815 113.166 44.0074L113.148 43.9977ZM115.305 72.9071C110.827 75.1544 106.384 77.4658 101.974 79.8413L85.1323 89.1923C85.2123 91.127 85.1487 93.0897 85.1483 95.0273L85.1425 108.821C85.141 110.6 85.0491 112.391 85.0931 114.168C85.1 114.446 85.0783 114.888 85.2307 115.12C86.7641 114.401 88.2451 113.532 89.7393 112.733L98.8746 107.819L109.186 102.24C111.253 101.133 113.389 100.09 115.411 98.9087L115.414 76.3175C115.414 75.3214 115.452 74.3104 115.41 73.3156C115.403 73.151 115.415 73.0516 115.327 72.9094L115.315 72.914L115.305 72.9071ZM40.8755 74.5867C40.7701 75.9105 40.8179 77.2683 40.8159 78.5963C40.8129 81.1087 40.8269 83.621 40.8579 86.1333C40.8702 87.325 40.9973 88.6622 40.8931 89.8374C44.037 91.5743 47.1644 93.34 50.2754 95.1346C51.7988 96.002 53.3527 96.8235 54.8605 97.7166C54.8877 97.6843 54.9283 97.6596 54.9419 97.6199C55.037 97.3416 54.9475 94.759 54.9473 94.2685C54.9466 90.3028 54.9858 86.3331 54.9417 82.3678C50.2972 79.6951 45.6085 77.1013 40.8755 74.5867ZM36.3556 58.1295C35.4011 58.6691 34.3214 59.4411 33.1692 59.1297C32.8403 59.0408 32.5387 58.8841 32.2385 58.7275C30.9949 59.4516 29.7252 60.2693 28.3824 60.7959C27.7448 62.6017 27.9735 63.5464 27.9512 65.3577C29.0722 65.8308 30.3264 66.6452 30.7939 67.8239C30.9368 68.1843 31 68.5958 31.0347 68.98C31.1498 70.253 31.0882 71.5735 31.0941 72.854C31.0994 74.0024 31.1707 75.1775 31.0914 76.3225C31.0609 76.7626 31.0153 77.2957 30.8344 77.7021C30.3527 78.7845 29.1307 79.5258 28.0839 79.9668L28.0796 87.244C28.0796 88.395 28.0505 89.5547 28.1101 90.7043C30.9555 89.3048 33.7524 87.6605 36.4596 86.0147C36.3469 83.6623 36.4336 81.264 36.4337 78.9063L36.4459 65.4804L36.4564 60.9292C36.4586 60.102 36.5077 59.2416 36.4356 58.418C36.4273 58.3226 36.4256 58.1978 36.3556 58.1295ZM110.258 68.6703C107.906 70.0475 105.464 71.255 103.076 72.5687C97.9384 75.3986 92.8172 78.2582 87.7127 81.1475C85.1681 82.5886 82.5124 83.9581 80.0684 85.56C81.477 86.3788 82.9023 87.1675 84.3446 87.9261L84.873 87.6273L99.8204 79.4C102.979 77.6222 106.165 75.894 109.377 74.2152C111.309 73.189 113.233 72.148 115.201 71.1909C114.304 70.716 111.011 68.8024 110.258 68.6703ZM50.0666 68.3518C47.1679 69.9331 44.2226 71.4392 41.3741 73.1086C43.5422 74.5594 45.9396 75.6557 48.2112 76.9379L52.6339 79.4794C53.6506 80.0638 54.6657 80.6746 55.7338 81.1622L61.4947 77.8584C62.4349 77.3175 63.4375 76.8035 64.3276 76.1857C63.1643 75.4508 61.8894 74.8621 60.6861 74.1904L53.4855 70.1705C52.7767 69.7747 50.7594 68.5179 50.0666 68.3518ZM64.8608 77.6925C61.9941 79.1979 59.2213 80.8761 56.3745 82.4184C56.3717 84.1383 56.2635 96.8951 56.4206 97.3019L56.4879 97.354C57.8262 96.6306 59.1334 95.8431 60.4482 95.0782C61.9815 94.1863 63.5214 93.3088 65.0072 92.3394L64.9949 82.5474C64.992 81.0808 65.0834 79.5629 64.9999 78.1019C64.9913 77.9519 64.996 77.8275 64.8921 77.7108C64.8841 77.7019 64.8712 77.6985 64.8608 77.6925ZM130.367 100.121C127.571 101.371 124.903 103.012 122.229 104.505L110.365 111.059C98.966 117.348 87.4595 123.459 76.1077 129.831C76.1125 130.494 75.9027 131.428 76.2209 132.025C78.5407 130.682 80.9211 129.448 83.2697 128.156L102.069 117.868L119.958 108.027L126.697 104.33C127.953 103.642 129.198 102.92 130.476 102.276C130.482 101.807 130.601 100.513 130.393 100.141L130.367 100.121ZM19.5095 100.368C19.5033 101.076 19.51 101.783 19.5295 102.491C22.5254 104.223 25.622 105.772 28.6675 107.416L49.9495 118.94L64.1954 126.714L70.2749 130.072C71.4448 130.714 72.6198 131.434 73.8452 131.966C73.8501 131.205 73.8605 130.444 73.8563 129.683C71.6776 128.454 69.4533 127.302 67.2582 126.101L47.7418 115.516C38.3772 110.382 28.9665 105.332 19.5095 100.368ZM79.3651 86.8834C79.281 89.2745 79.3458 91.688 79.3483 94.0817L79.3571 106.959C79.3592 109.174 79.4047 111.396 79.364 113.609C79.9859 113.948 83.3558 115.919 83.6756 115.923C83.8023 114.872 83.7345 113.761 83.7336 112.701L83.7251 89.2359C82.307 88.5127 80.7191 87.7022 79.3651 86.8834ZM36.8043 39.4718C36.7417 40.1107 36.7243 40.7509 36.7521 41.3923L62.1568 55.4093C64.8389 56.9159 67.5308 58.4048 70.2327 59.876C71.8007 60.7286 73.3666 61.6557 75.0278 62.3193C75.0357 61.6757 75.0537 61.0304 75.0425 60.387C71.1879 58.0544 67.1452 55.9429 63.1848 53.7925L46.4748 44.6995L40.2686 41.3107C39.2044 40.7431 37.781 40.1002 36.8043 39.4718ZM114.156 39.5673C110.519 41.6542 106.775 43.5688 103.079 45.5512C97.4399 48.5785 91.8186 51.6372 86.2148 54.7273L79.6787 58.3147C78.4405 58.9951 77.0385 59.6568 75.9066 60.4982C75.9071 60.9001 75.7908 61.9595 75.9895 62.2758L76.0353 62.2749L102.939 47.714C106.733 45.6845 110.474 43.5282 114.32 41.5975C114.344 40.9657 114.423 40.2727 114.255 39.6575L114.156 39.5673ZM20.322 71.6442C20.2362 73.4279 20.2864 75.2342 20.2975 77.0203C22.4416 78.0993 24.5996 78.5222 26.934 77.7684C27.5449 77.5712 28.1518 77.2979 28.6606 76.9039C28.8186 76.1542 28.7206 72.6054 28.6581 71.7004C26.5542 72.7477 24.1496 73.1289 21.8807 72.3779C21.3719 72.2095 20.7476 71.9667 20.322 71.6442ZM32.6822 53.2035L28.4662 55.5933C27.3378 56.236 25.9874 56.8133 25.0705 57.7465C24.4299 58.3986 23.993 59.2934 23.7459 60.1641C23.5527 60.8451 23.3831 61.618 23.3107 62.3207C23.2352 63.0546 23.1396 68.4261 23.3655 68.8146C23.5575 69.1449 24.0453 69.1721 24.3846 69.2311C24.7686 69.1746 25.2198 69.1648 25.4843 68.8419C26.1434 68.0372 24.7191 61.375 26.5744 59.4972C27.3858 58.676 28.6554 58.0902 29.6567 57.5222C30.9625 56.7814 32.281 56.0574 33.5686 55.2859C33.3901 54.4965 33.1826 53.8519 32.6822 53.2035ZM23.4405 80.4278C23.3441 81.2984 23.3914 82.2073 23.3908 83.083L23.3876 93.6503C23.3866 94.7758 23.2378 96.3966 23.5101 97.4686C23.6856 97.6837 23.8356 97.8182 24.1222 97.8529C24.5869 97.9093 25.1125 97.6964 25.4604 97.3989C25.5575 97.3155 25.6505 97.2279 25.7396 97.136C25.7239 95.318 25.7383 93.5002 25.7828 91.6826C25.7953 90.8216 25.7329 89.9219 25.8033 89.0665C25.7791 87.3392 25.7745 85.6118 25.7895 83.8844C25.7901 82.7292 25.7443 81.5506 25.8115 80.3983C25.0237 80.4049 24.2269 80.388 23.4405 80.4278ZM36.3055 49.0749C35.0428 49.7199 33.7452 50.3482 32.5708 51.1451C33.7037 51.7246 34.4211 52.9291 34.8027 54.1006C34.8768 54.3279 34.9306 54.561 34.9831 54.7941C35.0035 55.4721 34.9836 56.1277 34.9039 56.8014C35.4138 56.5345 35.9319 56.2721 36.4202 55.9672C36.4389 55.1778 36.5371 49.4567 36.3743 49.096L36.3055 49.0749ZM27.9351 66.967C27.8483 68.0017 27.8532 68.8873 26.9961 69.6322C26.2066 70.3182 25.1017 70.5998 24.0696 70.5157C23.198 70.4446 22.2865 70.1218 21.7078 69.4443C21.1403 68.78 21.1536 67.8113 20.9964 66.9916C20.4664 67.4357 19.881 67.9311 19.8212 68.6702C19.8078 68.8357 19.8422 68.9977 19.876 69.1588C20.3863 70.1742 21.2908 70.7649 22.3527 71.1147C23.977 71.6496 25.9438 71.5476 27.4765 70.7717C28.157 70.4271 28.8876 69.8393 29.1247 69.0947C29.2379 68.7387 29.1913 68.3663 29.0156 68.0392C28.7749 67.5908 28.344 67.257 27.9351 66.967ZM56.4051 99.0595C56.0689 99.2083 55.7344 99.3659 55.3904 99.4962C55.0638 99.3644 54.7384 99.2299 54.4142 99.0926C54.3887 100.249 54.3827 101.406 54.3963 102.563L54.9058 102.922C55.3993 103.225 55.8871 103.532 56.4245 103.753C56.4311 102.778 56.566 99.7937 56.4051 99.0595ZM47.1691 95.0058C47.1116 96.3028 47.1537 97.6067 47.1693 98.9045C47.7427 99.2187 48.318 99.5295 48.8952 99.8369L48.8969 95.9626C48.326 95.6348 47.75 95.3158 47.1691 95.0058ZM60.5271 96.7352C59.5832 97.2133 58.6731 97.7818 57.7232 98.2401C58.1319 98.4854 58.5399 98.7254 58.9632 98.9452C59.5161 99.238 60.0661 99.5429 60.625 99.824C60.6411 99.3684 60.8134 97.0144 60.5374 96.7391C60.5349 96.7365 60.5306 96.7366 60.5271 96.7352ZM50.3933 96.8065C50.3326 97.696 50.3314 98.5855 50.3898 99.4752L51.8802 98.6044L52.7106 98.104C51.9408 97.667 51.1683 97.2344 50.3933 96.8065ZM25.8115 80.3983C25.7443 81.5506 25.7901 82.7292 25.7895 83.8844C25.7745 85.6118 25.7791 87.3392 25.8033 89.0665C26.0675 88.1332 25.9169 84.9298 25.9193 83.7589C25.9214 82.7865 25.9887 81.7789 25.9255 80.8106C25.9149 80.6474 25.891 80.5406 25.8115 80.3983Z" fill="white" />
  <path d="M25.8136 80.3978C25.8931 80.5401 25.917 80.647 25.9276 80.8102C25.9908 81.7784 25.9235 82.7861 25.9214 83.7585C25.9189 84.9293 26.0696 88.1328 25.8054 89.066C25.7812 87.3387 25.7766 85.6114 25.7916 83.884C25.7922 82.7287 25.7464 81.5501 25.8136 80.3978Z" fill="white" />
  <path d="M111.903 80.8354C112.354 80.7987 112.832 80.8516 113.238 81.0572C113.604 81.2421 113.849 81.5475 113.968 81.9359C114.257 82.8784 113.988 83.9678 113.551 84.8205C112.882 86.1275 111.834 87.1197 110.424 87.5772C109.959 87.6073 109.522 87.5606 109.107 87.3352C108.717 87.1239 108.466 86.7821 108.349 86.3595C108.068 85.3517 108.398 84.1925 108.901 83.3077C109.566 82.1387 110.591 81.2008 111.903 80.8354ZM112.075 82.3474C111.011 82.8617 110.174 83.7393 109.773 84.8621C109.677 85.1293 109.639 85.4366 109.779 85.6959C109.88 85.8857 110.036 85.9675 110.227 86.0526C111.094 85.8127 111.692 85.1835 112.123 84.4207C112.357 84.0058 112.72 83.2306 112.566 82.7574C112.518 82.6091 112.421 82.463 112.279 82.3885C112.212 82.3537 112.149 82.3488 112.075 82.3474Z" fill="white" />
  <path d="M91.6942 58.8405C92.7191 58.9659 93.9209 59.9639 94.6527 60.6414L94.6495 68.0269C94.6505 69.2281 94.8299 72.8034 94.5073 73.754C93.3523 74.7375 90.9637 75.8507 89.5838 76.6081C87.3971 77.812 85.2393 79.065 83.1103 80.367C82.3186 80.2991 80.98 79.5746 80.4119 79.0201C80.1776 78.7914 80.1566 78.4885 80.1238 78.1804C79.9719 76.7528 80.0856 75.2282 80.0865 73.7899C80.0707 71.0311 80.0867 68.2725 80.1345 65.5142C81.3978 64.4606 83.8558 63.2861 85.3654 62.4321C86.531 61.7729 87.7047 61.1268 88.8638 60.4563C89.803 59.9128 90.7263 59.3322 91.6942 58.8405ZM91.0014 64.178C89.64 64.9347 88.2869 65.7059 86.9422 66.4917C86.0092 67.035 85.0747 67.6292 84.1082 68.1109C84.0844 69.2451 84.1063 70.3782 84.1045 71.5124C84.1033 72.3732 83.9993 73.3826 84.1906 74.2213C86.4602 72.8494 88.7802 71.5647 91.0643 70.2178C91.0729 68.2544 91.217 66.1189 91.0014 64.178ZM91.8606 60.4517C90.2108 61.2041 88.6365 62.1686 87.0661 63.0726C85.5392 63.9516 83.9805 64.8008 82.4848 65.7309C82.9079 65.9491 83.3448 66.1551 83.7568 66.3924C85.7152 65.4374 87.6042 64.3352 89.506 63.2738C90.6789 62.619 91.9355 62.0113 93.0402 61.2483C92.771 61.0171 92.2287 60.4739 91.8606 60.4517ZM93.1067 71.5591C91.5972 72.307 90.14 73.1429 88.6554 73.937C87.115 74.7611 85.5576 75.5408 84.0415 76.4102C84.0208 76.9162 83.9231 77.5996 84.1143 78.071C85.9599 77.0577 87.7637 75.9783 89.5766 74.9087C90.7491 74.217 91.9362 73.4655 93.1804 72.9113C93.1832 72.6162 93.2637 71.771 93.1067 71.5591ZM81.5627 66.9235C81.4722 68.1867 81.4975 69.4661 81.4949 70.7323C81.49 73.2366 81.5407 75.7319 81.5699 78.2346C81.9382 78.4108 82.3081 78.5843 82.6738 78.7653L82.6605 67.4158C82.3015 67.235 81.9479 67.0434 81.5627 66.9235Z" fill="white" />
  <path d="M109.058 49.1955C109.95 49.4479 110.806 50.139 111.512 50.7093C111.636 52.3965 111.558 54.1148 111.561 55.807C111.566 58.3944 111.606 60.9859 111.566 63.5728C111.562 63.8733 111.56 64.6061 111.333 64.8054C110.75 65.3166 109.872 65.7082 109.192 66.0832C107.088 67.2424 104.931 68.2921 102.849 69.4915C102.375 69.7648 100.243 71.1705 99.9168 71.2111C99.8074 71.2247 99.8029 71.2197 99.7059 71.2101C98.7958 70.8249 97.6098 70.3282 97.0261 69.4982C96.9214 68.6621 96.9565 67.8221 96.9603 66.9818L96.9588 63.8047C96.9562 62.0861 96.9282 60.3654 96.9553 58.647C96.9692 57.7726 96.9388 56.8459 97.1083 55.9865C98.1925 55.2052 99.8665 54.4166 101.083 53.7205C103.729 52.2058 106.354 50.6026 109.058 49.1955ZM107.482 55.0387C105.36 56.2355 103.181 57.3593 101.082 58.59C101.075 59.2483 100.955 64.8658 101.141 65.1555L101.237 65.1663C102.296 64.4809 103.407 63.8738 104.507 63.2579C105.527 62.687 106.542 62.0948 107.602 61.5989C107.6 60.5937 107.767 55.6949 107.532 55.0743L107.482 55.0387ZM98.3752 57.5266C98.2575 61.2975 98.3436 65.0731 98.3681 68.8442C98.6825 69.0013 99.267 69.3834 99.6168 69.3853C99.6769 65.6691 99.5752 61.9487 99.6686 58.2342C99.2428 58.0015 98.7826 57.7875 98.3752 57.5266ZM109.162 50.861C108.086 51.4115 107.045 52.0333 105.991 52.6244L101.631 55.0505C100.847 55.4943 100.073 56.0217 99.2707 56.4248L100.483 57.0875C102.499 56.0839 104.429 54.9451 106.38 53.8268C107.682 53.0809 109.038 52.3901 110.259 51.5171C109.925 51.2716 109.572 50.9673 109.162 50.861ZM109.061 63.0736C106.382 64.5473 103.61 65.9538 101.018 67.5696C101.004 67.9982 100.996 68.4204 101.022 68.8487L101.795 68.4308L106.949 65.543C108.056 64.9288 109.193 64.3584 110.252 63.6635C109.919 63.4356 109.484 63.0668 109.061 63.0736Z" fill="white" />
  <path d="M84.8309 40.1345C86.0237 40.3154 88.0351 41.7529 89.0898 42.4258L89.0966 43.4073C88.4993 43.9579 85.4947 45.6864 84.6694 46.0532C83.8003 45.7324 80.7531 44.1979 80.4134 43.4287C80.3299 43.2395 80.3179 43.0246 80.3964 42.8317C80.6779 42.1389 84.0064 40.4584 84.8309 40.1345ZM84.8668 41.7825C84.0513 42.216 83.2354 42.7044 82.3979 43.0904C83.1049 43.5358 83.8149 44.0095 84.566 44.3787C85.3374 43.878 86.1759 43.4839 86.9422 42.977C86.5154 42.6933 85.3426 41.7915 84.8668 41.7825Z" fill="white" />
  <path d="M67.3012 39.9908C67.4049 39.9823 67.5055 39.9737 67.6083 39.9959C68.0216 40.0858 70.9699 41.7671 71.398 42.077C71.5463 42.1844 71.7417 42.3381 71.8217 42.5078C71.9216 42.7197 71.916 42.922 71.8294 43.1372C71.4427 44.0988 68.6367 45.5031 67.6237 45.9147C66.6612 45.6404 63.807 43.9003 63.0319 43.1993L63.024 42.4171C64.3653 41.4787 65.8473 40.7378 67.3012 39.9908ZM67.4432 41.5892C66.7061 42.0035 65.9505 42.4007 65.2296 42.8417C65.998 43.3093 66.761 43.7896 67.5607 44.2031C68.2541 43.7286 69.0209 43.3861 69.7222 42.9302C68.9875 42.4622 68.2483 41.9301 67.4432 41.5892Z" fill="white" />
  <path d="M75.7508 44.7777C75.8371 44.7757 75.9192 44.7734 76.0047 44.7881C76.5502 44.8826 80.0062 46.8706 80.3187 47.3208C80.3644 47.5222 80.3782 47.7009 80.3178 47.9031C80.1071 48.608 76.7347 50.2346 75.962 50.618C75.8444 50.6373 75.7622 50.6395 75.6438 50.6136C75.1254 50.5004 71.6243 48.5523 71.4305 48.2323C71.3072 48.0288 71.2634 47.6656 71.3517 47.4423C71.5845 46.8538 74.9784 45.1334 75.7508 44.7777ZM76.0152 46.3694C75.1419 46.8091 74.2767 47.2642 73.4197 47.7345C74.2024 48.1166 74.97 48.6121 75.7051 49.0798C76.5352 48.6185 77.3739 48.1641 78.1788 47.6598C77.4721 47.2132 76.7676 46.736 76.0152 46.3694Z" fill="white" />
  <path d="M74.3579 22.7709C74.5458 22.7339 74.7553 22.7398 74.9468 22.7339C76.416 22.689 78.3176 23.1515 79.3925 24.2087C79.4326 24.2483 79.4712 24.2893 79.5082 24.3318C79.5452 24.3742 79.5805 24.418 79.6142 24.4631C79.6479 24.5083 79.6798 24.5547 79.7099 24.6021C79.7401 24.6497 79.7684 24.6983 79.7948 24.7479C79.8212 24.7976 79.8458 24.8482 79.8684 24.8997C79.891 24.9512 79.9116 25.0034 79.9302 25.0565C79.9489 25.1095 79.9655 25.1632 79.98 25.2175C79.9945 25.2717 80.007 25.3265 80.0174 25.3818C80.166 26.135 79.9821 26.9711 79.9627 27.7366C79.9332 28.899 79.9567 30.0673 79.9587 31.2302L90.2793 36.7983C91.4086 36.211 92.465 35.494 93.6453 35.0038C95.1525 35.618 96.696 36.5847 98.0026 37.5487L97.9873 38.4993C96.5699 39.4907 95.0134 40.3014 93.4791 41.0977C91.9246 40.4149 90.3435 39.459 88.934 38.5162L88.8763 37.7384C85.9087 36.0353 82.8254 34.5491 79.8487 32.8689C79.3368 33.6638 78.5674 34.0706 77.6934 34.3573C76.6228 34.7954 75.1196 34.7952 73.9866 34.6828C72.6808 34.5534 71.2377 34.186 70.3737 33.129C68.9994 33.8196 67.6492 34.5664 66.297 35.2984C65.1353 35.9272 63.9554 36.5379 62.8465 37.2565C62.9494 37.3335 63.0588 37.4114 63.1492 37.5029C63.4164 37.7734 63.3378 38.2237 63.3167 38.5655C61.8196 39.4023 60.2934 40.3961 58.718 41.0691C58.1536 40.7867 57.6187 40.4246 57.066 40.1171C56.2886 39.6849 55.3764 39.282 54.6732 38.7416C54.4852 38.597 54.3028 38.4251 54.2052 38.2056C54.1251 38.025 54.1163 37.8249 54.1926 37.6408C54.4835 36.939 57.8078 35.3459 58.6508 35.0162C59.5423 35.3675 60.4 35.9218 61.2358 36.3919C62.7746 35.4526 64.4243 34.6327 66.0097 33.7719C67.1983 33.1266 68.9032 32.0912 70.1217 31.6714C70.1799 30.2201 70.1844 28.7269 70.1382 27.2755C70.1188 26.6702 69.9484 26.0369 70.0324 25.4368C70.046 25.3427 70.0658 25.25 70.0917 25.1585C70.1174 25.067 70.1491 24.9776 70.1868 24.8902C70.2243 24.8029 70.2674 24.7183 70.3161 24.6365C70.3649 24.5547 70.4187 24.4765 70.4777 24.4017C71.3591 23.2696 73.0117 22.9212 74.3579 22.7709ZM78.4131 28.3319C75.9536 29.2774 74.1426 29.1776 71.6383 28.381C71.6104 29.3981 71.3752 31.1253 71.6359 32.0529C71.6903 32.2462 71.8107 32.4111 71.9425 32.5602C73.2654 33.4167 75.1863 33.4432 76.6893 33.1189C77.4014 32.9653 78.0409 32.7112 78.4992 32.1229C78.5385 31.4791 78.7792 28.7376 78.4814 28.3343L78.4131 28.3319ZM74.4908 24.1809C73.6305 24.2989 72.4064 24.4885 71.8298 25.209C71.6584 25.4233 71.5739 25.689 71.6208 25.9609C71.7019 26.4309 72.1034 26.7948 72.4897 27.0378C73.4467 27.6399 74.6156 27.7171 75.7162 27.6429C76.5592 27.5239 77.8217 27.2918 78.3628 26.566C78.5331 26.3376 78.6088 26.0604 78.5507 25.7801C78.4617 25.35 78.1236 25.0236 77.7609 24.8001C76.8848 24.2604 75.5032 24.0271 74.4908 24.1809ZM93.594 36.6337C92.7688 37.0809 91.9449 37.5328 91.1625 38.0518C91.6497 38.3991 92.8398 39.2865 93.417 39.3299C94.2484 38.8783 95.0783 38.4293 95.8838 37.9328C95.1199 37.5032 94.3448 37.0855 93.594 36.6337ZM58.5624 36.6795C57.8181 37.0893 57.054 37.483 56.3364 37.9375C57.1558 38.4228 57.9696 38.9289 58.8138 39.3701C59.5882 38.9514 60.3336 38.4812 61.0837 38.0214C60.4722 37.6484 59.2514 36.7643 58.5624 36.6795Z" fill="white" />
  <path fill-rule="evenodd" clip-rule="evenodd" d="M74.7829 61.3175L35.2829 39.8175L36.7171 37.1826L75.5 58.2922L114.283 37.1826L115.717 39.8175L76.2171 61.3175C75.77 61.5609 75.23 61.5609 74.7829 61.3175ZM39.7558 88.7957L27.7558 95.7957L26.2442 93.2044L38.2442 86.2044L39.7558 88.7957ZM118.194 90.1702L129.694 96.1702C130.184 96.4258 130.494 96.9302 130.5 97.4828C130.506 98.0354 130.208 98.5467 129.724 98.8136L76.2243 128.314C75.7814 128.558 75.2452 128.562 74.7982 128.326L23.7982 101.326L25.2018 98.6744L75.4855 125.295L125.827 97.5366L116.806 92.8299L118.194 90.1702Z" fill="white" />
</svg>