<svg width="150" height="150" viewBox="0 0 150 150" fill="none" xmlns="http://www.w3.org/2000/svg">
  <path d="M74.5096 14.2986C75.731 14.8695 76.9758 15.7889 78.1382 16.4968L86.18 21.3751L97.344 28.0689C99.8401 29.5492 102.604 31.0647 104.963 32.7223L104.964 33.7291C106.537 34.8502 108.295 35.7585 109.948 36.7634L120.387 43.0973C122.225 44.2042 124.39 45.2878 126.015 46.6715L126.033 88.4224C127.132 89.2064 131.357 91.4859 131.833 92.3678C131.938 92.5612 131.943 92.7958 131.953 93.0102C132.025 94.5325 131.94 96.0898 131.938 97.6159C131.937 98.6239 132.027 99.6324 131.992 100.64C131.981 100.957 131.959 101.284 131.86 101.587C131.732 101.977 131.394 102.251 131.057 102.464C129.864 103.219 128.592 103.874 127.369 104.582L120.236 108.758L97.7896 121.927L82.8416 130.776C80.0393 132.44 77.268 134.244 74.3526 135.701L73.8779 135.433C72.9282 134.828 71.9322 134.278 70.967 133.695L61.7915 128.223C51.707 122.139 41.5828 116.122 31.4189 110.171L23.1186 105.269C21.9011 104.554 20.643 103.895 19.4475 103.145C19.1257 102.943 18.382 102.496 18.2491 102.131C18.2415 102.11 18.2357 102.088 18.2287 102.067C18.1118 101.718 18.0662 101.378 18.0485 101.013C18.0041 100.093 18.0974 99.1715 18.0891 98.2512C18.0781 97.0391 17.8788 94.2835 18.1146 93.2091C18.191 92.8613 18.3472 92.5518 18.6004 92.2978C19.2343 91.6618 20.2859 91.2008 21.0603 90.7474C21.9441 90.2336 22.8149 89.699 23.6729 89.1436L23.7151 60.6687L23.6557 51.5872L23.6502 48.4448C23.6497 47.8192 23.6798 47.1757 23.6167 46.5532C24.5046 45.8741 25.5828 45.3584 26.5528 44.7983L31.6155 41.8418L38.9058 37.6145C42.0472 35.7658 45.1645 33.8842 48.3383 32.0902C48.2832 31.5741 48.3124 31.0198 48.3068 30.4983C48.2832 29.2041 48.3016 27.9105 48.3621 26.6175C49.1497 25.8874 50.267 25.3466 51.1874 24.7953L57.0228 21.3615C58.0027 21.7796 58.9417 22.4096 59.8531 22.9566C61.1705 21.863 63.6555 20.6705 65.1943 19.7922C68.3125 17.9828 71.4176 16.1516 74.5096 14.2986ZM124.225 48.7827C121.732 50.1485 119.309 51.6612 116.855 53.0965L82.7768 73.1123C80.1348 74.671 77.4568 76.1861 74.8469 77.7963L74.8952 109.724L74.8006 120.217C74.795 121.174 74.6478 123.859 74.8805 124.633C80.9553 121.161 86.9186 117.466 92.9335 113.893L124.294 95.3742C124.223 91.4474 124.538 49.3463 124.225 48.7827ZM25.4351 48.8111C25.299 50.633 25.3902 52.5156 25.3905 54.3441L25.3913 95.7572C27.3288 96.9589 29.3098 98.0814 31.2729 99.2397L41.4796 105.303L69.6639 122.169C70.2323 122.503 72.73 124.053 73.1106 124.04C73.2424 121.332 73.1556 118.59 73.1551 115.877L73.1466 85.9917C73.1465 83.2046 73.2329 80.3833 73.1143 77.5999C71.7889 76.9184 70.5301 76.04 69.2654 75.2518L63.4388 71.6955L43.4141 59.6173L31.2578 52.3093C29.8502 51.4876 28.4497 50.6541 27.0563 49.8088C26.5314 49.4906 25.9106 49.1919 25.4351 48.8111ZM48.2844 34.0982C40.9157 38.4658 33.522 42.7913 26.1035 47.0745C30.3767 49.9157 34.8767 52.4416 39.2731 55.091L60.7385 68.0633C63.6666 69.807 66.58 71.5745 69.4789 73.3658C70.9843 74.29 72.5474 75.1583 73.9866 76.1827C86.5803 68.6195 99.241 61.1693 111.969 53.8319L118.864 49.8034C120.383 48.9202 121.95 48.0778 123.4 47.0848C122.258 46.2102 120.959 45.5094 119.725 44.7708L115.17 42.003L108.908 38.2233C107.604 37.4271 106.321 36.579 104.98 35.8446C104.911 38.1043 104.93 40.3767 104.943 42.6375C104.949 43.7813 105.043 44.9918 104.932 46.1288C104.457 46.674 103.715 47.0566 103.101 47.4335C100.869 48.8026 98.5497 50.0502 96.2827 51.3628L84.8969 58.0155L79.2283 61.3114C78.1265 61.9576 77.045 62.7439 75.8472 63.1966C75.3801 63.082 74.984 62.9072 74.5588 62.6854C71.9443 61.321 69.4154 59.6959 66.8802 58.1865C65.8437 57.5694 63.8194 56.5034 63.0216 55.8153C62.941 55.4208 62.9179 55.0489 62.912 54.6467C61.7191 54.8729 60.5374 55.1739 59.3302 55.3143C55.3513 55.7771 50.9119 55.0456 47.5702 52.7758C45.6259 51.4552 43.9723 49.6032 43.5401 47.238C43.1951 45.3503 43.6614 43.5775 44.7627 42.0183C45.6897 40.7058 46.9832 39.6939 48.3268 38.8289C48.3385 37.5675 48.4894 35.253 48.2844 34.0982ZM74.4757 16.3939C71.4667 18.1859 68.4053 19.9017 65.3827 21.6732C64.0862 22.4331 62.766 23.1708 61.5041 23.9868C62.9815 24.7902 64.6259 25.6058 65.9028 26.7106C65.8775 28.5286 65.8277 30.3772 65.9116 32.1924L78.2835 39.857L82.4298 42.3928C83.037 42.7701 83.6844 43.1242 84.2585 43.5471C85.3282 42.9118 86.4432 42.3209 87.4929 41.6563C90.7561 39.7359 94.0306 37.8349 97.3166 35.9532C98.9719 35.0002 100.6 33.9992 102.303 33.1324C95.0716 28.8098 87.8618 24.4513 80.674 20.0569C80.0357 19.6715 74.7856 16.4651 74.4757 16.3939ZM130.111 94.0826C127.924 95.2197 125.848 96.5539 123.734 97.8171L88.3477 118.759L79.9799 123.687C78.4034 124.619 76.832 125.654 75.2037 126.483C75.1583 127.45 75.0857 132.437 75.2948 133.122C76.6204 132.436 77.8948 131.641 79.1792 130.881C81.0285 129.801 82.8715 128.71 84.7082 127.608L100.744 118.113L119.7 106.999C122.091 105.632 124.47 104.246 126.839 102.841C127.974 102.171 129.165 101.532 130.25 100.787C130.269 99.3021 130.277 97.8167 130.272 96.3312C130.271 95.6636 130.371 94.7521 130.198 94.1111L130.111 94.0826ZM19.8488 94.5416C19.7543 96.7767 19.7254 99.0126 19.7622 101.249C20.8807 101.851 21.9513 102.549 23.0424 103.198L29.3614 106.945C42.5869 114.71 55.768 122.548 68.9048 130.46C69.5143 130.82 73.0734 133.024 73.4088 133.035C73.4716 130.86 73.5095 128.654 73.4537 126.478C72.2748 125.693 71.0319 125.002 69.8115 124.284L65.1852 121.513L44.9591 109.453L28.7634 99.8285C27.3984 99.0126 26.0255 98.2067 24.6719 97.3724C23.0786 96.3904 21.5183 95.393 19.8488 94.5416ZM50.0322 28.9496C49.8982 30.1302 49.9666 31.3645 49.9676 32.5524L49.9727 38.5807L49.9608 42.7112C49.9565 43.4535 49.897 44.247 49.9814 44.9842C50.0426 45.5174 50.2473 45.974 50.5805 46.3929C51.8192 47.9503 54.2109 48.6981 56.1201 48.879C58.4044 49.0954 61.0372 48.667 62.8525 47.1751C63.5066 46.6375 64.0183 45.9941 64.1527 45.1402L64.1487 29.2084C61.8259 30.5082 59.5668 31.9227 57.2332 33.2015C56.3658 32.8303 55.5591 32.3063 54.7552 31.817C53.1865 30.8623 51.6402 29.8358 50.0322 28.9496ZM103.147 34.6985C100.612 36.0606 98.1562 37.5574 95.6686 39.0014L84.7719 45.2513C84.7355 47.8706 84.7225 50.4899 84.7329 53.1093C84.7425 54.0181 84.6576 55.0879 84.8313 55.9745C85.7086 55.5337 86.5525 55.0123 87.4016 54.5196C88.8737 53.6756 90.3345 52.8125 91.7839 51.9302C93.9426 50.6249 96.1376 49.3714 98.3106 48.0887C99.9095 47.145 101.501 46.1398 103.175 45.3336C103.237 44.1399 103.339 34.9406 103.168 34.7156C103.162 34.7083 103.154 34.7042 103.147 34.6985ZM48.2167 41.0325C46.7611 41.9987 45.5928 43.4522 45.2363 45.1824C44.9644 46.5016 45.3257 47.8719 46.0748 48.9776C47.7909 51.5106 51.1137 52.915 54.0262 53.4639C57.913 54.1966 62.6973 53.5085 65.9816 51.2505C67.5261 50.1886 68.6491 48.7822 69.058 46.9379C69.2342 45.3495 68.9039 43.9586 67.8837 42.7002C67.3342 42.0225 66.6372 41.4512 65.9137 40.9662C65.9295 41.7062 65.8986 42.4493 65.8979 43.1898C65.8959 45.0492 65.8753 46.4918 64.5233 47.9112C62.7422 49.7808 60.1721 50.5566 57.6413 50.6169C54.8142 50.6844 51.8009 49.9669 49.7214 47.9566C48.785 47.0513 48.3567 46.122 48.3478 44.8184C48.3395 43.6227 48.5134 42.2462 48.2658 41.0799L48.2167 41.0325ZM65.9053 34.2999C65.888 35.8338 65.8819 37.3676 65.8871 38.9014C67.9556 40.0382 69.9628 41.7724 70.6261 44.1123C71.2699 46.384 70.6979 47.9332 69.7267 49.9758C70.1839 50.2639 70.6603 50.5395 71.0855 50.873C73.2653 49.7006 75.3759 48.413 77.5268 47.1901C79.1568 46.2515 80.8006 45.3374 82.4581 44.4478L73.0252 38.7071C70.6455 37.2728 68.1746 35.9013 65.9053 34.2999ZM82.8949 46.1217C80.8376 47.3073 78.7909 48.5107 76.7548 49.7321C76.7447 51.1784 76.5212 59.9335 76.737 60.6039L76.8324 60.6281L80.8055 58.3402C81.5411 57.9177 82.2839 57.4426 83.0527 57.0871L83.0575 49.5799C83.0558 48.5958 83.179 47.1051 82.9668 46.1694L82.8949 46.1217ZM56.9767 23.3919C54.8834 24.6873 52.6851 25.8243 50.6353 27.1883C51.3804 27.624 56.8468 31.1387 57.3158 31.1222C57.32 31.1221 57.3235 31.1193 57.3274 31.1178C59.5144 29.9354 61.606 28.5762 63.7542 27.3256C62.5645 26.6318 57.8913 23.6334 56.9767 23.3919ZM74.8516 50.8427C73.635 51.5289 72.3394 52.3983 70.9806 52.7443C70.2875 52.4805 69.6802 52.0706 69.0632 51.6665C69.0351 52.7195 69.0887 53.8363 68.9471 54.8769C68.7145 55.1173 68.334 55.4239 67.974 55.4168C67.815 55.4136 67.6856 55.3474 67.584 55.2261C67.0655 54.6074 67.3221 53.3722 67.3011 52.6211C66.4429 53.101 65.5897 53.6023 64.7038 54.0299L64.7161 54.8014C65.2095 55.1058 65.7061 55.4048 66.2059 55.6985C69.14 57.4032 71.9955 59.3037 75.005 60.8704C74.9284 60.0522 75.0096 59.1865 75.007 58.361L74.9761 52.8042C74.9733 52.3259 75.0696 51.2958 74.9272 50.8728L74.8516 50.8427ZM126.057 90.5513C125.952 91.8181 126.024 93.1187 126.042 94.3899C126.658 94.0047 127.283 93.6287 127.885 93.2225C128.305 92.9661 128.721 92.6938 129.151 92.4554C128.171 91.8574 127.049 91.0588 126.057 90.5513ZM23.6403 91.3231C22.6471 91.8967 21.661 92.491 20.6547 93.0413C21.0617 93.2127 21.4467 93.4249 21.8355 93.6331C22.4597 93.9804 23.088 94.3224 23.7071 94.6788C23.6981 94.2324 23.8312 91.5098 23.6403 91.3231Z" fill="white" />
  <path d="M74.0637 25.1384C75.3114 25.0981 76.6468 25.4628 77.6514 26.2118C78.3918 26.764 78.9594 27.5791 79.0741 28.5077C79.1782 29.3506 78.8888 30.1705 78.3489 30.8171C77.5145 31.8163 76.1045 32.3248 74.8369 32.4351C73.4902 32.4462 72.2385 32.2804 71.1148 31.4841C70.353 30.9441 69.769 30.1584 69.6253 29.2219C69.6175 29.1716 69.6111 29.1212 69.606 29.0707C69.6008 29.0201 69.5969 28.9694 69.5944 28.9186C69.5918 28.8679 69.5906 28.8171 69.5907 28.7662C69.5907 28.7154 69.592 28.6646 69.5946 28.6138C69.5973 28.563 69.6013 28.5123 69.6065 28.4617C69.6118 28.4112 69.6183 28.3608 69.6261 28.3105C69.6339 28.2603 69.6431 28.2103 69.6535 28.1605C69.6639 28.1108 69.6756 28.0613 69.6885 28.012C69.7014 27.9629 69.7156 27.9141 69.7309 27.8656C69.7464 27.8171 69.7631 27.7691 69.781 27.7214C69.7988 27.6738 69.8179 27.6267 69.8382 27.58C69.8585 27.5334 69.88 27.4873 69.9027 27.4417C69.9253 27.3961 69.9491 27.3511 69.9741 27.3067C69.999 27.2624 70.0251 27.2188 70.0523 27.1757C70.0795 27.1326 70.1078 27.0903 70.1372 27.0487C70.1666 27.0071 70.197 26.9663 70.2284 26.9262C71.138 25.771 72.6581 25.3015 74.0637 25.1384ZM73.8614 26.9857C73.1047 27.09 72.251 27.3173 71.7546 27.9383C71.5208 28.2309 71.3897 28.6044 71.4404 28.9793C71.5039 29.4468 71.8263 29.8276 72.2057 30.089C72.9519 30.603 73.9063 30.7358 74.7933 30.6332C75.5919 30.479 76.5685 30.2348 77.0358 29.505C77.22 29.2174 77.2831 28.8833 77.1963 28.5514C77.0581 28.023 76.6022 27.6275 76.1355 27.3786C75.43 27.0024 74.6507 26.9008 73.8614 26.9857Z" fill="white" />
  <path d="M84.914 59.1649C86.1374 59.0034 87.531 59.3705 88.5109 60.1128C89.2415 60.6663 89.7532 61.4556 89.8653 62.3736C89.8723 62.4277 89.878 62.482 89.8821 62.5365C89.8863 62.5909 89.8891 62.6454 89.8904 62.7C89.8918 62.7545 89.8918 62.809 89.8903 62.8636C89.8889 62.9181 89.8861 62.9726 89.8818 63.0271C89.8775 63.0814 89.8718 63.1357 89.8647 63.1898C89.8577 63.2439 89.8491 63.2979 89.8392 63.3516C89.8293 63.4053 89.8181 63.4587 89.8055 63.5117C89.7928 63.5649 89.7788 63.6177 89.7634 63.6701C89.7481 63.7224 89.7313 63.7744 89.7132 63.826C89.6952 63.8775 89.6758 63.9285 89.6551 63.979C89.6343 64.0295 89.6123 64.0795 89.589 64.129C89.5657 64.1784 89.5412 64.2271 89.5153 64.2753C89.4895 64.3234 89.4625 64.3709 89.4342 64.4177C89.406 64.4645 89.3765 64.5105 89.3458 64.5557C89.3151 64.601 89.2833 64.6454 89.2503 64.6891C89.2173 64.7327 89.1833 64.7755 89.1481 64.8173C88.2638 65.8865 87.0021 66.2931 85.6612 66.4214C84.4458 66.429 83.2222 66.1988 82.2164 65.4859C81.4649 64.9532 80.8824 64.2153 80.7385 63.286C80.7304 63.2341 80.7237 63.182 80.7182 63.1297C80.7128 63.0776 80.7087 63.0253 80.7059 62.9728C80.703 62.9204 80.7015 62.8679 80.7013 62.8154C80.7011 62.7629 80.7022 62.7104 80.7047 62.658C80.707 62.6055 80.7107 62.5531 80.7158 62.5009C80.7208 62.4486 80.7271 62.3965 80.7348 62.3445C80.7424 62.2926 80.7514 62.2409 80.7616 62.1894C80.7719 62.1379 80.7834 62.0866 80.7961 62.0356C80.809 61.9846 80.8231 61.9341 80.8384 61.8839C80.8537 61.8336 80.8702 61.7837 80.888 61.7343C80.9059 61.6849 80.9249 61.636 80.9452 61.5875C80.9654 61.539 80.9869 61.491 81.0095 61.4435C81.0322 61.3961 81.056 61.3493 81.081 61.303C81.106 61.2568 81.1322 61.2113 81.1595 61.1663C81.1868 61.1214 81.2151 61.0771 81.2446 61.0335C81.2741 60.99 81.3047 60.9472 81.3363 60.9052C82.1908 59.7781 83.5625 59.3456 84.914 59.1649ZM84.8071 60.944C84.0594 61.1378 83.1193 61.3894 82.7014 62.0983C82.6806 62.1331 82.6616 62.1688 82.6445 62.2055C82.6274 62.2422 82.6122 62.2797 82.5991 62.318C82.586 62.3563 82.5749 62.3951 82.5657 62.4345C82.5567 62.474 82.5497 62.5138 82.5447 62.5539C82.5399 62.5941 82.5371 62.6345 82.5365 62.6749C82.5358 62.7153 82.5373 62.7556 82.5408 62.796C82.5444 62.8363 82.5501 62.8763 82.5578 62.916C82.5657 62.9557 82.5755 62.9949 82.5873 63.0336C82.7461 63.5554 83.2263 63.9286 83.7012 64.1562C84.4006 64.4916 85.1286 64.5235 85.89 64.4605C86.6108 64.3047 87.5011 64.0931 87.9409 63.447C88.1296 63.1698 88.2022 62.8405 88.1329 62.5114C88.0355 62.0501 87.6689 61.6924 87.2769 61.4561C86.5551 61.0209 85.6394 60.8848 84.8071 60.944Z" fill="white" />
  <path d="M95.2343 52.7779C96.3474 52.6117 97.6594 52.9261 98.6216 53.4879C99.4104 53.9487 100.041 54.6112 100.265 55.5178C100.279 55.5718 100.292 55.6261 100.303 55.6807C100.314 55.7353 100.323 55.7902 100.331 55.8453C100.34 55.9004 100.346 55.9557 100.352 56.0111C100.357 56.0665 100.361 56.1221 100.364 56.1777C100.366 56.2333 100.367 56.289 100.367 56.3447C100.366 56.4004 100.365 56.456 100.361 56.5116C100.358 56.5672 100.354 56.6227 100.348 56.6781C100.342 56.7335 100.334 56.7887 100.325 56.8437C100.316 56.8987 100.306 56.9534 100.294 57.0079C100.283 57.0623 100.27 57.1165 100.255 57.1703C100.241 57.2241 100.225 57.2776 100.208 57.3306C100.191 57.3835 100.172 57.4361 100.152 57.4881C100.132 57.5402 100.111 57.5918 100.089 57.6428C100.066 57.6937 100.042 57.7441 100.017 57.7939C99.9921 57.8437 99.9657 57.8928 99.938 57.9413C99.9104 57.9897 99.8815 58.0374 99.8515 58.0844C99.093 59.2908 97.8012 59.7767 96.4679 60.0657C95.1454 60.1325 93.8868 59.9244 92.7674 59.1814C91.974 58.6548 91.3863 57.9247 91.219 56.9682C91.0603 56.061 91.3024 55.1598 91.8592 54.4309C92.6964 53.3345 93.9205 52.9625 95.2343 52.7779ZM95.1561 54.5503C94.4033 54.7483 93.526 55.0191 93.1093 55.7351C92.9445 56.0182 92.8879 56.3516 92.9876 56.667C93.1497 57.1803 93.6006 57.5362 94.0745 57.756C94.8437 58.113 95.6814 58.1441 96.5084 58.0258C97.2002 57.8477 98.0478 57.5723 98.4517 56.9398C98.6098 56.6921 98.6636 56.4015 98.5984 56.1147C98.4916 55.644 98.1088 55.2849 97.7041 55.0506C96.9059 54.5882 96.0583 54.516 95.1561 54.5503Z" fill="white" />
  <path d="M105.422 47.0733C106.599 46.956 108.047 47.4492 108.953 48.1901C109.673 48.7791 110.152 49.6136 110.221 50.5476C110.225 50.6029 110.228 50.6582 110.23 50.7137C110.232 50.7692 110.232 50.8247 110.23 50.8801C110.229 50.9355 110.226 50.9909 110.222 51.0463C110.218 51.1016 110.212 51.1567 110.205 51.2117C110.198 51.2668 110.19 51.3217 110.18 51.3762C110.17 51.4308 110.159 51.4852 110.146 51.5392C110.133 51.5932 110.119 51.6468 110.104 51.7001C110.088 51.7534 110.072 51.8063 110.053 51.8587C110.035 51.9111 110.016 51.963 109.995 52.0144C109.974 52.0659 109.951 52.1167 109.928 52.167C109.904 52.2173 109.879 52.2669 109.853 52.3159C109.827 52.3649 109.8 52.4132 109.771 52.4608C109.742 52.5084 109.712 52.5552 109.681 52.6012C109.65 52.6473 109.618 52.6925 109.585 52.7369C109.551 52.7813 109.517 52.8248 109.481 52.8674C109.445 52.91 109.408 52.9517 109.37 52.9924C108.483 53.9655 107.099 54.386 105.817 54.4454C104.531 54.4273 103.334 54.1387 102.316 53.3189C101.602 52.7447 101.095 51.9614 101.013 51.0357C100.935 50.1459 101.213 49.3081 101.795 48.6302C102.712 47.5616 104.061 47.1716 105.422 47.0733ZM105.306 48.8516C104.519 48.9563 103.674 49.1393 103.153 49.7905C102.946 50.0484 102.843 50.3744 102.757 50.6891C103.024 51.3763 103.354 51.843 104.056 52.1552C104.696 52.4395 105.343 52.4631 106.03 52.4376C106.832 52.2449 107.823 51.9759 108.281 51.225C108.457 50.9361 108.514 50.6031 108.417 50.2768C108.277 49.8077 107.863 49.4736 107.44 49.2608C106.791 48.9342 106.029 48.8006 105.306 48.8516Z" fill="white" />
  <path d="M38.2431 62.8211C38.6455 62.8997 39.0883 63.2252 39.4396 63.4333C45.1302 66.8035 50.7353 70.3216 56.4116 73.7174L62.2357 77.1868C63.3931 77.8754 64.6822 78.5376 65.7269 79.3846C65.8411 80.7226 65.7681 82.114 65.7717 83.4579L65.808 99.7765C65.804 100.979 65.9406 102.669 65.6846 103.804C65.6397 104.003 65.572 104.077 65.4163 104.208C64.588 104.9 63.5227 105.424 62.5907 105.974C61.175 106.809 59.7717 107.664 58.3806 108.539C58.2157 108.604 58.0428 108.647 57.8722 108.696C56.6204 108.205 54.4992 106.66 53.2427 105.914L38.7423 97.2651L33.9645 94.3974C33.0511 93.8528 31.6963 93.2391 30.9683 92.4922C30.8067 91.3242 30.8866 90.0785 30.8868 88.8994L30.8915 73.0686C30.8909 71.1996 30.8376 69.3176 30.9192 67.4511C31.694 66.6776 33.4113 65.7855 34.3844 65.1781C35.6609 64.3814 36.8966 63.4977 38.2431 62.8211ZM32.6235 69.5483C32.5114 70.5818 32.5533 71.6412 32.5545 72.6797L32.5587 77.5025C32.5541 82.1568 32.4625 86.8381 32.5941 91.4897C34.0267 92.6041 35.7456 93.3885 37.2914 94.3396L55.2186 105.126C55.8005 105.473 56.4628 105.775 57.0058 106.171C57.095 105.188 57.0556 104.183 57.0542 103.196L57.0465 98.4044L57.0582 84.4102L32.6235 69.5483ZM38.2919 64.8005C37.7614 65.1379 37.2357 65.4906 36.6956 65.8117C42.4022 69.2323 48.0888 72.6857 53.7555 76.1718C55.8755 77.4974 58.0104 78.799 60.16 80.0765C60.5379 80.297 61.1799 80.7686 61.5665 80.877C61.6129 80.89 61.6628 80.8736 61.711 80.8719C62.2595 80.5663 62.7986 80.2543 63.331 79.9214L48.6102 71.0489L42.1372 67.1059C40.8618 66.3299 39.5969 65.5262 38.2919 64.8005ZM35.0036 66.8906C34.4459 67.2244 33.891 67.5631 33.3391 67.9065C38.4138 70.8883 43.3998 74.0427 48.4195 77.1161C51.6655 79.1036 54.9761 81.0003 58.2066 83.0095C58.5095 82.9714 59.3902 82.2247 59.7563 82.025C58.0607 80.7929 56.1522 79.78 54.358 78.6927L44.4082 72.641L38.1531 68.7701C37.1397 68.1426 36.0872 67.3766 35.0036 66.8906ZM62.1914 82.5923L62.1772 96.6516C62.1764 99.1094 62.0672 101.654 62.1944 104.099C62.8227 103.755 63.5073 103.22 64.1645 102.969C64.0296 102.607 64.0215 85.9197 64.1532 84.4779C64.1163 83.5732 64.1841 82.667 64.0969 81.7647L64.0722 81.5103C63.4657 81.9017 62.8213 82.2399 62.1914 82.5923ZM60.3076 83.8269L58.7965 84.7335C58.7483 86.7756 58.5623 105.607 58.8815 106.097C59.4128 105.774 59.9371 105.44 60.4544 105.095C60.456 102.949 60.5647 84.2973 60.3831 83.9035C60.3682 83.871 60.3328 83.8524 60.3076 83.8269ZM64.1532 84.4779C64.0215 85.9197 64.0296 102.607 64.1645 102.969L64.1666 102.902L64.2161 102.96C64.3484 102.419 64.2356 99.536 64.2338 98.7584L64.2247 88.9796C64.2231 87.5994 64.3308 86.1573 64.2405 84.786C64.2329 84.669 64.2003 84.5838 64.1532 84.4779Z" fill="white" />
  <path d="M64.155 84.4784C64.202 84.5843 64.2346 84.6696 64.2423 84.7865C64.3325 86.1579 64.2249 87.5999 64.2265 88.9802L64.2356 98.7589C64.2373 99.5366 64.3502 102.419 64.2178 102.961L64.1683 102.902L64.1662 102.969C64.0314 102.607 64.0232 85.9202 64.155 84.4784Z" fill="white" />
  <path d="M51.974 93.1061C52.0936 93.1062 52.2177 93.1042 52.3365 93.1213C53.2581 93.2541 52.9467 94.9543 53.2067 95.6043C53.4598 96.2375 53.9342 96.7511 54.3389 97.2904C55.0104 98.1851 55.497 99.2717 55.3067 100.414C55.2056 101.021 54.8304 101.723 54.3007 102.064C53.7585 102.413 53.1947 102.337 52.6026 102.203C51.34 101.783 50.2233 100.805 49.5922 99.6453C49.5548 99.5776 49.519 99.509 49.4849 99.4396C49.4509 99.3701 49.4187 99.2999 49.3881 99.2288C49.3577 99.1577 49.329 99.0859 49.3021 99.0135C49.2751 98.941 49.2501 98.8679 49.2269 98.7942C49.2036 98.7204 49.1822 98.6462 49.1627 98.5714C49.1431 98.4966 49.1255 98.4214 49.1098 98.3456C49.094 98.2701 49.0801 98.1941 49.0682 98.1177C49.0563 98.0413 49.0463 97.9647 49.0382 97.8879C49.0301 97.811 49.0239 97.7341 49.0197 97.6569C49.0154 97.5797 49.0131 97.5025 49.0128 97.4253C49.0124 97.348 49.0139 97.2707 49.0175 97.1935C49.021 97.1164 49.0264 97.0393 49.0338 96.9623C49.0412 96.8854 49.0505 96.8087 49.0617 96.7323C49.0729 96.6559 49.086 96.5797 49.101 96.5039C49.116 96.4281 49.1329 96.3527 49.1518 96.2777C49.1706 96.2027 49.1912 96.1283 49.2138 96.0544C49.6621 94.6272 50.6848 93.7845 51.974 93.1061ZM51.3961 95.7916C50.9479 96.6297 50.5811 97.4554 50.8804 98.4186C51.1508 99.2886 51.8472 99.927 52.6484 100.32C52.8054 100.398 52.9704 100.459 53.1349 100.518C53.3756 100.399 53.549 100.256 53.6475 99.9979C53.7832 99.6427 53.6408 99.2481 53.4783 98.9274C53.1323 98.2446 52.5208 97.7693 52.0924 97.1488C51.8061 96.734 51.6607 96.2242 51.3961 95.7916Z" fill="white" />
  <path d="M37.1877 83.8927C37.2511 83.897 37.2611 83.8954 37.3322 83.9134C37.5433 83.967 37.8474 84.0948 37.959 84.2953C38.2607 84.8372 38.0292 85.6623 38.2282 86.2653C38.5269 87.1699 39.2861 87.8343 39.7993 88.6107C40.3272 89.4096 40.5654 90.5028 40.3525 91.4427C40.2152 92.0487 39.8111 92.69 39.2671 93.0124C38.7294 93.3311 38.1855 93.259 37.6144 93.0978C37.5261 93.0601 37.4388 93.0202 37.3524 92.9782C37.2662 92.9362 37.1809 92.8922 37.0967 92.846C37.0126 92.7998 36.9296 92.7516 36.8478 92.7013C36.7661 92.6511 36.6856 92.5989 36.6064 92.5447C36.5272 92.4906 36.4494 92.4345 36.3731 92.3765C36.2966 92.3186 36.2216 92.2588 36.1482 92.1971C36.0747 92.1354 36.0028 92.072 35.9325 92.0068C35.8622 91.9417 35.7935 91.8749 35.7264 91.8064C35.6594 91.7378 35.5942 91.6677 35.5306 91.596C35.4671 91.5242 35.4053 91.451 35.3454 91.3763C35.2855 91.3016 35.2274 91.2254 35.1713 91.1479C35.1151 91.0703 35.0608 90.9913 35.0086 90.9111C34.9563 90.8309 34.9061 90.7495 34.8578 90.6667C34.8096 90.584 34.7634 90.5002 34.7194 90.4152C34.6753 90.3303 34.6333 90.2443 34.5935 90.1574C34.5536 90.0703 34.516 89.9824 34.4805 89.8935C34.0381 88.7682 33.9934 87.4683 34.4918 86.3526C35.0029 85.2083 36.0221 84.3311 37.1877 83.8927ZM36.475 86.5995C35.995 87.3681 35.7456 88.188 35.9519 89.0981C36.1406 89.9298 36.68 90.6277 37.4021 91.0765C37.539 91.16 37.6811 91.2339 37.8283 91.298C37.9755 91.362 38.1263 91.4157 38.2809 91.4591C38.54 91.2051 38.7596 90.8429 38.7591 90.4703C38.7578 89.4752 37.6431 88.8635 37.1735 88.0969C36.9026 87.6548 36.8372 86.9656 36.475 86.5995Z" fill="white" />
  <path d="M44.3961 88.3165C44.5461 88.2992 44.6916 88.3009 44.8411 88.3232C45.0558 88.3551 45.2087 88.4491 45.336 88.6259C45.7843 89.2484 45.5047 90.1828 45.8167 90.877C46.5795 92.5746 48.2997 93.6886 47.9691 95.7861C47.8706 96.4111 47.5095 97.0889 46.9777 97.4531C46.4837 97.7914 45.9985 97.7721 45.439 97.6706L45.3675 97.6489C44.0069 97.2212 42.8313 96.2052 42.178 94.9475C41.5767 93.7898 41.3264 92.3067 41.7461 91.0496C42.1697 89.7807 43.2345 88.9065 44.3961 88.3165ZM44.0239 90.8212C43.5217 91.5451 43.1799 92.349 43.3355 93.2509C43.4968 94.1853 44.1239 95.0506 44.9068 95.5765C45.1491 95.7391 45.408 95.8693 45.6834 95.9669C45.9105 95.8827 46.1172 95.7665 46.2202 95.5333C46.3699 95.1945 46.2689 94.8558 46.1263 94.5322C45.788 93.765 45.115 93.2472 44.7204 92.5373C44.4912 92.1249 44.2993 91.0972 44.0239 90.8212Z" fill="white" />
  <path d="M112.365 67.0604C112.523 67.0746 112.68 67.0893 112.83 67.1431C113.001 67.2044 113.123 67.3043 113.195 67.4722C113.345 67.8176 113.339 68.3156 113.348 68.6895C113.379 70.0162 113.331 71.3502 113.328 72.6777L113.352 87.1583C113.362 88.4275 113.419 89.7077 113.389 90.9759C113.383 91.236 113.35 91.5036 113.25 91.746C113.09 92.1356 112.766 92.4231 112.42 92.6506C110.95 93.6157 109.355 94.4242 107.834 95.3117L97.4513 101.376L90.9419 105.24C89.6845 105.99 88.3803 106.903 87.0223 107.457C86.9494 107.477 86.8755 107.483 86.7999 107.483C86.5427 107.482 86.2826 107.366 86.1038 107.184C85.8776 106.954 85.7393 106.631 85.7067 106.313C85.6084 105.355 85.6909 104.306 85.6925 103.341L85.7011 97.349L85.6892 88.3427C85.6848 86.5134 85.6357 84.6701 85.7187 82.8431C85.968 82.468 86.3484 82.2302 86.7225 81.9915C87.6793 81.3811 88.6733 80.8218 89.6461 80.2364C93.6823 77.8073 97.7919 75.5089 101.858 73.1302C103.827 71.9783 105.822 70.8678 107.782 69.7023C109.28 68.8119 110.781 67.7904 112.365 67.0604ZM99.7892 82.3541C99.3409 82.6564 98.8968 82.9776 98.4215 83.2368C98.3515 87.2757 98.4283 91.3298 98.4788 95.369C100.69 94.0319 102.919 92.724 105.165 91.4452C106.882 90.4413 108.584 89.4149 110.274 88.3658L104.249 84.8959C103.473 84.4411 100.5 82.5244 99.7892 82.3541ZM96.5827 84.4328C93.5234 86.124 90.5902 88.0509 87.5018 89.683L87.4965 90.5682C88.7075 91.3337 89.9225 92.0928 91.1415 92.8453L96.7408 96.1289C96.6976 95.1925 96.7412 94.2438 96.7403 93.3055L96.7333 87.7507C96.7348 86.6746 96.7822 85.5778 96.6921 84.505C96.6564 84.4797 96.6243 84.4461 96.5827 84.4328ZM111.509 76.0391C109.963 76.9166 108.462 77.8576 106.886 78.6848L106.878 84.3037C107.521 84.6611 108.14 85.0591 108.762 85.4495C109.704 85.9878 110.726 86.4951 111.618 87.108C111.643 85.892 111.798 76.4794 111.509 76.0391ZM96.5355 78.2903C93.4623 80.0096 90.3309 81.7197 87.3916 83.659C87.3833 84.7305 87.1907 86.5504 87.4912 87.5216L87.5877 87.5499C88.6327 87.0362 89.6342 86.4237 90.6385 85.836C92.6689 84.6481 94.6692 83.4111 96.7043 82.2312C96.7203 81.2032 96.8757 79.2957 96.6486 78.3601C96.6118 78.3354 96.5791 78.2982 96.5355 78.2903ZM87.4584 92.6416C87.295 94.0773 87.4006 95.6131 87.4037 97.0602C87.407 98.5805 87.3217 100.167 87.4515 101.68C89.1308 100.828 90.6937 99.8142 92.3203 98.8727C93.24 98.3598 94.1563 97.8409 95.069 97.3159C92.553 95.7242 90.0161 94.1661 87.4584 92.6416ZM104.984 73.4003C102.791 74.6226 100.568 75.8342 98.43 77.1493C98.4155 78.1941 98.2589 80.1875 98.5155 81.1475L98.5381 81.168C100.743 80.006 102.916 78.6642 105.025 77.3384C105.039 76.758 105.237 73.6729 104.984 73.4003ZM111.479 69.6496C109.896 70.476 108.349 71.4251 106.837 72.372C106.929 73.7753 106.67 75.1849 106.892 76.5897L106.98 76.619C108.455 75.5984 110.017 74.626 111.636 73.8468C111.647 72.6343 111.793 70.8319 111.587 69.6792L111.479 69.6496ZM111.496 89.9094C109.332 91.0232 107.251 92.3046 105.15 93.5328C102.88 94.8603 100.589 96.148 98.3598 97.5422C98.3546 97.921 98.3282 98.3082 98.3924 98.6825L98.466 98.7362L106.409 94.0764C108.154 93.0633 109.952 92.0858 111.621 90.953C111.628 90.6222 111.656 90.2909 111.568 89.969L111.496 89.9094ZM96.518 98.5064C93.4105 100.185 90.4907 102.23 87.3749 103.894C87.3605 104.214 87.2427 104.955 87.4606 105.204L87.5241 105.204C89.8276 103.774 92.1564 102.386 94.5105 101.039C95.2421 100.617 95.9606 100.138 96.7016 99.7368C96.7069 99.3466 96.7399 98.9406 96.6619 98.5569C96.5535 98.5006 96.6035 98.5097 96.518 98.5064ZM105.016 79.4706C103.886 80.0932 102.701 80.6868 101.623 81.3932C102.057 81.6109 102.476 81.8536 102.898 82.0935C103.613 82.5179 104.336 82.9371 105.089 83.2923C105.096 82.7553 105.203 79.6662 105.016 79.4706Z" fill="white" />
  <path fill-rule="evenodd" clip-rule="evenodd" d="M48.5 30.645V28.4999H51.5V44.8131C52.8951 45.9932 54.9645 47.4999 57.5 47.4999C58.502 47.4999 59.5935 47.0725 60.6218 46.4206C61.3942 45.9308 62.0499 45.3655 62.5 44.9123V28.9999H65.5V45.4999C65.5 45.8579 65.3719 46.2042 65.1389 46.4761C64.549 47.1643 63.5126 48.1398 62.2282 48.9542C60.9565 49.7606 59.298 50.4999 57.5 50.4999C53.4327 50.4999 50.4023 47.846 49.0751 46.6838C49.0537 46.6651 49.0328 46.6467 49.0122 46.6287C48.6867 46.3439 48.5 45.9324 48.5 45.4999V33.5301L25.4218 47.0287L74.0147 76.7505L124.58 46.9785L103.72 34.2812L104.963 32.7223H106H107L108.625 33.7147L111.432 35.4296L117.048 38.8592L128.28 45.7186C128.73 45.9928 129.004 46.4835 129 47.0109C128.996 47.5383 128.716 48.0249 128.261 48.2925L74.7611 79.7925C74.2836 80.0736 73.69 80.0686 73.2173 79.7795L21.7173 48.2795C21.2672 48.0042 20.9949 47.5127 21.0001 46.9851C21.0053 46.4575 21.2873 45.9715 21.7427 45.7051L48.2427 30.2051L48.5 30.645ZM131.768 95.2881L74.7684 129.288C74.2939 129.571 73.7021 129.57 73.2283 129.286L18.2283 96.2861L19.7717 93.7136L74.0023 126.252L130.232 92.7117L131.768 95.2881ZM131.752 101.298L74.7516 134.298C74.2825 134.57 73.7035 134.567 73.2369 134.291L18.2369 101.791L19.7631 99.2085L74.0077 131.262L130.248 98.7017L131.752 101.298Z" fill="white" />
</svg>