<svg width="150" height="150" viewBox="0 0 150 150" fill="none" xmlns="http://www.w3.org/2000/svg">
  <path d="M73.4917 16.5393C74.3468 16.3688 75.4777 16.5986 76.2739 16.9235C77.6515 17.4857 78.3307 18.368 78.8874 19.7118C81.3208 21.1952 83.6558 22.8863 86.0374 24.4558C87.0176 25.1018 87.9938 25.756 88.9837 26.3871C89.7834 26.897 90.6103 27.3807 91.3614 27.9613C91.9408 28.4093 92.4851 28.8764 92.8741 29.5012C92.9563 30.4571 92.9075 31.4104 92.9035 32.3682C92.895 34.3374 92.8544 36.3239 92.9606 38.2904L93.5639 37.8302C93.714 37.1789 93.8891 36.6132 94.3388 36.0986C95.1715 35.1458 96.5017 34.6302 97.7425 34.5368C98.9311 34.4471 100.219 34.6087 101.292 35.1528C102.16 35.5931 102.732 36.3536 103.451 36.9831C104.752 38.1222 106.573 39.0767 108.057 40.0062C109.996 41.221 111.898 42.4949 113.854 43.685C115.012 44.39 116.356 45.0452 117.371 45.9406C117.629 46.1682 117.94 46.4841 117.999 46.8371C118.199 48.0332 118.018 49.8077 118.014 51.075L118.005 58.9274C118.005 60.4447 117.945 61.9869 118.041 63.5004C118.634 63.2489 119.37 63.1812 120.006 63.2768C120.387 63.3341 120.766 63.477 120.996 63.801C121.27 64.1848 121.235 64.6199 121.153 65.0618C122.955 65.2448 124.332 65.7949 125.601 67.1209C127.227 68.8209 127.583 70.4783 127.531 72.7474C128.054 73.6077 128.458 74.5249 128.359 75.5557C128.229 76.9089 127.406 77.8409 126.414 78.6846C126.407 79.0485 126.406 79.4124 126.41 79.7762C127.909 80.4819 129.307 81.4344 130.723 82.2918C131.851 82.9749 133.083 83.6171 134.135 84.4093C134.389 84.6008 134.718 84.8422 134.827 85.1491C134.944 85.4772 134.945 85.971 134.956 86.3196C134.991 87.47 134.926 88.6313 134.938 89.7839C134.954 91.2423 135.044 92.7341 134.974 94.1887C134.962 94.4174 134.951 94.792 134.819 94.9826C134.508 95.435 133.52 96.0369 133.052 96.3456C132.046 97.0087 131.003 97.6195 129.982 98.2603L124.524 101.738L81.2234 129.62C79.4803 130.729 77.7708 131.905 76.0172 132.994C75.6845 133.201 75.2668 133.45 74.8757 133.509C74.3862 133.583 73.8985 133.185 73.5218 132.924L30.7608 105.921L20.2716 99.3124L17.405 97.5136C16.6522 97.0408 15.8394 96.6022 15.1998 95.9795C14.8726 94.9605 15.0651 91.2772 15.0566 90.0075C15.0485 88.7929 14.9342 87.4721 15.0554 86.2711C15.0858 85.9696 15.1186 85.7131 15.3308 85.4831C15.9777 84.7814 17.0669 84.2719 17.8798 83.7705C19.0408 83.0401 20.195 82.2992 21.3424 81.5479C22.1167 81.0454 22.9493 80.5662 23.6491 79.965L23.7104 79.9113C22.8455 78.3257 21.8265 77.3007 22.0796 75.3499C22.2476 74.0549 22.9191 73.1492 23.9278 72.3645C23.9455 71.5378 23.7996 70.4785 24.0645 69.6954C24.3719 68.7867 25.2659 68.334 26.0629 67.9233C26.0425 67.52 26.0028 67.0612 26.1732 66.6846C26.2733 66.4632 26.431 66.2949 26.6682 66.2232C27.4115 65.9988 28.4519 66.7362 29.0843 67.0851C29.2127 63.1794 29.1136 59.2295 29.0918 55.3198C29.0812 53.3993 28.9276 51.4665 29.185 49.5554C30.0087 48.5803 31.3521 47.9615 32.413 47.2721L39.6278 42.663C40.8852 41.8547 42.2148 41.0878 43.3861 40.1586C43.3749 39.2833 43.3552 38.4201 43.8247 37.6411C44.3945 36.6958 45.4544 36.1428 46.4998 35.8905C48.0909 35.5064 50.3322 35.6758 51.5652 36.8626C52.5813 37.8406 52.513 38.2609 53.9429 39.1237C54.0011 37.8915 53.9719 36.6507 53.9702 35.4173C53.6312 35.3197 53.2878 35.1985 52.9715 35.0416C52.0278 34.5734 51.3299 33.8105 51.0021 32.8026C50.6014 31.5703 50.795 30.1495 51.3966 29.0146C51.9398 27.9896 52.8917 27.1647 54.0093 26.826C55.4067 26.4023 56.6767 26.8471 57.9089 27.5117L69.0015 20.2834C68.9752 19.5387 69.1719 18.8273 69.6359 18.2339C70.5439 17.0733 72.0959 16.6872 73.4917 16.5393ZM116.471 79.6196C114.722 80.6402 113.041 81.8056 111.346 82.9145C107.761 85.2602 104.193 87.6574 100.565 89.9354L100.553 93.9052C100.045 94.7414 97.2687 96.4708 96.2979 96.8287C95.3021 96.5406 94.2597 95.9573 93.4086 95.3652C90.9438 97.1142 88.3427 98.7088 85.8026 100.349C84.8895 100.939 83.5748 101.628 82.8021 102.33C82.6308 102.486 82.5334 102.706 82.4931 102.931C82.2329 104.382 83.1559 106.06 81.7321 107.107C81.243 107.467 80.6909 107.761 80.165 108.064C80.2249 109.377 80.1895 110.703 80.1953 112.018C80.1999 113.059 80.334 114.169 80.1144 115.192C80.0297 115.587 79.8441 115.925 79.5758 116.226C78.5325 117.396 76.7439 117.8 75.2413 117.855C73.6567 117.914 71.8414 117.613 70.6278 116.509C69.902 115.85 69.7708 115.076 69.7478 114.147C69.7057 112.445 69.8134 110.734 69.8125 109.031C68.8921 108.302 67.807 107.739 66.8177 107.108C64.7923 105.815 62.8153 104.427 60.8344 103.066C59.6745 102.27 58.4171 101.545 57.3868 100.582C57.2482 101.773 57.2697 102.409 56.2452 103.229C54.8883 104.315 52.8712 104.553 51.1946 104.357C49.8816 104.204 48.5887 103.706 47.7452 102.65C47.6835 102.573 47.6297 102.493 47.5752 102.41C47.3288 100.016 47.5143 97.539 47.5459 95.135C46.9394 94.6174 46.3616 94.0138 45.724 93.5414C43.8462 92.1496 41.7224 91.0551 39.7687 89.7612C37.7021 88.3927 35.7139 86.8868 33.6239 85.5602C33.4313 86.6869 33.3052 87.5343 32.2939 88.2433C30.8955 89.2237 29.0459 89.4276 27.3977 89.1197C26.2224 88.9001 24.9011 88.4352 24.1893 87.4125C23.3658 86.2294 23.7384 83.8324 23.7072 82.3967C22.1315 83.5335 20.3747 84.4261 18.8059 85.5726L25.9152 90.0613C36.4704 96.853 47.0675 103.579 57.7066 110.239L68.0621 116.735C70.3212 118.135 72.674 119.475 74.8429 121.007L116.672 93.9732C119.349 92.2144 122.046 90.4874 124.764 88.7923C126.046 88.0028 127.323 87.2059 128.595 86.4018C129.394 85.8997 130.23 85.419 130.979 84.8469C129.574 83.7622 127.971 82.8901 126.431 82.0128C126.429 83.6547 126.749 85.6161 125.449 86.878C124.362 87.9336 122.698 88.357 121.218 88.3087C119.878 88.2652 118.301 87.9179 117.347 86.9078C116.994 86.5334 116.735 86.0875 116.604 85.589C116.389 84.7654 116.644 79.8123 116.471 79.6196ZM89.9186 67.3853C88.2728 68.3459 86.6921 69.4269 85.107 70.4832L78.1568 75.1439C76.821 76.0398 75.4343 77.1006 74.0403 77.8792C73.9859 83.0258 73.9916 88.1723 74.0574 93.3186C74.0776 94.7125 74.0419 96.1135 74.0966 97.5057C74.4408 97.2861 74.9427 96.8807 75.366 96.8762C76.364 97.3729 77.2684 98.0156 78.1839 98.6462C80.3979 97.3157 82.5198 95.8062 84.6828 94.3938C86.4398 93.2467 88.3256 92.1745 89.9926 90.9014L89.9993 75.9052C90.0072 73.3178 90.092 70.7132 90.0231 68.1273C90.0168 67.8903 90.0331 67.5952 89.9186 67.3853ZM115.938 48.7272C111.831 51.3717 107.748 54.0514 103.688 56.7663C102.521 57.5402 101.381 58.3707 100.201 59.1213C100.248 61.4211 100.196 63.7296 100.194 66.0306L100.177 80.8385C100.177 81.1039 100.103 81.9062 100.271 82.0776C101.912 81.0741 103.452 79.8893 105.07 78.8428L110.625 75.2236C112.432 74.0572 114.259 72.914 116.02 71.6784L116.026 55.8733C116.027 54.9148 116.16 49.305 115.938 48.7272ZM17.1141 88.9937C16.9491 89.8669 17.0341 90.8604 17.0334 91.7485C17.0326 92.7889 16.9909 93.8483 17.0602 94.8863C18.4714 96.0152 20.1395 96.8899 21.6663 97.8562L32.3335 104.517L69.7171 128.204C71.114 129.075 72.6059 129.872 73.9549 130.807C73.9726 128.869 73.9761 126.93 73.9654 124.991C72.1443 123.609 70.0766 122.491 68.1449 121.264L17.1141 88.9937ZM132.822 88.1168C131.155 89.0527 129.569 90.1864 127.961 91.2237L119.961 96.3436L81.1258 121.491C79.4081 122.606 77.712 123.791 75.9425 124.822C75.9403 125.427 75.8442 130.179 75.948 130.443C75.9609 130.476 75.9963 130.494 76.0204 130.52L76.0832 130.515L113.753 106.333L125.692 98.6153C128.085 97.0589 130.461 95.3508 132.974 93.9969L132.979 90.537C132.979 89.7581 133.014 88.9538 132.918 88.1804C132.887 88.1576 132.86 88.1233 132.822 88.1168ZM78.6062 21.8989C78.603 22.9783 78.7227 24.1999 77.902 25.0375C77.5736 25.3726 77.1334 25.632 76.7173 25.8442C76.801 26.8467 77.0495 28.4165 76.3534 29.242C75.8385 29.8528 74.9342 30.1111 74.159 30.1617C73.2115 30.2234 72.0586 30.0028 71.3444 29.3397C70.8576 28.8878 70.7295 28.2256 70.7208 27.5864C70.7128 26.9949 70.7394 26.3997 70.7547 25.8083C69.9432 25.1103 69.2282 24.5465 69.1391 23.3911C69.1197 23.1199 69.1092 22.8483 69.1078 22.5765L63.203 26.3633C62.0205 27.1249 60.7946 27.8443 59.6683 28.6876C59.6095 29.1834 59.554 29.4666 59.2627 29.8864C61.2325 31.025 63.1157 32.3422 65.0166 33.5931C66.6943 34.6966 68.3773 35.8028 70.0896 36.852C71.9837 36.0505 73.7879 35.5879 75.798 36.295L83.4396 31.2551C85.025 30.2109 86.5975 29.0966 88.2624 28.1822C86.2422 26.7492 84.1517 25.4282 82.0724 24.0834C80.9427 23.3527 79.8074 22.5016 78.6062 21.8989ZM77.4897 58.1317C77.4919 59.3112 77.6468 60.54 76.7361 61.4527C76.4915 61.6979 76.1951 61.902 75.9133 62.1028C75.9158 63.1031 76.1648 64.7872 75.4399 65.5296C74.7124 66.2748 73.5787 66.5409 72.5688 66.5315C71.7092 66.5236 70.6064 66.3535 69.9764 65.719C69.1789 64.9157 69.444 63.1702 69.4411 62.137C68.7296 61.6173 67.9526 61.1507 67.8215 60.1987C67.7569 59.7292 67.8082 59.2219 67.8286 58.7496C64.4734 61.1159 60.8812 63.1665 57.5886 65.6207C59.7307 66.941 61.8224 68.3483 63.9368 69.713L68.7759 72.8508C69.5691 73.3631 70.4076 73.8508 71.1691 74.4077L81.7397 67.2804C83.4233 66.1277 85.0725 64.8842 86.7884 63.7834C84.4851 62.458 82.2704 60.9771 79.992 59.6069C79.1653 59.1097 78.3663 58.536 77.4897 58.1317ZM52.983 40.8636C53.0025 41.9767 53.095 43.0632 52.2586 43.942C52.0648 44.1457 51.8356 44.3162 51.6139 44.488C51.6187 45.4142 51.8601 47.4576 51.1933 48.121C50.4703 48.8403 49.0404 48.9729 48.0738 48.9382C47.2064 48.907 46.0444 48.723 45.4409 48.041C44.8119 47.3302 45.0512 45.5378 45.0684 44.6492C44.2509 44.155 43.6735 43.5029 43.2002 42.6827C40.1232 44.512 37.0966 46.4208 34.1205 48.4092C36.5101 50.1047 39.0561 51.6576 41.5179 53.2517C43.4624 54.5961 45.4543 55.8666 47.4936 57.063C49.2638 55.9131 51.0254 54.7505 52.7787 53.5752C56.1081 51.4191 59.4232 49.2411 62.7238 47.0414C61.2683 46.0188 59.7547 45.0976 58.2469 44.155L52.983 40.8636ZM103.23 39.3051C103.173 40.4769 103.406 41.8896 102.453 42.7619C102.231 42.9659 101.989 43.1436 101.738 43.311C101.729 44.3063 101.939 46.2379 101.205 46.9468C100.47 47.6552 99.2135 47.8546 98.2302 47.8156C97.3004 47.7786 96.0904 47.5388 95.4242 46.8393C94.6275 46.0029 94.9775 44.4336 94.976 43.3763C94.0448 42.6879 93.6674 42.0846 93.4035 40.9464C91.0559 42.3001 88.7848 43.85 86.5303 45.3551C85.7009 45.9088 84.8798 46.516 84.0285 47.0328C86.2818 48.4824 88.5081 49.9494 90.7917 51.3539C93.0351 52.7626 95.2938 54.1517 97.5203 55.5867L107.96 48.6771C109.558 47.6093 111.125 46.4935 112.741 45.4525C111.116 44.2132 109.315 43.1452 107.6 42.0296C106.19 41.1121 104.749 40.0307 103.23 39.3051ZM34.4832 54.0139C34.3808 56.7453 34.3982 59.5455 34.4738 62.2787C34.5332 62.2526 34.5932 62.2278 34.6538 62.2045C34.7144 62.1813 34.7755 62.1596 34.8372 62.1394C34.8989 62.1192 34.9611 62.1005 35.0237 62.0833C35.0863 62.0662 35.1494 62.0506 35.2128 62.0365C35.2762 62.0225 35.3399 62.0101 35.4039 61.9991C35.4679 61.9883 35.5321 61.979 35.5966 61.9712C35.6611 61.9635 35.7257 61.9573 35.7905 61.9527C35.8552 61.9482 35.9201 61.9452 35.985 61.9439C36.0499 61.9425 36.1149 61.9428 36.1798 61.9447C36.2447 61.9465 36.3096 61.9499 36.3743 61.955C36.439 61.9601 36.5035 61.9667 36.568 61.9749C36.6324 61.9831 36.6966 61.993 36.7605 62.0044C36.8245 62.0158 36.8881 62.0287 36.9514 62.0433C37.0146 62.0578 37.0775 62.0739 37.1399 62.0916C37.2025 62.1092 37.2645 62.1284 37.3261 62.1491C37.3875 62.1698 37.4485 62.192 37.509 62.2157C39.5758 63.0089 41.1356 65.2493 41.9852 67.1974C42.6531 68.7289 43.0903 70.7109 42.4197 72.3167C42.1413 72.9832 41.6198 73.5716 40.9428 73.8495C40.1104 74.1912 39.2058 74.0018 38.412 73.6532C38.0226 73.4824 37.6552 73.2688 37.2873 73.0571C36.5706 73.5072 35.8319 73.9177 35.1115 74.3605C35.2122 74.9767 35.1584 75.6547 35.1574 76.2792C35.1551 77.6896 35.1049 79.1107 35.1449 80.5199C36.5744 81.453 37.9959 82.4019 39.4768 83.2532C41.3129 84.3587 43.093 85.6023 44.9829 86.6117L45.052 60.8987C42.8176 59.4966 40.6472 57.9855 38.4429 56.5363C37.1464 55.6838 35.7473 54.866 34.4832 54.0139ZM58.2403 71.2121L58.2232 75.5724C58.2182 76.2843 58.1571 77.0307 58.2111 77.7382C59.2645 77.3343 60.1392 77.2738 61.1857 77.7404C63.3012 78.6838 64.8115 80.9985 65.5966 83.093C66.1029 84.4433 66.4939 86.3251 65.8769 87.7033C65.5747 88.3781 65.0181 88.8662 64.3187 89.1027C63.4356 89.4012 62.5395 89.2331 61.7311 88.8139C61.5164 88.7026 61.3105 88.5717 61.1054 88.4438C60.4925 88.7838 59.8865 89.1356 59.2874 89.4993C59.2459 90.8578 59.2272 92.2166 59.2314 93.5758C59.2286 94.4103 59.1931 95.2669 59.2653 96.0977C60.6691 97.0314 62.0653 97.9721 63.481 98.8886C64.9747 99.8653 66.4475 100.893 68.0326 101.718C68.3178 101.542 68.6037 101.343 68.9062 101.199C69.052 98.3189 68.9532 95.3855 68.9511 92.4986L68.9422 77.9403C67.287 77.1147 65.7717 76.0108 64.2262 75.002C62.2435 73.7189 60.2482 72.4556 58.2403 71.2121ZM50.2111 60.4526C50.2481 62.1421 50.1977 63.8454 50.1968 65.5363L50.1935 80.629C50.1937 81.3998 50.1547 82.2027 50.2258 82.9702C50.8815 82.6534 51.2223 82.5039 51.9506 82.6538C52.4406 82.2888 52.9332 81.9275 53.4285 81.5698L53.3876 71.7585C53.3816 69.9036 53.2763 67.9852 53.4232 66.1377C54.4402 65.111 56.5583 63.9791 57.8438 63.147C59.4982 62.0759 61.1156 60.9486 62.7604 59.8628C63.4616 59.4001 64.3588 58.9351 64.9749 58.3726C65.106 58.2529 65.09 58.1859 65.107 58.0174C65.0184 55.625 65.1114 53.2049 65.0912 50.8086L64.9948 50.7475C64.4485 50.9981 63.9347 51.3991 63.4315 51.7284L60.4952 53.6515L54.6213 57.5592C53.1537 58.5258 51.6598 59.4587 50.2111 60.4526ZM84.663 53.0059C84.5323 53.9167 84.5922 54.887 84.5922 55.807L84.5969 60.1186C85.3822 60.6722 86.1674 61.2164 86.9938 61.7076C88.4456 62.5705 90.4416 63.5049 91.601 64.7296C91.7083 65.2344 91.8421 65.9628 91.6048 66.441C91.5165 66.5119 91.4306 66.5789 91.3368 66.6426C91.2963 70.914 91.28 75.1854 91.2878 79.4569C92.5222 80.247 93.7742 81.0135 94.9504 81.8897L95.0623 81.9392C95.3377 81.5578 95.1043 61.842 95.1231 59.4344L88.9029 55.5539C87.5259 54.6835 86.148 53.6819 84.663 53.0059ZM90.8897 31.6332C88.8826 32.7351 87.0196 34.1195 85.0977 35.3616L81.4553 37.7233C80.6945 38.2222 79.8889 38.7097 79.1924 39.2957C79.2745 40.4286 79.0227 41.2335 78.2908 42.1126C78.2688 46.8216 78.2252 51.5397 78.2784 56.2481L79.8174 57.1984C79.8929 55.175 79.9582 52.6982 79.8135 50.6924C79.7465 49.7617 79.4615 48.8804 79.4255 47.9348C80.4146 46.9374 81.8206 46.2409 82.9887 45.4521C85.6236 43.673 88.2839 41.747 91.0138 40.1352C90.994 39.1575 91.0902 31.8303 90.8897 31.6332ZM121.412 70.3489C116.65 73.4006 111.904 76.4763 107.174 79.5759C104.173 81.5465 101.083 83.4561 98.2009 85.5969C98.8222 86.2323 99.356 87.0986 99.7619 87.8891L99.8888 88.077C100.084 88.0942 100.175 88.0358 100.34 87.9348C102.573 86.5671 104.757 85.0774 106.939 83.6296L114.64 78.5633C116.022 77.6503 117.415 76.754 118.818 75.8745C119.957 75.1612 121.158 74.4714 122.211 73.6358C122.23 73.6202 122.251 73.6052 122.27 73.5893C122.464 73.4295 122.514 73.0966 122.523 72.8598C122.557 71.9883 122.034 71.03 121.462 70.3969C121.446 70.3799 121.428 70.365 121.412 70.3489ZM59.625 35.4306C59.5237 37.8448 59.5912 40.2881 59.5923 42.7057C60.801 43.3387 61.9642 44.2077 63.1316 44.9279C64.4369 45.7334 66.0341 46.4795 67.1906 47.4578C67.1695 49.6186 67.0242 51.7772 67.0371 53.9394C67.0426 54.8633 67.0122 55.8318 67.2269 56.735L67.3189 56.7856C67.531 56.3182 67.4817 55.9701 67.5613 55.4935C67.9281 54.9264 68.3592 54.587 68.9423 54.2644C69.0112 50.1421 69.0258 46.0195 68.986 41.8968C68.7655 41.568 68.5347 41.2426 68.3246 40.9074C67.3738 40.4389 66.4892 39.8372 65.5992 39.2648C63.6214 37.993 61.6614 36.5996 59.625 35.4306ZM48.8186 61.2228C47.8747 61.4344 47.0944 61.4376 46.1439 61.2564C46.084 62.4922 46.1122 63.737 46.1119 64.9742L46.1408 72.6418L46.1184 81.5443C46.1167 83.4802 46.0858 85.4428 46.1787 87.3759L46.5585 87.6747C46.8687 87.8723 47.1816 88.0552 47.5052 88.2301C47.5189 87.061 47.185 85.4087 48.0842 84.5205C48.3766 84.2314 48.741 84.0086 49.0817 83.7809L49.0852 69.4463C49.0841 66.8856 49.175 64.2801 49.057 61.7234C49.0489 61.5491 49.0559 61.3333 48.9488 61.1936L48.8186 61.2228ZM132.131 85.4565C130.577 86.5937 128.899 87.6008 127.264 88.6207C125.241 89.8737 123.229 91.1462 121.23 92.4382L83.9719 116.529C81.9472 117.874 79.9095 119.199 77.8588 120.504C76.8871 121.127 75.9148 121.84 74.8859 122.362C73.5098 121.804 72.2218 120.803 70.9692 120.013L64.0652 115.672L32.4393 95.6953C27.6491 92.6663 22.9355 89.4789 18.0691 86.5755C17.848 86.4437 17.6481 86.3707 17.391 86.3674L17.2981 86.4334C17.3129 86.5855 17.3391 86.6773 17.4635 86.7794C17.5835 86.878 17.7332 86.9591 17.8663 87.0396L70.1041 120.118C71.6796 121.109 73.2162 122.134 74.8418 123.046C79.4962 119.995 84.1689 116.972 88.8597 113.978L115.994 96.42L127.181 89.2487C128.984 88.0975 130.917 87.0422 132.628 85.7647C132.479 85.6436 132.328 85.4787 132.131 85.4565ZM99.008 60.0564C98.0541 60.325 97.2736 60.3748 96.3052 60.1501C96.2473 61.6064 96.2823 63.0716 96.2851 64.5289L96.291 71.6319C96.2833 74.1429 96.2961 76.6538 96.3293 79.1644C96.3402 80.317 96.2882 81.5055 96.3609 82.6544C96.3713 82.8186 96.3975 82.93 96.4871 83.0692C97.2509 83.4038 97.9001 83.4618 98.6922 83.1516C98.8397 83.0938 98.9842 83.0254 99.1276 82.9582C99.1252 81.0232 99.1138 60.1915 99.008 60.0564ZM70.0448 78.357C69.9132 79.4182 69.9923 80.559 69.9918 81.6316L69.988 95.6847C69.988 97.1939 69.9134 98.7511 70.029 100.255C70.6472 99.8441 71.2755 99.4427 71.882 99.0153L72.9748 98.2562C73.0323 93.7252 73.0318 89.1941 72.9733 84.6631C72.9585 82.5688 72.9908 80.4748 72.9642 78.3804C71.991 78.3777 71.0179 78.3699 70.0448 78.357ZM75.2045 98.3665C73.0857 99.6574 70.9628 100.984 69.0273 102.541C69.7148 103.099 74.5441 106.448 75.151 106.558L75.2198 106.537C76.4481 105.736 77.651 104.897 78.8719 104.086C79.7195 103.523 80.6133 102.991 81.4308 102.387C80.5407 101.768 75.8596 98.4631 75.2045 98.3665ZM117.736 79.2075C117.634 80.146 117.677 81.1046 117.666 82.0479C117.655 82.9855 117.556 84.0149 117.712 84.9387C117.775 85.3077 117.905 85.6544 118.14 85.9495C118.783 86.7577 120.011 87.0318 120.993 87.1223C122.308 87.2433 123.531 86.9142 124.586 86.1201C124.753 85.8911 124.898 85.6843 124.968 85.4058C125.186 84.5393 125.083 83.5334 125.074 82.6448L125.05 79.2972C122.6 80.1557 120.18 79.9693 117.736 79.2075ZM32.2409 80.1061C29.6142 81.0092 27.6956 81.0772 25.0315 80.2598C24.9485 82.284 24.9451 84.383 25.0269 86.4071C25.2046 86.6252 25.3659 86.8242 25.5905 86.9975C25.6762 87.0507 25.7631 87.1017 25.8513 87.1505C25.9395 87.1994 26.0289 87.246 26.1195 87.2905C26.21 87.3349 26.3016 87.3771 26.3942 87.417C26.4869 87.4569 26.5804 87.4945 26.6749 87.5299C26.7694 87.5652 26.8647 87.5981 26.9609 87.6286C27.057 87.6592 27.1538 87.6875 27.2513 87.7133C27.3488 87.7392 27.4469 87.7625 27.5457 87.7834C27.6444 87.8044 27.7435 87.823 27.8431 87.8391C27.9426 87.8552 28.0426 87.8688 28.1429 87.8799C28.2432 87.8911 28.3437 87.8997 28.4444 87.9059C28.5451 87.9121 28.6459 87.9158 28.7468 87.917C28.8477 87.9183 28.9486 87.917 29.0494 87.9132C29.1502 87.9094 29.2509 87.9032 29.3514 87.8944C29.4519 87.8857 29.5522 87.8745 29.6521 87.8607C29.7521 87.8471 29.8517 87.8309 29.9509 87.8123C30.05 87.7937 30.1487 87.7727 30.2468 87.7492C30.9541 87.5869 31.743 87.2829 32.1578 86.6534C32.4218 86.2529 32.4796 80.8954 32.309 80.2307C32.2811 80.1219 32.3074 80.1539 32.2409 80.1061ZM55.9414 95.5289C53.4653 96.4127 51.2857 96.3735 48.7883 95.6193C48.669 97.6292 48.72 99.8327 48.7877 101.85C48.9458 102.032 49.0977 102.23 49.2916 102.376C50.5618 103.162 52.1701 103.359 53.6167 103.03C54.5515 102.818 55.5487 102.389 56.1271 101.595C56.1144 100.455 56.2401 96.3351 56.0162 95.5492L55.9414 95.5289ZM71.0594 108.737C71.0201 110.665 70.8844 113.001 71.0441 114.901C71.6126 115.789 72.4706 116.218 73.4792 116.443C74.9569 116.773 76.903 116.616 78.1924 115.765C78.4813 115.574 78.8698 115.226 78.941 114.869C78.9582 114.784 78.9672 114.704 78.9671 114.618C78.9735 112.694 79.123 110.655 78.8761 108.75C78.0368 109.358 75.9459 111.074 74.8956 110.923C74.1254 110.813 71.842 109.226 71.0594 108.737ZM87.8118 64.5441C86.7221 65.3507 85.5716 66.0911 84.4488 66.8526C82.1304 68.4262 79.8013 69.9838 77.4616 71.5255C75.6861 72.7055 73.8686 73.8902 72.2058 75.2242C72.2228 75.2351 72.2397 75.2456 72.2566 75.2566C72.816 75.6245 73.2927 76.2829 73.9277 76.5023C74.0142 76.4801 74.0883 76.4631 74.1682 76.4224C76.4259 75.043 78.5967 73.4979 80.7874 72.0145L89.9231 65.8936C89.2597 65.3968 88.5743 64.8809 87.8118 64.5441ZM34.7831 64.9917C33.5973 65.4196 31.2214 67.1309 30.092 67.8728C31.6094 68.892 32.6828 70.1885 33.4363 71.8436C33.577 72.1526 33.8205 73.4279 34.0629 73.5209L34.2549 73.4024C35.9202 72.4319 37.5507 71.4037 39.2243 70.4482C38.6736 68.4759 37.803 66.4747 35.9286 65.4239C35.5577 65.216 35.1992 65.0821 34.7831 64.9917ZM113.866 46.0855C112.326 47.221 110.697 48.2452 109.097 49.2952L102.398 53.713C101.04 54.6103 99.5925 55.462 98.3146 56.466C98.7825 56.7897 99.7395 57.5851 100.239 57.6871C102.118 56.5328 103.923 55.2256 105.747 53.9865C109.054 51.721 112.401 49.5165 115.788 47.3731C115.154 46.9335 114.525 46.4874 113.866 46.0855ZM57.96 80.584L53.6926 83.1493C55.5318 84.5774 57.0791 86.1747 57.546 88.5395L57.6475 88.6443C57.8085 88.6352 57.8856 88.5801 58.0191 88.498C59.4675 87.6133 60.9829 86.8074 62.4082 85.8934C62.0272 84.0065 61.2498 82.2422 59.5832 81.1436C59.0956 80.8223 58.5515 80.588 57.96 80.584ZM94.8891 89.8457C91.9279 91.813 88.8765 93.6594 85.9027 95.6109L82.0035 98.2086C81.2552 98.7104 80.5141 99.2514 79.7337 99.701L80.94 100.519L81.5749 100.967C82.9279 100.194 84.2248 99.3025 85.5293 98.4513L90.9809 94.8755C92.4786 93.8727 94.071 92.6641 95.6861 91.8876C95.5431 91.227 95.4239 90.3079 94.8891 89.8457ZM63.6439 47.7419C60.1929 50.1027 56.7175 52.4271 53.2177 54.7151C51.6358 55.7561 50.0729 56.8995 48.4442 57.8582C49.0383 58.1842 49.5787 58.6235 50.0978 59.0561C50.5651 58.9686 52.4987 57.5645 53.0461 57.2074L60.4296 52.406C61.9574 51.3934 63.4599 50.2726 65.0533 49.3694L65.0455 48.5745C64.7399 48.375 63.976 47.7587 63.6439 47.7419ZM83.081 47.9514C82.4745 48.4594 81.7953 48.907 81.137 49.3452C82.9922 50.6823 85.0291 51.7412 86.9713 52.9445C89.5479 54.5409 92.0599 56.2517 94.6519 57.8181C95.3021 57.3582 95.9462 56.89 96.5841 56.4134C93.9103 54.6004 91.0942 52.9718 88.3664 51.2388C87.1213 50.4478 85.8926 49.6291 84.6358 48.8565C84.1455 48.5551 83.6089 48.1778 83.081 47.9514ZM32.96 49.2253C32.3457 49.63 31.7253 50.0278 31.1248 50.4528C32.6162 51.3304 34.0532 52.305 35.5034 53.2483C37.6109 54.6015 39.7072 55.9717 41.7923 57.359C42.6235 57.9103 43.4365 58.5023 44.2794 59.0345C44.4211 59.124 44.5456 59.2107 44.7192 59.1991C45.3219 58.7142 45.9692 58.3088 46.6116 57.8802C44.9971 56.9116 33.5457 49.2865 32.96 49.2253ZM56.4989 66.3241C55.8509 66.7195 55.2591 67.2263 54.6056 67.6007C59.3983 70.385 63.9483 73.5597 68.6667 76.463C68.7633 76.5055 68.8207 76.5668 68.9246 76.5217C69.4107 76.3109 69.893 75.6335 70.2593 75.2467C66.7533 72.8487 63.1374 70.631 59.5709 68.3259C59.1303 68.0411 56.8015 66.3933 56.4989 66.3241ZM89.3389 28.7938L82.7706 33.0996C80.9128 34.3133 79.0321 35.5066 77.2123 36.7762C77.6682 37.171 78.2286 37.779 78.8123 37.951C78.9305 37.9227 79 37.891 79.0989 37.8205C80.7143 36.7106 82.4072 35.6973 84.0642 34.6494L91.3258 29.9903C90.9195 29.7185 89.7268 28.8008 89.3389 28.7938ZM33.5931 81.2308C33.5111 81.9877 33.5862 82.7485 33.5381 83.5056C34.9887 84.639 36.6625 85.5153 38.2096 86.5122C40.6485 88.0837 43.0419 89.7911 45.5788 91.2023L45.7904 90.5538C45.9623 90.1514 46.1867 89.7812 46.424 89.4139C45.4764 88.8021 44.4901 88.2476 43.5333 87.6497L37.7692 83.9877C36.3617 83.0934 35.0131 82.1035 33.5931 81.2308ZM57.8891 30.4616C57.2468 30.8643 56.6133 31.2879 55.9632 31.6771L62.9156 36.0822C64.5104 37.1059 66.0707 38.2138 67.7184 39.1499L68.223 39.422C68.4703 38.787 68.7607 38.2643 69.1586 37.7118L60.3065 31.9767C59.8599 31.6895 58.2346 30.5554 57.8891 30.4616ZM31.0904 51.7445C30.9946 52.7496 31.0354 53.7743 31.0364 54.7835L31.0595 59.8382C31.0767 61.6617 30.9623 63.9132 31.152 65.6985C31.6117 65.4551 32.0202 65.1801 32.362 64.7806C32.3684 64.2589 32.3069 63.6401 32.7186 63.2438C32.8918 63.077 33.1424 62.9716 33.3592 62.8733C33.2485 61.7681 33.305 60.6023 33.3041 59.4907L33.3024 53.2662C32.5985 52.7025 31.8452 52.2346 31.0904 51.7445ZM57.313 96.36C57.3155 97.1123 57.2938 97.8731 57.3249 98.6242C59.4796 100.167 61.7342 101.562 63.9615 102.997C65.2854 103.849 66.574 104.779 67.9401 105.561C67.9537 104.746 67.9587 103.932 67.955 103.117C66.2456 102.362 64.6213 101.123 63.0572 100.098C61.149 98.8473 59.2039 97.6336 57.313 96.36ZM54.6645 69.0188C54.4826 70.758 54.584 72.5539 54.6049 74.3016L54.6639 80.8114C55.03 80.6171 55.8618 80.2741 56.0146 79.8962C56.2359 79.2769 56.5308 78.8225 57.0036 78.3647C57.0023 75.7466 57.0691 73.1309 57.0482 70.5121C56.2504 70.0194 55.4559 69.5217 54.6645 69.0188ZM72.1181 54.6169C71.1926 54.7845 70.147 55.0285 69.5724 55.8488C69.3236 56.2039 69.2064 56.6317 69.2933 57.0607C69.4069 57.6221 69.8723 58.0663 70.3428 58.3545C71.1072 58.8229 72.2715 59.1366 73.1649 58.9606C74.0655 58.8306 75.1994 58.489 75.7598 57.7244C76.02 57.3693 76.1306 56.9285 76.0389 56.4953C75.9154 55.9116 75.4599 55.4695 74.9616 55.1765C74.0654 54.6497 73.1337 54.5662 72.1181 54.6169ZM73.4813 18.2681C72.5497 18.3851 71.5621 18.6419 70.9417 19.4026C70.6752 19.7296 70.5564 20.0823 70.432 20.4764C70.7289 21.3003 71.1632 21.8214 71.9738 22.2011C72.6479 22.5169 73.4741 22.68 74.2171 22.5962C75.1699 22.5021 76.2004 22.204 76.8299 21.4361C77.0371 21.1835 77.129 20.9467 77.2131 20.635L77.2427 20.527C77.0747 19.7607 76.7238 19.2228 76.0413 18.7988C75.2802 18.326 74.3635 18.1879 73.4813 18.2681ZM47.8771 37.2175C46.9711 37.3001 46.0079 37.5428 45.3923 38.2663C45.0768 38.6369 44.8922 39.1186 44.9421 39.6079C45.0015 40.19 45.3898 40.6936 45.841 41.0415C46.5497 41.588 47.4109 41.7822 48.2915 41.7464C49.2185 41.652 50.1611 41.3995 50.7734 40.6378C51.1035 40.2272 51.2794 39.6988 51.201 39.1727C51.1202 38.6291 50.7838 38.176 50.3409 37.8641C49.6419 37.3718 48.7199 37.1922 47.8771 37.2175ZM23.7388 74.2023C23.3267 75.1346 23.0695 76.0644 23.4762 77.0575C23.8982 78.0882 24.8669 78.7329 25.8663 79.1294C25.9815 79.1749 26.0977 79.2175 26.215 79.2572C26.3323 79.297 26.4504 79.3339 26.5696 79.3678C26.6886 79.4018 26.8085 79.4327 26.9292 79.4608C27.0498 79.4889 27.171 79.5139 27.2929 79.536C27.4147 79.5581 27.5371 79.5771 27.6599 79.5932C27.7827 79.6093 27.9058 79.6223 28.0293 79.6323C28.1527 79.6423 28.2763 79.6493 28.4002 79.6533C28.5239 79.6572 28.6478 79.6581 28.7717 79.6559C28.8955 79.6537 29.0192 79.6485 29.1428 79.6403C29.2664 79.6321 29.3897 79.6208 29.5127 79.6065C29.6357 79.5922 29.7583 79.5748 29.8805 79.5545C30.0026 79.5342 30.1243 79.5109 30.2453 79.4845C30.3663 79.4583 30.4866 79.429 30.6061 79.3967C30.7258 79.3645 30.8445 79.3293 30.9623 79.2913C31.0801 79.2532 31.1969 79.2122 31.3127 79.1685C31.4286 79.1247 31.5432 79.078 31.6568 79.0286C32.5482 78.644 33.4301 78.0525 33.8272 77.1336C33.8307 77.1256 33.8333 77.1173 33.8363 77.1093C34.0627 76.4375 34.0028 75.7703 34.0201 75.0739C33.5199 76.1145 32.9134 77.2666 31.7409 77.6675C30.7971 77.9902 29.9546 77.6015 29.0158 77.561C28.5041 77.5388 28.0093 77.6318 27.5073 77.7167C26.5864 77.3823 24.6345 76.1505 24.187 75.2371C24.0488 74.9549 23.9624 74.6457 23.8505 74.353C23.8135 74.2562 23.8256 74.2883 23.7388 74.2023ZM49.4285 86.0182C49.0811 86.2647 48.9781 86.5554 48.9059 86.9685C48.7237 88.0084 48.8244 89.571 48.9223 90.637C49.4504 91.0965 49.9887 91.4839 50.601 91.824C51.2632 91.532 51.8797 91.1453 52.505 90.7835C53.0439 90.4716 53.5947 90.171 54.119 89.8353C53.5051 88.3417 52.6758 86.9786 51.1197 86.3306C50.9867 86.274 50.8509 86.2248 50.7125 86.1832C50.574 86.1415 50.4336 86.1075 50.2914 86.0812C50.1491 86.055 50.0059 86.0366 49.8617 86.026C49.7174 86.0155 49.573 86.0129 49.4285 86.0182ZM70.7541 43.3389C70.7002 45.4315 70.7325 47.5308 70.7339 49.6241C70.7348 50.8766 70.647 52.2149 70.7889 53.4572C71.4403 53.2261 72.094 53.1104 72.7868 53.1104L72.9117 53.0707C73.0831 52.6351 72.9325 45.1564 72.9168 44.0393C72.1871 43.8325 71.4563 43.6287 70.7541 43.3389ZM47.5853 89.7723C47.1223 90.5647 46.7055 91.394 46.9453 92.3405C47.1443 93.1263 47.7332 93.7294 48.4216 94.1241C50.193 95.1395 52.6217 95.2888 54.567 94.7554C55.8517 94.4033 56.8793 93.6469 57.5928 92.5249C57.9322 91.7741 57.8564 91.1546 57.7824 90.36C57.5203 91.3535 57.1973 92.313 56.2626 92.8817C55.5377 93.3231 54.6953 93.3345 53.8957 93.1188C53.5154 93.0163 53.1468 92.8611 52.7865 92.7038C51.5738 93.0695 50.3052 93.0475 49.1708 92.4421C48.6193 92.1478 48.0594 91.6684 47.8794 91.0489C47.8095 90.8085 47.7217 89.9088 47.5853 89.7723ZM98.2411 36.1712C97.3212 36.2531 96.3251 36.4357 95.7101 37.1976C95.4472 37.5232 95.3496 37.8644 95.2475 38.2592C95.4725 38.9874 95.8375 39.4868 96.522 39.8639C97.1447 40.2069 97.9576 40.3946 98.6674 40.32C99.5788 40.1986 100.642 39.9035 101.243 39.1563C101.498 38.8392 101.64 38.4484 101.573 38.04C101.491 37.5458 101.144 37.1455 100.743 36.8671C100.065 36.3963 99.064 36.1224 98.2411 36.1712ZM25.6121 70.7255C25.417 70.7985 25.3609 70.7948 25.2681 70.9911C25.0342 71.486 25.1662 73.9935 25.1933 74.6687C25.8539 75.3009 26.5292 75.7802 27.3294 76.2196C27.9061 75.8362 28.4784 75.4405 29.066 75.0744C29.5612 74.7989 30.0522 74.5161 30.5389 74.226C29.7929 72.7862 28.8848 71.4389 27.2587 70.9197C26.7291 70.7505 26.1661 70.6955 25.6121 70.7255ZM76.3651 43.4166C75.8341 43.6517 75.3089 43.8545 74.7453 43.9978C74.6715 45.3372 74.7036 46.6902 74.7021 48.0319C74.7 49.7888 74.6803 51.5497 74.7073 53.3062C74.9928 53.4477 75.2945 53.5785 75.5659 53.7448C75.9041 53.9632 76.2374 54.1815 76.5584 54.4246C76.5026 51.8876 76.5433 49.3408 76.5452 46.8025C76.5459 45.8132 76.6494 44.7092 76.5452 43.7306C76.5325 43.6114 76.5092 43.523 76.4267 43.4346L76.3651 43.4166ZM81.1476 50.7978C81.0206 53.1814 81.0301 55.5948 81.0712 57.9809C81.8351 58.4998 82.6548 58.9305 83.4141 59.4491C83.5045 57.0323 83.4318 54.5948 83.4258 52.1752L81.1476 50.7978ZM56.2173 33.268C56.0477 34.0855 56.1291 35.0284 56.1286 35.8642C56.127 37.4112 56.1336 38.9581 56.1483 40.5049C56.8858 41.0212 57.6282 41.5291 58.427 41.9483C58.527 39.5342 58.4806 37.0986 58.4645 34.6827C57.7341 34.1844 56.9988 33.6843 56.2173 33.268ZM35.8323 63.1383C35.2392 63.2392 34.8017 63.4142 34.2796 63.7104C35.8861 63.849 37.2293 64.6499 38.2586 65.8714C39.2395 67.0354 40.5007 69.405 40.3596 70.9676C40.3329 71.2639 40.2134 71.6013 39.9674 71.7884C39.6221 72.051 39.1652 72.1827 38.8025 72.4346L38.7934 72.5044L38.8312 72.5304C39.3834 72.7492 39.9604 72.8703 40.5304 72.6177C40.9836 72.4171 41.2635 71.9955 41.4267 71.5431C41.9396 70.1221 41.3462 68.4726 40.7113 67.1914C39.932 65.6186 38.5881 63.8239 36.8427 63.2564C36.504 63.1463 36.1861 63.109 35.8323 63.1383ZM59.3886 78.8181C58.8101 78.898 58.3009 79.0745 57.7653 79.302C59.4326 79.4709 60.574 80.1087 61.6309 81.4114C62.631 82.6443 63.7889 84.6749 63.5731 86.3291C63.4902 86.9655 63.0965 87.391 62.6002 87.7678L62.6523 87.8628C63.3079 87.8967 63.9044 87.8725 64.4172 87.4002C64.8289 87.021 64.9918 86.4831 65.0059 85.9374C65.0575 83.9379 63.6866 81.5681 62.3252 80.1828C61.6211 79.4662 60.7022 78.8248 59.6608 78.8065C59.5693 78.8049 59.48 78.8112 59.3886 78.8181ZM51.5297 83.7456C50.9042 83.9697 50.4144 84.3033 49.922 84.7472C52.0038 85.224 53.3129 85.9778 54.4814 87.8332C54.9609 88.5947 55.436 89.6734 55.2454 90.5904C55.1647 90.9786 54.9998 91.1505 54.666 91.3527C54.4128 91.5062 54.1297 91.6159 53.8599 91.7367L53.8796 91.8199C54.1257 91.9837 54.3651 92.1221 54.632 92.2505C55.3527 92.0096 55.9478 91.6879 56.29 90.9684C56.7249 90.0537 56.4357 88.8795 56.0914 87.9787C55.4778 86.3738 54.2122 84.7064 52.6032 83.9971C52.2509 83.8419 51.9153 83.7612 51.5297 83.7456ZM120.123 66.7162C119.803 66.8394 119.525 66.981 119.231 67.1583C121.004 67.6619 122.516 68.4719 123.44 70.1292C124.081 71.2778 124.433 72.83 124.068 74.1219C123.974 74.4537 123.199 75.4155 123.311 75.6354C123.464 75.6344 123.574 75.6079 123.719 75.5605C124.485 75.2225 125.105 74.8389 125.428 74.0229C125.9 72.8341 125.616 71.3539 125.095 70.2287C124.447 68.8264 123.232 67.4601 121.745 66.9335C121.214 66.7458 120.685 66.6812 120.123 66.7162ZM27.6807 68.8231C27.1153 69.0011 26.6047 69.2155 26.0968 69.5217C27.8254 69.6827 29.3356 70.3111 30.4538 71.6693C31.1245 72.4839 31.5394 73.3318 31.7645 74.3593C31.5758 74.9578 31.3247 75.3263 30.7489 75.6222C30.3408 75.8319 29.8787 76.0039 29.5051 76.268L30.8416 76.6541C31.5782 76.4197 32.1849 76.0542 32.5518 75.3441C32.9835 74.5087 32.8709 73.5414 32.5791 72.683C32.0901 71.245 30.9542 69.8156 29.5753 69.1369C28.9626 68.8354 28.3549 68.7364 27.6807 68.8231ZM126.898 74.6949C126.101 75.7208 125.203 76.6476 123.84 76.8168C122.902 76.933 122.044 76.6541 121.183 76.3172C120.277 76.8907 119.143 77.4603 118.411 78.2414L118.451 78.3159C120.826 78.9635 123.199 78.9315 125.38 77.682C126.245 77.1866 126.723 76.6404 126.978 75.6629C127.055 75.3687 127.081 75.1154 127.044 74.8141C126.957 74.6992 127.01 74.7328 126.898 74.6949ZM70.9489 37.8658C70.3196 38.2871 69.6555 38.7632 69.48 39.5504C69.3855 39.9744 69.5023 40.3751 69.7462 40.7274C70.3969 41.6669 71.7084 42.463 72.8366 42.6427C73.7618 42.7901 74.9967 42.7704 75.8492 42.3393L75.8779 42.2652L75.2755 41.8098C75.2295 41.3284 75.2202 40.8973 74.8265 40.5557C74.4899 40.2637 74.0142 40.2199 73.5874 40.2598C73.1494 40.3006 72.7522 40.4326 72.3561 40.6202C72.3604 41.043 72.4142 41.6428 72.1139 41.9895C72.0103 42.1091 71.9072 42.1741 71.7435 42.173C71.484 42.171 71.2714 41.9285 71.1137 41.7514C71.0702 41.0614 71.3289 38.2362 70.9639 37.8757C70.9597 37.8715 70.9539 37.869 70.9489 37.8658ZM76.1917 58.915C74.8784 59.917 73.4522 60.328 71.8018 60.1002C71.6767 60.0833 71.5523 60.0625 71.4284 60.0379C71.3047 60.0133 71.1818 59.9848 71.0598 59.9526C70.9378 59.9204 70.8169 59.8844 70.6971 59.8447C70.5773 59.805 70.4588 59.7617 70.3417 59.7147C70.2246 59.6677 70.1091 59.6171 69.9952 59.5629C69.8812 59.5088 69.7691 59.4511 69.6587 59.39C69.5483 59.3289 69.4399 59.2645 69.3335 59.1966C69.2271 59.1289 69.123 59.0579 69.021 58.9837C69.0124 59.3511 68.9953 59.7195 69.0178 60.0865C69.1182 60.2301 69.2149 60.3833 69.3264 60.5181C70.5274 61.4413 71.8869 61.8496 73.4017 61.6594C74.3969 61.5343 75.4386 61.2158 76.0766 60.3949C76.3041 60.1019 76.3863 59.7238 76.3472 59.3556C76.333 59.2216 76.2978 59.0874 76.2648 58.9569L76.1917 58.915ZM96.1244 43.7684C96.1004 44.5057 96.024 45.3232 96.1921 46.0436C97.4223 46.5955 98.5318 46.8894 99.8381 46.3857C100.04 46.3079 100.221 46.2068 100.405 46.0937C100.72 45.4759 100.566 44.4751 100.538 43.7882C98.8264 44.2421 97.8357 44.223 96.1244 43.7684ZM69.194 104.194C69.1053 104.808 69.1318 105.44 69.1392 106.06C70.0978 106.707 71.1011 107.288 72.0756 107.911C72.9446 108.467 73.7967 109.074 74.6869 109.594L74.6845 107.751C72.8712 106.541 70.9895 105.429 69.194 104.194ZM93.7884 84.8343C93.5276 85.1095 93.3325 85.3971 93.1535 85.7306C94.5869 86.7858 95.6507 87.2521 96.5816 88.8852C96.9086 89.4585 97.1311 90.3415 97.3647 90.7294C97.4364 90.8484 97.5084 90.8946 97.6471 90.8581C97.7642 90.8273 97.8994 90.7369 98.0075 90.6793L98.6781 90.3751C98.0472 88.3437 96.8776 86.259 94.9219 85.2316C94.5692 85.0464 94.1844 84.8928 93.7884 84.8343ZM77.4056 22.4987C76.4295 23.4446 75.2335 23.8133 73.8845 23.7964C72.527 23.7794 71.4152 23.2868 70.308 22.5367C70.3121 23.0223 70.3312 23.4604 70.4904 23.9262C71.2544 24.7752 72.5135 25.2179 73.6385 25.2718C74.7773 25.3262 76.1543 24.9831 77.019 24.2107C77.1528 24.0912 77.2696 23.9542 77.3847 23.8171C77.4319 23.3981 77.4982 22.9779 77.4543 22.5561L77.4056 22.4987ZM74.5468 62.6389C73.2743 62.9055 71.8997 63.042 70.6285 62.6718C70.5888 63.2742 70.3844 64.4364 70.8308 64.9079C70.882 64.962 70.9297 64.9915 70.9889 65.0326C72.0593 65.3931 73.2381 65.6083 74.2983 65.0641C74.4256 64.9981 74.5471 64.9228 74.6627 64.8381C74.7297 64.2809 74.9131 63.1686 74.6768 62.6538L74.5468 62.6389ZM81.2009 104.036C79.4085 105.176 77.6456 106.368 75.863 107.524C75.8339 107.955 75.6734 108.906 75.956 109.234C77.7785 108.196 79.4329 106.883 81.2437 105.827C81.2911 105.308 81.4308 104.558 81.2613 104.067L81.2009 104.036ZM94.8195 40.3696C94.7813 40.9464 94.8557 41.4153 95.2489 41.8709C95.8807 42.6028 97.2074 42.9004 98.1373 42.945C99.3321 43.0024 100.776 42.6289 101.671 41.8019C101.701 41.7742 101.73 41.7456 101.76 41.7174C101.949 41.3384 101.938 40.918 101.962 40.5035C100.235 41.3723 98.404 41.8548 96.512 41.229C95.9263 41.0353 95.3122 40.7422 94.8195 40.3696ZM46.2588 45.1363C46.2315 45.7305 46.0365 46.7995 46.47 47.2624C46.905 47.7268 47.7716 47.8195 48.3822 47.8136C49.067 47.8071 49.7417 47.6241 50.3156 47.2472C50.5188 46.9909 50.398 45.5315 50.3681 45.1447C49.0121 45.4289 47.6008 45.6061 46.2588 45.1363ZM44.582 41.6351L44.4859 42.4857C45.1151 43.4317 46.1006 44.0011 47.2049 44.2331C48.4569 44.4961 49.8179 44.1861 50.8735 43.4769C51.1398 43.2979 51.388 43.0782 51.6142 42.8516C51.759 42.5104 51.7089 42.0595 51.6844 41.6938C50.343 42.6547 48.9535 43.1817 47.2856 42.9016C46.3153 42.7388 45.2995 42.3225 44.582 41.6351ZM71.9639 26.3138C71.8874 26.958 71.8752 27.6034 71.9273 28.2499C72.5174 28.7639 73.211 29.0946 74.0121 29.0336C74.4913 28.9972 74.9592 28.8391 75.38 28.6115C75.7863 28.044 75.6134 27.0201 75.5552 26.3576C74.3094 26.5525 73.2037 26.5459 71.9639 26.3138ZM55.194 28.5049C54.4027 28.6619 53.7614 29.0959 53.3074 29.762C52.8181 30.4799 52.5166 31.5375 52.7392 32.3923C52.8641 32.8714 53.3492 33.3442 53.7734 33.5668L53.8676 33.5329L53.8963 33.3826C53.8837 32.0951 53.927 31.0524 54.904 30.0735C55.4071 29.5693 56.0614 29.1223 56.7069 28.8232C56.2073 28.6573 55.7279 28.4919 55.194 28.5049ZM76.3752 37.6659C76.3642 39.0504 76.3013 40.4557 76.3885 41.8374C76.7501 41.6019 77.0995 41.3616 77.4397 41.0961C77.7994 40.7316 78.0714 40.3739 78.0643 39.8363C78.0564 39.2247 77.6732 38.6757 77.2374 38.2762C76.9728 38.0336 76.6855 37.8443 76.3752 37.6659ZM73.1333 37.0892C72.8074 37.1501 72.4792 37.2062 72.1547 37.2743C72.2239 37.7427 72.2551 38.2127 72.289 38.6847C73.0766 38.486 73.7535 38.3671 74.5584 38.5722L75.2632 38.7846L75.2842 37.3001C74.5399 37.1374 73.8956 37.0216 73.1333 37.0892ZM91.1661 87.3382C91.1218 88.2876 91.1684 89.242 91.1159 90.1884C91.5514 89.901 92.0066 89.6264 92.4247 89.3152C92.7922 89.0548 93.1637 88.7983 93.5231 88.5266C92.7722 88.0491 92.017 87.6137 91.1661 87.3382ZM97.5062 57.3669C96.9057 57.6797 96.3642 58.0067 95.8398 58.4353L96.3334 58.9364C96.7205 59.0263 97.1176 59.1408 97.5106 59.1961C98.1472 59.0912 98.6176 58.8751 99.13 58.4798C98.612 58.0551 98.1159 57.6527 97.5062 57.3669ZM117.978 68.2788C117.93 69.2004 117.906 70.1113 117.968 71.0327C118.444 70.7501 118.911 70.4554 119.372 70.1487L120.347 69.4972C119.589 69.0017 118.841 68.5683 117.978 68.2788ZM98.6577 91.5065C98.277 91.7485 97.8982 91.9905 97.5042 92.2105C97.6159 92.7348 97.4975 94.6862 97.5008 94.6938L97.5591 94.6826C97.9994 94.4091 98.3983 94.1151 98.7932 93.7798C98.805 93.0468 98.838 92.3054 98.7477 91.5767L98.6577 91.5065ZM47.5284 58.6697L45.817 59.8522C46.3928 60.1437 46.9447 60.2885 47.5943 60.2752C48.1426 60.1798 48.654 60.0276 49.182 59.8548C48.7877 59.4491 48.0691 58.8255 47.5284 58.6697ZM91.2318 81.0038C91.1745 81.8626 91.1762 82.7214 91.237 83.58C91.6572 83.3276 92.0746 83.0707 92.4891 82.8092C92.7703 82.6291 93.0656 82.4575 93.332 82.2564C92.6948 81.7576 91.968 81.3391 91.2318 81.0038ZM71.2818 75.9721C70.8716 76.4093 70.4059 76.8071 69.9459 77.1917C70.4545 77.2391 70.9532 77.2544 71.4638 77.2529C71.9429 77.2497 72.425 77.2572 72.903 77.2273C72.372 76.7944 71.846 76.3623 71.2818 75.9721ZM96.0363 93.6205C95.516 93.9457 94.9585 94.2848 94.5169 94.7135L95.0447 94.97L96.0369 95.4119C96.0604 94.8345 96.1286 94.191 96.0363 93.6205ZM119.565 64.7301C119.079 64.9778 118.143 65.4209 118.013 65.997C117.986 66.1186 118.008 66.2396 118.025 66.3605L118.123 66.3379C118.631 65.9931 119.411 65.5857 119.731 65.056C119.737 64.9607 119.768 64.9089 119.702 64.8335C119.636 64.7583 119.663 64.7847 119.565 64.7301ZM65.0912 50.8086C65.1114 53.2049 65.0184 55.625 65.107 58.0174C65.1287 57.9596 65.1497 57.9016 65.1666 57.8422C65.3125 57.3321 65.2831 52.0712 65.2406 51.2947C65.2301 51.1012 65.1855 50.9768 65.0912 50.8086Z" fill="white" />
  <path d="M65.0928 50.8089C65.1871 50.9772 65.2317 51.1015 65.2422 51.2951C65.2846 52.0715 65.3141 57.3324 65.1682 57.8425C65.1512 57.9019 65.1303 57.9599 65.1086 58.0177C65.0199 55.6253 65.113 53.2052 65.0928 50.8089Z" fill="white" />
  <path d="M74.5474 100.729C74.9583 100.683 75.3903 100.669 75.7902 100.789C76.3157 100.948 76.5995 101.269 76.8569 101.733C76.837 101.993 76.8312 102.295 76.7159 102.532C76.5124 102.951 76.1133 103.095 75.7007 103.243C75.1536 103.288 74.6648 103.29 74.1597 103.034C73.7873 102.845 73.449 102.529 73.3341 102.117C73.2688 101.882 73.2876 101.625 73.4141 101.413C73.6538 101.012 74.1223 100.849 74.5474 100.729Z" fill="white" />
  <path fill-rule="evenodd" clip-rule="evenodd" d="M134.079 89.6837L75.5793 127.184C74.9243 127.604 74.0851 127.605 73.4282 127.188L15.9282 90.6885L18.0719 87.3114L74.4947 123.128L131.921 86.3162L134.079 89.6837Z" fill="white" />
  <path fill-rule="evenodd" clip-rule="evenodd" d="M92.0547 30.332L78.5547 39.332L77.4453 37.6679L90.9453 28.6679L92.0547 30.332ZM67.97 39.848L55.97 32.348L57.03 30.652L69.03 38.152L67.97 39.848ZM116.555 47.832L100.055 58.832C99.9305 58.9148 99.7892 58.9688 99.6414 58.9899L96.1414 59.4899C95.9058 59.5236 95.666 59.4721 95.465 59.3448L80.465 49.8448L81.5351 48.1551L96.2236 57.4579L99.134 57.0421L115.445 46.1679L116.555 47.832ZM66.0836 49.312L50.0836 60.812C49.9136 60.9342 49.7094 61 49.5 61H46C45.8106 61 45.625 60.9461 45.4649 60.8448L30.4649 51.3448L31.5351 49.6551L46.29 59H49.1779L64.9164 47.6879L66.0836 49.312ZM90.5603 66.3282L73.5603 77.8282C73.3949 77.9402 73.1997 78 73 78H69.5C69.3026 78 69.1096 77.9415 68.9453 77.832L53.9453 67.832L55.0547 66.1679L69.8028 76H72.6935L89.4397 64.6717L90.5603 66.3282Z" fill="white" />
</svg>