<?xml version="1.0"?>
<svg xmlns="http://www.w3.org/2000/svg" xmlns:xlink="http://www.w3.org/1999/xlink" version="1.1" xml:space="preserve">
  <defs>

    <symbol id="loader" width="100%" height="100%" viewBox="22 22 44 44">
      <circle cx="44" cy="44" r="20.2" fill="transparent" stroke="currentColor" stroke-width="4" />
    </symbol>

    <symbol id="telephone" width="100%" height="100%" viewBox="0 0 24 24">
      <path fill-rule="evenodd" clip-rule="evenodd" d="M20.5039 3.48801C18.2461 1.24044 15.2461 0 12.0508 0C5.46484 0 0.101563 5.33506 0.101563 11.8911C0.097656 13.987 0.648438 16.0324 1.69531 17.8367L0 24L6.33594 22.3435C8.07812 23.2923 10.0469 23.79 12.0469 23.7939H12.0508C18.6367 23.7939 23.9961 18.4588 24 11.8989C24 8.72197 22.7578 5.73558 20.5039 3.48801ZM12.0508 21.7835H12.0469C10.2656 21.7835 8.51562 21.3053 6.99219 20.407L6.62891 20.1931L2.86719 21.173L3.87109 17.5256L3.63672 17.1523C2.64063 15.5774 2.11719 13.7576 2.11719 11.8911C2.11719 6.44329 6.57422 2.01037 12.0547 2.01037C14.707 2.01037 17.1992 3.04083 19.0742 4.90732C20.9492 6.77771 21.9805 9.25859 21.9805 11.8989C21.9805 17.3506 17.5234 21.7835 12.0508 21.7835ZM17.4961 14.3798C17.1992 14.232 15.7305 13.5126 15.457 13.4154C15.1836 13.3143 14.9844 13.2677 14.7852 13.5632C14.5859 13.8626 14.0156 14.5314 13.8398 14.7297C13.668 14.9242 13.4922 14.9514 13.1953 14.8036C12.8945 14.6559 11.9336 14.3409 10.793 13.326C9.90625 12.5405 9.30469 11.5645 9.13281 11.269C8.95703 10.9695 9.11328 10.8101 9.26172 10.6623C9.39844 10.5301 9.5625 10.3163 9.71094 10.1413C9.85938 9.97019 9.91016 9.84576 10.0117 9.64744C10.1094 9.44913 10.0586 9.27414 9.98438 9.12638C9.91016 8.97861 9.3125 7.51264 9.0625 6.91769C8.82031 6.3383 8.57422 6.41996 8.39062 6.4083C8.21875 6.40052 8.01953 6.40052 7.82031 6.40052C7.62109 6.40052 7.29688 6.4744 7.02344 6.77382C6.75 7.06935 5.98047 7.78872 5.98047 9.25081C5.98047 10.7129 7.05078 12.1283 7.19922 12.3266C7.34766 12.5211 9.30469 15.523 12.3008 16.8101C13.0117 17.1173 13.5664 17.3001 14 17.4362C14.7148 17.6617 15.3672 17.6306 15.8828 17.5567C16.457 17.4712 17.6484 16.8373 17.8984 16.1413C18.1445 15.4491 18.1445 14.8542 18.0703 14.7297C17.9961 14.6053 17.7969 14.5314 17.4961 14.3798Z" fill="currentColor" />
    </symbol>

    <symbol id="email" width="100%" height="100%" viewBox="0 0 26 24">
      <path fill-rule="evenodd" clip-rule="evenodd" d="M0.0144043 1.84254C0.0144043 1.30495 0.455724 0.869141 1.00012 0.869141H25.0001C25.5445 0.869141 25.9858 1.30495 25.9858 1.84254V22.157C25.9858 22.6946 25.5445 23.1304 25.0001 23.1304H1.00012C0.455724 23.1304 0.0144043 22.6946 0.0144043 22.157V1.84254ZM1.98583 2.81594V5.79693L13.0001 12.7349L24.0144 5.79693V2.81594H1.98583ZM24.0144 8.10607L13.5302 14.7101C13.2069 14.9138 12.7933 14.9138 12.47 14.7101L1.98583 8.10607V21.1836H24.0144V8.10607Z" fill="currentColor" />
    </symbol>

    <symbol id="point" width="100%" height="100%" viewBox="0 0 24 26">
      <path fill-rule="evenodd" clip-rule="evenodd" d="M11.9998 1.9851C7.7727 1.9851 4.41406 5.50222 4.41406 8.99939C4.41406 13.3126 6.42156 17.1054 8.50153 19.868C9.53555 21.2414 10.5708 22.3378 11.3465 23.0897C11.5942 23.3297 11.8148 23.5341 11.9998 23.7005C12.1847 23.5341 12.4053 23.3297 12.653 23.0897C13.4287 22.3378 14.464 21.2414 15.498 19.868C17.578 17.1054 19.5855 13.3126 19.5855 8.99939C19.5855 5.50222 16.2268 1.9851 11.9998 1.9851ZM11.9998 24.9994C11.3888 25.773 11.3886 25.7727 11.3882 25.7725L11.3875 25.7719L11.3853 25.7701L11.3786 25.7648L11.3561 25.7467C11.3371 25.7314 11.3102 25.7095 11.2759 25.6812C11.2074 25.6246 11.1093 25.5423 10.9859 25.4354C10.7392 25.2215 10.3907 24.9087 9.97445 24.5053C9.143 23.6994 8.03542 22.5266 6.92658 21.0538C4.72084 18.1241 2.44263 13.9169 2.44263 8.99939C2.44263 4.33973 6.7591 0.0136719 11.9998 0.0136719C17.2404 0.0136719 21.5569 4.33973 21.5569 8.99939C21.5569 13.9169 19.2787 18.1241 17.073 21.0538C15.9641 22.5266 14.8565 23.6994 14.0251 24.5053C13.6088 24.9087 13.2604 25.2215 13.0136 25.4354C12.8902 25.5423 12.7921 25.6246 12.7236 25.6812C12.6893 25.7095 12.6624 25.7314 12.6434 25.7467L12.6209 25.7648L12.6143 25.7701L12.6121 25.7719L12.6113 25.7725C12.611 25.7727 12.6107 25.773 11.9998 24.9994ZM11.9998 24.9994L12.6107 25.773C12.2525 26.0558 11.747 26.0558 11.3888 25.773L11.9998 24.9994ZM11.9998 6.27081C10.2004 6.27081 8.69977 7.88259 8.69977 9.57081C8.69977 11.259 10.2004 12.8708 11.9998 12.8708C13.7991 12.8708 15.2998 11.259 15.2998 9.57081C15.2998 7.88259 13.7991 6.27081 11.9998 6.27081ZM6.72834 9.57081C6.72834 6.84076 9.06525 4.29939 11.9998 4.29939C14.9343 4.29939 17.2712 6.84076 17.2712 9.57081C17.2712 12.3009 14.9343 14.8422 11.9998 14.8422C9.06525 14.8422 6.72834 12.3009 6.72834 9.57081Z" fill="currentColor" />
    </symbol>

    <symbol id="burger" width="100%" height="100%" viewBox="0 0 24 24">
      <path d="M0 3.42859H24M0 12H24M0 20.5714H24" fill="transparent" stroke="currentColor" stroke-width="1.2" />
    </symbol>

    <symbol id="close" width="100%" height="100%" viewBox="0 0 26 26">
      <path d="M1 1L13 13M13 13L25 25M13 13L25 1M13 13L1 25" fill="transparent" stroke="currentColor" />
    </symbol>

    <symbol id="lightning" width="100%" height="100%" viewBox="0 0 16 16">
      <path d="M15 1H1V15H15V1Z" fill="transparent" stroke="currentColor" stroke-miterlimit="10" />
      <path d="M11.1812 7.35966L8.00115 6.72633V4.17966L4.82115 8.63966L8.00115 9.27299V11.8197L11.1812 7.35966Z" fill="transparent" stroke="currentColor" stroke-miterlimit="10" />
    </symbol>

    <symbol id="shield" width="100%" height="100%" viewBox="0 0 14 16">
      <path d="M6 8.5V4M8 8.5V6.82M8 6.82V4.5H9.1C9.1 4.5 10.2 4.58 10.2 5.7C10.2 6.82 9.1 6.82 9.1 6.82H8ZM7.5 15C5.94946 14.6734 4.55396 13.7889 3.55113 12.497C2.5483 11.2051 2.00014 9.58581 2 7.91478V3.38C2 3.38 3.83594 3.27603 4.90883 2.82609C6.03932 2.35199 7.5 1 7.5 1C7.5 1 8.94024 2.27217 10.0921 2.82609C11.2439 3.38 13 3.38 13 3.38V7.91478C12.9999 9.58581 12.4517 11.2051 11.4489 12.497C10.446 13.7889 9.05055 14.6734 7.5 15ZM8.6 12.0011C8.6 10.9552 7.5 10 7.5 10C7.5 10 6.4 11 6.4 12.0011C6.4 12.9263 6.89249 13.32 7.5 13.32C8.10751 13.32 8.6 12.9263 8.6 12.0011Z" fill="transparent" stroke="currentColor" />
    </symbol>

    <symbol id="arrows" width="100%" height="100%" viewBox="0 0 16 16">
      <path d="M1 15L15 1M1.05274 8.77019V14.9442H7.22674M14.9458 7.23003V1.05603H8.77183" fill="transparent" stroke="currentColor" stroke-miterlimit="10" />
    </symbol>

    <symbol id="filter" width="100%" height="100%" viewBox="0 0 14 15">
      <path d="M0 2.33333H9.66667M12 2.33333H14M0 7.54688H2M4.33333 7.54688H14M0 12.6406H6M8 12.6406H14M12.0258 2.27333C12.0258 2.97658 11.4557 3.54667 10.7525 3.54667C10.0493 3.54667 9.47917 2.97658 9.47917 2.27333C9.47917 1.57009 10.0493 1 10.7525 1C11.4557 1 12.0258 1.57009 12.0258 2.27333ZM4.45292 7.48688C4.45292 8.19012 3.88283 8.76021 3.17958 8.76021C2.47634 8.76021 1.90625 8.19012 1.90625 7.48688C1.90625 6.78363 2.47634 6.21354 3.17958 6.21354C3.88283 6.21354 4.45292 6.78363 4.45292 7.48688ZM8.23938 12.7004C8.23938 13.4037 7.66928 13.9738 6.96604 13.9738C6.2628 13.9738 5.69271 13.4037 5.69271 12.7004C5.69271 11.9972 6.2628 11.4271 6.96604 11.4271C7.66928 11.4271 8.23938 11.9972 8.23938 12.7004Z" fill="transparent" stroke="currentColor" stroke-miterlimit="10" />
    </symbol>

    <symbol id="sensor" width="100%" height="100%" viewBox="0 0 14 16">
      <path d="M6.97349 7.52529C7.67945 7.52529 8.25173 6.96754 8.25173 6.27951C8.25173 5.59148 7.67945 5.03372 6.97349 5.03372C6.26754 5.03372 5.69526 5.59148 5.69526 6.27951C5.69526 6.96754 6.26754 7.52529 6.97349 7.52529ZM6.97349 7.52529V15M6.97349 15H9.52997M6.97349 15H4.41702M9.42364 3.00294C9.79852 3.3963 10.0959 3.86331 10.2988 4.37731C10.5017 4.8913 10.6061 5.44222 10.6061 5.99858C10.6061 6.55494 10.5017 7.10586 10.2988 7.61985C10.0959 8.13385 9.79852 8.60086 9.42364 8.99421M11.3284 1C12.591 2.32619 13.3002 4.12429 13.3002 5.99909C13.3002 7.87389 12.591 9.67198 11.3284 10.9982M4.57431 3.0031C4.19943 3.39645 3.90205 3.86346 3.69917 4.37746C3.49628 4.89146 3.39185 5.44237 3.39185 5.99873C3.39185 6.5551 3.49628 7.10601 3.69917 7.62001C3.90205 8.13401 4.19943 8.60102 4.57431 8.99437M2.67199 1C1.40942 2.32619 0.700195 4.12429 0.700195 5.99909C0.700195 7.87389 1.40942 9.67198 2.672 10.9982" fill="transparent" stroke="currentColor" stroke-miterlimit="10" />
    </symbol>

    <symbol id="wi-fi" width="100%" height="100%" viewBox="0 0 16 14">
      <path d="M5.11836 8.33695C5.49684 8.06794 5.94619 7.85456 6.44075 7.70897C6.93531 7.56338 7.46539 7.48845 8.00071 7.48845C8.53604 7.48845 9.06612 7.56338 9.56068 7.70897C10.0552 7.85456 10.5046 8.06794 10.8831 8.33695M2.64634 5.79099C4.06641 4.70438 5.99178 4.094 7.99928 4.094C10.0068 4.094 11.9322 4.70438 13.3522 5.79099M1 3.24569C1.91898 2.43871 3.01021 1.79854 4.21131 1.36177C5.41241 0.925004 6.69983 0.700195 8 0.700195C9.30017 0.700195 10.5876 0.925004 11.7887 1.36177C12.9898 1.79854 14.081 2.43871 15 3.24569M9.23529 12.0274C9.23529 12.7304 8.68223 13.3002 8 13.3002C7.31777 13.3002 6.76471 12.7304 6.76471 12.0274C6.76471 11.3245 7.31777 10.7547 8 10.7547C8.68223 10.7547 9.23529 11.3245 9.23529 12.0274Z" fill="transparent" stroke="currentColor" stroke-miterlimit="10" />
    </symbol>

    <symbol id="screen" width="100%" height="100%" viewBox="0 0 16 16">
      <path d="M1 9.74996V12.5499H15V9.74996M1 9.74996V1H15V9.74996M1 9.74996H15M2.61501 15H13.3842M8.00008 12.55V14.9998M12.9 11.15H13.6" fill="transparent" stroke="currentColor" />
    </symbol>

    <symbol id="arrows-to" width="100%" height="100%" viewBox="0 0 29 29">
      <path d="M27 2.17188L14.5 14.1719L2 2.17188M27 14.1719L14.5 26.1719L2 14.1719" fill="transparent" stroke="currentColor" stroke-width="4" stroke-linecap="round" stroke-linejoin="round" />
    </symbol>

    <symbol id="checkbox" width="100%" height="100%" viewBox="0 0 17 14">
      <path d="M1.23242 7.5L6.23801 12.5L16.2492 2.5" fill="transparent" stroke="currentColor" stroke-miterlimit="10" />
    </symbol>

    <symbol id="arrow-left" width="100%" height="100%" viewBox="0 0 30 30">
      <path fill-rule="evenodd" clip-rule="evenodd" d="M13.3137 0.596608L0.585787 13.5597C-0.195263 14.3551 -0.195263 15.6449 0.585787 16.4403L13.3137 29.4034C14.0948 30.1989 15.3611 30.1989 16.1421 29.4034C16.9232 28.6079 16.9232 27.3182 16.1421 26.5227L6.82843 17.0369L30 17.0369V12.9631L6.82843 12.9631L16.1421 3.47729C16.9232 2.68181 16.9232 1.39209 16.1421 0.596608C15.3611 -0.198869 14.0948 -0.198869 13.3137 0.596608Z" fill="currentColor" />
    </symbol>

    <symbol id="arrow-right" width="100%" height="100%" viewBox="0 0 30 30">
      <path fill-rule="evenodd" clip-rule="evenodd" d="M16.6863 0.596608L29.4142 13.5597C30.1953 14.3551 30.1953 15.6449 29.4142 16.4403L16.6863 29.4034C15.9052 30.1989 14.6389 30.1989 13.8579 29.4034C13.0768 28.6079 13.0768 27.3182 13.8579 26.5227L23.1716 17.0369L0 17.0369V12.9631L23.1716 12.9631L13.8579 3.47729C13.0768 2.68181 13.0768 1.39209 13.8579 0.596608C14.6389 -0.198869 15.9052 -0.198869 16.6863 0.596608Z" fill="currentColor" />
    </symbol>

  </defs>
</svg>