<?xml version="1.0"?>
<svg xmlns="http://www.w3.org/2000/svg" xmlns:xlink="http://www.w3.org/1999/xlink" version="1.1" xml:space="preserve">
  <defs>

    <symbol id="loader" width="100%" height="100%" viewBox="22 22 44 44">
      <circle cx="44" cy="44" r="20.2" fill="transparent" stroke="currentColor" stroke-width="4" />
    </symbol>

    <symbol id="telephone" width="100%" height="100%" viewBox="0 0 24 24">
      <path fill-rule="evenodd" clip-rule="evenodd" d="M20.5039 3.48801C18.2461 1.24044 15.2461 0 12.0508 0C5.46484 0 0.101563 5.33506 0.101563 11.8911C0.097656 13.987 0.648438 16.0324 1.69531 17.8367L0 24L6.33594 22.3435C8.07812 23.2923 10.0469 23.79 12.0469 23.7939H12.0508C18.6367 23.7939 23.9961 18.4588 24 11.8989C24 8.72197 22.7578 5.73558 20.5039 3.48801ZM12.0508 21.7835H12.0469C10.2656 21.7835 8.51562 21.3053 6.99219 20.407L6.62891 20.1931L2.86719 21.173L3.87109 17.5256L3.63672 17.1523C2.64063 15.5774 2.11719 13.7576 2.11719 11.8911C2.11719 6.44329 6.57422 2.01037 12.0547 2.01037C14.707 2.01037 17.1992 3.04083 19.0742 4.90732C20.9492 6.77771 21.9805 9.25859 21.9805 11.8989C21.9805 17.3506 17.5234 21.7835 12.0508 21.7835ZM17.4961 14.3798C17.1992 14.232 15.7305 13.5126 15.457 13.4154C15.1836 13.3143 14.9844 13.2677 14.7852 13.5632C14.5859 13.8626 14.0156 14.5314 13.8398 14.7297C13.668 14.9242 13.4922 14.9514 13.1953 14.8036C12.8945 14.6559 11.9336 14.3409 10.793 13.326C9.90625 12.5405 9.30469 11.5645 9.13281 11.269C8.95703 10.9695 9.11328 10.8101 9.26172 10.6623C9.39844 10.5301 9.5625 10.3163 9.71094 10.1413C9.85938 9.97019 9.91016 9.84576 10.0117 9.64744C10.1094 9.44913 10.0586 9.27414 9.98438 9.12638C9.91016 8.97861 9.3125 7.51264 9.0625 6.91769C8.82031 6.3383 8.57422 6.41996 8.39062 6.4083C8.21875 6.40052 8.01953 6.40052 7.82031 6.40052C7.62109 6.40052 7.29688 6.4744 7.02344 6.77382C6.75 7.06935 5.98047 7.78872 5.98047 9.25081C5.98047 10.7129 7.05078 12.1283 7.19922 12.3266C7.34766 12.5211 9.30469 15.523 12.3008 16.8101C13.0117 17.1173 13.5664 17.3001 14 17.4362C14.7148 17.6617 15.3672 17.6306 15.8828 17.5567C16.457 17.4712 17.6484 16.8373 17.8984 16.1413C18.1445 15.4491 18.1445 14.8542 18.0703 14.7297C17.9961 14.6053 17.7969 14.5314 17.4961 14.3798Z" fill="currentColor" />
    </symbol>

    <symbol id="email" width="100%" height="100%" viewBox="0 0 26 24">
      <path fill-rule="evenodd" clip-rule="evenodd" d="M0.0144043 1.84254C0.0144043 1.30495 0.455724 0.869141 1.00012 0.869141H25.0001C25.5445 0.869141 25.9858 1.30495 25.9858 1.84254V22.157C25.9858 22.6946 25.5445 23.1304 25.0001 23.1304H1.00012C0.455724 23.1304 0.0144043 22.6946 0.0144043 22.157V1.84254ZM1.98583 2.81594V5.79693L13.0001 12.7349L24.0144 5.79693V2.81594H1.98583ZM24.0144 8.10607L13.5302 14.7101C13.2069 14.9138 12.7933 14.9138 12.47 14.7101L1.98583 8.10607V21.1836H24.0144V8.10607Z" fill="currentColor" />
    </symbol>

    <symbol id="point" width="100%" height="100%" viewBox="0 0 24 26">
      <path fill-rule="evenodd" clip-rule="evenodd" d="M11.9998 1.9851C7.7727 1.9851 4.41406 5.50222 4.41406 8.99939C4.41406 13.3126 6.42156 17.1054 8.50153 19.868C9.53555 21.2414 10.5708 22.3378 11.3465 23.0897C11.5942 23.3297 11.8148 23.5341 11.9998 23.7005C12.1847 23.5341 12.4053 23.3297 12.653 23.0897C13.4287 22.3378 14.464 21.2414 15.498 19.868C17.578 17.1054 19.5855 13.3126 19.5855 8.99939C19.5855 5.50222 16.2268 1.9851 11.9998 1.9851ZM11.9998 24.9994C11.3888 25.773 11.3886 25.7727 11.3882 25.7725L11.3875 25.7719L11.3853 25.7701L11.3786 25.7648L11.3561 25.7467C11.3371 25.7314 11.3102 25.7095 11.2759 25.6812C11.2074 25.6246 11.1093 25.5423 10.9859 25.4354C10.7392 25.2215 10.3907 24.9087 9.97445 24.5053C9.143 23.6994 8.03542 22.5266 6.92658 21.0538C4.72084 18.1241 2.44263 13.9169 2.44263 8.99939C2.44263 4.33973 6.7591 0.0136719 11.9998 0.0136719C17.2404 0.0136719 21.5569 4.33973 21.5569 8.99939C21.5569 13.9169 19.2787 18.1241 17.073 21.0538C15.9641 22.5266 14.8565 23.6994 14.0251 24.5053C13.6088 24.9087 13.2604 25.2215 13.0136 25.4354C12.8902 25.5423 12.7921 25.6246 12.7236 25.6812C12.6893 25.7095 12.6624 25.7314 12.6434 25.7467L12.6209 25.7648L12.6143 25.7701L12.6121 25.7719L12.6113 25.7725C12.611 25.7727 12.6107 25.773 11.9998 24.9994ZM11.9998 24.9994L12.6107 25.773C12.2525 26.0558 11.747 26.0558 11.3888 25.773L11.9998 24.9994ZM11.9998 6.27081C10.2004 6.27081 8.69977 7.88259 8.69977 9.57081C8.69977 11.259 10.2004 12.8708 11.9998 12.8708C13.7991 12.8708 15.2998 11.259 15.2998 9.57081C15.2998 7.88259 13.7991 6.27081 11.9998 6.27081ZM6.72834 9.57081C6.72834 6.84076 9.06525 4.29939 11.9998 4.29939C14.9343 4.29939 17.2712 6.84076 17.2712 9.57081C17.2712 12.3009 14.9343 14.8422 11.9998 14.8422C9.06525 14.8422 6.72834 12.3009 6.72834 9.57081Z" fill="currentColor" />
    </symbol>

    <symbol id="burger" width="100%" height="100%" viewBox="0 0 24 24">
      <path d="M0 3.42859H24M0 12H24M0 20.5714H24" fill="transparent" stroke="currentColor" stroke-width="1.2" />
    </symbol>

    <symbol id="close" width="100%" height="100%" viewBox="0 0 26 26">
      <path d="M1 1L13 13M13 13L25 25M13 13L25 1M13 13L1 25" fill="transparent" stroke="currentColor" />
    </symbol>

  </defs>
</svg>